<svg xmlns="http://www.w3.org/2000/svg" xmlns:xlink="http://www.w3.org/1999/xlink" width="76" zoomAndPan="magnify" viewBox="0 0 56.879997 56.999997" height="76" preserveAspectRatio="xMidYMid meet" version="1.0"><defs><clipPath id="2179156041"><path d="M 0 0.0585938 L 56.761719 0.0585938 L 56.761719 56.9375 L 0 56.9375 Z M 0 0.0585938 " clip-rule="nonzero"/></clipPath><clipPath id="4cb1171d90"><path d="M 9.730469 0.0585938 L 47.152344 0.0585938 C 49.730469 0.0585938 52.207031 1.085938 54.03125 2.910156 C 55.855469 4.734375 56.878906 7.210938 56.878906 9.789062 L 56.878906 47.210938 C 56.878906 49.789062 55.855469 52.265625 54.03125 54.089844 C 52.207031 55.914062 49.730469 56.941406 47.152344 56.941406 L 9.730469 56.941406 C 7.148438 56.941406 4.675781 55.914062 2.851562 54.089844 C 1.023438 52.265625 0 49.789062 0 47.210938 L 0 9.789062 C 0 7.210938 1.023438 4.734375 2.851562 2.910156 C 4.675781 1.085938 7.148438 0.0585938 9.730469 0.0585938 Z M 9.730469 0.0585938 " clip-rule="nonzero"/></clipPath><clipPath id="bf3a67db22"><path d="M 17.460938 18 L 39 18 L 39 51 L 17.460938 51 Z M 17.460938 18 " clip-rule="nonzero"/></clipPath><clipPath id="a784cc4460"><path d="M 22 5.746094 L 34 5.746094 L 34 17 L 22 17 Z M 22 5.746094 " clip-rule="nonzero"/></clipPath></defs><g clip-path="url(#2179156041)"><g clip-path="url(#4cb1171d90)"><path fill="#fff5e0" d="M 0 0.0585938 L 56.878906 0.0585938 L 56.878906 56.941406 L 0 56.941406 Z M 0 0.0585938 " fill-opacity="1" fill-rule="nonzero"/></g></g><g clip-path="url(#bf3a67db22)"><path fill="#ffac02" d="M 17.457031 31.917969 C 17.902344 31.019531 18.128906 30.046875 18.445312 29.101562 C 19.460938 26.058594 20.449219 23.003906 21.449219 19.953125 C 21.8125 18.855469 22.457031 18.324219 23.597656 18.3125 C 26.625 18.285156 29.65625 18.273438 32.6875 18.292969 C 33.90625 18.300781 34.59375 18.863281 34.976562 20.03125 C 36.25 23.878906 37.492188 27.730469 38.792969 31.566406 C 39.414062 33.394531 38.019531 34.664062 36.652344 34.402344 C 35.902344 34.257812 35.417969 33.796875 35.152344 33.105469 C 34.820312 32.25 34.507812 31.386719 34.1875 30.527344 C 34.144531 30.527344 34.097656 30.53125 34.046875 30.53125 C 34.046875 30.828125 34.046875 31.121094 34.046875 31.414062 C 34.046875 36.878906 34.046875 42.34375 34.054688 47.804688 C 34.054688 48.277344 34.007812 48.730469 33.808594 49.15625 C 33.300781 50.25 32.097656 50.886719 30.953125 50.667969 C 29.734375 50.4375 28.808594 49.375 28.792969 48.113281 C 28.773438 46.308594 28.785156 44.503906 28.785156 42.699219 C 28.785156 40.945312 28.765625 39.191406 28.800781 37.4375 C 28.808594 36.964844 28.578125 36.976562 28.257812 36.992188 C 27.945312 37.007812 27.617188 36.878906 27.621094 37.445312 C 27.644531 40.871094 27.632812 44.296875 27.632812 47.726562 C 27.628906 49.128906 27.070312 50.0625 25.972656 50.503906 C 24.175781 51.226562 22.367188 49.914062 22.347656 47.851562 C 22.332031 46.246094 22.347656 44.640625 22.347656 43.035156 C 22.34375 38.996094 22.339844 34.953125 22.335938 30.914062 C 22.335938 30.773438 22.335938 30.632812 22.25 30.472656 C 21.90625 31.386719 21.585938 32.308594 21.21875 33.210938 C 20.898438 33.980469 20.296875 34.410156 19.453125 34.429688 C 18.609375 34.441406 18.011719 34.03125 17.625 33.289062 C 17.578125 33.195312 17.609375 33.042969 17.457031 33.011719 C 17.457031 32.648438 17.457031 32.28125 17.457031 31.917969 " fill-opacity="1" fill-rule="nonzero"/></g><g clip-path="url(#a784cc4460)"><path fill="#ffac02" d="M 28.265625 5.789062 C 31.375 5.789062 33.898438 8.277344 33.925781 11.351562 C 33.949219 14.410156 31.347656 16.984375 28.253906 16.96875 C 25.113281 16.957031 22.613281 14.457031 22.621094 11.339844 C 22.628906 8.257812 25.140625 5.789062 28.265625 5.789062 " fill-opacity="1" fill-rule="nonzero"/></g></svg>