<svg xmlns="http://www.w3.org/2000/svg" xmlns:xlink="http://www.w3.org/1999/xlink" width="76" zoomAndPan="magnify" viewBox="0 0 56.879997 56.999997" height="76" preserveAspectRatio="xMidYMid meet" version="1.0"><defs><clipPath id="e23da633f9"><path d="M 0 0.0585938 L 56.761719 0.0585938 L 56.761719 56.9375 L 0 56.9375 Z M 0 0.0585938 " clip-rule="nonzero"/></clipPath><clipPath id="ae2fdc0beb"><path d="M 9.730469 0.0585938 L 47.152344 0.0585938 C 49.730469 0.0585938 52.207031 1.085938 54.03125 2.910156 C 55.855469 4.734375 56.878906 7.210938 56.878906 9.789062 L 56.878906 47.210938 C 56.878906 49.789062 55.855469 52.265625 54.03125 54.089844 C 52.207031 55.914062 49.730469 56.941406 47.152344 56.941406 L 9.730469 56.941406 C 7.148438 56.941406 4.675781 55.914062 2.851562 54.089844 C 1.023438 52.265625 0 49.789062 0 47.210938 L 0 9.789062 C 0 7.210938 1.023438 4.734375 2.851562 2.910156 C 4.675781 1.085938 7.148438 0.0585938 9.730469 0.0585938 Z M 9.730469 0.0585938 " clip-rule="nonzero"/></clipPath><clipPath id="aa6895d53c"><path d="M 19.425781 29.484375 L 24.507812 29.484375 L 24.507812 49.699219 L 19.425781 49.699219 Z M 19.425781 29.484375 " clip-rule="nonzero"/></clipPath><clipPath id="5aa10785f0"><path d="M 17.332031 7.066406 L 39.53125 7.066406 L 39.53125 49.699219 L 17.332031 49.699219 Z M 17.332031 7.066406 " clip-rule="nonzero"/></clipPath></defs><g clip-path="url(#e23da633f9)"><g clip-path="url(#ae2fdc0beb)"><path fill="#eefbe7" d="M 0 0.0585938 L 56.878906 0.0585938 L 56.878906 56.941406 L 0 56.941406 Z M 0 0.0585938 " fill-opacity="1" fill-rule="nonzero"/></g></g><g clip-path="url(#aa6895d53c)"><path fill="#71dd37" d="M 22.773438 31.609375 L 22.773438 32.199219 C 22.773438 32.636719 23.160156 32.980469 23.613281 32.90625 C 23.964844 32.851562 24.210938 32.519531 24.210938 32.160156 L 24.210938 31.554688 C 24.210938 30.78125 23.929688 30.074219 23.464844 29.53125 L 22.359375 30.480469 C 22.617188 30.785156 22.773438 31.179688 22.773438 31.609375 Z M 20.765625 31.285156 C 20.898438 31.28125 21.027344 31.261719 21.160156 31.230469 L 21.160156 49.300781 C 21.160156 49.652344 20.875 49.9375 20.523438 49.9375 L 20.355469 49.9375 C 20.003906 49.9375 19.722656 49.652344 19.722656 49.300781 L 19.722656 30.980469 C 20.035156 31.1875 20.398438 31.289062 20.765625 31.285156 " fill-opacity="1" fill-rule="nonzero"/></g><g clip-path="url(#5aa10785f0)"><path fill="#71dd37" d="M 39.109375 26.363281 C 38.667969 25.246094 37.800781 24.386719 37.070312 23.460938 C 34.726562 20.484375 32.382812 17.507812 30.042969 14.53125 C 28.757812 12.902344 26.394531 12.621094 24.765625 13.90625 C 23.453125 14.9375 23.019531 16.671875 23.566406 18.15625 L 22.820312 25.101562 C 22.8125 25.167969 22.777344 25.230469 22.726562 25.273438 L 19.527344 28.027344 C 18.75 28.691406 18.664062 29.863281 19.332031 30.640625 C 19.445312 30.773438 19.578125 30.886719 19.722656 30.980469 C 20.035156 31.1875 20.398438 31.289062 20.765625 31.285156 C 20.898438 31.28125 21.027344 31.261719 21.160156 31.230469 C 21.441406 31.164062 21.710938 31.039062 21.945312 30.835938 L 22.359375 30.480469 L 23.464844 29.53125 L 25.144531 28.085938 C 25.914062 27.421875 26.398438 26.503906 26.507812 25.492188 C 26.507812 25.492188 26.648438 23.582031 26.730469 22.472656 L 31.949219 29.101562 C 32.207031 29.429688 32.5625 29.632812 32.941406 29.710938 L 32.933594 29.71875 L 34.152344 47.691406 C 34.238281 48.953125 35.289062 49.9375 36.554688 49.9375 C 37.859375 49.9375 38.929688 48.898438 38.964844 47.59375 C 38.972656 47.3125 38.976562 47.027344 38.988281 46.742188 C 39.082031 43.136719 39.191406 39.53125 39.289062 35.925781 C 39.335938 34.230469 39.320312 32.523438 39.441406 30.832031 C 39.550781 29.359375 39.664062 27.765625 39.109375 26.363281 Z M 20.09375 14.5625 C 18.066406 13.976562 16.898438 11.855469 17.484375 9.828125 C 18.074219 7.800781 20.191406 6.632812 22.222656 7.21875 C 24.25 7.804688 25.417969 9.925781 24.832031 11.953125 C 24.246094 13.984375 22.125 15.152344 20.09375 14.5625 " fill-opacity="1" fill-rule="nonzero"/></g></svg>