<svg xmlns="http://www.w3.org/2000/svg" xmlns:xlink="http://www.w3.org/1999/xlink" width="76" zoomAndPan="magnify" viewBox="0 0 56.879997 56.999997" height="76" preserveAspectRatio="xMidYMid meet" version="1.0"><defs><clipPath id="766d99924a"><path d="M 0 0.0585938 L 56.761719 0.0585938 L 56.761719 56.9375 L 0 56.9375 Z M 0 0.0585938 " clip-rule="nonzero"/></clipPath><clipPath id="3837e49684"><path d="M 9.730469 0.0585938 L 47.152344 0.0585938 C 49.730469 0.0585938 52.207031 1.085938 54.03125 2.910156 C 55.855469 4.734375 56.878906 7.210938 56.878906 9.789062 L 56.878906 47.210938 C 56.878906 49.789062 55.855469 52.265625 54.03125 54.089844 C 52.207031 55.914062 49.730469 56.941406 47.152344 56.941406 L 9.730469 56.941406 C 7.148438 56.941406 4.675781 55.914062 2.851562 54.089844 C 1.023438 52.265625 0 49.789062 0 47.210938 L 0 9.789062 C 0 7.210938 1.023438 4.734375 2.851562 2.910156 C 4.675781 1.085938 7.148438 0.0585938 9.730469 0.0585938 Z M 9.730469 0.0585938 " clip-rule="nonzero"/></clipPath><clipPath id="aec7e2733a"><path d="M 11.492188 11.4375 L 45.351562 11.4375 L 45.351562 30 L 11.492188 30 Z M 11.492188 11.4375 " clip-rule="nonzero"/></clipPath><clipPath id="426c7dad45"><path d="M 11.492188 26.171875 L 45 26.171875 L 45 45.558594 L 11.492188 45.558594 Z M 11.492188 26.171875 " clip-rule="nonzero"/></clipPath></defs><g clip-path="url(#766d99924a)"><g clip-path="url(#3837e49684)"><path fill="#eefbe7" d="M 0 0.0585938 L 56.878906 0.0585938 L 56.878906 56.941406 L 0 56.941406 Z M 0 0.0585938 " fill-opacity="1" fill-rule="nonzero"/></g></g><path fill="#71dd37" d="M 39.308594 24.867188 L 34.589844 16.691406 C 34.472656 16.492188 34.21875 16.421875 34.015625 16.539062 L 18.609375 25.433594 L 26.4375 25.433594 L 26.636719 25.3125 C 26.710938 25.253906 26.75 25.164062 26.742188 25.070312 L 26.316406 22.648438 C 26.304688 22.511719 26.375 22.398438 26.480469 22.339844 C 26.582031 22.28125 26.714844 22.273438 26.832031 22.347656 L 28.707031 23.933594 C 28.789062 23.984375 28.882812 24 28.976562 23.960938 L 31.113281 22.800781 C 31.367188 22.699219 31.628906 22.9375 31.554688 23.195312 L 30.675781 25.433594 L 39.160156 25.433594 C 39.355469 25.320312 39.425781 25.070312 39.3125 24.867188 L 39.308594 24.867188 " fill-opacity="1" fill-rule="nonzero"/><g clip-path="url(#aec7e2733a)"><path fill="#71dd37" d="M 45.238281 21.433594 L 40.527344 13.273438 C 40.292969 12.867188 39.769531 12.722656 39.355469 12.960938 C 37.925781 13.789062 36.089844 13.296875 35.265625 11.863281 C 35.027344 11.457031 34.5 11.316406 34.09375 11.550781 L 13.328125 23.539062 C 12.917969 23.773438 12.777344 24.300781 13.015625 24.707031 C 13.84375 26.144531 13.347656 27.972656 11.917969 28.808594 C 11.660156 28.953125 11.511719 29.207031 11.492188 29.480469 C 11.761719 29.359375 12.066406 29.289062 12.382812 29.289062 C 13.328125 29.289062 14.09375 28.523438 14.09375 27.578125 C 14.09375 26.394531 15.054688 25.433594 16.238281 25.433594 L 16.453125 25.433594 C 16.589844 25.203125 16.792969 25 17.046875 24.855469 L 33.375 15.425781 C 34.191406 14.960938 35.234375 15.238281 35.703125 16.050781 L 40.421875 24.222656 C 40.648438 24.617188 40.699219 25.070312 40.601562 25.472656 C 41.601562 25.652344 42.351562 26.527344 42.351562 27.578125 C 42.351562 27.878906 42.4375 28.164062 42.574219 28.414062 L 43.511719 27.867188 C 43.921875 27.632812 44.0625 27.105469 43.828125 26.699219 C 43 25.265625 43.488281 23.433594 44.921875 22.601562 C 45.335938 22.367188 45.472656 21.84375 45.238281 21.433594 " fill-opacity="1" fill-rule="nonzero"/></g><path fill="#71dd37" d="M 32.191406 35.539062 L 30.273438 37.0625 C 30.207031 37.128906 30.179688 37.226562 30.191406 37.320312 L 30.859375 39.636719 C 30.898438 39.847656 30.726562 40.023438 30.535156 40.023438 C 30.484375 40.023438 30.433594 40.011719 30.378906 39.984375 L 28.359375 38.652344 C 28.316406 38.628906 28.273438 38.617188 28.226562 38.617188 C 28.179688 38.617188 28.132812 38.628906 28.089844 38.652344 L 26.070312 39.984375 C 26.019531 40.011719 25.96875 40.023438 25.914062 40.023438 C 25.722656 40.023438 25.554688 39.847656 25.589844 39.636719 L 26.257812 37.320312 C 26.273438 37.226562 26.242188 37.128906 26.175781 37.0625 L 24.257812 35.539062 C 24.0625 35.347656 24.171875 35.015625 24.441406 34.972656 L 26.875 34.90625 C 26.96875 34.894531 27.050781 34.835938 27.089844 34.75 L 27.929688 32.4375 C 27.992188 32.316406 28.109375 32.253906 28.226562 32.253906 C 28.34375 32.253906 28.460938 32.316406 28.519531 32.4375 L 29.355469 34.75 C 29.402344 34.835938 29.480469 34.894531 29.578125 34.90625 L 32.011719 34.972656 C 32.28125 35.015625 32.390625 35.347656 32.191406 35.539062 Z M 37.65625 31 L 18.796875 31 C 18.566406 31 18.378906 31.1875 18.378906 31.421875 L 18.378906 40.859375 C 18.378906 41.089844 18.566406 41.277344 18.796875 41.277344 L 37.65625 41.277344 C 37.886719 41.277344 38.074219 41.089844 38.074219 40.859375 L 38.074219 31.421875 C 38.074219 31.1875 37.882812 31 37.65625 31 " fill-opacity="1" fill-rule="nonzero"/><g clip-path="url(#426c7dad45)"><path fill="#71dd37" d="M 39.355469 40.859375 C 39.355469 41.796875 38.59375 42.5625 37.65625 42.5625 L 18.796875 42.5625 C 17.855469 42.5625 17.09375 41.796875 17.09375 40.859375 L 17.09375 31.421875 C 17.09375 30.480469 17.855469 29.71875 18.796875 29.71875 L 37.65625 29.71875 C 38.59375 29.71875 39.355469 30.480469 39.355469 31.421875 Z M 44.066406 30.574219 C 42.410156 30.574219 41.070312 29.234375 41.070312 27.578125 C 41.070312 27.105469 40.6875 26.71875 40.214844 26.71875 L 16.238281 26.71875 C 15.765625 26.71875 15.378906 27.105469 15.378906 27.578125 C 15.378906 29.234375 14.035156 30.574219 12.382812 30.574219 C 11.910156 30.574219 11.527344 30.957031 11.527344 31.429688 L 11.527344 40.847656 C 11.527344 41.324219 11.910156 41.707031 12.382812 41.707031 C 14.035156 41.707031 15.378906 43.046875 15.378906 44.703125 C 15.378906 45.175781 15.765625 45.558594 16.238281 45.558594 L 40.214844 45.558594 C 40.6875 45.558594 41.070312 45.175781 41.070312 44.703125 C 41.070312 43.046875 42.410156 41.707031 44.066406 41.707031 C 44.539062 41.707031 44.921875 41.324219 44.921875 40.847656 L 44.921875 31.429688 C 44.921875 30.957031 44.539062 30.574219 44.066406 30.574219 " fill-opacity="1" fill-rule="nonzero"/></g></svg>