<svg xmlns="http://www.w3.org/2000/svg" xmlns:xlink="http://www.w3.org/1999/xlink" width="76" zoomAndPan="magnify" viewBox="0 0 56.879997 56.999997" height="76" preserveAspectRatio="xMidYMid meet" version="1.0"><defs><clipPath id="0656731ce3"><path d="M 0 0.0585938 L 56.761719 0.0585938 L 56.761719 56.9375 L 0 56.9375 Z M 0 0.0585938 " clip-rule="nonzero"/></clipPath><clipPath id="55d9172ab7"><path d="M 9.730469 0.0585938 L 47.152344 0.0585938 C 49.730469 0.0585938 52.207031 1.085938 54.03125 2.910156 C 55.855469 4.734375 56.878906 7.210938 56.878906 9.789062 L 56.878906 47.210938 C 56.878906 49.789062 55.855469 52.265625 54.03125 54.089844 C 52.207031 55.914062 49.730469 56.941406 47.152344 56.941406 L 9.730469 56.941406 C 7.148438 56.941406 4.675781 55.914062 2.851562 54.089844 C 1.023438 52.265625 0 49.789062 0 47.210938 L 0 9.789062 C 0 7.210938 1.023438 4.734375 2.851562 2.910156 C 4.675781 1.085938 7.148438 0.0585938 9.730469 0.0585938 Z M 9.730469 0.0585938 " clip-rule="nonzero"/></clipPath><clipPath id="a73d5d46c2"><path d="M 20 11.4375 L 37 11.4375 L 37 30 L 20 30 Z M 20 11.4375 " clip-rule="nonzero"/></clipPath><clipPath id="e7207ff0f1"><path d="M 12.890625 29 L 44 29 L 44 45.863281 L 12.890625 45.863281 Z M 12.890625 29 " clip-rule="nonzero"/></clipPath></defs><g clip-path="url(#0656731ce3)"><g clip-path="url(#55d9172ab7)"><path fill="#eefbe7" d="M 0 0.0585938 L 56.878906 0.0585938 L 56.878906 56.941406 L 0 56.941406 Z M 0 0.0585938 " fill-opacity="1" fill-rule="nonzero"/></g></g><g clip-path="url(#a73d5d46c2)"><path fill="#71dd37" d="M 28.4375 29.136719 C 33.003906 29.136719 36.722656 24.289062 36.722656 19.71875 C 36.722656 15.152344 33.003906 11.4375 28.4375 11.4375 C 23.871094 11.4375 20.152344 15.152344 20.152344 19.71875 C 20.15625 24.289062 23.871094 29.136719 28.4375 29.136719 Z M 28.4375 29.136719 " fill-opacity="1" fill-rule="nonzero"/></g><g clip-path="url(#e7207ff0f1)"><path fill="#71dd37" d="M 34.65625 29.222656 C 33.050781 30.445312 31.046875 31.171875 28.875 31.171875 L 28 31.171875 C 25.828125 31.171875 23.824219 30.445312 22.21875 29.222656 C 16.972656 30.070312 12.964844 34.617188 12.964844 40.101562 C 12.964844 43.117188 19.890625 45.558594 28.4375 45.558594 C 36.984375 45.558594 43.910156 43.117188 43.910156 40.101562 C 43.910156 34.617188 39.902344 30.070312 34.65625 29.222656 Z M 34.65625 29.222656 " fill-opacity="1" fill-rule="nonzero"/></g></svg>