<svg xmlns="http://www.w3.org/2000/svg" xmlns:xlink="http://www.w3.org/1999/xlink" width="76" zoomAndPan="magnify" viewBox="0 0 56.879997 56.999997" height="76" preserveAspectRatio="xMidYMid meet" version="1.0"><defs><clipPath id="a305e6a85c"><path d="M 0 0.0585938 L 56.761719 0.0585938 L 56.761719 56.9375 L 0 56.9375 Z M 0 0.0585938 " clip-rule="nonzero"/></clipPath><clipPath id="3319ed8a5e"><path d="M 9.730469 0.0585938 L 47.152344 0.0585938 C 49.730469 0.0585938 52.207031 1.085938 54.03125 2.910156 C 55.855469 4.734375 56.878906 7.210938 56.878906 9.789062 L 56.878906 47.210938 C 56.878906 49.789062 55.855469 52.265625 54.03125 54.089844 C 52.207031 55.914062 49.730469 56.941406 47.152344 56.941406 L 9.730469 56.941406 C 7.148438 56.941406 4.675781 55.914062 2.851562 54.089844 C 1.023438 52.265625 0 49.789062 0 47.210938 L 0 9.789062 C 0 7.210938 1.023438 4.734375 2.851562 2.910156 C 4.675781 1.085938 7.148438 0.0585938 9.730469 0.0585938 Z M 9.730469 0.0585938 " clip-rule="nonzero"/></clipPath><clipPath id="4121d5d36d"><path d="M 11.375 21 L 21 21 L 21 32 L 11.375 32 Z M 11.375 21 " clip-rule="nonzero"/></clipPath><clipPath id="0ad68167aa"><path d="M 18 12.714844 L 28 12.714844 L 28 25 L 18 25 Z M 18 12.714844 " clip-rule="nonzero"/></clipPath><clipPath id="40c744c6d8"><path d="M 28 12.714844 L 39 12.714844 L 39 25 L 28 25 Z M 28 12.714844 " clip-rule="nonzero"/></clipPath><clipPath id="085e92f0e2"><path d="M 16 24.683594 L 40.199219 24.683594 L 40.199219 44.148438 L 16 44.148438 Z M 16 24.683594 " clip-rule="nonzero"/></clipPath><clipPath id="d0bfb8e787"><path d="M 36 21 L 45.804688 21 L 45.804688 32 L 36 32 Z M 36 21 " clip-rule="nonzero"/></clipPath></defs><g clip-path="url(#a305e6a85c)"><g clip-path="url(#3319ed8a5e)"><path fill="#ffe7e3" d="M 0 0.0585938 L 56.878906 0.0585938 L 56.878906 56.941406 L 0 56.941406 Z M 0 0.0585938 " fill-opacity="1" fill-rule="nonzero"/></g></g><g clip-path="url(#4121d5d36d)"><path fill="#ff3e1d" d="M 17.3125 31.535156 C 17.386719 31.527344 17.464844 31.519531 17.539062 31.515625 C 18.359375 31.40625 19.082031 31.007812 19.636719 30.394531 C 20.085938 29.90625 20.378906 29.3125 20.546875 28.621094 C 20.691406 28.078125 20.71875 27.472656 20.628906 26.875 C 20.492188 25.675781 20.019531 24.546875 19.21875 23.550781 C 18.964844 23.234375 18.675781 22.917969 18.347656 22.644531 C 17.617188 22.023438 16.867188 21.667969 16.058594 21.472656 C 15.523438 21.367188 15.027344 21.328125 14.507812 21.414062 C 13.6875 21.554688 12.996094 21.917969 12.445312 22.527344 C 11.996094 23.019531 11.671875 23.6875 11.542969 24.417969 C 11.460938 24.800781 11.417969 25.183594 11.449219 25.558594 L 11.457031 25.671875 C 11.46875 25.785156 11.476562 25.898438 11.488281 26.011719 L 11.496094 26.121094 C 11.605469 26.984375 11.898438 27.789062 12.339844 28.546875 C 12.6875 29.121094 13.113281 29.652344 13.601562 30.105469 C 14.296875 30.726562 15.050781 31.15625 15.859375 31.351562 C 16.367188 31.535156 16.859375 31.570312 17.3125 31.535156 " fill-opacity="1" fill-rule="nonzero"/></g><g clip-path="url(#0ad68167aa)"><path fill="#ff3e1d" d="M 18.5625 20.019531 C 18.789062 20.921875 19.164062 21.714844 19.65625 22.390625 C 20.144531 23.070312 20.671875 23.558594 21.3125 23.9375 C 21.839844 24.273438 22.40625 24.464844 23.007812 24.5 L 23.308594 24.5 C 23.910156 24.5 24.476562 24.351562 24.964844 24.011719 C 25.457031 23.746094 25.90625 23.332031 26.285156 22.84375 C 26.8125 22.167969 27.148438 21.335938 27.300781 20.359375 C 27.339844 19.945312 27.375 19.53125 27.375 19.078125 C 27.375 18.738281 27.339844 18.398438 27.300781 18.0625 C 27.226562 17.457031 27.074219 16.894531 26.847656 16.328125 C 26.472656 15.386719 25.945312 14.597656 25.265625 13.992188 C 24.777344 13.542969 24.25 13.203125 23.683594 13.015625 C 22.96875 12.75 22.253906 12.714844 21.539062 12.902344 C 20.859375 13.050781 20.257812 13.429688 19.730469 13.992188 C 19.277344 14.484375 18.976562 15.011719 18.714844 15.652344 C 18.449219 16.402344 18.300781 17.195312 18.300781 18.097656 C 18.300781 18.25 18.335938 18.398438 18.335938 18.625 C 18.375 19.078125 18.449219 19.566406 18.5625 20.019531 " fill-opacity="1" fill-rule="nonzero"/></g><g clip-path="url(#40c744c6d8)"><path fill="#ff3e1d" d="M 29.257812 21.789062 C 29.523438 22.542969 29.898438 23.144531 30.425781 23.636719 C 31.105469 24.273438 31.894531 24.652344 32.800781 24.6875 L 33.023438 24.6875 C 33.476562 24.6875 33.890625 24.578125 34.34375 24.578125 C 34.984375 24.3125 35.546875 23.9375 36.113281 23.410156 C 36.679688 22.84375 37.128906 22.203125 37.46875 21.488281 C 37.957031 20.472656 38.222656 19.417969 38.257812 18.285156 C 38.257812 17.648438 38.222656 17.007812 38.070312 16.441406 C 37.882812 15.652344 37.621094 15.011719 37.207031 14.445312 C 36.527344 13.503906 35.625 12.976562 34.570312 12.828125 C 34.53125 12.828125 34.53125 12.828125 34.492188 12.828125 L 33.628906 12.828125 C 33.136719 12.902344 32.609375 13.050781 32.160156 13.316406 C 31.554688 13.65625 30.992188 14.144531 30.5 14.746094 C 29.972656 15.386719 29.597656 16.140625 29.296875 16.96875 C 29.03125 17.722656 28.921875 18.511719 28.882812 19.304688 C 28.882812 19.644531 28.882812 19.980469 28.921875 20.320312 C 28.996094 20.847656 29.109375 21.335938 29.257812 21.789062 " fill-opacity="1" fill-rule="nonzero"/></g><g clip-path="url(#085e92f0e2)"><path fill="#ff3e1d" d="M 38.746094 34.519531 C 38.257812 33.804688 37.652344 33.125 36.9375 32.523438 C 36.449219 32.070312 35.957031 31.582031 35.542969 31.054688 C 35.09375 30.488281 34.679688 29.886719 34.339844 29.359375 L 34.074219 28.945312 C 33.8125 28.53125 33.546875 28.152344 33.285156 27.738281 C 32.871094 27.136719 32.492188 26.648438 32.078125 26.269531 C 31.363281 25.59375 30.535156 25.140625 29.59375 24.914062 C 28.992188 24.765625 28.351562 24.726562 27.75 24.726562 C 27.183594 24.726562 26.617188 24.839844 26.089844 25.066406 C 25.453125 25.328125 24.886719 25.742188 24.285156 26.308594 C 23.945312 26.648438 23.570312 27.0625 23.191406 27.550781 C 22.816406 28.042969 22.476562 28.53125 22.136719 29.019531 L 21.949219 29.320312 C 21.496094 29.925781 21.046875 30.601562 20.519531 31.203125 C 20.066406 31.730469 19.652344 32.144531 19.238281 32.523438 C 18.710938 32.972656 18.183594 33.503906 17.769531 34.066406 C 17.164062 34.859375 16.714844 35.722656 16.414062 36.589844 C 16.226562 37.191406 16.113281 37.796875 16.074219 38.398438 C 16.035156 38.925781 16.074219 39.488281 16.1875 39.980469 C 16.488281 41.371094 17.203125 42.503906 18.371094 43.332031 C 19.050781 43.820312 19.800781 44.121094 20.667969 44.199219 C 20.78125 44.234375 20.855469 44.234375 20.96875 44.234375 L 21.535156 44.234375 C 21.875 44.234375 22.210938 44.199219 22.476562 44.160156 C 23.230469 44.007812 23.984375 43.820312 24.660156 43.632812 L 24.699219 43.632812 C 25.339844 43.480469 25.980469 43.292969 26.617188 43.179688 C 26.882812 43.144531 27.222656 43.066406 27.558594 43.066406 C 28.011719 43.066406 28.425781 43.066406 28.804688 43.105469 C 29.332031 43.179688 29.933594 43.292969 30.574219 43.445312 C 30.875 43.519531 31.214844 43.632812 31.515625 43.707031 C 31.929688 43.820312 32.382812 43.933594 32.832031 44.046875 C 33.285156 44.160156 33.773438 44.273438 34.300781 44.273438 L 35.207031 44.273438 C 35.28125 44.273438 35.320312 44.234375 35.394531 44.121094 C 35.621094 44.121094 35.882812 44.085938 36.109375 44.007812 C 36.710938 43.859375 37.3125 43.59375 37.878906 43.179688 C 38.632812 42.652344 39.234375 41.976562 39.613281 41.183594 C 40.027344 40.316406 40.214844 39.414062 40.175781 38.398438 C 40.140625 37.832031 40.027344 37.191406 39.800781 36.589844 C 39.574219 35.875 39.234375 35.195312 38.746094 34.519531 " fill-opacity="1" fill-rule="nonzero"/></g><g clip-path="url(#d0bfb8e787)"><path fill="#ff3e1d" d="M 45.332031 24.417969 C 45.203125 23.6875 44.878906 23.019531 44.429688 22.527344 C 43.875 21.917969 43.191406 21.554688 42.367188 21.414062 C 41.84375 21.328125 41.351562 21.367188 40.8125 21.472656 C 40.003906 21.667969 39.257812 22.023438 38.527344 22.644531 C 38.199219 22.917969 37.910156 23.234375 37.65625 23.550781 C 36.855469 24.546875 36.382812 25.675781 36.246094 26.875 C 36.160156 27.472656 36.183594 28.078125 36.328125 28.621094 C 36.496094 29.3125 36.789062 29.90625 37.238281 30.394531 C 37.792969 31.007812 38.515625 31.40625 39.335938 31.515625 C 39.414062 31.519531 39.488281 31.527344 39.5625 31.535156 C 40.015625 31.570312 40.507812 31.535156 41.011719 31.351562 C 41.824219 31.15625 42.574219 30.726562 43.273438 30.105469 C 43.761719 29.652344 44.183594 29.121094 44.535156 28.546875 C 44.972656 27.789062 45.269531 26.984375 45.378906 26.121094 L 45.390625 26.011719 C 45.394531 25.898438 45.40625 25.785156 45.414062 25.671875 L 45.425781 25.558594 C 45.457031 25.183594 45.410156 24.800781 45.332031 24.417969 " fill-opacity="1" fill-rule="nonzero"/></g></svg>