<svg xmlns="http://www.w3.org/2000/svg" xmlns:xlink="http://www.w3.org/1999/xlink" width="76" zoomAndPan="magnify" viewBox="0 0 56.879997 56.999997" height="76" preserveAspectRatio="xMidYMid meet" version="1.0"><defs><clipPath id="553331698a"><path d="M 0 0.0585938 L 56.761719 0.0585938 L 56.761719 56.9375 L 0 56.9375 Z M 0 0.0585938 " clip-rule="nonzero"/></clipPath><clipPath id="faf75afa22"><path d="M 9.730469 0.0585938 L 47.152344 0.0585938 C 49.730469 0.0585938 52.207031 1.085938 54.03125 2.910156 C 55.855469 4.734375 56.878906 7.210938 56.878906 9.789062 L 56.878906 47.210938 C 56.878906 49.789062 55.855469 52.265625 54.03125 54.089844 C 52.207031 55.914062 49.730469 56.941406 47.152344 56.941406 L 9.730469 56.941406 C 7.148438 56.941406 4.675781 55.914062 2.851562 54.089844 C 1.023438 52.265625 0 49.789062 0 47.210938 L 0 9.789062 C 0 7.210938 1.023438 4.734375 2.851562 2.910156 C 4.675781 1.085938 7.148438 0.0585938 9.730469 0.0585938 Z M 9.730469 0.0585938 " clip-rule="nonzero"/></clipPath><clipPath id="3b8f450ffe"><path d="M 23 8.59375 L 34 8.59375 L 34 20 L 23 20 Z M 23 8.59375 " clip-rule="nonzero"/></clipPath><clipPath id="e465e36f43"><path d="M 14.722656 20 L 42 20 L 42 32 L 14.722656 32 Z M 14.722656 20 " clip-rule="nonzero"/></clipPath></defs><g clip-path="url(#553331698a)"><g clip-path="url(#faf75afa22)"><path fill="#e0f7fc" d="M 0 0.0585938 L 56.878906 0.0585938 L 56.878906 56.941406 L 0 56.941406 Z M 0 0.0585938 " fill-opacity="1" fill-rule="nonzero"/></g></g><path fill="#15c7ed" d="M 34.027344 32.976562 C 34.027344 32.976562 37.707031 36.660156 37.71875 36.664062 C 38.894531 37.847656 38.589844 39.925781 37.476562 41.058594 L 32.34375 46.40625 C 30.359375 48.382812 27.710938 45.640625 29.636719 43.722656 L 32.890625 40.464844 L 29.703125 37.300781 Z M 34.027344 32.976562 " fill-opacity="1" fill-rule="nonzero"/><path fill="#15c7ed" d="M 22.582031 32.976562 C 22.582031 32.976562 18.910156 36.660156 18.910156 36.664062 C 17.726562 37.847656 18.03125 39.925781 19.132812 41.058594 L 24.285156 46.40625 C 26.261719 48.382812 28.910156 45.640625 26.996094 43.722656 L 23.742188 40.464844 L 26.910156 37.300781 L 22.582031 32.976562 " fill-opacity="1" fill-rule="nonzero"/><g clip-path="url(#3b8f450ffe)"><path fill="#15c7ed" d="M 28.4375 19.269531 C 31.382812 19.269531 33.773438 16.882812 33.773438 13.921875 C 33.773438 10.976562 31.382812 8.59375 28.4375 8.59375 C 25.484375 8.59375 23.089844 10.976562 23.089844 13.921875 C 23.089844 16.882812 25.484375 19.269531 28.4375 19.269531 Z M 28.4375 19.269531 " fill-opacity="1" fill-rule="nonzero"/></g><g clip-path="url(#e465e36f43)"><path fill="#15c7ed" d="M 34.21875 30.839844 L 34.296875 27.195312 L 38.734375 31.335938 C 39.097656 31.679688 39.5625 31.84375 40.027344 31.84375 C 40.53125 31.84375 41.035156 31.640625 41.40625 31.242188 C 42.121094 30.480469 42.078125 29.285156 41.316406 28.574219 C 41.316406 28.574219 36.226562 23.042969 35.5 22.398438 C 34.144531 21.199219 32.15625 20.519531 28.9375 20.519531 L 27.925781 20.519531 C 24.703125 20.519531 22.71875 21.199219 21.363281 22.398438 C 20.632812 23.042969 15.546875 28.574219 15.546875 28.574219 C 14.785156 29.285156 14.742188 30.480469 15.453125 31.242188 C 15.824219 31.640625 16.332031 31.84375 16.835938 31.84375 C 17.300781 31.84375 17.761719 31.675781 18.125 31.335938 L 22.5625 27.195312 L 22.640625 30.839844 Z M 34.21875 30.839844 " fill-opacity="1" fill-rule="nonzero"/></g></svg>