<svg xmlns="http://www.w3.org/2000/svg" xmlns:xlink="http://www.w3.org/1999/xlink" width="76" zoomAndPan="magnify" viewBox="0 0 56.879997 56.999997" height="76" preserveAspectRatio="xMidYMid meet" version="1.0"><defs><clipPath id="b41106e84f"><path d="M 0 0.0585938 L 56.761719 0.0585938 L 56.761719 56.9375 L 0 56.9375 Z M 0 0.0585938 " clip-rule="nonzero"/></clipPath><clipPath id="b7aa01a2fa"><path d="M 9.730469 0.0585938 L 47.152344 0.0585938 C 49.730469 0.0585938 52.207031 1.085938 54.03125 2.910156 C 55.855469 4.734375 56.878906 7.210938 56.878906 9.789062 L 56.878906 47.210938 C 56.878906 49.789062 55.855469 52.265625 54.03125 54.089844 C 52.207031 55.914062 49.730469 56.941406 47.152344 56.941406 L 9.730469 56.941406 C 7.148438 56.941406 4.675781 55.914062 2.851562 54.089844 C 1.023438 52.265625 0 49.789062 0 47.210938 L 0 9.789062 C 0 7.210938 1.023438 4.734375 2.851562 2.910156 C 4.675781 1.085938 7.148438 0.0585938 9.730469 0.0585938 Z M 9.730469 0.0585938 " clip-rule="nonzero"/></clipPath><clipPath id="44d1526902"><path d="M 11.375 11.4375 L 45.804688 11.4375 L 45.804688 45.863281 L 11.375 45.863281 Z M 11.375 11.4375 " clip-rule="nonzero"/></clipPath></defs><g clip-path="url(#b41106e84f)"><g clip-path="url(#b7aa01a2fa)"><path fill="#ededff" d="M 0 0.0585938 L 56.878906 0.0585938 L 56.878906 56.941406 L 0 56.941406 Z M 0 0.0585938 " fill-opacity="1" fill-rule="nonzero"/></g></g><g clip-path="url(#44d1526902)"><path fill="#696cff" d="M 28.4375 11.4375 C 19.007812 11.4375 11.375 19.066406 11.375 28.496094 C 11.375 37.925781 19.007812 45.558594 28.4375 45.558594 C 37.867188 45.558594 45.5 37.929688 45.5 28.496094 C 45.5 19.066406 37.867188 11.4375 28.4375 11.4375 Z M 28.4375 43.550781 C 20.136719 43.550781 13.382812 36.796875 13.382812 28.496094 C 13.382812 20.195312 20.136719 13.441406 28.4375 13.441406 C 36.738281 13.441406 43.492188 20.195312 43.492188 28.496094 C 43.492188 36.796875 36.738281 43.550781 28.4375 43.550781 Z M 28.4375 43.550781 " fill-opacity="1" fill-rule="nonzero"/></g><path fill="#696cff" d="M 29.449219 24.296875 L 29.148438 24.59375 C 28.753906 24.988281 28.121094 24.988281 27.726562 24.59375 L 27.429688 24.296875 C 26.496094 23.363281 24.976562 23.363281 24.042969 24.296875 C 23.101562 25.234375 23.113281 26.746094 24.039062 27.679688 L 28.4375 31.996094 L 32.835938 27.679688 C 33.773438 26.738281 33.765625 25.226562 32.832031 24.296875 C 31.898438 23.363281 30.382812 23.363281 29.449219 24.296875 Z M 29.449219 24.296875 " fill-opacity="1" fill-rule="nonzero"/><path fill="#696cff" d="M 28.4375 15.449219 C 21.242188 15.449219 15.390625 21.304688 15.390625 28.496094 C 15.390625 35.691406 21.242188 41.542969 28.4375 41.542969 C 35.632812 41.542969 41.484375 35.691406 41.484375 28.496094 C 41.484375 21.304688 35.632812 15.449219 28.4375 15.449219 Z M 34.246094 29.105469 L 30.894531 32.398438 L 32.042969 32.398438 C 32.59375 32.398438 33.046875 32.847656 33.046875 33.402344 C 33.046875 33.957031 32.59375 34.40625 32.042969 34.40625 L 24.832031 34.40625 C 24.28125 34.40625 23.832031 33.957031 23.832031 33.402344 C 23.832031 32.847656 24.28125 32.398438 24.832031 32.398438 L 25.984375 32.398438 L 22.628906 29.105469 C 20.957031 27.484375 20.847656 24.648438 22.621094 22.875 C 24.21875 21.277344 26.71875 21.171875 28.4375 22.515625 C 30.15625 21.171875 32.65625 21.277344 34.253906 22.875 C 36.039062 24.664062 35.902344 27.496094 34.246094 29.105469 Z M 34.246094 29.105469 " fill-opacity="1" fill-rule="nonzero"/></svg>