<svg xmlns="http://www.w3.org/2000/svg" xmlns:xlink="http://www.w3.org/1999/xlink" width="76" zoomAndPan="magnify" viewBox="0 0 56.879997 56.999997" height="76" preserveAspectRatio="xMidYMid meet" version="1.0"><defs><clipPath id="80fadd2d33"><path d="M 0 0.0585938 L 56.761719 0.0585938 L 56.761719 56.9375 L 0 56.9375 Z M 0 0.0585938 " clip-rule="nonzero"/></clipPath><clipPath id="884edd6a12"><path d="M 9.730469 0.0585938 L 47.152344 0.0585938 C 49.730469 0.0585938 52.207031 1.085938 54.03125 2.910156 C 55.855469 4.734375 56.878906 7.210938 56.878906 9.789062 L 56.878906 47.210938 C 56.878906 49.789062 55.855469 52.265625 54.03125 54.089844 C 52.207031 55.914062 49.730469 56.941406 47.152344 56.941406 L 9.730469 56.941406 C 7.148438 56.941406 4.675781 55.914062 2.851562 54.089844 C 1.023438 52.265625 0 49.789062 0 47.210938 L 0 9.789062 C 0 7.210938 1.023438 4.734375 2.851562 2.910156 C 4.675781 1.085938 7.148438 0.0585938 9.730469 0.0585938 Z M 9.730469 0.0585938 " clip-rule="nonzero"/></clipPath><clipPath id="8de4fbdc8d"><path d="M 11.375 13.226562 L 45.804688 13.226562 L 45.804688 43.914062 L 11.375 43.914062 Z M 11.375 13.226562 " clip-rule="nonzero"/></clipPath></defs><g clip-path="url(#80fadd2d33)"><g clip-path="url(#884edd6a12)"><path fill="#ededff" d="M 0 0.0585938 L 56.878906 0.0585938 L 56.878906 56.941406 L 0 56.941406 Z M 0 0.0585938 " fill-opacity="1" fill-rule="nonzero"/></g></g><g clip-path="url(#8de4fbdc8d)"><path fill="#696cff" d="M 16.914062 26.660156 C 16.914062 26.792969 16.839844 26.914062 16.722656 26.976562 C 16.605469 27.039062 16.460938 27.03125 16.351562 26.957031 C 15.066406 26.074219 12.015625 23.984375 12.015625 23.984375 C 11.679688 23.753906 11.453125 23.394531 11.394531 22.992188 C 11.332031 22.59375 11.4375 22.183594 11.6875 21.863281 C 11.6875 21.863281 16.253906 16.003906 17.769531 14.0625 C 18.007812 13.753906 18.339844 13.535156 18.714844 13.433594 C 19.585938 13.445312 21.441406 13.445312 22.507812 13.445312 C 22.996094 13.429688 23.46875 13.613281 23.820312 13.953125 C 25.027344 15.109375 26.671875 15.816406 28.480469 15.816406 C 30.285156 15.816406 31.925781 15.113281 33.148438 13.96875 C 33.480469 13.644531 33.925781 13.460938 34.386719 13.460938 C 35.285156 13.441406 36.792969 13.445312 37.746094 13.445312 C 38.300781 13.445312 38.824219 13.699219 39.164062 14.136719 C 40.734375 16.148438 45.1875 21.863281 45.1875 21.863281 C 45.4375 22.183594 45.542969 22.59375 45.480469 22.992188 C 45.421875 23.394531 45.195312 23.753906 44.859375 23.984375 C 44.859375 23.984375 41.878906 26.027344 40.609375 26.898438 C 40.5 26.972656 40.355469 26.980469 40.238281 26.917969 C 40.121094 26.859375 40.046875 26.734375 40.046875 26.601562 C 40.046875 25.238281 40.046875 22.316406 40.046875 22.316406 C 40.046875 21.820312 39.644531 21.417969 39.148438 21.417969 C 38.652344 21.417969 38.25 21.820312 38.25 22.316406 C 38.25 22.316406 38.25 36.566406 38.25 41.890625 C 38.25 42.285156 38.09375 42.65625 37.816406 42.933594 C 37.542969 43.210938 37.167969 43.363281 36.777344 43.363281 L 20.179688 43.363281 C 19.792969 43.363281 19.417969 43.210938 19.140625 42.933594 C 18.863281 42.65625 18.707031 42.285156 18.707031 41.890625 L 18.707031 22.316406 C 18.707031 21.820312 18.304688 21.417969 17.8125 21.417969 C 17.316406 21.417969 16.914062 21.820312 16.914062 22.316406 Z M 16.914062 26.660156 " fill-opacity="1" fill-rule="evenodd"/></g></svg>