<svg xmlns="http://www.w3.org/2000/svg" xmlns:xlink="http://www.w3.org/1999/xlink" width="76" zoomAndPan="magnify" viewBox="0 0 56.879997 56.999997" height="76" preserveAspectRatio="xMidYMid meet" version="1.0"><defs><clipPath id="1cfbd580d8"><path d="M 0 0.0585938 L 56.761719 0.0585938 L 56.761719 56.9375 L 0 56.9375 Z M 0 0.0585938 " clip-rule="nonzero"/></clipPath><clipPath id="e9b35d1c49"><path d="M 9.730469 0.0585938 L 47.152344 0.0585938 C 49.730469 0.0585938 52.207031 1.085938 54.03125 2.910156 C 55.855469 4.734375 56.878906 7.210938 56.878906 9.789062 L 56.878906 47.210938 C 56.878906 49.789062 55.855469 52.265625 54.03125 54.089844 C 52.207031 55.914062 49.730469 56.941406 47.152344 56.941406 L 9.730469 56.941406 C 7.148438 56.941406 4.675781 55.914062 2.851562 54.089844 C 1.023438 52.265625 0 49.789062 0 47.210938 L 0 9.789062 C 0 7.210938 1.023438 4.734375 2.851562 2.910156 C 4.675781 1.085938 7.148438 0.0585938 9.730469 0.0585938 Z M 9.730469 0.0585938 " clip-rule="nonzero"/></clipPath><clipPath id="491c1bb537"><path d="M 11.375 12.117188 L 45.804688 12.117188 L 45.804688 45 L 11.375 45 Z M 11.375 12.117188 " clip-rule="nonzero"/></clipPath></defs><g clip-path="url(#1cfbd580d8)"><g clip-path="url(#e9b35d1c49)"><path fill="#ffe7e3" d="M 0 0.0585938 L 56.878906 0.0585938 L 56.878906 56.941406 L 0 56.941406 Z M 0 0.0585938 " fill-opacity="1" fill-rule="nonzero"/></g></g><g clip-path="url(#491c1bb537)"><path fill="#ff3e1d" d="M 37.4375 44.203125 L 29.519531 40.21875 C 28.988281 39.953125 28.460938 39.960938 27.941406 40.25 L 20.171875 44.511719 C 19.886719 44.667969 19.585938 44.734375 19.261719 44.71875 C 18.9375 44.699219 18.644531 44.597656 18.378906 44.414062 C 18.117188 44.226562 17.917969 43.988281 17.792969 43.691406 C 17.664062 43.390625 17.625 43.085938 17.675781 42.765625 L 19.019531 34.003906 C 19.109375 33.414062 18.9375 32.917969 18.503906 32.507812 L 12.046875 26.4375 C 11.8125 26.21875 11.652344 25.949219 11.570312 25.636719 C 11.488281 25.324219 11.492188 25.015625 11.585938 24.707031 C 11.679688 24.394531 11.851562 24.136719 12.09375 23.921875 C 12.335938 23.710938 12.617188 23.578125 12.9375 23.523438 L 21.683594 22.09375 C 22.269531 22 22.691406 21.683594 22.945312 21.144531 L 26.726562 13.128906 C 26.863281 12.835938 27.066406 12.601562 27.339844 12.425781 C 27.609375 12.25 27.90625 12.160156 28.230469 12.152344 C 28.554688 12.148438 28.855469 12.226562 29.132812 12.394531 C 29.410156 12.558594 29.621094 12.785156 29.769531 13.074219 L 33.832031 20.949219 C 34.105469 21.476562 34.539062 21.78125 35.128906 21.855469 L 43.917969 22.972656 C 44.238281 23.015625 44.527344 23.136719 44.777344 23.339844 C 45.027344 23.542969 45.207031 23.800781 45.3125 24.105469 C 45.417969 24.410156 45.433594 24.722656 45.359375 25.035156 C 45.289062 25.351562 45.140625 25.625 44.914062 25.851562 L 38.679688 32.152344 C 38.257812 32.574219 38.105469 33.078125 38.214844 33.664062 L 39.871094 42.371094 C 39.929688 42.6875 39.902344 42.996094 39.785156 43.296875 C 39.667969 43.597656 39.480469 43.847656 39.222656 44.042969 C 38.964844 44.238281 38.675781 44.347656 38.351562 44.378906 C 38.03125 44.40625 37.726562 44.347656 37.4375 44.203125 Z M 37.4375 44.203125 " fill-opacity="1" fill-rule="nonzero"/></g></svg>