<svg xmlns="http://www.w3.org/2000/svg" xmlns:xlink="http://www.w3.org/1999/xlink" width="960" zoomAndPan="magnify" viewBox="0 0 720 404.99999" height="540" preserveAspectRatio="xMidYMid meet" version="1.0"><defs><clipPath id="7de5dc4182"><path d="M 581 316 L 618 316 L 618 381.957031 L 581 381.957031 Z M 581 316 " clip-rule="nonzero"/></clipPath><clipPath id="ea0fe5b6da"><path d="M 511.476562 260 L 656 260 L 656 381.957031 L 511.476562 381.957031 Z M 511.476562 260 " clip-rule="nonzero"/></clipPath><clipPath id="200bec7f30"><path d="M 511.476562 271 L 521 271 L 521 275 L 511.476562 275 Z M 511.476562 271 " clip-rule="nonzero"/></clipPath><clipPath id="c3772cb01f"><path d="M 551 368 L 678 368 L 678 381.957031 L 551 381.957031 Z M 551 368 " clip-rule="nonzero"/></clipPath></defs><rect x="-72" width="864" fill="#ffffff" y="-40.499999" height="485.999988" fill-opacity="1"/><rect x="-72" width="864" fill="#ffffff" y="-40.499999" height="485.999988" fill-opacity="1"/><rect x="-72" width="864" fill="#ffffff" y="-40.499999" height="485.999988" fill-opacity="1"/><path fill="#fee280" d="M 0 343.5 L 17.101562 344.398438 C 34.273438 345.226562 68.476562 347.023438 102.75 347.851562 C 137.023438 348.75 171.226562 348.75 205.5 345.523438 C 239.773438 342.226562 273.976562 335.773438 308.398438 330.75 C 342.75 325.726562 377.25 322.273438 411.601562 323.625 C 446.023438 324.976562 480.226562 331.273438 514.5 330.523438 C 548.773438 329.773438 582.976562 321.976562 617.25 322.726562 C 651.523438 323.476562 685.726562 332.773438 702.898438 337.351562 L 720 342 L 720 405.75 L 702.898438 405.75 C 685.726562 405.75 651.523438 405.75 617.25 405.75 C 582.976562 405.75 548.773438 405.75 514.5 405.75 C 480.226562 405.75 446.023438 405.75 411.601562 405.75 C 377.25 405.75 342.75 405.75 308.398438 405.75 C 273.976562 405.75 239.773438 405.75 205.5 405.75 C 171.226562 405.75 137.023438 405.75 102.75 405.75 C 68.476562 405.75 34.273438 405.75 17.101562 405.75 L 0 405.75 Z M 0 343.5 " fill-opacity="1" fill-rule="nonzero"/><path fill="#fdd340" d="M 0 353.25 L 17.101562 350.851562 C 34.273438 348.523438 68.476562 343.726562 102.75 340.648438 C 137.023438 337.5 171.226562 336 205.5 335.476562 C 239.773438 335.023438 273.976562 335.476562 308.398438 339.75 C 342.75 344.023438 377.25 351.976562 411.601562 351.375 C 446.023438 350.773438 480.226562 341.476562 514.5 339.148438 C 548.773438 336.75 582.976562 341.25 617.25 343.351562 C 651.523438 345.523438 685.726562 345.226562 702.898438 345.148438 L 720 345 L 720 405.75 L 702.898438 405.75 C 685.726562 405.75 651.523438 405.75 617.25 405.75 C 582.976562 405.75 548.773438 405.75 514.5 405.75 C 480.226562 405.75 446.023438 405.75 411.601562 405.75 C 377.25 405.75 342.75 405.75 308.398438 405.75 C 273.976562 405.75 239.773438 405.75 205.5 405.75 C 171.226562 405.75 137.023438 405.75 102.75 405.75 C 68.476562 405.75 34.273438 405.75 17.101562 405.75 L 0 405.75 Z M 0 353.25 " fill-opacity="1" fill-rule="nonzero"/><path fill="#bf9d29" d="M 0 375.75 L 17.101562 374.023438 C 34.273438 372.226562 68.476562 368.773438 102.75 369.601562 C 137.023438 370.5 171.226562 375.75 205.5 378.148438 C 239.773438 380.476562 273.976562 380.023438 308.398438 381 C 342.75 381.976562 377.25 384.523438 411.601562 381.976562 C 446.023438 379.5 480.226562 372 514.5 372.226562 C 548.773438 372.523438 582.976562 380.476562 617.25 380.476562 C 651.523438 380.476562 685.726562 372.523438 702.898438 368.476562 L 720 364.5 L 720 405.75 L 702.898438 405.75 C 685.726562 405.75 651.523438 405.75 617.25 405.75 C 582.976562 405.75 548.773438 405.75 514.5 405.75 C 480.226562 405.75 446.023438 405.75 411.601562 405.75 C 377.25 405.75 342.75 405.75 308.398438 405.75 C 273.976562 405.75 239.773438 405.75 205.5 405.75 C 171.226562 405.75 137.023438 405.75 102.75 405.75 C 68.476562 405.75 34.273438 405.75 17.101562 405.75 L 0 405.75 Z M 0 375.75 " fill-opacity="1" fill-rule="nonzero"/><path fill="#e17130" d="M 649.609375 287.179688 C 649.941406 287.289062 662.738281 289.820312 664.0625 313.710938 C 667.59375 316.574219 665.714844 324.28125 665.714844 324.28125 C 665.714844 324.28125 660.082031 322.671875 661.523438 313.933594 C 662.074219 304.355469 656.890625 293.453125 650.269531 292.023438 C 643.652344 290.589844 649.609375 287.179688 649.609375 287.179688 " fill-opacity="1" fill-rule="nonzero"/><path fill="#a5a7a6" d="M 657.257812 297.609375 C 656.6875 296.734375 656.070312 295.9375 655.414062 295.230469 C 656.070312 295.9375 656.6875 296.734375 657.257812 297.605469 L 657.257812 297.609375 " fill-opacity="1" fill-rule="nonzero"/><path fill="#db4e29" d="M 665.71875 324.28125 C 665.683594 324.273438 661.425781 323.027344 661.292969 316.925781 C 662.546875 319.488281 664.394531 321.53125 664.394531 321.53125 C 664.394531 321.53125 665.421875 316.832031 663.070312 313.96875 C 664.246094 304.351562 657.039062 294.078125 657.039062 294.078125 L 657.257812 297.605469 C 656.6875 296.734375 656.070312 295.9375 655.414062 295.230469 C 654.804688 292.273438 653.515625 290.121094 652.058594 288.132812 C 655.925781 290.136719 663.089844 296.164062 664.0625 313.710938 C 665.773438 315.097656 666.214844 317.621094 666.214844 319.855469 C 666.214844 322.234375 665.71875 324.28125 665.71875 324.28125 " fill-opacity="1" fill-rule="nonzero"/><path fill="#e17130" d="M 639.679688 320.28125 C 640.414062 321.015625 649.242188 332.320312 662.480469 340.980469 C 666.746094 344.0625 668.808594 357.128906 667.042969 366.816406 C 670.867188 372.835938 673.515625 379.734375 673.515625 379.734375 C 673.515625 379.734375 679.398438 377.238281 677.191406 369.203125 C 675.757812 369.3125 673.21875 365.570312 673.21875 365.570312 C 673.21875 365.570312 671.011719 353.019531 672.667969 345.53125 C 674.324219 338.042969 670.460938 334.300781 665.496094 331.4375 C 660.53125 328.574219 653.582031 312.5 654.464844 298.1875 C 655.347656 283.875 639.679688 320.28125 639.679688 320.28125 " fill-opacity="1" fill-rule="nonzero"/><path fill="#a5a7a6" d="M 672.558594 346.066406 C 672.558594 346.066406 672.558594 346.0625 672.558594 346.0625 C 672.59375 345.882812 672.628906 345.707031 672.667969 345.53125 C 672.933594 344.332031 673.054688 343.230469 673.054688 342.210938 C 673.054688 343.230469 672.933594 344.332031 672.667969 345.53125 C 672.628906 345.707031 672.59375 345.886719 672.558594 346.066406 " fill-opacity="1" fill-rule="nonzero"/><path fill="#db4e29" d="M 672.558594 346.0625 C 671.378906 334.402344 660.332031 331.503906 657.625 327.179688 C 656.101562 329.582031 655.691406 333.207031 655.632812 336.003906 C 654.734375 335.285156 653.867188 334.566406 653.03125 333.851562 L 651.707031 327.144531 C 651.707031 327.144531 651.703125 326.980469 651.699219 326.683594 C 651.695312 326.46875 651.695312 326.179688 651.695312 325.832031 C 651.695312 322.964844 651.828125 316.125 653.027344 312.628906 C 653.773438 310.449219 654.34375 308.472656 654.769531 306.671875 C 656.222656 318.28125 661.5 329.136719 665.496094 331.4375 C 669.664062 333.84375 673.058594 336.867188 673.054688 342.210938 C 673.054688 343.230469 672.933594 344.332031 672.667969 345.53125 C 672.628906 345.707031 672.589844 345.882812 672.558594 346.0625 " fill-opacity="1" fill-rule="nonzero"/><g clip-path="url(#7de5dc4182)"><path fill="#e17130" d="M 617.527344 377.863281 C 617.527344 377.863281 612.964844 366.894531 609.960938 357.429688 C 611.570312 352.621094 606.636719 344.960938 606.636719 344.960938 C 606.636719 344.960938 604.753906 334.179688 596.449219 318.480469 C 596.324219 318.386719 596.199219 318.292969 596.074219 318.195312 C 596.03125 318.199219 595.984375 318.199219 595.9375 318.199219 C 594.234375 318.203125 592.519531 318.03125 590.828125 317.863281 C 587.875 317.570312 584.9375 317.148438 581.992188 316.785156 C 586.625 323.476562 595.210938 336.339844 599.277344 345.410156 C 599.378906 350.820312 603.773438 355.644531 603.773438 355.644531 C 603.773438 355.644531 610.378906 370.679688 610.277344 375.917969 C 606.054688 377.160156 603.882812 380.15625 603.601562 381.84375 C 610.609375 381.84375 617.867188 380.859375 617.867188 380.859375 L 617.527344 377.863281 " fill-opacity="1" fill-rule="nonzero"/></g><path fill="#a5a7a6" d="M 586.867188 324.003906 C 586.023438 322.71875 585.203125 321.492188 584.433594 320.355469 C 585.203125 321.492188 586.023438 322.71875 586.867188 324.003906 " fill-opacity="1" fill-rule="nonzero"/><path fill="#db4e29" d="M 617.683594 379.257812 L 608.144531 356.980469 C 608.144531 356.980469 607.464844 348.761719 604.523438 344.796875 C 602.90625 338.042969 598.050781 327.328125 598.050781 327.328125 C 598.050781 327.328125 590.679688 325.214844 586.867188 324.003906 C 586.023438 322.71875 585.203125 321.492188 584.433594 320.355469 C 586.929688 321.371094 590.03125 321.9375 593.390625 322.097656 C 594.074219 322.132812 594.765625 322.148438 595.464844 322.148438 C 596.390625 322.148438 597.332031 322.121094 598.277344 322.0625 C 605.035156 335.800781 606.636719 344.960938 606.636719 344.960938 C 606.636719 344.960938 610.28125 350.621094 610.28125 355.261719 C 610.28125 356.023438 610.1875 356.753906 609.960938 357.429688 C 612.964844 366.894531 617.527344 377.863281 617.527344 377.863281 L 617.683594 379.257812 " fill-opacity="1" fill-rule="nonzero"/><path fill="#e17130" d="M 540.332031 263.726562 L 537.738281 263.234375 C 537.738281 263.234375 540.027344 261.800781 542.386719 262.238281 C 541.710938 262.460938 541.597656 262.941406 541.597656 262.941406 C 541.597656 262.941406 544.136719 263.5625 544.6875 264 C 545.242188 264.441406 547.226562 267.417969 547.226562 267.417969 L 546.089844 267.269531 C 546.089844 267.269531 548.824219 269.230469 549.597656 273.085938 C 548.660156 271.652344 548.054688 271.113281 548.054688 271.113281 L 550.207031 275.835938 L 552.082031 278.535156 L 550.316406 277.542969 L 552.964844 281.011719 C 552.964844 281.011719 551.308594 280.570312 551.472656 280.738281 C 551.640625 280.902344 553.460938 282.609375 553.460938 282.609375 L 552.082031 282.609375 C 552.082031 282.609375 553.019531 284.480469 553.902344 284.425781 C 553.957031 284.8125 552.523438 285.03125 552.523438 285.03125 L 553.902344 285.527344 L 553.074219 286.296875 L 554.289062 286.902344 C 554.289062 286.902344 552.964844 287.289062 553.019531 287.453125 C 553.074219 287.617188 554.949219 288.71875 554.949219 288.71875 L 554.949219 289.65625 C 554.949219 289.65625 560.132812 292.132812 566.039062 289.984375 C 571.941406 287.839844 562.617188 293.730469 557.542969 293.125 C 552.464844 292.519531 549.929688 292.242188 548.769531 291.582031 C 547.613281 290.921875 540.332031 263.726562 540.332031 263.726562 " fill-opacity="1" fill-rule="nonzero"/><g clip-path="url(#ea0fe5b6da)"><path fill="#e68f3f" d="M 511.644531 272.753906 C 511.644531 272.753906 512.199219 268.40625 515.175781 266.09375 C 520.195312 264.386719 527.917969 265.214844 528.085938 265.214844 C 528.25 265.214844 534.097656 263.230469 534.097656 263.230469 C 534.097656 263.230469 541.855469 260.039062 545.902344 267.992188 C 546.933594 269.488281 547.300781 273.378906 547.300781 273.378906 C 547.300781 273.378906 550.316406 279.175781 550.683594 285.710938 C 550.832031 289.160156 555.464844 292.460938 559.878906 291.363281 C 564.289062 290.261719 569.621094 287.507812 572.492188 279.800781 C 575.25 273.746094 582.75 268.679688 595.21875 268.351562 C 602.277344 259.984375 612.539062 253.707031 627.542969 272.753906 C 632.507812 273.855469 643.761719 275.949219 649.832031 285.195312 C 654.023438 290.8125 658.988281 295.140625 653.03125 312.628906 C 651.484375 317.125 651.707031 327.144531 651.707031 327.144531 L 655.78125 347.734375 C 655.78125 347.734375 647.457031 366.066406 646.1875 373.054688 C 646.574219 374.761719 644.425781 377.167969 644.425781 377.167969 L 645.03125 380.25 C 645.03125 380.25 642.164062 381.957031 632.5625 381.957031 C 632.5625 378.707031 637.675781 375.972656 637.839844 375.917969 C 638.007812 375.863281 642.492188 370.6875 642.492188 370.6875 C 642.492188 370.6875 646.742188 358.742188 645.308594 346.632812 C 645.308594 346.632812 646.003906 330.410156 636.148438 323.21875 C 634.238281 321.601562 632.03125 313.382812 632.03125 313.382812 C 632.03125 313.382812 622.617188 314.996094 612.464844 319.105469 C 602.90625 322.777344 589.519531 323.363281 582.75 319.546875 C 580.984375 335.109375 575.835938 345.824219 575.835938 345.824219 C 575.835938 345.824219 575.835938 353.3125 571.128906 358.007812 C 568.039062 367.257812 565.539062 377.972656 565.539062 377.972656 L 565.980469 380.617188 C 565.980469 380.617188 558.09375 381.863281 551.085938 381.863281 C 551.085938 378.890625 554.230469 376.25 559.253906 375.039062 C 562.726562 369.917969 566.09375 356.265625 566.09375 356.265625 C 566.09375 356.265625 564.804688 351.550781 568.1875 346.265625 C 570.6875 333.789062 569.070312 313.96875 569.070312 313.96875 C 569.070312 313.96875 538.621094 321.457031 531.265625 283.726562 C 526.558594 281.671875 523.910156 277.710938 523.910156 277.710938 C 523.910156 277.710938 520.050781 277.710938 518.46875 275.324219 C 514.9375 276.71875 512.332031 275.351562 512.070312 273.636719 C 511.554688 273.121094 511.644531 272.753906 511.644531 272.753906 " fill-opacity="1" fill-rule="nonzero"/></g><g clip-path="url(#200bec7f30)"><path fill="#e17130" d="M 513.519531 274.488281 C 513.101562 274.488281 512.664062 274.371094 512.195312 274.082031 C 512.136719 273.9375 512.09375 273.789062 512.070312 273.636719 C 512.066406 273.632812 512.066406 273.632812 512.066406 273.632812 C 512.0625 273.632812 512.0625 273.628906 512.0625 273.628906 C 512.0625 273.628906 512.058594 273.625 512.058594 273.625 C 512.058594 273.625 512.058594 273.625 512.054688 273.621094 C 511.78125 273.34375 511.683594 273.109375 511.652344 272.957031 C 512.183594 273.125 512.863281 273.273438 513.617188 273.273438 C 514.335938 273.273438 515.117188 273.136719 515.894531 272.753906 C 517.957031 271.738281 518.78125 271.113281 519.488281 271.113281 C 519.675781 271.113281 519.855469 271.15625 520.050781 271.25 C 520.902344 271.660156 520.390625 272.511719 518.660156 272.511719 C 518.53125 272.511719 518.390625 272.507812 518.246094 272.496094 C 518.207031 272.496094 518.167969 272.492188 518.128906 272.492188 C 517.375 272.492188 516.65625 272.992188 515.910156 273.492188 C 515.164062 273.988281 514.386719 274.488281 513.519531 274.488281 " fill-opacity="1" fill-rule="nonzero"/></g><path fill="#3d1f1c" d="M 513.851562 268.101562 C 513.851562 268.101562 515.78125 266.34375 516.914062 266.808594 C 518.042969 267.277344 515.753906 268.074219 513.851562 268.101562 " fill-opacity="1" fill-rule="nonzero"/><path fill="#e17130" d="M 529.417969 269.882812 C 528.808594 269.882812 528.066406 269.558594 527.257812 268.515625 C 527.578125 267.308594 528.273438 265.796875 529.917969 265.796875 C 529.972656 265.796875 530.03125 265.796875 530.089844 265.800781 C 531.359375 265.820312 528.816406 266.253906 528.746094 267.085938 C 528.714844 267.238281 528.800781 267.273438 528.972656 267.273438 C 529.050781 267.273438 529.152344 267.265625 529.265625 267.257812 C 529.378906 267.25 529.507812 267.242188 529.648438 267.242188 C 530.234375 267.242188 531.007812 267.390625 531.652344 268.332031 C 531.230469 268.773438 531.0625 269.011719 531.0625 269.011719 C 531.0625 269.011719 530.417969 269.882812 529.417969 269.882812 " fill-opacity="1" fill-rule="nonzero"/><path fill="#e68f3f" d="M 539.578125 265.796875 C 539.578125 265.796875 540.902344 262.113281 546.011719 263.582031 C 546.601562 264.351562 543.769531 271.652344 540.421875 270.554688 C 537.074219 269.453125 539.578125 265.796875 539.578125 265.796875 " fill-opacity="1" fill-rule="nonzero"/><path fill="#e17130" d="M 539.355469 268.101562 C 539.355469 268.101562 540.386719 265.304688 542.554688 265.195312 C 543.179688 265.230469 543.476562 268.816406 540.679688 268.691406 C 539.945312 269.597656 539.210938 269.691406 539.355469 268.101562 " fill-opacity="1" fill-rule="nonzero"/><path fill="#a5a7a6" d="M 531.265625 283.726562 C 529.777344 283.078125 528.496094 282.238281 527.4375 281.394531 C 528.496094 282.238281 529.777344 283.078125 531.265625 283.726562 " fill-opacity="1" fill-rule="nonzero"/><path fill="#e17130" d="M 531.265625 283.726562 C 529.777344 283.078125 528.496094 282.238281 527.4375 281.390625 C 527.238281 280.488281 526.84375 279.71875 526.390625 279.203125 C 526.597656 278.578125 526.625 278.097656 526.554688 277.726562 C 528.949219 278.578125 531.839844 279.382812 533.367188 279.382812 C 533.511719 279.382812 533.648438 279.375 533.765625 279.359375 C 535.972656 279.078125 538.023438 277.417969 538.550781 275.679688 C 538.789062 275.675781 539.027344 275.675781 539.261719 275.671875 C 539.386719 276.449219 539.214844 277.597656 538.328125 278.441406 C 540.605469 278.039062 540.605469 278.039062 540.605469 278.039062 C 540.605469 278.039062 539.371094 280.507812 534.273438 280.507812 C 534.097656 280.507812 533.917969 280.503906 533.730469 280.5 C 534.757812 282.113281 535.753906 282.261719 535.753906 282.261719 C 535.753906 282.261719 535.609375 282.269531 535.371094 282.269531 C 534.636719 282.269531 533.011719 282.183594 532.148438 281.488281 C 531.828125 282.023438 533.066406 283.21875 533.035156 283.21875 C 533.035156 283.21875 533.035156 283.214844 533.03125 283.214844 C 532.921875 283.140625 530.640625 282.515625 529.132812 281.121094 C 528.984375 281.707031 531.253906 283.71875 531.265625 283.726562 M 521.292969 277.269531 C 520.253906 276.9375 519.148438 276.351562 518.46875 275.324219 C 518.46875 275.324219 520.410156 274.691406 522.230469 274.65625 C 521.957031 275.660156 521.644531 276.5625 521.292969 277.269531 M 528.175781 276.902344 C 528.175781 276.902344 526.683594 276.417969 525.246094 276.0625 C 525.257812 275.902344 525.269531 275.703125 525.28125 275.488281 C 526.839844 276.234375 528.175781 276.902344 528.175781 276.902344 " fill-opacity="1" fill-rule="nonzero"/><path fill="#a5a7a6" d="M 598.277344 322.0625 C 603.097656 321.777344 608.085938 320.769531 612.332031 319.15625 C 608.085938 320.769531 603.097656 321.777344 598.277344 322.0625 M 583.28125 319.832031 C 583.101562 319.738281 582.921875 319.644531 582.75 319.546875 C 582.921875 319.644531 583.101562 319.738281 583.28125 319.832031 M 612.425781 319.121094 C 612.4375 319.117188 612.453125 319.113281 612.464844 319.105469 C 613.746094 318.589844 615.011719 318.109375 616.25 317.671875 C 615.011719 318.109375 613.746094 318.589844 612.464844 319.105469 C 612.453125 319.113281 612.4375 319.117188 612.425781 319.121094 " fill-opacity="1" fill-rule="nonzero"/><path fill="#cf3923" d="M 595.464844 322.148438 C 594.765625 322.148438 594.070312 322.132812 593.390625 322.097656 C 594.074219 322.132812 594.765625 322.148438 595.464844 322.148438 C 596.390625 322.148438 597.332031 322.121094 598.277344 322.0625 C 597.332031 322.121094 596.390625 322.148438 595.464844 322.148438 " fill-opacity="1" fill-rule="nonzero"/><path fill="#e17130" d="M 595.464844 322.148438 C 594.765625 322.148438 594.074219 322.132812 593.390625 322.097656 C 589.496094 321.910156 585.941406 321.179688 583.28125 319.832031 C 583.101562 319.738281 582.921875 319.644531 582.75 319.546875 C 582.75 319.546875 581.304688 315.652344 581.894531 310.285156 C 583.949219 310.429688 585.988281 310.546875 588.007812 310.636719 C 588.03125 310.679688 588.054688 310.722656 588.078125 310.765625 C 588.121094 311.011719 588.164062 311.277344 588.207031 311.5625 C 587.585938 311.757812 586.859375 313.085938 587.945312 314.324219 C 587.941406 314.328125 587.941406 314.332031 587.9375 314.335938 C 586.582031 316.988281 588 319.832031 588 319.832031 C 588 319.832031 588.003906 319.832031 588.007812 319.832031 C 588.054688 319.835938 588.402344 319.84375 588.886719 319.84375 C 589.777344 319.84375 591.125 319.808594 591.953125 319.621094 C 592.140625 319.578125 592.300781 319.523438 592.425781 319.464844 C 592.609375 318.445312 592.527344 317.492188 592.285156 316.65625 C 592.171875 316.261719 592.023438 315.894531 591.851562 315.558594 C 592.71875 316.355469 593.546875 316.933594 594.222656 317.234375 C 595.582031 317.417969 597.320312 317.546875 599.347656 317.546875 C 600.011719 317.546875 600.703125 317.53125 601.425781 317.5 C 601.222656 318.945312 601.53125 320.121094 601.53125 320.121094 C 601.53125 320.121094 601.535156 320.125 601.542969 320.125 C 601.730469 320.171875 604.035156 320.714844 605.347656 320.714844 C 605.425781 320.714844 605.5 320.714844 605.570312 320.707031 C 605.710938 320.699219 605.835938 320.683594 605.9375 320.65625 C 606.332031 319.683594 606.441406 318.714844 606.371094 317.839844 C 606.347656 317.574219 606.308594 317.316406 606.257812 317.070312 C 609.585938 316.621094 613.261719 315.804688 617.078125 314.445312 C 616.410156 315.542969 616.242188 316.730469 616.25 317.671875 C 615.011719 318.109375 613.746094 318.589844 612.464844 319.105469 C 612.453125 319.113281 612.4375 319.117188 612.425781 319.121094 C 612.394531 319.136719 612.363281 319.148438 612.332031 319.15625 C 608.085938 320.769531 603.097656 321.777344 598.277344 322.0625 C 597.332031 322.121094 596.390625 322.148438 595.464844 322.148438 M 621.070312 316.085938 C 621.015625 315.875 620.945312 315.671875 620.871094 315.480469 C 620.867188 315.476562 620.867188 315.476562 620.867188 315.476562 C 620.636719 314.890625 620.324219 314.398438 619.988281 314.035156 C 620.078125 313.738281 620.125 313.472656 620.148438 313.238281 C 622.421875 312.261719 624.730469 311.078125 627.023438 309.652344 C 629.222656 309.449219 631.332031 309.234375 633.332031 309.007812 C 633.25 309.332031 633.167969 309.660156 633.078125 309.992188 C 632.734375 310.320312 632.46875 310.917969 632.617188 311.601562 C 632.4375 312.1875 632.242188 312.78125 632.03125 313.382812 C 632.03125 313.382812 627.371094 314.179688 621.070312 316.085938 M 585.878906 304.976562 C 584.9375 304.953125 584.03125 304.925781 583.152344 304.898438 C 583.753906 303.25 584.589844 301.546875 585.730469 299.839844 C 585.476562 301.609375 585.558594 303.335938 585.878906 304.976562 M 631.917969 303.238281 C 633.753906 296.511719 633.832031 292.242188 633.832031 292.242188 C 633.832031 292.242188 634.976562 296.441406 634.355469 302.953125 C 633.539062 303.054688 632.730469 303.148438 631.917969 303.238281 " fill-opacity="1" fill-rule="nonzero"/><path fill="#e17130" d="M 646.226562 373.304688 C 646.207031 373.222656 646.191406 373.140625 646.1875 373.054688 C 646.207031 373.136719 646.21875 373.21875 646.226562 373.304688 " fill-opacity="1" fill-rule="nonzero"/><path fill="#a5a7a6" d="M 655.777344 299.046875 C 655.78125 297.632812 655.648438 296.371094 655.414062 295.230469 C 655.648438 296.371094 655.78125 297.632812 655.777344 299.046875 M 652.058594 288.132812 C 651.871094 287.875 651.679688 287.621094 651.488281 287.367188 C 651.679688 287.621094 651.871094 287.875 652.058594 288.132812 " fill-opacity="1" fill-rule="nonzero"/><path fill="#cf3923" d="M 655.414062 295.230469 C 654.804688 292.273438 653.515625 290.125 652.058594 288.132812 C 653.515625 290.125 654.804688 292.273438 655.414062 295.230469 " fill-opacity="1" fill-rule="nonzero"/><path fill="#e17130" d="M 646.1875 373.054688 C 646.003906 368.726562 651.152344 353.164062 653.65625 346.117188 C 649.859375 333.332031 648.875 323.695312 648.941406 316.273438 C 649.523438 316.386719 650.101562 316.472656 650.535156 316.472656 C 650.589844 316.472656 650.640625 316.46875 650.6875 316.46875 C 650.777344 316.460938 650.863281 316.453125 650.933594 316.4375 C 651.285156 315.671875 651.460938 314.90625 651.5 314.179688 C 651.582031 312.695312 651.109375 311.375 650.480469 310.582031 C 650.898438 309.5 650.742188 308.828125 650.433594 308.421875 C 650.113281 307.996094 649.636719 307.851562 649.484375 307.816406 C 649.527344 307.433594 649.574219 307.058594 649.621094 306.691406 C 652.195312 306.242188 654.03125 305.878906 654.996094 305.675781 C 654.554688 307.738281 653.910156 310.039062 653.027344 312.628906 C 651.828125 316.125 651.695312 322.964844 651.695312 325.832031 C 651.695312 326.179688 651.695312 326.46875 651.699219 326.683594 C 651.703125 326.980469 651.707031 327.144531 651.707031 327.144531 L 655.777344 347.734375 C 655.777344 347.734375 647.457031 366.066406 646.1875 373.054688 M 650.492188 300.34375 C 650.601562 299.441406 650.683594 298.601562 650.710938 297.820312 C 650.621094 291.449219 645.871094 285.367188 638.804688 281.476562 C 639.742188 280.191406 640.597656 278.898438 641.347656 277.609375 C 641.347656 277.609375 641.347656 277.609375 641.351562 277.609375 C 641.355469 277.601562 641.359375 277.589844 641.363281 277.582031 C 641.367188 277.582031 641.367188 277.578125 641.367188 277.578125 C 641.375 277.566406 641.378906 277.558594 641.382812 277.550781 C 641.386719 277.546875 641.386719 277.542969 641.386719 277.542969 C 641.390625 277.535156 641.394531 277.53125 641.398438 277.523438 C 641.402344 277.519531 641.402344 277.515625 641.40625 277.511719 C 641.410156 277.503906 641.414062 277.496094 641.421875 277.484375 C 644.550781 279.265625 647.554688 281.730469 649.828125 285.195312 C 650.378906 285.929688 650.941406 286.644531 651.488281 287.367188 C 651.679688 287.621094 651.871094 287.875 652.058594 288.132812 C 653.515625 290.125 654.804688 292.273438 655.414062 295.230469 C 655.648438 296.371094 655.78125 297.632812 655.777344 299.046875 C 655.777344 299.082031 655.777344 299.117188 655.777344 299.152344 C 654.039062 299.578125 652.277344 299.972656 650.492188 300.34375 " fill-opacity="1" fill-rule="nonzero"/><path fill="#ffffff" d="M 566.09375 356.265625 C 566.09375 356.265625 565.265625 353.234375 566.679688 349.308594 C 565.265625 353.234375 566.09375 356.265625 566.09375 356.265625 " fill-opacity="1" fill-rule="nonzero"/><path fill="#ebaf4d" d="M 559.25 375.039062 C 562.726562 369.917969 566.09375 356.265625 566.09375 356.265625 C 566.09375 356.265625 565.265625 353.234375 566.679688 349.308594 C 567.03125 348.335938 567.515625 347.3125 568.1875 346.265625 C 570.625 334.109375 569.152344 314.988281 569.074219 314.007812 C 569.070312 313.980469 569.070312 313.96875 569.070312 313.96875 C 568.972656 312.109375 569.085938 310.476562 569.308594 309.070312 C 570.152344 309.175781 570.988281 309.273438 571.828125 309.371094 C 571.828125 310.839844 571.828125 312.332031 571.828125 313.601562 C 571.851562 313.984375 571.871094 314.363281 571.890625 314.742188 C 571.132812 316.535156 571.421875 318.324219 571.421875 318.332031 C 571.421875 318.332031 571.664062 318.414062 572.039062 318.535156 C 572.457031 334.8125 570.175781 346.851562 570.175781 346.851562 C 570.175781 346.851562 570.503906 352.796875 567.414062 356.320312 C 564.214844 371.625 559.25 375.039062 559.25 375.039062 M 571.828125 304.367188 C 571.421875 304.339844 571.0625 304.316406 570.753906 304.292969 C 571.328125 303.085938 571.828125 302.480469 571.828125 302.480469 C 571.828125 302.480469 571.828125 303.222656 571.828125 304.367188 " fill-opacity="1" fill-rule="nonzero"/><path fill="#3d1f1c" d="M 528.011719 268.460938 C 528.011719 268.460938 529.023438 269.632812 530.035156 269.652344 C 531.046875 269.671875 531.652344 268.71875 531.726562 268.734375 C 531.800781 268.753906 532.957031 268.71875 533.453125 268.277344 C 533.949219 267.835938 532.09375 268.386719 531.359375 268.101562 C 530.621094 267.816406 528.855469 267.285156 528.011719 268.460938 " fill-opacity="1" fill-rule="nonzero"/><path fill="#e17130" d="M 569.339844 308.898438 C 553.957031 313.183594 541.269531 302.78125 535.3125 296.535156 C 546.199219 319.59375 569.070312 313.96875 569.070312 313.96875 C 568.96875 312.035156 569.09375 310.34375 569.339844 308.898438 " fill-opacity="1" fill-rule="nonzero"/><g clip-path="url(#c3772cb01f)"><path fill="#5c2e29" d="M 644.425781 377.167969 C 644.425781 377.167969 644.429688 377.160156 644.4375 377.148438 C 641.605469 376.976562 637.839844 375.917969 637.839844 375.917969 C 637.675781 375.972656 632.5625 378.707031 632.5625 381.957031 C 642.164062 381.957031 645.03125 380.25 645.03125 380.25 Z M 617.527344 377.863281 C 617.527344 377.863281 617.4375 377.640625 617.269531 377.234375 C 613.359375 377.195312 610.277344 375.917969 610.277344 375.917969 C 606.054688 377.160156 603.882812 380.15625 603.605469 381.84375 C 610.609375 381.84375 617.867188 380.859375 617.867188 380.859375 Z M 673.515625 379.734375 C 673.515625 379.734375 679.398438 377.238281 677.191406 369.203125 C 676.886719 369.226562 676.53125 369.074219 676.164062 368.824219 C 674.953125 371.800781 673.320312 374.054688 671.78125 375.6875 C 672.878906 378.082031 673.515625 379.734375 673.515625 379.734375 Z M 565.65625 377.480469 C 565.582031 377.800781 565.539062 377.972656 565.539062 377.972656 L 565.980469 380.617188 C 565.980469 380.617188 558.09375 381.863281 551.085938 381.863281 C 551.085938 378.890625 554.230469 376.25 559.253906 375.039062 C 559.253906 375.039062 561.570312 376.613281 565.65625 377.480469 " fill-opacity="1" fill-rule="nonzero"/></g><path fill="#6f9b92" d="M 607.171875 258.039062 C 607.171875 258.039062 599.375 259.898438 591.871094 265.792969 C 581.867188 267.726562 571.8125 274.46875 569.339844 285.484375 C 579.367188 297.234375 610.734375 307.195312 610.734375 307.195312 C 610.734375 307.195312 633.011719 292.089844 641.421875 277.484375 C 635.269531 273.160156 628.648438 271.113281 628.648438 271.113281 C 628.648438 271.113281 615.554688 256.714844 607.171875 258.039062 " fill-opacity="1" fill-rule="nonzero"/><path fill="#ebaf4d" d="M 614.296875 304.644531 C 620.128906 300.328125 631.777344 291.101562 638.804688 281.476562 C 631.777344 291.101562 620.128906 300.328125 614.296875 304.644531 " fill-opacity="1" fill-rule="nonzero"/><path fill="#ffffff" d="M 641.394531 277.46875 C 641.394531 277.46875 641.390625 277.464844 641.390625 277.464844 C 641.390625 277.464844 641.394531 277.46875 641.394531 277.46875 M 641.339844 277.429688 C 641.339844 277.429688 641.339844 277.429688 641.335938 277.425781 C 641.339844 277.429688 641.339844 277.429688 641.339844 277.429688 " fill-opacity="1" fill-rule="nonzero"/><path fill="#93b8ae" d="M 604.433594 305.003906 C 594.742188 301.433594 576.539062 293.921875 569.339844 285.484375 C 569.34375 285.46875 569.988281 283.839844 571.664062 281.621094 C 572.050781 281.875 572.480469 282.160156 572.945312 282.464844 C 572.339844 283.894531 571.699219 285.632812 571.238281 287.460938 C 571.542969 287.742188 571.855469 288.027344 572.175781 288.308594 C 572.605469 286.425781 573.265625 284.589844 573.894531 283.082031 C 574.648438 283.570312 575.476562 284.101562 576.375 284.671875 C 575.800781 286.574219 575.375 288.773438 575.085938 290.601562 C 575.417969 290.839844 575.753906 291.078125 576.097656 291.316406 C 576.367188 289.515625 576.777344 287.238281 577.34375 285.28125 C 578.214844 285.828125 579.144531 286.402344 580.113281 287 C 579.667969 288.878906 579.191406 291.039062 578.832031 293.101562 C 579.164062 293.308594 579.503906 293.511719 579.84375 293.71875 C 580.1875 291.691406 580.65625 289.519531 581.109375 287.605469 C 582.09375 288.203125 583.121094 288.816406 584.179688 289.441406 C 583.578125 291.417969 583.054688 293.511719 582.621094 295.308594 C 582.953125 295.492188 583.289062 295.675781 583.625 295.855469 C 584.046875 294.082031 584.566406 291.988281 585.15625 290.011719 C 586.269531 290.664062 587.417969 291.320312 588.589844 291.976562 C 588.203125 293.789062 587.796875 295.824219 587.453125 297.816406 C 587.796875 297.988281 588.144531 298.152344 588.488281 298.320312 C 588.816406 296.367188 589.214844 294.355469 589.597656 292.539062 C 590.453125 293.011719 591.316406 293.484375 592.191406 293.949219 C 591.957031 295.917969 591.839844 298.042969 591.800781 299.859375 C 592.175781 300.03125 592.546875 300.195312 592.917969 300.359375 C 592.949219 298.613281 593.046875 296.484375 593.246094 294.511719 C 594.453125 295.144531 595.664062 295.765625 596.878906 296.367188 C 596.628906 298.097656 596.375 299.964844 596.152344 301.75 C 596.507812 301.898438 596.863281 302.046875 597.210938 302.191406 C 597.425781 300.445312 597.675781 298.601562 597.925781 296.878906 C 599.136719 297.46875 600.34375 298.03125 601.539062 298.5625 C 601.417969 300.246094 601.347656 302.082031 601.300781 303.820312 C 601.671875 303.964844 602.039062 304.105469 602.394531 304.238281 C 602.4375 302.542969 602.5 300.71875 602.609375 299.035156 C 604.132812 299.691406 605.632812 300.292969 607.089844 300.824219 C 607.074219 301.453125 607.066406 302.082031 607.058594 302.710938 C 607.050781 303.496094 607.046875 304.234375 607.050781 304.933594 C 606.171875 304.960938 605.296875 304.984375 604.433594 305.003906 M 608.148438 304.898438 C 608.144531 303.660156 608.15625 302.40625 608.175781 301.179688 C 609.136719 300.625 610.070312 300.066406 610.988281 299.496094 C 611.242188 301.140625 611.542969 303.007812 611.832031 304.761719 C 610.59375 304.8125 609.363281 304.859375 608.148438 304.898438 M 612.933594 304.710938 C 612.613281 302.75 612.277344 300.625 612.007812 298.855469 C 613.160156 298.117188 614.277344 297.371094 615.363281 296.617188 C 615.652344 298.480469 616.003906 300.808594 616.316406 303.125 C 616.640625 302.875 616.980469 302.617188 617.328125 302.347656 C 617.003906 300 616.652344 297.695312 616.371094 295.90625 C 617.730469 294.9375 619.03125 293.957031 620.28125 292.976562 C 620.78125 294.347656 621.351562 296.269531 621.960938 298.625 C 622.269531 298.367188 622.582031 298.105469 622.894531 297.839844 C 622.351562 295.753906 621.757812 293.753906 621.183594 292.257812 C 622.359375 291.308594 623.484375 290.359375 624.558594 289.417969 C 625.101562 291.097656 625.703125 293.054688 626.210938 294.953125 C 626.519531 294.675781 626.828125 294.394531 627.136719 294.113281 C 626.585938 292.109375 625.964844 290.140625 625.460938 288.617188 C 626.722656 287.484375 627.910156 286.363281 629.023438 285.265625 C 629.832031 286.832031 630.558594 288.75 631.105469 290.324219 C 631.390625 290.035156 631.679688 289.742188 631.964844 289.449219 C 631.394531 287.851562 630.660156 285.988281 629.835938 284.457031 C 629.847656 284.445312 629.855469 284.433594 629.867188 284.421875 C 631.203125 283.347656 632.378906 282.363281 633.332031 281.546875 C 634.113281 282.660156 634.964844 283.996094 635.6875 285.394531 C 635.945312 285.089844 636.203125 284.785156 636.457031 284.480469 C 635.738281 283.132812 634.921875 281.875 634.175781 280.816406 C 635.335938 279.808594 636.003906 279.191406 636.003906 279.191406 L 638.804688 281.476562 C 639.742188 280.191406 640.601562 278.898438 641.347656 277.609375 C 640.601562 278.898438 639.742188 280.191406 638.804688 281.476562 C 631.777344 291.101562 620.128906 300.328125 614.296875 304.644531 C 613.839844 304.667969 613.386719 304.691406 612.933594 304.710938 M 641.351562 277.609375 C 641.355469 277.597656 641.359375 277.589844 641.363281 277.582031 C 641.359375 277.589844 641.355469 277.601562 641.351562 277.609375 M 641.367188 277.578125 C 641.375 277.566406 641.378906 277.558594 641.382812 277.550781 C 641.378906 277.558594 641.375 277.566406 641.367188 277.578125 M 641.386719 277.542969 C 641.390625 277.535156 641.398438 277.527344 641.398438 277.523438 C 641.398438 277.527344 641.390625 277.535156 641.386719 277.542969 M 641.40625 277.511719 C 641.410156 277.503906 641.417969 277.496094 641.421875 277.484375 C 641.417969 277.496094 641.410156 277.503906 641.40625 277.511719 " fill-opacity="1" fill-rule="nonzero"/><path fill="#93b8ae" d="M 608.144531 301.199219 C 608.15625 301.191406 608.167969 301.183594 608.175781 301.179688 C 608.167969 301.1875 608.15625 301.191406 608.144531 301.199219 M 608.144531 301.199219 C 607.796875 301.078125 607.445312 300.953125 607.089844 300.824219 C 607.445312 300.953125 607.796875 301.078125 608.144531 301.199219 M 610.988281 299.496094 C 611.332031 299.28125 611.667969 299.066406 612.003906 298.851562 C 611.667969 299.066406 611.328125 299.28125 610.988281 299.496094 M 602.609375 299.035156 C 602.253906 298.878906 601.894531 298.722656 601.539062 298.5625 C 601.894531 298.722656 602.253906 298.878906 602.609375 299.03125 C 602.609375 299.03125 602.609375 299.035156 602.609375 299.035156 M 597.925781 296.878906 C 597.574219 296.710938 597.226562 296.539062 596.878906 296.367188 C 597.226562 296.539062 597.574219 296.710938 597.925781 296.878906 M 615.363281 296.617188 C 615.363281 296.617188 615.363281 296.613281 615.363281 296.613281 C 615.699219 296.378906 616.039062 296.140625 616.371094 295.90625 C 616.039062 296.144531 615.699219 296.378906 615.363281 296.617188 M 593.246094 294.511719 C 592.894531 294.324219 592.542969 294.136719 592.191406 293.949219 C 592.542969 294.136719 592.894531 294.324219 593.246094 294.511719 M 620.28125 292.976562 C 620.28125 292.976562 620.277344 292.976562 620.277344 292.972656 C 620.582031 292.734375 620.882812 292.496094 621.183594 292.253906 C 621.183594 292.253906 621.183594 292.257812 621.183594 292.257812 C 620.886719 292.496094 620.585938 292.734375 620.28125 292.976562 M 589.597656 292.539062 C 589.257812 292.351562 588.921875 292.164062 588.589844 291.976562 C 588.921875 292.164062 589.257812 292.351562 589.597656 292.539062 M 585.15625 290.011719 C 584.828125 289.820312 584.5 289.628906 584.179688 289.441406 C 584.503906 289.628906 584.828125 289.820312 585.15625 290.011719 M 624.558594 289.417969 C 624.558594 289.417969 624.558594 289.414062 624.558594 289.414062 C 624.863281 289.148438 625.164062 288.882812 625.460938 288.613281 C 625.460938 288.617188 625.460938 288.617188 625.464844 288.617188 C 625.167969 288.882812 624.863281 289.148438 624.558594 289.417969 M 581.109375 287.605469 C 580.769531 287.398438 580.441406 287.199219 580.113281 286.996094 C 580.441406 287.199219 580.769531 287.402344 581.109375 287.605469 M 577.34375 285.28125 C 577.011719 285.074219 576.691406 284.871094 576.375 284.667969 C 576.691406 284.871094 577.011719 285.074219 577.34375 285.28125 M 629.023438 285.265625 C 629.296875 284.992188 629.566406 284.722656 629.832031 284.453125 C 629.832031 284.457031 629.835938 284.457031 629.835938 284.457031 C 629.570312 284.722656 629.296875 284.996094 629.023438 285.265625 M 573.894531 283.082031 C 573.5625 282.867188 573.246094 282.660156 572.945312 282.464844 C 573.246094 282.660156 573.5625 282.867188 573.894531 283.082031 " fill-opacity="1" fill-rule="nonzero"/><path fill="#b1cdc3" d="M 607.050781 304.933594 C 607.046875 304.234375 607.050781 303.496094 607.058594 302.710938 C 607.066406 302.085938 607.074219 301.453125 607.089844 300.824219 C 607.445312 300.953125 607.796875 301.078125 608.148438 301.199219 C 608.15625 301.191406 608.167969 301.1875 608.175781 301.179688 C 608.15625 302.40625 608.144531 303.660156 608.148438 304.898438 C 607.78125 304.910156 607.414062 304.925781 607.050781 304.933594 M 611.832031 304.761719 C 611.542969 303.011719 611.242188 301.140625 610.988281 299.496094 C 611.328125 299.28125 611.667969 299.070312 612.003906 298.855469 C 612.277344 300.628906 612.613281 302.75 612.929688 304.710938 C 612.566406 304.726562 612.195312 304.746094 611.832031 304.761719 M 602.394531 304.238281 C 602.039062 304.105469 601.671875 303.964844 601.300781 303.820312 C 601.347656 302.082031 601.417969 300.246094 601.539062 298.5625 C 601.894531 298.722656 602.253906 298.878906 602.609375 299.035156 C 602.5 300.71875 602.4375 302.546875 602.394531 304.238281 M 616.316406 303.125 C 616.003906 300.808594 615.652344 298.480469 615.363281 296.617188 C 615.699219 296.382812 616.039062 296.144531 616.371094 295.90625 C 616.652344 297.695312 617.003906 300.003906 617.324219 302.347656 C 616.980469 302.617188 616.640625 302.875 616.316406 303.125 M 597.210938 302.191406 C 596.863281 302.046875 596.507812 301.898438 596.152344 301.75 C 596.371094 299.96875 596.628906 298.097656 596.878906 296.367188 C 597.226562 296.542969 597.574219 296.710938 597.925781 296.878906 C 597.675781 298.601562 597.425781 300.445312 597.210938 302.191406 M 592.917969 300.359375 C 592.546875 300.195312 592.175781 300.03125 591.800781 299.863281 C 591.839844 298.046875 591.957031 295.917969 592.191406 293.949219 C 592.542969 294.136719 592.894531 294.328125 593.246094 294.511719 C 593.046875 296.484375 592.949219 298.613281 592.917969 300.359375 M 621.960938 298.625 C 621.351562 296.269531 620.78125 294.351562 620.28125 292.976562 C 620.585938 292.738281 620.886719 292.496094 621.183594 292.257812 C 621.757812 293.753906 622.347656 295.753906 622.894531 297.839844 C 622.582031 298.109375 622.269531 298.367188 621.960938 298.625 M 588.484375 298.320312 C 588.140625 298.15625 587.796875 297.988281 587.453125 297.816406 C 587.800781 295.824219 588.203125 293.789062 588.589844 291.976562 C 588.921875 292.164062 589.257812 292.351562 589.597656 292.539062 C 589.214844 294.355469 588.816406 296.367188 588.484375 298.320312 M 583.625 295.855469 C 583.289062 295.675781 582.953125 295.492188 582.621094 295.3125 C 583.054688 293.511719 583.578125 291.417969 584.179688 289.441406 C 584.5 289.628906 584.828125 289.820312 585.15625 290.011719 C 584.566406 291.992188 584.046875 294.082031 583.625 295.855469 M 626.210938 294.953125 C 625.703125 293.054688 625.101562 291.097656 624.558594 289.417969 C 624.863281 289.148438 625.164062 288.882812 625.460938 288.617188 C 625.964844 290.140625 626.585938 292.109375 627.136719 294.113281 C 626.828125 294.394531 626.519531 294.675781 626.210938 294.953125 M 579.84375 293.71875 C 579.503906 293.511719 579.164062 293.308594 578.832031 293.097656 C 579.191406 291.039062 579.664062 288.878906 580.113281 286.996094 C 580.441406 287.199219 580.769531 287.402344 581.109375 287.605469 C 580.65625 289.519531 580.1875 291.691406 579.84375 293.71875 M 576.097656 291.316406 C 575.753906 291.082031 575.417969 290.839844 575.085938 290.601562 C 575.375 288.773438 575.800781 286.574219 576.375 284.671875 C 576.691406 284.871094 577.011719 285.074219 577.34375 285.28125 C 576.777344 287.238281 576.367188 289.515625 576.097656 291.316406 M 631.101562 290.324219 C 630.558594 288.75 629.832031 286.832031 629.023438 285.265625 C 629.296875 284.996094 629.570312 284.722656 629.835938 284.457031 C 630.660156 285.988281 631.394531 287.851562 631.964844 289.449219 C 631.679688 289.742188 631.390625 290.035156 631.101562 290.324219 M 572.175781 288.308594 C 571.855469 288.027344 571.542969 287.746094 571.238281 287.460938 C 571.699219 285.632812 572.339844 283.894531 572.945312 282.464844 C 573.246094 282.660156 573.5625 282.867188 573.894531 283.082031 C 573.265625 284.589844 572.605469 286.425781 572.175781 288.308594 M 635.6875 285.394531 C 634.964844 283.996094 634.113281 282.660156 633.332031 281.546875 C 633.636719 281.289062 633.917969 281.042969 634.175781 280.820312 C 634.921875 281.875 635.738281 283.136719 636.457031 284.480469 C 636.203125 284.785156 635.945312 285.089844 635.6875 285.394531 " fill-opacity="1" fill-rule="nonzero"/><path fill="#687b99" d="M 564.214844 308.703125 C 563.332031 308.703125 562.617188 307.988281 562.617188 307.105469 C 562.617188 306.222656 563.332031 305.507812 564.214844 305.507812 C 565.101562 305.507812 565.816406 306.222656 565.816406 307.105469 C 565.816406 307.988281 565.101562 308.703125 564.214844 308.703125 Z M 564.214844 304.1875 C 562.601562 304.1875 561.292969 305.496094 561.292969 307.105469 C 561.292969 308.71875 562.601562 310.023438 564.214844 310.023438 C 565.832031 310.023438 567.140625 308.71875 567.140625 307.105469 C 567.140625 305.496094 565.832031 304.1875 564.214844 304.1875 " fill-opacity="1" fill-rule="nonzero"/><path fill="#b9444b" d="M 557.964844 289.671875 C 557.964844 289.671875 560.355469 301.34375 561.292969 304.574219 C 562.929688 306.160156 563.554688 306.480469 563.554688 306.480469 L 565.027344 306.480469 C 565.027344 306.480469 566.054688 304.71875 566.203125 303.324219 C 566.347656 301.929688 563.847656 288.867188 563.847656 288.867188 C 563.847656 288.867188 560.757812 287.542969 557.964844 289.671875 " fill-opacity="1" fill-rule="nonzero"/><path fill="#a43038" d="M 562.085938 315.804688 C 562.085938 315.804688 565.246094 316.316406 566.789062 315.804688 C 567.378906 312.648438 566.789062 309.480469 566.789062 309.480469 L 565.242188 308.328125 C 565.242188 308.328125 563.753906 308.449219 563.40625 308.328125 C 563.0625 308.210938 561.640625 310.960938 561.640625 310.960938 C 561.640625 310.960938 561.132812 313.820312 562.085938 315.804688 " fill-opacity="1" fill-rule="nonzero"/><path fill="#b9444b" d="M 569.339844 304.1875 C 569.339844 304.1875 618.480469 308.265625 655.777344 299.152344 C 657.625 301.636719 655.777344 305.507812 655.777344 305.507812 C 655.777344 305.507812 614.382812 314.78125 568.890625 309.015625 C 566.09375 308.097656 565.515625 308.035156 565.515625 308.035156 L 565.210938 306.703125 L 569.339844 304.1875 " fill-opacity="1" fill-rule="nonzero"/><path fill="#a5a7a6" d="M 641.421875 277.484375 C 641.414062 277.480469 641.40625 277.476562 641.398438 277.46875 C 641.40625 277.472656 641.414062 277.480469 641.421875 277.484375 M 641.390625 277.464844 C 641.382812 277.457031 641.375 277.453125 641.367188 277.449219 C 641.375 277.453125 641.382812 277.457031 641.390625 277.464844 M 641.367188 277.449219 C 641.367188 277.449219 641.363281 277.445312 641.363281 277.445312 C 641.355469 277.441406 641.347656 277.4375 641.339844 277.429688 C 641.347656 277.4375 641.359375 277.441406 641.367188 277.449219 M 641.335938 277.425781 C 641.328125 277.421875 641.320312 277.414062 641.3125 277.410156 C 641.3125 277.410156 641.3125 277.410156 641.308594 277.410156 C 641.300781 277.402344 641.292969 277.398438 641.285156 277.390625 C 641.300781 277.402344 641.320312 277.414062 641.335938 277.425781 M 641.285156 277.390625 C 641.28125 277.390625 641.28125 277.390625 641.28125 277.390625 C 635.378906 273.273438 629.09375 271.253906 628.667969 271.121094 C 629.097656 271.253906 635.378906 273.273438 641.285156 277.390625 M 628.644531 271.113281 L 628.644531 271.113281 " fill-opacity="1" fill-rule="nonzero"/><path fill="#db4e29" d="M 641.347656 277.609375 C 641.347656 277.609375 641.351562 277.609375 641.351562 277.609375 C 641.351562 277.609375 641.347656 277.609375 641.347656 277.609375 M 641.363281 277.582031 C 641.367188 277.582031 641.367188 277.578125 641.367188 277.578125 C 641.367188 277.578125 641.367188 277.582031 641.363281 277.582031 M 641.382812 277.550781 C 641.386719 277.546875 641.386719 277.546875 641.386719 277.542969 C 641.386719 277.542969 641.386719 277.546875 641.382812 277.550781 M 641.398438 277.523438 C 641.402344 277.519531 641.40625 277.515625 641.40625 277.511719 C 641.402344 277.515625 641.402344 277.519531 641.398438 277.523438 " fill-opacity="1" fill-rule="nonzero"/><path fill="#4f7d75" d="M 608.144531 297.472656 C 626.1875 286.554688 630.851562 274.65625 630.851562 274.65625 C 630.851562 274.65625 630.683594 274.386719 628.175781 274.386719 C 627.371094 274.386719 626.328125 274.414062 624.96875 274.488281 C 610.996094 285.945312 599.839844 287.175781 599.839844 287.175781 C 599.839844 287.175781 621.734375 273.304688 620.554688 269.882812 C 617.066406 264.609375 612.367188 260.664062 608.335938 257.953125 C 616.636719 257.992188 628.429688 270.875 628.644531 271.109375 C 628.644531 271.113281 628.644531 271.113281 628.644531 271.113281 C 628.644531 271.113281 628.648438 271.113281 628.648438 271.113281 C 628.648438 271.113281 628.65625 271.117188 628.667969 271.121094 C 629.09375 271.253906 635.378906 273.273438 641.28125 277.390625 C 640.15625 276.605469 639.019531 275.898438 637.910156 275.265625 C 637.5625 275.714844 637.191406 276.1875 636.796875 276.675781 C 636.570312 276.957031 636.335938 277.242188 636.097656 277.535156 C 635.386719 278.398438 634.613281 279.308594 633.773438 280.257812 C 633.527344 280.535156 633.273438 280.816406 633.015625 281.101562 C 633.015625 281.101562 633.015625 281.101562 633.015625 281.105469 C 632.046875 282.171875 630.996094 283.285156 629.867188 284.421875 C 624.089844 289.074219 615.277344 295.445312 608.144531 297.472656 M 641.421875 277.484375 C 641.414062 277.480469 641.40625 277.472656 641.398438 277.46875 C 641.40625 277.476562 641.414062 277.480469 641.421875 277.484375 M 641.390625 277.464844 C 641.382812 277.457031 641.375 277.453125 641.367188 277.449219 C 641.375 277.453125 641.382812 277.457031 641.390625 277.464844 M 641.363281 277.445312 C 641.355469 277.441406 641.347656 277.4375 641.339844 277.429688 C 641.347656 277.4375 641.355469 277.441406 641.363281 277.445312 M 641.335938 277.425781 C 641.328125 277.421875 641.320312 277.414062 641.3125 277.410156 C 641.320312 277.414062 641.328125 277.421875 641.335938 277.425781 M 641.308594 277.410156 C 641.300781 277.402344 641.292969 277.398438 641.285156 277.390625 C 641.292969 277.398438 641.300781 277.402344 641.308594 277.410156 " fill-opacity="1" fill-rule="nonzero"/><path fill="#bfc0be" d="M 641.398438 277.46875 C 641.394531 277.46875 641.390625 277.464844 641.390625 277.464844 C 641.394531 277.464844 641.394531 277.46875 641.394531 277.46875 C 641.394531 277.46875 641.394531 277.46875 641.398438 277.46875 M 641.367188 277.449219 C 641.367188 277.445312 641.367188 277.445312 641.363281 277.445312 C 641.363281 277.445312 641.367188 277.445312 641.367188 277.445312 C 641.367188 277.445312 641.367188 277.445312 641.367188 277.449219 M 641.34375 277.429688 C 641.339844 277.429688 641.339844 277.425781 641.335938 277.425781 C 641.339844 277.425781 641.339844 277.429688 641.339844 277.429688 C 641.339844 277.429688 641.339844 277.429688 641.34375 277.429688 M 641.3125 277.410156 L 641.3125 277.410156 M 641.285156 277.390625 C 641.285156 277.390625 641.285156 277.390625 641.28125 277.390625 C 641.28125 277.390625 641.285156 277.390625 641.285156 277.390625 " fill-opacity="1" fill-rule="nonzero"/><path fill="#77a39b" d="M 629.867188 284.421875 C 630.996094 283.285156 632.046875 282.171875 633.015625 281.105469 C 633.117188 281.246094 633.222656 281.394531 633.332031 281.546875 C 632.378906 282.363281 631.203125 283.347656 629.867188 284.421875 M 638.804688 281.476562 L 636.003906 279.191406 C 636.003906 279.191406 635.335938 279.808594 634.175781 280.816406 C 634.039062 280.625 633.90625 280.4375 633.773438 280.257812 C 634.613281 279.308594 635.386719 278.398438 636.097656 277.535156 C 637.179688 278.660156 638.148438 280.019531 638.929688 281.304688 C 639.164062 280.980469 639.394531 280.65625 639.617188 280.332031 C 638.882812 279.164062 637.921875 277.824219 636.796875 276.675781 C 637.191406 276.1875 637.5625 275.714844 637.910156 275.265625 C 639.019531 275.898438 640.15625 276.605469 641.28125 277.390625 C 641.28125 277.390625 641.285156 277.390625 641.285156 277.390625 C 641.292969 277.398438 641.300781 277.402344 641.308594 277.410156 C 641.3125 277.410156 641.3125 277.410156 641.3125 277.410156 C 641.320312 277.414062 641.328125 277.421875 641.335938 277.425781 C 641.339844 277.425781 641.339844 277.429688 641.339844 277.429688 C 641.347656 277.4375 641.355469 277.441406 641.363281 277.445312 C 641.367188 277.449219 641.367188 277.449219 641.367188 277.449219 C 641.375 277.453125 641.382812 277.457031 641.390625 277.464844 C 641.390625 277.464844 641.394531 277.46875 641.398438 277.46875 C 641.40625 277.472656 641.414062 277.480469 641.421875 277.484375 C 641.417969 277.496094 641.410156 277.503906 641.40625 277.511719 C 641.40625 277.515625 641.402344 277.519531 641.398438 277.523438 C 641.398438 277.527344 641.390625 277.535156 641.386719 277.542969 C 641.386719 277.546875 641.386719 277.546875 641.382812 277.550781 C 641.378906 277.558594 641.375 277.566406 641.367188 277.578125 C 641.367188 277.578125 641.367188 277.582031 641.363281 277.582031 C 641.359375 277.589844 641.355469 277.597656 641.351562 277.609375 C 641.351562 277.609375 641.347656 277.609375 641.347656 277.609375 C 640.601562 278.898438 639.742188 280.191406 638.804688 281.476562 " fill-opacity="1" fill-rule="nonzero"/><path fill="#77a39b" d="M 633.015625 281.101562 C 633.273438 280.816406 633.523438 280.535156 633.773438 280.257812 C 633.523438 280.535156 633.273438 280.816406 633.015625 281.101562 M 636.097656 277.535156 C 636.335938 277.242188 636.570312 276.957031 636.796875 276.675781 C 636.570312 276.957031 636.339844 277.246094 636.097656 277.535156 " fill-opacity="1" fill-rule="nonzero"/><path fill="#9bbfb3" d="M 633.332031 281.546875 C 633.222656 281.394531 633.117188 281.246094 633.015625 281.105469 C 633.273438 280.816406 633.527344 280.535156 633.773438 280.257812 C 633.90625 280.4375 634.039062 280.625 634.175781 280.816406 C 633.917969 281.042969 633.636719 281.285156 633.332031 281.546875 M 638.929688 281.304688 C 638.148438 280.019531 637.179688 278.660156 636.097656 277.535156 C 636.339844 277.246094 636.570312 276.957031 636.796875 276.675781 C 637.921875 277.824219 638.882812 279.164062 639.617188 280.332031 C 639.390625 280.65625 639.164062 280.980469 638.929688 281.304688 " fill-opacity="1" fill-rule="nonzero"/><path fill="#ffffff" d="M 569.339844 285.484375 C 569.660156 284.058594 570.105469 282.707031 570.664062 281.425781 C 570.121094 282.667969 569.683594 283.980469 569.367188 285.359375 C 569.355469 285.402344 569.347656 285.441406 569.339844 285.484375 M 579.25 271.117188 C 579.273438 271.101562 579.296875 271.085938 579.324219 271.066406 C 579.296875 271.085938 579.277344 271.101562 579.25 271.117188 M 579.328125 271.066406 C 582.304688 268.96875 585.679688 267.417969 589.132812 266.445312 C 585.679688 267.417969 582.304688 268.96875 579.328125 271.066406 M 596.785156 262.460938 C 602.429688 259.167969 607.171875 258.039062 607.171875 258.039062 C 607.21875 258.03125 607.265625 258.023438 607.3125 258.015625 C 607.265625 258.023438 607.21875 258.03125 607.171875 258.039062 C 607.171875 258.039062 602.429688 259.167969 596.785156 262.460938 " fill-opacity="1" fill-rule="nonzero"/><path fill="#93b8ae" d="M 569.367188 285.359375 C 569.683594 283.980469 570.121094 282.667969 570.664062 281.425781 C 572.511719 277.175781 575.578125 273.726562 579.25 271.117188 C 579.277344 271.101562 579.296875 271.085938 579.324219 271.070312 C 579.324219 271.066406 579.324219 271.066406 579.328125 271.066406 C 582.304688 268.964844 585.679688 267.417969 589.132812 266.445312 C 590.042969 266.1875 590.957031 265.972656 591.871094 265.796875 C 593.523438 264.496094 595.191406 263.394531 596.785156 262.460938 C 602.429688 259.167969 607.171875 258.039062 607.171875 258.039062 C 607.21875 258.03125 607.265625 258.023438 607.3125 258.015625 C 607.632812 257.972656 607.964844 257.953125 608.296875 257.953125 C 608.308594 257.953125 608.324219 257.953125 608.335938 257.953125 C 603.175781 259.335938 597.3125 266.40625 597.3125 266.40625 L 600.695312 270.664062 L 591.871094 268.902344 C 591.871094 268.902344 591.871094 268.902344 588.195312 270.664062 C 589.957031 273.3125 604.082031 277.710938 604.082031 277.710938 C 604.082031 277.710938 591.429688 277.414062 582.898438 272.800781 C 577.203125 275.410156 573.683594 278.945312 571.664062 281.621094 C 571.359375 281.417969 571.078125 281.230469 570.828125 281.066406 C 570.214844 282.417969 569.714844 283.847656 569.367188 285.359375 " fill-opacity="1" fill-rule="nonzero"/><path fill="#ffffff" d="M 569.339844 285.484375 C 569.347656 285.445312 569.355469 285.402344 569.367188 285.359375 C 569.355469 285.402344 569.347656 285.445312 569.339844 285.484375 " fill-opacity="1" fill-rule="nonzero"/><path fill="#b1cdc3" d="M 569.339844 285.484375 C 569.347656 285.445312 569.355469 285.402344 569.367188 285.359375 C 569.714844 283.847656 570.214844 282.414062 570.828125 281.066406 C 571.078125 281.234375 571.359375 281.417969 571.664062 281.621094 C 569.992188 283.839844 569.34375 285.46875 569.339844 285.484375 " fill-opacity="1" fill-rule="nonzero"/><path fill="#a43038" d="M 574.445312 307.757812 C 574.109375 307.628906 573.910156 307.269531 573.992188 306.90625 C 574.070312 306.558594 574.378906 306.324219 574.71875 306.324219 C 574.773438 306.324219 574.828125 306.328125 574.878906 306.339844 C 575.28125 306.429688 575.535156 306.828125 575.445312 307.226562 C 575.394531 307.460938 575.242188 307.640625 575.042969 307.734375 C 575.054688 307.339844 575.023438 307.03125 574.921875 306.929688 C 574.910156 306.917969 574.898438 306.90625 574.882812 306.902344 C 574.851562 306.886719 574.820312 306.882812 574.792969 306.882812 C 574.742188 306.882812 574.703125 306.902344 574.664062 306.945312 C 574.574219 307.054688 574.515625 307.292969 574.460938 307.671875 C 574.457031 307.699219 574.449219 307.730469 574.445312 307.757812 " fill-opacity="1" fill-rule="nonzero"/><path fill="#6f9b92" d="M 571.421875 318.332031 C 571.421875 318.332031 570.910156 315.183594 573.007812 313.054688 C 572.339844 311.550781 573.433594 310.496094 574.082031 310.496094 C 574.496094 307.847656 574.421875 306.710938 574.882812 306.902344 C 575.34375 307.09375 574.679688 310.597656 574.679688 310.597656 C 574.679688 310.597656 576.648438 311.035156 575.585938 313.421875 C 576.464844 314.648438 576.9375 317.023438 575.753906 319.292969 C 574.679688 319.464844 571.421875 318.332031 571.421875 318.332031 " fill-opacity="1" fill-rule="nonzero"/><path fill="#e17130" d="M 575.582031 319.308594 C 575.644531 319.304688 575.699219 319.300781 575.753906 319.292969 C 576.398438 318.054688 576.550781 316.789062 576.414062 315.695312 C 576.550781 316.789062 576.398438 318.054688 575.753906 319.292969 C 575.699219 319.300781 575.644531 319.304688 575.582031 319.308594 M 572.726562 318.746094 C 572.472656 318.671875 572.234375 318.597656 572.039062 318.535156 C 572.234375 318.597656 572.472656 318.671875 572.726562 318.746094 " fill-opacity="1" fill-rule="nonzero"/><path fill="#e79938" d="M 572.039062 318.535156 C 571.664062 318.414062 571.421875 318.332031 571.421875 318.332031 C 571.421875 318.332031 571.664062 318.414062 572.039062 318.535156 " fill-opacity="1" fill-rule="nonzero"/><path fill="#e17130" d="M 572.996094 313.070312 C 573 313.066406 573.003906 313.058594 573.007812 313.054688 C 573.003906 313.058594 573 313.066406 572.996094 313.070312 M 575.695312 311.34375 C 575.347656 310.746094 574.679688 310.597656 574.679688 310.597656 C 574.679688 310.597656 574.753906 310.210938 574.832031 309.6875 C 574.753906 310.210938 574.679688 310.597656 574.679688 310.597656 C 574.679688 310.597656 575.347656 310.746094 575.695312 311.34375 " fill-opacity="1" fill-rule="nonzero"/><path fill="#a43038" d="M 574.832031 309.6875 C 574.925781 309.09375 575.027344 308.320312 575.042969 307.734375 C 575.027344 308.320312 574.925781 309.09375 574.832031 309.6875 " fill-opacity="1" fill-rule="nonzero"/><path fill="#88202a" d="M 575.042969 307.734375 C 575.054688 307.339844 575.023438 307.03125 574.921875 306.929688 C 575.023438 307.03125 575.054688 307.339844 575.042969 307.734375 M 574.460938 307.671875 C 574.515625 307.292969 574.574219 307.054688 574.664062 306.945312 C 574.574219 307.054688 574.515625 307.292969 574.460938 307.671875 " fill-opacity="1" fill-rule="nonzero"/><path fill="#4f7d75" d="M 575.492188 319.308594 C 574.800781 319.308594 573.632812 319.011719 572.726562 318.746094 C 572.472656 318.671875 572.234375 318.597656 572.039062 318.535156 C 571.664062 318.414062 571.421875 318.332031 571.421875 318.332031 C 571.421875 318.328125 571.414062 318.285156 571.40625 318.21875 L 573.007812 318.359375 L 573.851562 315.777344 L 574.011719 318.492188 L 574.585938 318.828125 C 574.585938 318.828125 575.398438 317.296875 575.28125 315.710938 C 575.191406 314.507812 573.582031 313.679688 572.769531 313.324219 C 572.84375 313.238281 572.914062 313.152344 572.996094 313.070312 C 573 313.066406 573.003906 313.058594 573.007812 313.054688 C 573.011719 313.054688 573.328125 313.125 573.703125 313.125 C 574.144531 313.125 574.667969 313.03125 574.863281 312.613281 C 575.222656 311.839844 574.082031 310.496094 574.082031 310.496094 C 574.285156 309.199219 574.371094 308.265625 574.460938 307.671875 C 574.515625 307.292969 574.574219 307.054688 574.664062 306.945312 C 574.703125 306.902344 574.742188 306.882812 574.792969 306.882812 C 574.820312 306.882812 574.851562 306.886719 574.882812 306.902344 C 574.898438 306.90625 574.910156 306.917969 574.921875 306.929688 C 575.023438 307.03125 575.054688 307.339844 575.042969 307.734375 C 575.027344 308.320312 574.925781 309.09375 574.832031 309.6875 C 574.753906 310.210938 574.679688 310.597656 574.679688 310.597656 C 574.679688 310.597656 575.347656 310.746094 575.695312 311.34375 C 575.945312 311.769531 576.027344 312.425781 575.585938 313.421875 C 575.984375 313.980469 576.300781 314.777344 576.414062 315.695312 C 576.550781 316.789062 576.398438 318.054688 575.753906 319.292969 C 575.699219 319.300781 575.644531 319.304688 575.582031 319.308594 C 575.554688 319.308594 575.523438 319.308594 575.492188 319.308594 " fill-opacity="1" fill-rule="nonzero"/><path fill="#a43038" d="M 587.738281 308.839844 C 587.378906 308.816406 587.078125 308.53125 587.050781 308.160156 C 587.015625 307.753906 587.320312 307.394531 587.730469 307.359375 C 587.75 307.359375 587.769531 307.355469 587.792969 307.355469 C 588.175781 307.355469 588.5 307.648438 588.53125 308.039062 C 588.554688 308.273438 588.460938 308.492188 588.300781 308.640625 C 588.179688 308.214844 588.042969 307.90625 587.898438 307.894531 C 587.886719 307.890625 587.878906 307.890625 587.871094 307.890625 C 587.851562 307.890625 587.832031 307.894531 587.816406 307.898438 C 587.632812 307.945312 587.640625 308.242188 587.738281 308.839844 " fill-opacity="1" fill-rule="nonzero"/><path fill="#6f9b92" d="M 588 319.832031 C 588 319.832031 586.578125 316.980469 587.945312 314.324219 C 586.859375 313.085938 587.585938 311.757812 588.207031 311.5625 C 587.808594 308.910156 587.402344 307.847656 587.898438 307.894531 C 588.394531 307.9375 588.804688 311.480469 588.804688 311.480469 C 588.804688 311.480469 590.816406 311.316406 590.511719 313.910156 C 591.71875 314.820312 592.878906 316.945312 592.421875 319.464844 C 591.453125 319.949219 588 319.832031 588 319.832031 " fill-opacity="1" fill-rule="nonzero"/><path fill="#db4e29" d="M 588.007812 319.832031 C 588.003906 319.832031 588 319.832031 588 319.832031 C 588 319.832031 588.003906 319.832031 588.007812 319.832031 M 591.953125 319.621094 L 591.953125 319.621094 M 591.953125 319.621094 C 592.140625 319.574219 592.300781 319.523438 592.421875 319.464844 C 592.609375 318.445312 592.527344 317.492188 592.285156 316.65625 C 592.527344 317.492188 592.609375 318.445312 592.425781 319.464844 C 592.300781 319.523438 592.140625 319.574219 591.953125 319.621094 M 587.9375 314.335938 C 587.941406 314.332031 587.941406 314.328125 587.945312 314.324219 C 587.941406 314.328125 587.941406 314.332031 587.9375 314.335938 " fill-opacity="1" fill-rule="nonzero"/><path fill="#e17130" d="M 589.992188 311.886719 C 589.585938 311.515625 589.066406 311.480469 588.878906 311.480469 C 588.832031 311.480469 588.804688 311.480469 588.804688 311.480469 C 588.804688 311.480469 588.765625 311.140625 588.695312 310.667969 C 588.765625 311.140625 588.804688 311.480469 588.804688 311.480469 C 588.804688 311.480469 588.832031 311.480469 588.878906 311.480469 C 589.066406 311.480469 589.585938 311.515625 589.992188 311.886719 " fill-opacity="1" fill-rule="nonzero"/><path fill="#a43038" d="M 588.695312 310.667969 C 588.605469 310.058594 588.46875 309.234375 588.300781 308.640625 C 588.46875 309.234375 588.605469 310.058594 588.695312 310.667969 M 587.933594 309.921875 C 587.851562 309.488281 587.785156 309.128906 587.738281 308.839844 C 587.785156 309.128906 587.851562 309.488281 587.933594 309.921875 " fill-opacity="1" fill-rule="nonzero"/><path fill="#88202a" d="M 587.738281 308.839844 C 587.640625 308.242188 587.632812 307.945312 587.816406 307.898438 C 587.632812 307.945312 587.640625 308.242188 587.738281 308.839844 M 588.300781 308.640625 C 588.179688 308.214844 588.042969 307.90625 587.898438 307.894531 C 587.886719 307.890625 587.878906 307.890625 587.871094 307.890625 C 587.878906 307.890625 587.886719 307.890625 587.898438 307.894531 C 588.042969 307.90625 588.179688 308.214844 588.300781 308.640625 " fill-opacity="1" fill-rule="nonzero"/><path fill="#4f7d75" d="M 588.886719 319.84375 C 588.402344 319.84375 588.054688 319.835938 588.007812 319.832031 C 588.003906 319.832031 588 319.832031 588 319.832031 C 588 319.832031 587.984375 319.792969 587.953125 319.730469 L 589.527344 319.386719 L 589.558594 316.671875 L 590.523438 319.21875 L 591.171875 319.367188 C 591.171875 319.367188 591.492188 317.664062 590.90625 316.183594 C 590.460938 315.0625 588.675781 314.75 587.796875 314.652344 C 587.84375 314.546875 587.886719 314.441406 587.9375 314.335938 C 587.941406 314.332031 587.941406 314.328125 587.945312 314.324219 C 587.953125 314.324219 589.46875 314.195312 589.582031 313.351562 C 589.695312 312.503906 588.207031 311.5625 588.207031 311.5625 C 588.109375 310.925781 588.015625 310.382812 587.933594 309.921875 C 587.851562 309.488281 587.785156 309.128906 587.738281 308.839844 C 587.640625 308.242188 587.632812 307.945312 587.816406 307.898438 C 587.832031 307.894531 587.851562 307.890625 587.871094 307.890625 C 587.878906 307.890625 587.886719 307.890625 587.898438 307.894531 C 588.042969 307.90625 588.179688 308.214844 588.300781 308.640625 C 588.46875 309.234375 588.605469 310.058594 588.695312 310.667969 C 588.765625 311.140625 588.804688 311.480469 588.804688 311.480469 C 588.804688 311.480469 588.832031 311.480469 588.878906 311.480469 C 589.066406 311.480469 589.585938 311.515625 589.992188 311.886719 C 590.359375 312.21875 590.640625 312.820312 590.511719 313.910156 C 591.230469 314.449219 591.933594 315.425781 592.285156 316.65625 C 592.527344 317.492188 592.609375 318.445312 592.421875 319.464844 C 592.300781 319.523438 592.140625 319.574219 591.953125 319.621094 C 591.125 319.808594 589.777344 319.84375 588.886719 319.84375 " fill-opacity="1" fill-rule="nonzero"/><path fill="#a43038" d="M 603.507812 309.304688 C 603.160156 309.207031 602.929688 308.867188 602.972656 308.5 C 603.019531 308.125 603.339844 307.847656 603.710938 307.847656 C 603.742188 307.847656 603.773438 307.847656 603.800781 307.851562 C 604.210938 307.902344 604.5 308.273438 604.453125 308.679688 C 604.421875 308.914062 604.289062 309.109375 604.101562 309.222656 C 604.070312 308.78125 603.996094 308.453125 603.859375 308.410156 C 603.832031 308.402344 603.808594 308.398438 603.785156 308.398438 C 603.78125 308.398438 603.78125 308.398438 603.78125 308.398438 C 603.769531 308.398438 603.757812 308.398438 603.75 308.402344 C 603.585938 308.4375 603.535156 308.730469 603.507812 309.304688 " fill-opacity="1" fill-rule="nonzero"/><path fill="#6f9b92" d="M 601.53125 320.121094 C 601.53125 320.121094 600.71875 317.039062 602.597656 314.71875 C 601.785156 313.285156 602.769531 312.128906 603.414062 312.0625 C 603.566406 309.386719 603.382812 308.265625 603.859375 308.410156 C 604.335938 308.554688 604.019531 312.109375 604.019531 312.109375 C 604.019531 312.109375 606.019531 312.351562 605.195312 314.828125 C 606.191406 315.964844 606.894531 318.28125 605.9375 320.65625 C 604.886719 320.933594 601.53125 320.121094 601.53125 320.121094 " fill-opacity="1" fill-rule="nonzero"/><path fill="#db4e29" d="M 605.570312 320.707031 C 605.710938 320.699219 605.835938 320.683594 605.9375 320.65625 C 606.332031 319.683594 606.441406 318.714844 606.371094 317.839844 C 606.441406 318.714844 606.332031 319.683594 605.9375 320.65625 C 605.835938 320.683594 605.710938 320.699219 605.570312 320.707031 M 601.542969 320.125 C 601.535156 320.125 601.53125 320.121094 601.53125 320.121094 C 601.53125 320.121094 601.535156 320.125 601.542969 320.125 " fill-opacity="1" fill-rule="nonzero"/><path fill="#e17130" d="M 602.582031 314.734375 C 602.589844 314.726562 602.59375 314.722656 602.597656 314.71875 C 602.59375 314.722656 602.589844 314.726562 602.582031 314.734375 M 605.046875 312.675781 C 604.640625 312.183594 604.019531 312.109375 604.019531 312.109375 C 604.019531 312.109375 604.066406 311.554688 604.097656 310.878906 C 604.066406 311.554688 604.019531 312.109375 604.019531 312.109375 C 604.019531 312.109375 604.640625 312.183594 605.046875 312.675781 " fill-opacity="1" fill-rule="nonzero"/><path fill="#a43038" d="M 604.097656 310.878906 C 604.121094 310.332031 604.136719 309.710938 604.101562 309.222656 C 604.136719 309.710938 604.121094 310.332031 604.097656 310.878906 " fill-opacity="1" fill-rule="nonzero"/><path fill="#88202a" d="M 604.101562 309.226562 C 604.066406 308.78125 603.996094 308.453125 603.859375 308.410156 C 603.832031 308.402344 603.808594 308.398438 603.785156 308.398438 C 603.785156 308.398438 603.78125 308.398438 603.78125 308.398438 C 603.78125 308.398438 603.785156 308.398438 603.785156 308.398438 C 603.808594 308.398438 603.832031 308.402344 603.859375 308.410156 C 603.996094 308.453125 604.066406 308.78125 604.101562 309.226562 " fill-opacity="1" fill-rule="nonzero"/><path fill="#a43038" d="M 603.492188 309.78125 C 603.496094 309.605469 603.503906 309.445312 603.507812 309.304688 C 603.503906 309.445312 603.496094 309.605469 603.492188 309.78125 " fill-opacity="1" fill-rule="nonzero"/><path fill="#88202a" d="M 603.507812 309.304688 C 603.535156 308.730469 603.582031 308.4375 603.746094 308.402344 C 603.582031 308.4375 603.535156 308.730469 603.507812 309.304688 M 603.746094 308.402344 C 603.746094 308.402344 603.746094 308.402344 603.75 308.402344 C 603.746094 308.402344 603.746094 308.402344 603.746094 308.402344 " fill-opacity="1" fill-rule="nonzero"/><path fill="#4f7d75" d="M 605.347656 320.714844 C 604.035156 320.714844 601.730469 320.171875 601.542969 320.125 C 601.535156 320.125 601.53125 320.121094 601.53125 320.121094 C 601.53125 320.121094 601.519531 320.082031 601.507812 320.011719 L 603.113281 319.996094 L 603.699219 317.34375 L 604.125 320.03125 L 604.730469 320.308594 C 604.730469 320.308594 605.390625 318.707031 605.117188 317.136719 C 604.910156 315.949219 603.226562 315.28125 602.382812 315.007812 C 602.449219 314.917969 602.511719 314.824219 602.582031 314.734375 C 602.589844 314.726562 602.59375 314.722656 602.597656 314.71875 C 602.597656 314.71875 602.746094 314.734375 602.957031 314.734375 C 603.425781 314.734375 604.203125 314.648438 604.394531 314.097656 C 604.679688 313.289062 603.414062 312.0625 603.414062 312.0625 C 603.46875 311.109375 603.480469 310.355469 603.492188 309.78125 C 603.496094 309.605469 603.503906 309.449219 603.507812 309.304688 C 603.535156 308.730469 603.585938 308.4375 603.75 308.402344 C 603.757812 308.398438 603.769531 308.398438 603.78125 308.398438 C 603.78125 308.398438 603.78125 308.398438 603.785156 308.398438 C 603.808594 308.398438 603.832031 308.402344 603.859375 308.410156 C 603.996094 308.453125 604.066406 308.78125 604.101562 309.226562 C 604.132812 309.710938 604.121094 310.332031 604.097656 310.878906 C 604.066406 311.554688 604.019531 312.109375 604.019531 312.109375 C 604.019531 312.109375 604.640625 312.183594 605.046875 312.679688 C 605.371094 313.070312 605.5625 313.730469 605.195312 314.832031 C 605.78125 315.5 606.265625 316.578125 606.371094 317.839844 C 606.441406 318.714844 606.332031 319.683594 605.9375 320.65625 C 605.835938 320.683594 605.710938 320.699219 605.570312 320.707031 C 605.5 320.714844 605.425781 320.714844 605.347656 320.714844 " fill-opacity="1" fill-rule="nonzero"/><path fill="#a43038" d="M 618.144531 308.558594 C 617.792969 308.472656 617.550781 308.140625 617.585938 307.769531 C 617.621094 307.382812 617.945312 307.09375 618.328125 307.09375 C 618.347656 307.09375 618.371094 307.097656 618.394531 307.097656 C 618.804688 307.136719 619.105469 307.5 619.070312 307.90625 C 619.046875 308.140625 618.917969 308.339844 618.734375 308.460938 C 618.695312 308.082031 618.628906 307.789062 618.527344 307.6875 C 618.507812 307.671875 618.488281 307.660156 618.46875 307.652344 C 618.445312 307.648438 618.421875 307.644531 618.398438 307.644531 C 618.203125 307.644531 618.152344 307.9375 618.144531 308.558594 " fill-opacity="1" fill-rule="nonzero"/><path fill="#6f9b92" d="M 616.476562 319.425781 C 616.476562 319.425781 615.574219 316.367188 617.386719 313.996094 C 616.53125 312.585938 617.480469 311.402344 618.128906 311.320312 C 618.203125 308.640625 617.988281 307.523438 618.46875 307.652344 C 618.949219 307.785156 618.734375 311.347656 618.734375 311.347656 C 618.734375 311.347656 620.742188 311.53125 619.988281 314.035156 C 621.011719 315.140625 621.78125 317.4375 620.894531 319.835938 C 619.851562 320.144531 616.476562 319.425781 616.476562 319.425781 " fill-opacity="1" fill-rule="nonzero"/><path fill="#a5a7a6" d="M 620.507812 319.902344 C 620.65625 319.886719 620.789062 319.867188 620.894531 319.835938 C 621.394531 318.488281 621.371094 317.175781 621.070312 316.085938 C 621.371094 317.175781 621.394531 318.488281 620.894531 319.835938 C 620.789062 319.867188 620.660156 319.886719 620.507812 319.902344 " fill-opacity="1" fill-rule="nonzero"/><path fill="#db4e29" d="M 621.070312 316.085938 C 621.015625 315.875 620.945312 315.671875 620.871094 315.480469 C 620.945312 315.671875 621.015625 315.875 621.070312 316.085938 " fill-opacity="1" fill-rule="nonzero"/><path fill="#e17130" d="M 617.375 314.011719 C 617.378906 314.003906 617.382812 314 617.386719 313.996094 C 617.382812 314 617.378906 314.003906 617.375 314.011719 M 620.058594 312.378906 C 619.738281 311.441406 618.734375 311.347656 618.734375 311.347656 C 618.734375 311.347656 618.761719 310.890625 618.773438 310.296875 C 618.761719 310.890625 618.734375 311.347656 618.734375 311.347656 C 618.734375 311.347656 619.738281 311.441406 620.058594 312.378906 " fill-opacity="1" fill-rule="nonzero"/><path fill="#a43038" d="M 618.773438 310.296875 C 618.789062 309.714844 618.785156 309 618.734375 308.460938 C 618.785156 309 618.789062 309.714844 618.773438 310.296875 " fill-opacity="1" fill-rule="nonzero"/><path fill="#88202a" d="M 618.734375 308.460938 C 618.695312 308.082031 618.628906 307.789062 618.527344 307.6875 C 618.628906 307.789062 618.695312 308.082031 618.734375 308.460938 " fill-opacity="1" fill-rule="nonzero"/><path fill="#a43038" d="M 618.144531 309.089844 C 618.140625 308.890625 618.140625 308.714844 618.144531 308.558594 C 618.140625 308.714844 618.140625 308.890625 618.144531 309.089844 " fill-opacity="1" fill-rule="nonzero"/><path fill="#88202a" d="M 618.144531 308.558594 C 618.152344 307.9375 618.203125 307.644531 618.398438 307.644531 C 618.203125 307.644531 618.152344 307.9375 618.144531 308.558594 " fill-opacity="1" fill-rule="nonzero"/><path fill="#4f7d75" d="M 620.15625 319.914062 C 618.910156 319.914062 616.945312 319.523438 616.546875 319.441406 C 616.542969 319.441406 616.542969 319.441406 616.539062 319.441406 C 616.515625 319.433594 616.5 319.429688 616.488281 319.429688 C 616.480469 319.425781 616.476562 319.425781 616.476562 319.425781 C 616.476562 319.425781 616.464844 319.382812 616.445312 319.316406 L 618.054688 319.253906 L 618.5625 316.585938 L 619.066406 319.261719 L 619.679688 319.523438 C 619.679688 319.523438 620.292969 317.902344 619.976562 316.34375 C 619.734375 315.160156 618.03125 314.539062 617.183594 314.292969 C 617.246094 314.199219 617.304688 314.101562 617.375 314.011719 C 617.378906 314.003906 617.382812 314 617.386719 313.996094 C 617.390625 313.996094 617.488281 314.003906 617.640625 314.003906 C 618.085938 314.003906 618.972656 313.925781 619.167969 313.320312 C 619.429688 312.507812 618.128906 311.316406 618.128906 311.316406 C 618.152344 310.394531 618.144531 309.65625 618.144531 309.089844 C 618.144531 308.890625 618.140625 308.714844 618.144531 308.558594 C 618.152344 307.9375 618.203125 307.644531 618.398438 307.644531 C 618.421875 307.644531 618.445312 307.648438 618.46875 307.652344 C 618.488281 307.660156 618.507812 307.671875 618.527344 307.6875 C 618.632812 307.789062 618.695312 308.082031 618.734375 308.460938 C 618.785156 309 618.789062 309.714844 618.773438 310.296875 C 618.761719 310.890625 618.734375 311.347656 618.734375 311.347656 C 618.734375 311.347656 619.738281 311.4375 620.058594 312.378906 C 620.191406 312.769531 620.207031 313.300781 619.988281 314.035156 C 620.324219 314.398438 620.636719 314.890625 620.871094 315.476562 C 620.871094 315.480469 620.871094 315.480469 620.871094 315.480469 C 620.945312 315.671875 621.015625 315.875 621.070312 316.085938 C 621.371094 317.175781 621.394531 318.488281 620.894531 319.835938 C 620.789062 319.867188 620.65625 319.886719 620.507812 319.902344 C 620.398438 319.910156 620.28125 319.914062 620.15625 319.914062 " fill-opacity="1" fill-rule="nonzero"/><path fill="#a43038" d="M 633.273438 306.988281 C 632.917969 306.933594 632.644531 306.625 632.644531 306.253906 C 632.644531 305.84375 632.980469 305.507812 633.390625 305.507812 C 633.800781 305.507812 634.132812 305.84375 634.132812 306.253906 C 634.132812 306.488281 634.023438 306.699219 633.851562 306.835938 C 633.769531 306.410156 633.664062 306.101562 633.527344 306.058594 C 633.523438 306.058594 633.519531 306.054688 633.515625 306.054688 C 633.496094 306.054688 633.484375 306.050781 633.46875 306.050781 C 633.46875 306.050781 633.464844 306.050781 633.464844 306.050781 C 633.25 306.050781 633.226562 306.347656 633.273438 306.988281 " fill-opacity="1" fill-rule="nonzero"/><path fill="#6f9b92" d="M 632.621094 317.960938 C 632.621094 317.960938 631.441406 315 633.023438 312.46875 C 632.042969 311.144531 632.878906 309.878906 633.515625 309.738281 C 633.34375 307.0625 633.023438 305.96875 633.515625 306.054688 C 634.003906 306.140625 634.121094 309.707031 634.121094 309.707031 C 634.121094 309.707031 636.136719 309.707031 635.617188 312.265625 C 636.742188 313.273438 637.722656 315.488281 637.058594 317.960938 C 636.050781 318.363281 632.621094 317.960938 632.621094 317.960938 " fill-opacity="1" fill-rule="nonzero"/><path fill="#e17130" d="M 636.757812 318.046875 C 636.875 318.023438 636.976562 317.996094 637.058594 317.960938 C 637.453125 316.496094 637.265625 315.117188 636.816406 314.03125 C 637.265625 315.117188 637.453125 316.496094 637.058594 317.960938 C 636.976562 317.996094 636.875 318.023438 636.757812 318.046875 " fill-opacity="1" fill-rule="nonzero"/><path fill="#e17130" d="M 636.816406 314.03125 C 636.8125 314.023438 636.8125 314.015625 636.808594 314.011719 C 636.8125 314.015625 636.8125 314.023438 636.816406 314.03125 M 636.808594 314.007812 C 636.804688 314 636.800781 313.996094 636.800781 313.992188 C 636.800781 313.996094 636.804688 314 636.808594 314.007812 M 636.796875 313.984375 L 636.796875 313.984375 M 635.867188 312.511719 C 635.859375 312.503906 635.851562 312.5 635.847656 312.492188 C 635.851562 312.5 635.859375 312.503906 635.867188 312.511719 M 635.847656 312.492188 C 635.820312 312.460938 635.792969 312.433594 635.761719 312.40625 C 635.792969 312.433594 635.820312 312.460938 635.847656 312.492188 M 633.015625 312.484375 C 633.019531 312.476562 633.023438 312.472656 633.023438 312.46875 C 633.023438 312.472656 633.019531 312.476562 633.015625 312.484375 M 635.761719 312.40625 C 635.753906 312.394531 635.742188 312.382812 635.734375 312.375 C 635.742188 312.382812 635.753906 312.394531 635.761719 312.40625 M 635.726562 312.371094 C 635.695312 312.335938 635.664062 312.308594 635.628906 312.277344 C 635.664062 312.308594 635.695312 312.335938 635.726562 312.371094 M 635.445312 310.4375 C 634.992188 309.707031 634.121094 309.707031 634.121094 309.707031 C 634.121094 309.707031 634.109375 309.378906 634.082031 308.921875 C 634.109375 309.378906 634.121094 309.707031 634.121094 309.707031 C 634.121094 309.707031 634.992188 309.707031 635.445312 310.4375 " fill-opacity="1" fill-rule="nonzero"/><path fill="#a43038" d="M 634.082031 308.921875 C 634.042969 308.304688 633.972656 307.449219 633.851562 306.835938 C 633.972656 307.449219 634.042969 308.304688 634.082031 308.921875 " fill-opacity="1" fill-rule="nonzero"/><path fill="#a43038" d="M 633.304688 307.3125 C 633.292969 307.195312 633.28125 307.085938 633.273438 306.988281 C 633.28125 307.085938 633.292969 307.195312 633.304688 307.3125 " fill-opacity="1" fill-rule="nonzero"/><path fill="#88202a" d="M 633.273438 306.988281 C 633.226562 306.347656 633.25 306.050781 633.464844 306.050781 C 633.464844 306.050781 633.46875 306.050781 633.46875 306.050781 C 633.46875 306.050781 633.464844 306.050781 633.464844 306.050781 C 633.25 306.050781 633.226562 306.347656 633.273438 306.988281 " fill-opacity="1" fill-rule="nonzero"/><path fill="#4f7d75" d="M 635.460938 318.140625 C 634.167969 318.140625 632.675781 317.96875 632.621094 317.960938 C 632.621094 317.960938 632.605469 317.921875 632.582031 317.855469 L 634.175781 317.648438 L 634.4375 314.941406 L 635.1875 317.558594 L 635.820312 317.761719 C 635.820312 317.761719 636.28125 316.09375 635.820312 314.570312 C 635.46875 313.414062 633.71875 312.953125 632.847656 312.785156 C 632.902344 312.683594 632.953125 312.582031 633.015625 312.484375 C 633.019531 312.476562 633.019531 312.472656 633.023438 312.46875 C 633.035156 312.46875 634.550781 312.46875 634.734375 311.636719 C 634.921875 310.800781 633.515625 309.738281 633.515625 309.738281 C 633.445312 308.699219 633.359375 307.898438 633.304688 307.3125 C 633.292969 307.195312 633.28125 307.089844 633.277344 306.988281 C 633.226562 306.347656 633.25 306.050781 633.464844 306.050781 C 633.464844 306.050781 633.464844 306.050781 633.46875 306.050781 C 633.484375 306.050781 633.5 306.054688 633.515625 306.054688 C 633.519531 306.054688 633.523438 306.058594 633.527344 306.058594 C 633.664062 306.101562 633.769531 306.410156 633.851562 306.835938 C 633.972656 307.453125 634.042969 308.304688 634.082031 308.921875 C 634.109375 309.378906 634.121094 309.710938 634.121094 309.710938 C 634.121094 309.710938 634.992188 309.710938 635.441406 310.4375 C 635.675781 310.816406 635.796875 311.394531 635.617188 312.269531 C 635.621094 312.269531 635.625 312.273438 635.628906 312.277344 C 635.664062 312.308594 635.695312 312.335938 635.726562 312.371094 C 635.730469 312.371094 635.730469 312.375 635.734375 312.375 C 635.742188 312.386719 635.753906 312.394531 635.761719 312.402344 C 635.761719 312.40625 635.761719 312.40625 635.761719 312.40625 C 635.789062 312.433594 635.816406 312.460938 635.847656 312.492188 C 635.851562 312.5 635.859375 312.503906 635.867188 312.511719 C 636.21875 312.894531 636.546875 313.394531 636.796875 313.984375 L 636.796875 313.988281 C 636.796875 313.988281 636.800781 313.988281 636.800781 313.988281 C 636.800781 313.996094 636.804688 314 636.808594 314.007812 C 636.808594 314.007812 636.808594 314.007812 636.808594 314.011719 C 636.808594 314.015625 636.8125 314.023438 636.816406 314.03125 C 637.265625 315.117188 637.453125 316.496094 637.058594 317.960938 C 636.976562 317.996094 636.875 318.023438 636.757812 318.046875 C 636.414062 318.117188 635.953125 318.140625 635.460938 318.140625 " fill-opacity="1" fill-rule="nonzero"/><path fill="#a43038" d="M 649.066406 304.980469 C 648.722656 304.867188 648.507812 304.515625 648.570312 304.148438 C 648.632812 303.789062 648.949219 303.53125 649.304688 303.53125 C 649.347656 303.53125 649.386719 303.535156 649.429688 303.542969 C 649.835938 303.613281 650.109375 303.996094 650.039062 304.402344 C 650 304.636719 649.855469 304.824219 649.660156 304.929688 C 649.652344 304.484375 649.597656 304.152344 649.460938 304.101562 C 649.429688 304.09375 649.402344 304.085938 649.378906 304.085938 C 649.375 304.085938 649.375 304.085938 649.375 304.085938 C 649.351562 304.085938 649.335938 304.089844 649.316406 304.097656 C 649.175781 304.15625 649.117188 304.445312 649.066406 304.980469 " fill-opacity="1" fill-rule="nonzero"/><path fill="#6f9b92" d="M 646.5625 315.6875 C 646.5625 315.6875 645.898438 312.566406 647.890625 310.339844 C 647.148438 308.871094 648.1875 307.765625 648.835938 307.730469 C 649.121094 305.066406 648.992188 303.933594 649.460938 304.101562 C 649.929688 304.269531 649.4375 307.804688 649.4375 307.804688 C 649.4375 307.804688 651.425781 308.144531 650.480469 310.582031 C 651.417969 311.761719 652.007812 314.113281 650.933594 316.4375 C 649.871094 316.664062 646.5625 315.6875 646.5625 315.6875 " fill-opacity="1" fill-rule="nonzero"/><path fill="#db4e29" d="M 650.6875 316.46875 C 650.777344 316.460938 650.863281 316.453125 650.933594 316.4375 C 651.285156 315.671875 651.460938 314.90625 651.5 314.179688 C 651.460938 314.90625 651.285156 315.671875 650.933594 316.4375 C 650.863281 316.453125 650.777344 316.460938 650.6875 316.46875 " fill-opacity="1" fill-rule="nonzero"/><path fill="#e17130" d="M 647.445312 315.929688 C 647.425781 315.925781 647.402344 315.917969 647.382812 315.910156 C 647.402344 315.917969 647.425781 315.925781 647.445312 315.929688 M 647.351562 315.90625 C 647.023438 315.820312 646.769531 315.746094 646.644531 315.710938 C 646.769531 315.746094 647.023438 315.820312 647.351562 315.90625 M 646.601562 315.699219 C 646.597656 315.699219 646.597656 315.699219 646.59375 315.699219 C 646.597656 315.699219 646.597656 315.699219 646.601562 315.699219 M 646.570312 315.691406 C 646.5625 315.6875 646.558594 315.6875 646.558594 315.6875 C 646.558594 315.6875 646.5625 315.6875 646.570312 315.691406 M 647.878906 310.351562 C 647.882812 310.347656 647.886719 310.34375 647.890625 310.339844 C 647.886719 310.34375 647.882812 310.347656 647.878906 310.351562 M 649.484375 307.816406 C 649.453125 307.808594 649.4375 307.804688 649.4375 307.804688 C 649.4375 307.804688 649.503906 307.320312 649.566406 306.703125 C 649.503906 307.320312 649.4375 307.804688 649.4375 307.804688 C 649.4375 307.804688 649.453125 307.808594 649.484375 307.816406 " fill-opacity="1" fill-rule="nonzero"/><path fill="#db4e29" d="M 650.433594 308.421875 C 650.113281 307.996094 649.636719 307.851562 649.484375 307.816406 C 649.636719 307.851562 650.113281 307.996094 650.433594 308.421875 " fill-opacity="1" fill-rule="nonzero"/><path fill="#a43038" d="M 649.566406 306.703125 C 649.621094 306.132812 649.671875 305.453125 649.660156 304.929688 C 649.671875 305.453125 649.621094 306.132812 649.566406 306.703125 " fill-opacity="1" fill-rule="nonzero"/><path fill="#88202a" d="M 649.660156 304.929688 C 649.652344 304.484375 649.597656 304.152344 649.460938 304.101562 C 649.429688 304.09375 649.402344 304.085938 649.375 304.085938 C 649.375 304.085938 649.375 304.085938 649.371094 304.085938 C 649.375 304.085938 649.375 304.085938 649.375 304.085938 C 649.402344 304.085938 649.429688 304.09375 649.460938 304.101562 C 649.597656 304.152344 649.652344 304.484375 649.660156 304.929688 " fill-opacity="1" fill-rule="nonzero"/><path fill="#a43038" d="M 649.046875 305.226562 C 649.050781 305.140625 649.058594 305.058594 649.066406 304.980469 C 649.058594 305.058594 649.050781 305.140625 649.046875 305.226562 " fill-opacity="1" fill-rule="nonzero"/><path fill="#88202a" d="M 649.066406 304.980469 C 649.117188 304.445312 649.175781 304.15625 649.320312 304.097656 C 649.175781 304.15625 649.117188 304.445312 649.066406 304.980469 " fill-opacity="1" fill-rule="nonzero"/><path fill="#4f7d75" d="M 650.535156 316.472656 C 649.707031 316.472656 648.339844 316.160156 647.445312 315.929688 C 647.425781 315.925781 647.402344 315.917969 647.382812 315.910156 C 647.371094 315.910156 647.363281 315.90625 647.351562 315.90625 C 647.023438 315.820312 646.769531 315.746094 646.644531 315.710938 C 646.628906 315.707031 646.613281 315.703125 646.601562 315.699219 C 646.597656 315.699219 646.59375 315.699219 646.59375 315.699219 C 646.582031 315.695312 646.574219 315.691406 646.570312 315.691406 C 646.5625 315.6875 646.558594 315.6875 646.558594 315.6875 C 646.558594 315.6875 646.550781 315.644531 646.539062 315.578125 L 648.148438 315.636719 L 648.859375 313.019531 L 649.15625 315.722656 L 649.746094 316.03125 C 649.746094 316.03125 650.484375 314.464844 650.289062 312.882812 C 650.140625 311.6875 648.488281 310.9375 647.664062 310.621094 C 647.734375 310.53125 647.800781 310.441406 647.878906 310.351562 C 647.882812 310.347656 647.886719 310.34375 647.890625 310.339844 C 647.890625 310.339844 648.125 310.382812 648.425781 310.382812 C 648.894531 310.382812 649.523438 310.289062 649.71875 309.808594 C 650.039062 309.019531 648.835938 307.730469 648.835938 307.730469 C 648.949219 306.648438 649 305.820312 649.046875 305.226562 C 649.050781 305.140625 649.058594 305.058594 649.066406 304.980469 C 649.117188 304.445312 649.175781 304.15625 649.316406 304.097656 C 649.335938 304.089844 649.351562 304.089844 649.371094 304.085938 C 649.375 304.085938 649.375 304.085938 649.375 304.085938 C 649.402344 304.085938 649.429688 304.09375 649.460938 304.101562 C 649.597656 304.152344 649.652344 304.484375 649.660156 304.929688 C 649.671875 305.453125 649.621094 306.132812 649.566406 306.703125 C 649.503906 307.320312 649.4375 307.804688 649.4375 307.804688 C 649.4375 307.804688 649.453125 307.808594 649.484375 307.816406 C 649.636719 307.851562 650.113281 307.996094 650.433594 308.421875 C 650.738281 308.828125 650.898438 309.496094 650.480469 310.582031 C 651.109375 311.375 651.582031 312.695312 651.5 314.179688 C 651.460938 314.90625 651.285156 315.671875 650.933594 316.4375 C 650.863281 316.453125 650.777344 316.460938 650.6875 316.46875 C 650.640625 316.46875 650.589844 316.472656 650.535156 316.472656 " fill-opacity="1" fill-rule="nonzero"/><path fill="#b9444b" d="M 523.890625 264.167969 C 523.890625 264.167969 523.121094 274.199219 521.078125 277.660156 C 522.347656 278.480469 523.890625 278.3125 523.890625 278.3125 C 523.890625 278.3125 527.035156 269.394531 526.707031 264.167969 C 524.664062 263.726562 523.890625 264.167969 523.890625 264.167969 " fill-opacity="1" fill-rule="nonzero"/><path fill="#a43038" d="M 530.234375 285.085938 C 530.402344 285.085938 543.308594 281.839844 548.769531 274.019531 C 547.300781 273.378906 546.949219 273.746094 546.949219 273.746094 C 546.949219 273.746094 538.105469 281.398438 529.539062 283.378906 C 529.519531 284.867188 530.234375 285.085938 530.234375 285.085938 " fill-opacity="1" fill-rule="nonzero"/><path fill="#b9444b" d="M 524.773438 270.664062 C 524.773438 270.664062 539.722656 272.425781 548.769531 269.34375 C 550.148438 271.488281 550.207031 274.65625 550.207031 274.65625 C 550.207031 274.65625 537.738281 277.214844 524.167969 274.242188 C 524.996094 271.597656 524.773438 270.664062 524.773438 270.664062 " fill-opacity="1" fill-rule="nonzero"/><path fill="#a43038" d="M 524.015625 271.980469 C 524.015625 271.980469 511.792969 306.484375 523.75 311.648438 C 535.707031 316.816406 556.890625 285.4375 556.890625 285.4375 C 556.890625 285.4375 557.441406 284.007812 555.679688 283.675781 C 554.132812 286.375 531.625 316.707031 524.015625 309.496094 C 516.402344 302.28125 522.660156 281.835938 525.78125 273.113281 C 525.339844 270.902344 524.015625 271.980469 524.015625 271.980469 " fill-opacity="1" fill-rule="nonzero"/><path fill="#88202a" d="M 524.707031 273.675781 C 524.359375 273.578125 524.125 273.238281 524.171875 272.871094 C 524.214844 272.492188 524.539062 272.21875 524.910156 272.21875 C 524.9375 272.21875 524.96875 272.21875 525 272.222656 C 525.410156 272.273438 525.699219 272.644531 525.648438 273.050781 C 525.621094 273.285156 525.484375 273.480469 525.296875 273.59375 C 525.269531 273.210938 525.214844 272.914062 525.109375 272.8125 C 525.09375 272.796875 525.074219 272.785156 525.058594 272.78125 C 525.03125 272.773438 525.003906 272.765625 524.980469 272.765625 C 524.9375 272.765625 524.898438 272.78125 524.867188 272.816406 C 524.765625 272.917969 524.726562 273.203125 524.707031 273.675781 " fill-opacity="1" fill-rule="nonzero"/><path fill="#6f9b92" d="M 522.71875 284.492188 C 522.71875 284.492188 521.910156 281.40625 523.789062 279.085938 C 522.976562 277.65625 523.960938 276.5 524.609375 276.433594 C 524.761719 273.757812 524.582031 272.636719 525.054688 272.78125 C 525.53125 272.925781 525.210938 276.480469 525.210938 276.480469 C 525.210938 276.480469 527.214844 276.722656 526.386719 279.203125 C 527.382812 280.335938 528.085938 282.652344 527.125 285.027344 C 526.074219 285.304688 522.71875 284.492188 522.71875 284.492188 " fill-opacity="1" fill-rule="nonzero"/><path fill="#a5a7a6" d="M 526.761719 285.078125 C 526.898438 285.070312 527.023438 285.054688 527.125 285.027344 C 527.558594 283.960938 527.652344 282.902344 527.535156 281.960938 C 527.652344 282.902344 527.558594 283.960938 527.125 285.027344 C 527.023438 285.054688 526.902344 285.070312 526.761719 285.078125 " fill-opacity="1" fill-rule="nonzero"/><path fill="#88202a" d="M 523.78125 279.097656 C 523.785156 279.09375 523.785156 279.089844 523.789062 279.085938 C 523.785156 279.089844 523.785156 279.09375 523.78125 279.097656 " fill-opacity="1" fill-rule="nonzero"/><path fill="#e17130" d="M 526.453125 277.402344 C 526.109375 276.589844 525.210938 276.480469 525.210938 276.480469 C 525.210938 276.480469 525.226562 276.316406 525.246094 276.0625 C 525.226562 276.316406 525.210938 276.480469 525.210938 276.480469 C 525.210938 276.480469 526.109375 276.589844 526.453125 277.402344 M 525.28125 275.488281 C 525.296875 275.175781 525.3125 274.824219 525.316406 274.480469 C 525.3125 274.824219 525.296875 275.175781 525.28125 275.488281 " fill-opacity="1" fill-rule="nonzero"/><path fill="#db4e29" d="M 525.246094 276.0625 C 525.257812 275.902344 525.269531 275.707031 525.28125 275.488281 C 525.269531 275.707031 525.257812 275.902344 525.246094 276.0625 " fill-opacity="1" fill-rule="nonzero"/><path fill="#88202a" d="M 525.316406 274.425781 C 525.320312 274.132812 525.316406 273.847656 525.296875 273.59375 C 525.316406 273.847656 525.320312 274.132812 525.316406 274.425781 " fill-opacity="1" fill-rule="nonzero"/><path fill="#62151e" d="M 525.296875 273.59375 C 525.269531 273.210938 525.214844 272.914062 525.109375 272.8125 C 525.214844 272.914062 525.269531 273.210938 525.296875 273.59375 " fill-opacity="1" fill-rule="nonzero"/><path fill="#88202a" d="M 524.699219 273.890625 C 524.699219 273.8125 524.703125 273.742188 524.707031 273.675781 C 524.703125 273.742188 524.699219 273.8125 524.699219 273.890625 " fill-opacity="1" fill-rule="nonzero"/><path fill="#62151e" d="M 524.707031 273.675781 C 524.726562 273.203125 524.765625 272.917969 524.867188 272.816406 C 524.765625 272.917969 524.726562 273.203125 524.707031 273.675781 " fill-opacity="1" fill-rule="nonzero"/><path fill="#4f7d75" d="M 526.539062 285.085938 C 525.183594 285.085938 522.769531 284.503906 522.722656 284.492188 C 522.71875 284.492188 522.71875 284.492188 522.71875 284.492188 C 522.71875 284.492188 522.710938 284.449219 522.695312 284.382812 L 524.304688 284.367188 L 524.890625 281.714844 L 525.316406 284.402344 L 525.921875 284.679688 C 525.921875 284.679688 526.582031 283.078125 526.308594 281.511719 C 526.101562 280.320312 524.417969 279.652344 523.578125 279.378906 C 523.644531 279.285156 523.707031 279.191406 523.78125 279.097656 C 523.785156 279.09375 523.785156 279.089844 523.789062 279.085938 C 523.792969 279.085938 523.941406 279.105469 524.15625 279.105469 C 524.621094 279.105469 525.394531 279.019531 525.589844 278.464844 C 525.875 277.660156 524.609375 276.433594 524.609375 276.433594 C 524.671875 275.328125 524.679688 274.484375 524.699219 273.890625 C 524.699219 273.816406 524.703125 273.742188 524.707031 273.675781 C 524.726562 273.203125 524.765625 272.921875 524.867188 272.816406 C 524.898438 272.785156 524.9375 272.769531 524.980469 272.769531 C 525.003906 272.769531 525.03125 272.773438 525.054688 272.78125 C 525.074219 272.785156 525.09375 272.796875 525.109375 272.8125 C 525.214844 272.914062 525.269531 273.210938 525.296875 273.59375 C 525.316406 273.847656 525.320312 274.132812 525.316406 274.425781 C 525.316406 274.445312 525.316406 274.460938 525.316406 274.480469 C 525.3125 274.824219 525.296875 275.175781 525.28125 275.488281 C 525.269531 275.707031 525.257812 275.902344 525.246094 276.0625 C 525.226562 276.316406 525.210938 276.480469 525.210938 276.480469 C 525.210938 276.480469 526.109375 276.589844 526.453125 277.402344 C 526.625 277.804688 526.664062 278.382812 526.386719 279.203125 C 526.933594 279.824219 527.394531 280.808594 527.535156 281.960938 C 527.652344 282.902344 527.558594 283.960938 527.125 285.027344 C 527.023438 285.054688 526.898438 285.074219 526.761719 285.082031 C 526.691406 285.085938 526.617188 285.085938 526.539062 285.085938 " fill-opacity="1" fill-rule="nonzero"/></svg>