<svg xmlns="http://www.w3.org/2000/svg" xmlns:xlink="http://www.w3.org/1999/xlink" width="960" zoomAndPan="magnify" viewBox="0 0 720 404.99999" height="540" preserveAspectRatio="xMidYMid meet" version="1.0"><defs><clipPath id="5313616d50"><path d="M 65.375 371.375 L 70.496094 371.375 L 70.496094 374.273438 L 65.375 374.273438 Z M 65.375 371.375 " clip-rule="nonzero"/></clipPath><clipPath id="a3617cbd64"><path d="M 95.328125 371.375 L 100.449219 371.375 L 100.449219 374.273438 L 95.328125 374.273438 Z M 95.328125 371.375 " clip-rule="nonzero"/></clipPath><clipPath id="1e522857d3"><path d="M 87.347656 371.375 L 92.527344 371.375 L 92.527344 374.273438 L 87.347656 374.273438 Z M 87.347656 371.375 " clip-rule="nonzero"/></clipPath><clipPath id="dbd40b90c5"><path d="M 58.347656 371.375 L 63.46875 371.375 L 63.46875 374.273438 L 58.347656 374.273438 Z M 58.347656 371.375 " clip-rule="nonzero"/></clipPath><clipPath id="894ecadd66"><path d="M 40.5 336 L 47 336 L 47 344 L 40.5 344 Z M 40.5 336 " clip-rule="nonzero"/></clipPath><clipPath id="be53fbd9f2"><path d="M 98 218.273438 L 105 218.273438 L 105 228 L 98 228 Z M 98 218.273438 " clip-rule="nonzero"/></clipPath><clipPath id="d3b5470562"><path d="M 112.179688 242.785156 L 125.25 242.785156 L 125.25 255.460938 L 112.179688 255.460938 Z M 112.179688 242.785156 " clip-rule="nonzero"/></clipPath></defs><rect x="-72" width="864" fill="#ffffff" y="-40.499999" height="485.999988" fill-opacity="1"/><rect x="-72" width="864" fill="#ffffff" y="-40.499999" height="485.999988" fill-opacity="1"/><rect x="-72" width="864" fill="#ffffff" y="-40.499999" height="485.999988" fill-opacity="1"/><path fill="#fee280" d="M 0 319.5 L 12 320.773438 C 24 321.976562 48 324.523438 72 327.226562 C 96 330 120 333 144 330 C 168 327 192 318 216 312.898438 C 240 307.726562 264 306.523438 288 309.375 C 312 312.226562 336 319.273438 360 319.875 C 384 320.476562 408 314.773438 432 316.726562 C 456 318.75 480 328.5 504 328.648438 C 528 328.726562 552 319.273438 576 316.125 C 600 312.976562 624 316.273438 648 318.226562 C 672 320.25 696 321 708 321.375 L 720 321.75 L 720 405.75 L 708 405.75 C 696 405.75 672 405.75 648 405.75 C 624 405.75 600 405.75 576 405.75 C 552 405.75 528 405.75 504 405.75 C 480 405.75 456 405.75 432 405.75 C 408 405.75 384 405.75 360 405.75 C 336 405.75 312 405.75 288 405.75 C 264 405.75 240 405.75 216 405.75 C 192 405.75 168 405.75 144 405.75 C 120 405.75 96 405.75 72 405.75 C 48 405.75 24 405.75 12 405.75 L 0 405.75 Z M 0 319.5 " fill-opacity="1" fill-rule="nonzero"/><path fill="#fdd857" d="M 0 339 L 12 341.625 C 24 344.25 48 349.5 72 347.625 C 96 345.75 120 336.75 144 334.875 C 168 333 192 338.25 216 343.726562 C 240 349.273438 264 354.976562 288 352.726562 C 312 350.476562 336 340.273438 360 335.101562 C 384 330 408 330 432 329.398438 C 456 328.726562 480 327.523438 504 327.898438 C 528 328.273438 552 330.226562 576 335.773438 C 600 341.25 624 350.25 648 350.773438 C 672 351.226562 696 343.273438 708 339.226562 L 720 335.25 L 720 405.75 L 708 405.75 C 696 405.75 672 405.75 648 405.75 C 624 405.75 600 405.75 576 405.75 C 552 405.75 528 405.75 504 405.75 C 480 405.75 456 405.75 432 405.75 C 408 405.75 384 405.75 360 405.75 C 336 405.75 312 405.75 288 405.75 C 264 405.75 240 405.75 216 405.75 C 192 405.75 168 405.75 144 405.75 C 120 405.75 96 405.75 72 405.75 C 48 405.75 24 405.75 12 405.75 L 0 405.75 Z M 0 339 " fill-opacity="1" fill-rule="nonzero"/><path fill="#e8c138" d="M 0 372 L 12 368.25 C 24 364.5 48 357 72 354 C 96 351 120 352.5 144 352.5 C 168 352.5 192 351 216 351 C 240 351 264 352.5 288 352.726562 C 312 353.023438 336 351.976562 360 355.648438 C 384 359.25 408 367.5 432 370.5 C 456 373.5 480 371.25 504 368.773438 C 528 366.226562 552 363.523438 576 363.226562 C 600 363 624 365.25 648 363.523438 C 672 361.726562 696 356.023438 708 353.101562 L 720 350.25 L 720 405.75 L 708 405.75 C 696 405.75 672 405.75 648 405.75 C 624 405.75 600 405.75 576 405.75 C 552 405.75 528 405.75 504 405.75 C 480 405.75 456 405.75 432 405.75 C 408 405.75 384 405.75 360 405.75 C 336 405.75 312 405.75 288 405.75 C 264 405.75 240 405.75 216 405.75 C 192 405.75 168 405.75 144 405.75 C 120 405.75 96 405.75 72 405.75 C 48 405.75 24 405.75 12 405.75 L 0 405.75 Z M 0 372 " fill-opacity="1" fill-rule="nonzero"/><path fill="#bf9d29" d="M 0 377.25 L 12 375.898438 C 24 374.476562 48 371.773438 72 370.726562 C 96 369.75 120 370.5 144 373.648438 C 168 376.726562 192 382.273438 216 385.351562 C 240 388.5 264 389.25 288 388.125 C 312 387 336 384 360 381.601562 C 384 379.273438 408 377.476562 432 375.375 C 456 373.273438 480 370.726562 504 372.976562 C 528 375.226562 552 382.273438 576 383.25 C 600 384.226562 624 379.273438 648 377.398438 C 672 375.523438 696 376.726562 708 377.398438 L 720 378 L 720 405.75 L 708 405.75 C 696 405.75 672 405.75 648 405.75 C 624 405.75 600 405.75 576 405.75 C 552 405.75 528 405.75 504 405.75 C 480 405.75 456 405.75 432 405.75 C 408 405.75 384 405.75 360 405.75 C 336 405.75 312 405.75 288 405.75 C 264 405.75 240 405.75 216 405.75 C 192 405.75 168 405.75 144 405.75 C 120 405.75 96 405.75 72 405.75 C 48 405.75 24 405.75 12 405.75 L 0 405.75 Z M 0 377.25 " fill-opacity="1" fill-rule="nonzero"/><path fill="#f9ad0c" d="M 65.707031 371.402344 C 65.898438 369.960938 66.125 367.921875 66.253906 365.441406 C 66.484375 361.085938 66.023438 357.761719 65.796875 355.699219 C 65.566406 353.636719 66.253906 350.542969 65.796875 347.21875 C 65.546875 345.414062 65.339844 342.828125 65.007812 340.4375 C 65.644531 337.820312 66.261719 335.597656 66.441406 335.066406 C 66.523438 334.816406 65.898438 334.535156 64.914062 334.289062 C 67.351562 333.621094 72.660156 333.925781 72.40625 334.6875 C 72.0625 335.71875 69.988281 343.816406 69.875 348.058594 C 69.757812 352.296875 70.3125 353.996094 70.179688 355.773438 C 70.058594 357.378906 69.722656 359.824219 69.722656 363.265625 C 69.722656 365.664062 69.992188 369.183594 70.214844 371.402344 L 68.203125 371.402344 C 67.554688 371.402344 66.5 371.402344 65.707031 371.402344 " fill-opacity="1" fill-rule="nonzero"/><g clip-path="url(#5313616d50)"><path fill="#402d1f" d="M 68.203125 374.265625 C 67.058594 374.265625 65.273438 374.390625 65.386719 373.589844 C 65.4375 373.242188 65.5625 372.492188 65.707031 371.402344 C 66.5 371.402344 67.554688 371.402344 68.203125 371.402344 L 70.214844 371.402344 C 70.308594 372.359375 70.394531 373.074219 70.445312 373.351562 C 70.613281 374.265625 69.351562 374.265625 68.203125 374.265625 " fill-opacity="1" fill-rule="nonzero"/></g><path fill="#f9ad0c" d="M 101.859375 330.140625 C 101.515625 331.171875 100.136719 340.457031 100.023438 344.695312 C 99.90625 348.9375 100.839844 353.199219 100.710938 354.980469 C 100.589844 356.582031 100.023438 358.21875 100.023438 361.660156 C 100.023438 364.167969 100.148438 368.75 100.285156 371.402344 L 98.1875 371.402344 C 97.539062 371.402344 96.480469 371.402344 95.691406 371.402344 C 95.882812 369.960938 96.105469 367.921875 96.238281 365.441406 C 96.46875 361.085938 96.007812 357.761719 95.777344 355.699219 C 95.550781 353.636719 96.238281 350.542969 95.777344 347.21875 C 95.394531 344.429688 94.183594 338.226562 93.074219 334.832031 C 93.242188 333.664062 93.40625 332.613281 93.546875 331.792969 C 96.128906 330.402344 102.117188 329.363281 101.859375 330.140625 " fill-opacity="1" fill-rule="nonzero"/><g clip-path="url(#a3617cbd64)"><path fill="#402d1f" d="M 100.285156 371.402344 C 100.332031 372.382812 100.382812 373.101562 100.429688 373.351562 C 100.597656 374.265625 99.335938 374.265625 98.1875 374.265625 C 97.039062 374.265625 95.253906 374.390625 95.371094 373.589844 C 95.417969 373.242188 95.542969 372.492188 95.691406 371.402344 C 96.480469 371.402344 97.539062 371.402344 98.1875 371.402344 L 100.285156 371.402344 " fill-opacity="1" fill-rule="nonzero"/></g><path fill="#402d1f" d="M 97.992188 250.152344 C 97.992188 250.152344 97.023438 250.710938 96.714844 252.007812 C 96.40625 253.308594 97.476562 254.226562 97.476562 254.226562 C 97.476562 254.226562 96.152344 254.550781 95.921875 255.851562 C 95.695312 257.148438 96.984375 258.351562 96.984375 258.351562 C 96.984375 258.351562 95.414062 259.089844 95.183594 260.644531 C 94.957031 262.199219 95.871094 263.164062 95.871094 263.164062 C 95.871094 263.164062 94.34375 263.699219 94.113281 265.304688 C 93.882812 266.910156 94.757812 267.902344 94.757812 267.902344 C 94.757812 267.902344 93.042969 268.894531 92.738281 270.578125 C 92.429688 272.257812 93.503906 273.480469 93.503906 273.480469 C 93.503906 273.480469 92.058594 273.9375 91.753906 275.542969 C 91.445312 277.148438 92.429688 278.371094 92.429688 278.371094 C 92.429688 278.371094 90.671875 278.921875 90.214844 280.441406 C 89.753906 281.960938 90.75 283.335938 90.75 283.335938 C 90.75 283.335938 89.21875 283.414062 88.53125 284.941406 C 87.84375 286.472656 88.539062 287.664062 88.539062 287.664062 C 88.539062 287.664062 87.390625 287.464844 86.320312 289.222656 C 85.25 290.976562 86.320312 292.050781 86.320312 292.050781 C 86.320312 292.050781 85.09375 291.96875 84.324219 293.5 C 83.558594 295.03125 84.097656 297.015625 84.097656 297.015625 C 84.097656 297.015625 90.613281 289.757812 91.828125 286.777344 C 93.042969 283.796875 97.402344 274.703125 97.554688 270.195312 C 97.707031 265.6875 99.59375 256.824219 99.59375 256.824219 L 98.773438 246.890625 C 98.773438 246.890625 97.628906 247.148438 97.476562 248.523438 C 97.347656 249.671875 97.992188 250.152344 97.992188 250.152344 " fill-opacity="1" fill-rule="nonzero"/><path fill="#f9ad0c" d="M 105.339844 234.800781 C 105.347656 234.722656 105.355469 234.679688 105.355469 234.679688 C 105.355469 234.679688 105.351562 234.722656 105.339844 234.800781 " fill-opacity="1" fill-rule="nonzero"/><path fill="#f9ad0c" d="M 57.378906 315.921875 C 57.824219 316.453125 58.65625 317.40625 59.09375 317.570312 C 59.703125 317.800781 60.851562 317.722656 61.921875 316.539062 C 62.992188 315.359375 63.320312 314.558594 63.003906 313.445312 C 62.828125 312.832031 62.445312 311.917969 61.828125 311.449219 C 63.710938 310.058594 65.804688 308.890625 68.015625 307.707031 C 67.421875 308.78125 68.984375 310.78125 69.949219 311.152344 C 70.945312 311.53125 72.703125 311.152344 73.960938 310.617188 C 75.21875 310.082031 76.3125 308.121094 76.777344 307.023438 C 77.222656 305.976562 76.601562 303.96875 74.78125 303.941406 C 78.597656 301.582031 82.480469 298.550781 86.027344 293.804688 C 87.71875 291.542969 89.152344 289.09375 90.375 286.566406 C 90.824219 286.78125 91.328125 286.984375 91.691406 287.046875 C 92.53125 287.195312 92.972656 286.34375 93.441406 285.550781 C 94.496094 283.765625 94.449219 282.222656 94.378906 281.375 C 94.335938 280.902344 93.660156 280.636719 92.875 280.519531 C 96.167969 271.175781 97.113281 261.84375 97.703125 257.355469 C 98.585938 250.652344 98.472656 242.378906 98.472656 242.378906 C 98.472656 242.378906 100.28125 241.890625 102.714844 239.476562 C 104.828125 237.382812 105.261719 235.3125 105.339844 234.800781 C 105.246094 235.535156 104.800781 239.597656 105.355469 244.980469 C 105.691406 248.257812 106.523438 257.914062 107.351562 267.371094 C 106.703125 266.488281 106.28125 266.109375 105.8125 266.296875 C 104.953125 266.640625 106.15625 277.164062 106.671875 287.117188 C 107.191406 297.074219 105.984375 318.5625 100.136719 326.644531 C 94.640625 334.234375 83.789062 335.585938 78.628906 335.414062 C 73.46875 335.238281 62.972656 335.421875 62.972656 335.421875 L 61.910156 338.949219 C 58.917969 338.519531 56.644531 337.65625 56.089844 335.925781 C 54.828125 331.980469 52.546875 322.960938 57.378906 315.921875 " fill-opacity="1" fill-rule="nonzero"/><path fill="#f9cc68" d="M 78.628906 335.414062 C 83.789062 335.585938 94.640625 334.234375 100.136719 326.644531 C 105.984375 318.5625 107.191406 297.074219 106.671875 287.117188 C 106.15625 277.164062 104.953125 266.640625 105.8125 266.296875 C 106.28125 266.109375 106.703125 266.488281 107.351562 267.371094 C 108.027344 275.113281 108.695312 282.714844 109.082031 286.585938 C 109.941406 295.179688 110.976562 321.484375 101.167969 331.285156 C 91.359375 341.085938 83.960938 339.539062 76.738281 339.367188 C 72.414062 339.261719 66.367188 339.589844 61.910156 338.949219 L 62.972656 335.421875 C 62.972656 335.421875 73.46875 335.238281 78.628906 335.414062 " fill-opacity="1" fill-rule="nonzero"/><path fill="#663a1c" d="M 63.003906 313.445312 C 63.320312 314.558594 62.992188 315.359375 61.921875 316.539062 C 60.851562 317.722656 59.703125 317.800781 59.09375 317.570312 C 58.65625 317.40625 57.824219 316.453125 57.378906 315.921875 C 57.808594 315.292969 58.296875 314.683594 58.84375 314.09375 C 59.757812 313.109375 60.761719 312.242188 61.828125 311.449219 C 62.445312 311.917969 62.828125 312.832031 63.003906 313.445312 " fill-opacity="1" fill-rule="nonzero"/><path fill="#663a1c" d="M 76.777344 307.023438 C 76.3125 308.121094 75.21875 310.082031 73.960938 310.617188 C 72.703125 311.152344 70.945312 311.53125 69.949219 311.148438 C 68.984375 310.777344 67.421875 308.78125 68.015625 307.703125 C 70.1875 306.542969 72.46875 305.363281 74.78125 303.941406 C 76.601562 303.96875 77.222656 305.976562 76.777344 307.023438 " fill-opacity="1" fill-rule="nonzero"/><path fill="#663a1c" d="M 94.378906 281.375 C 94.449219 282.222656 94.496094 283.765625 93.441406 285.550781 C 92.972656 286.34375 92.53125 287.195312 91.691406 287.046875 C 91.328125 286.984375 90.824219 286.777344 90.375 286.566406 C 91.332031 284.585938 92.160156 282.550781 92.875 280.519531 C 93.660156 280.636719 94.335938 280.902344 94.378906 281.375 " fill-opacity="1" fill-rule="nonzero"/><path fill="#f9ad0c" d="M 93.882812 330.140625 C 93.8125 330.359375 93.691406 330.953125 93.546875 331.792969 C 92.691406 332.25 92.210938 332.75 92.453125 333.234375 C 92.652344 333.632812 92.859375 334.183594 93.074219 334.832031 C 92.605469 338.089844 92.117188 342.238281 92.050781 344.695312 C 91.933594 348.9375 92.867188 353.199219 92.734375 354.980469 C 92.617188 356.582031 92.050781 358.21875 92.050781 361.660156 C 92.050781 364.167969 92.175781 368.75 92.308594 371.402344 L 90.214844 371.402344 C 89.5625 371.402344 88.507812 371.402344 87.714844 371.402344 C 87.90625 369.960938 88.132812 367.921875 88.265625 365.441406 C 88.492188 361.085938 88.035156 357.761719 87.804688 355.699219 C 87.574219 353.636719 88.265625 350.542969 87.804688 347.21875 C 87.347656 343.894531 85.710938 335.71875 84.480469 333.234375 C 83.511719 331.285156 94.230469 329.109375 93.882812 330.140625 " fill-opacity="1" fill-rule="nonzero"/><path fill="#f9ad0c" d="M 93.546875 331.792969 C 93.40625 332.613281 93.242188 333.664062 93.074219 334.832031 C 92.859375 334.183594 92.652344 333.632812 92.453125 333.234375 C 92.210938 332.75 92.691406 332.25 93.546875 331.792969 " fill-opacity="1" fill-rule="nonzero"/><g clip-path="url(#1e522857d3)"><path fill="#402d1f" d="M 92.308594 371.402344 C 92.359375 372.382812 92.410156 373.101562 92.457031 373.351562 C 92.621094 374.265625 91.359375 374.265625 90.214844 374.265625 C 89.066406 374.265625 87.28125 374.390625 87.398438 373.589844 C 87.445312 373.242188 87.570312 372.492188 87.714844 371.402344 C 88.507812 371.402344 89.5625 371.402344 90.214844 371.402344 L 92.308594 371.402344 " fill-opacity="1" fill-rule="nonzero"/></g><path fill="#f9ad0c" d="M 55.714844 334.691406 C 55.402344 333.078125 61.875 333.527344 64.914062 334.289062 C 64.039062 334.527344 63.53125 334.894531 63.789062 335.410156 C 64.351562 336.546875 64.726562 338.421875 65.007812 340.4375 C 64.40625 342.910156 63.792969 345.734375 63.527344 347.828125 C 62.992188 352.039062 63.429688 353.84375 63.296875 355.621094 C 63.179688 357.226562 63.042969 358.21875 63.042969 361.660156 C 63.042969 364.167969 63.171875 368.75 63.304688 371.402344 L 61.207031 371.402344 C 60.558594 371.402344 59.503906 371.402344 58.710938 371.402344 C 58.902344 369.960938 59.125 367.921875 59.257812 365.441406 C 59.488281 361.085938 59.082031 358.222656 58.851562 356.160156 C 58.621094 354.097656 59.257812 350.542969 58.800781 347.21875 C 58.339844 343.894531 56.1875 337.132812 55.714844 334.691406 " fill-opacity="1" fill-rule="nonzero"/><path fill="#f9ad0c" d="M 66.441406 335.066406 C 66.261719 335.597656 65.644531 337.820312 65.007812 340.4375 C 64.726562 338.421875 64.351562 336.546875 63.789062 335.410156 C 63.53125 334.894531 64.039062 334.527344 64.914062 334.289062 C 65.898438 334.535156 66.523438 334.816406 66.441406 335.066406 " fill-opacity="1" fill-rule="nonzero"/><g clip-path="url(#dbd40b90c5)"><path fill="#402d1f" d="M 63.304688 371.402344 C 63.351562 372.382812 63.402344 373.101562 63.449219 373.351562 C 63.617188 374.265625 62.355469 374.265625 61.207031 374.265625 C 60.0625 374.265625 58.277344 374.390625 58.390625 373.589844 C 58.441406 373.242188 58.566406 372.492188 58.710938 371.402344 C 59.503906 371.402344 60.558594 371.402344 61.207031 371.402344 L 63.304688 371.402344 " fill-opacity="1" fill-rule="nonzero"/></g><path fill="#663a1c" d="M 84.417969 308.019531 C 85.667969 308.214844 85.242188 311.6875 85.015625 313.136719 C 84.785156 314.589844 84.25 316.957031 83.179688 317.722656 C 82.109375 318.488281 77.902344 318.488281 77.292969 317.722656 C 76.679688 316.957031 76.296875 312.832031 76.984375 311.6875 C 77.671875 310.539062 78.4375 309.546875 79.660156 308.859375 C 80.886719 308.171875 83.4375 307.867188 84.417969 308.019531 " fill-opacity="1" fill-rule="nonzero"/><path fill="#663a1c" d="M 101.863281 315.179688 C 101.75 316.367188 99.582031 321.0625 98.53125 321.160156 C 97.476562 321.257812 94.933594 319.617188 95.109375 318.746094 C 95.285156 317.878906 97.390625 313.34375 98.089844 313.25 C 98.792969 313.152344 99.582031 313.054688 100.109375 313.25 C 100.632812 313.441406 101.941406 314.359375 101.863281 315.179688 " fill-opacity="1" fill-rule="nonzero"/><path fill="#663a1c" d="M 89.898438 318.984375 C 91.078125 318.789062 92.390625 321.378906 92.390625 322.277344 C 92.390625 323.171875 92.019531 325.265625 90.910156 325.863281 C 89.796875 326.464844 86.78125 327.460938 85.84375 327.0625 C 84.910156 326.664062 83.210938 323.570312 83.414062 322.375 C 83.613281 321.179688 88.101562 319.285156 89.898438 318.984375 " fill-opacity="1" fill-rule="nonzero"/><path fill="#663a1c" d="M 79.1875 322.078125 C 79.828125 322.25 80.078125 324.84375 79.910156 326.355469 C 79.742188 327.871094 78.539062 328.503906 77.527344 328.582031 C 76.515625 328.664062 75.734375 328.425781 75.570312 327.550781 C 75.402344 326.679688 75.125 324.855469 75.570312 324.0625 C 76.015625 323.269531 78.296875 321.839844 79.1875 322.078125 " fill-opacity="1" fill-rule="nonzero"/><path fill="#663a1c" d="M 70.503906 326.03125 C 70.949219 326.679688 71.953125 328.253906 71.109375 328.78125 C 70.261719 329.3125 68.511719 330.035156 67.847656 329.84375 C 67.183594 329.648438 66.339844 328.300781 66.460938 327.625 C 66.582031 326.953125 67.546875 326.269531 68.332031 326.03125 C 69.117188 325.796875 70.164062 325.539062 70.503906 326.03125 " fill-opacity="1" fill-rule="nonzero"/><path fill="#663a1c" d="M 100.898438 291.898438 C 101.65625 291.941406 103.453125 292.097656 103.46875 293.011719 C 103.484375 293.925781 103.207031 295.609375 102.71875 295.984375 C 102.226562 296.359375 100.691406 296.214844 100.195312 295.742188 C 99.699219 295.273438 99.617188 294.1875 99.8125 293.480469 C 100.007812 292.773438 100.320312 291.867188 100.898438 291.898438 " fill-opacity="1" fill-rule="nonzero"/><path fill="#663a1c" d="M 62.988281 325.007812 C 63.117188 326.367188 62.234375 328.109375 61.386719 328.855469 C 60.535156 329.597656 58.367188 329.777344 57.519531 328.855469 C 56.667969 327.929688 55.535156 325.9375 55.726562 325.007812 C 55.914062 324.078125 57.800781 321.164062 58.839844 321.164062 C 59.875 321.164062 62.800781 323.019531 62.988281 325.007812 " fill-opacity="1" fill-rule="nonzero"/><path fill="#663a1c" d="M 73.578125 318.488281 C 73.082031 319.855469 70.363281 321.699219 68.988281 322.308594 C 67.613281 322.921875 66.082031 323.148438 65.777344 322.308594 C 65.472656 321.46875 64.476562 320.636719 64.019531 320.097656 C 63.558594 319.558594 63.558594 318.25 64.476562 316.917969 C 65.394531 315.585938 66.601562 313.804688 67.71875 313.742188 C 68.835938 313.675781 70.429688 314.132812 71.085938 314.667969 C 71.742188 315.203125 73.910156 317.570312 73.578125 318.488281 " fill-opacity="1" fill-rule="nonzero"/><path fill="#663a1c" d="M 95.101562 309.230469 C 95.203125 310.359375 94.816406 314.960938 93.894531 315.496094 C 92.96875 316.03125 89.777344 315.726562 89.15625 314.960938 C 88.53125 314.195312 88.457031 310.605469 88.609375 309.230469 C 88.761719 307.855469 90.214844 307.015625 90.902344 306.863281 C 91.589844 306.710938 94.945312 307.558594 95.101562 309.230469 " fill-opacity="1" fill-rule="nonzero"/><path fill="#663a1c" d="M 100.535156 307.617188 C 99.605469 307.597656 96.714844 307.101562 96.5625 306.109375 C 96.40625 305.113281 97.476562 300.378906 97.632812 299.765625 C 97.785156 299.15625 99.929688 298.035156 101 298.824219 C 102.066406 299.613281 103.136719 301.84375 102.832031 303.097656 C 102.523438 304.351562 101.496094 307.640625 100.535156 307.617188 " fill-opacity="1" fill-rule="nonzero"/><path fill="#663a1c" d="M 102.066406 280.738281 C 101.3125 280.511719 98.925781 280.203125 98.050781 280.738281 C 97.171875 281.273438 96.636719 286.46875 97.25 287.117188 C 97.859375 287.769531 101.378906 287.917969 102.371094 287.117188 C 103.367188 286.316406 102.820312 280.96875 102.066406 280.738281 " fill-opacity="1" fill-rule="nonzero"/><path fill="#663a1c" d="M 98.394531 291.054688 C 98.355469 291.949219 96.347656 297.015625 95.117188 297.015625 C 93.882812 297.015625 91.285156 295.332031 91.132812 294.339844 C 90.980469 293.347656 92.125 291.207031 92.585938 290.597656 C 93.042969 289.984375 94.496094 288.914062 95.492188 288.761719 C 96.484375 288.609375 98.425781 290.421875 98.394531 291.054688 " fill-opacity="1" fill-rule="nonzero"/><path fill="#663a1c" d="M 91.828125 299.917969 C 91.46875 301.175781 88.457031 305.496094 87.382812 305.496094 C 86.3125 305.496094 84.148438 303.585938 83.394531 302.707031 C 82.644531 301.828125 83.484375 299.410156 84.480469 298.824219 C 85.472656 298.238281 87.707031 295.257812 88.539062 295.714844 C 89.371094 296.175781 92.148438 298.8125 91.828125 299.917969 " fill-opacity="1" fill-rule="nonzero"/><path fill="#663a1c" d="M 102.601562 250.402344 C 103.152344 251.019531 102.832031 254.453125 102.296875 255.21875 C 101.761719 255.980469 99.464844 256.136719 99.160156 255.21875 C 98.855469 254.300781 98.855469 250.863281 99.542969 250.402344 C 100.230469 249.945312 101.988281 249.714844 102.601562 250.402344 " fill-opacity="1" fill-rule="nonzero"/><path fill="#663a1c" d="M 100.539062 275.371094 C 100.070312 276.164062 99.628906 277.011719 98.789062 276.867188 C 97.949219 276.71875 96.394531 275.828125 96.394531 275.828125 C 96.394531 275.828125 97.070312 270.441406 98.167969 270.304688 C 99.261719 270.164062 101.398438 270.34375 101.472656 271.191406 C 101.546875 272.042969 101.589844 273.585938 100.539062 275.371094 " fill-opacity="1" fill-rule="nonzero"/><path fill="#f9ad0c" d="M 45.335938 336.652344 C 46.695312 335.042969 48.027344 332.652344 48.648438 330.644531 C 49.15625 328.992188 49.082031 327.839844 49.519531 326.171875 C 50.269531 323.316406 52.191406 319.089844 55.734375 319.226562 C 56.648438 319.261719 56.105469 321.121094 55.222656 321.320312 C 51.324219 322.199219 50.683594 326.707031 50.175781 329.191406 C 49.515625 332.441406 48.207031 334.820312 46.085938 337.363281 C 45.847656 337.648438 46.238281 338.023438 45.996094 337.882812 C 45.441406 338.007812 44.851562 337.226562 45.335938 336.652344 " fill-opacity="1" fill-rule="nonzero"/><g clip-path="url(#894ecadd66)"><path fill="#402d1f" d="M 40.542969 340.4375 C 40.507812 340.960938 41.046875 341.488281 41.554688 341.175781 C 41.359375 341.484375 41.25 341.789062 41.28125 342.191406 C 41.320312 342.710938 41.945312 343 42.367188 342.699219 C 42.574219 342.554688 42.761719 342.386719 42.941406 342.207031 C 42.917969 342.285156 42.902344 342.371094 42.894531 342.464844 C 42.851562 343.15625 43.691406 343.269531 44.101562 343.039062 C 45.726562 342.136719 47.742188 339.023438 45.773438 337.238281 C 45.757812 337.222656 45.742188 337.210938 45.730469 337.199219 C 45.441406 336.890625 45.066406 336.6875 44.566406 336.640625 C 43.667969 336.554688 42.882812 336.976562 42.316406 337.644531 C 41.683594 338.382812 40.609375 339.417969 40.542969 340.4375 " fill-opacity="1" fill-rule="nonzero"/></g><path fill="#663a1c" d="M 102.292969 259.402344 C 101.953125 259.167969 101.160156 258.941406 100.925781 260.242188 C 100.6875 261.539062 99.386719 265.207031 99.617188 265.742188 C 99.847656 266.277344 101.71875 266.886719 102.886719 266.886719 C 104.050781 266.886719 104.328125 263.585938 104.210938 262.203125 C 104.097656 260.820312 103.746094 260.394531 102.292969 259.402344 " fill-opacity="1" fill-rule="nonzero"/><path fill="#f9ad0c" d="M 113.664062 219.511719 C 114.980469 220.078125 114.171875 223.085938 112.757812 224.128906 C 111.339844 225.171875 108.136719 227.65625 108.136719 227.65625 C 108.136719 227.65625 106.8125 226.941406 107.117188 226.929688 C 107.421875 226.917969 109.117188 225.101562 110.058594 223.613281 C 111 222.128906 112.1875 218.875 113.664062 219.511719 " fill-opacity="1" fill-rule="nonzero"/><path fill="#f9ad0c" d="M 86.832031 234.824219 C 86.417969 236.199219 89.238281 237.519531 90.949219 237.109375 C 92.664062 236.703125 96.628906 235.859375 96.628906 235.859375 C 96.628906 235.859375 96.933594 234.386719 96.730469 234.613281 C 96.523438 234.835938 94.039062 234.957031 92.296875 234.71875 C 90.550781 234.480469 87.300781 233.285156 86.832031 234.824219 " fill-opacity="1" fill-rule="nonzero"/><g clip-path="url(#be53fbd9f2)"><path fill="#663a1c" d="M 104.660156 226.878906 C 104.109375 226.039062 103.589844 225.171875 103.21875 224.238281 C 102.925781 223.507812 102.789062 222.703125 102.378906 222.027344 C 102.464844 221.980469 102.539062 221.902344 102.601562 221.792969 C 103.023438 221.019531 103.324219 220.191406 103.492188 219.328125 C 103.636719 218.558594 102.453125 218.277344 102.308594 219.046875 C 102.199219 219.601562 102.035156 220.128906 101.8125 220.640625 C 101.636719 219.984375 101.328125 219.371094 100.894531 218.847656 C 100.683594 218.59375 100.355469 218.464844 100.054688 218.65625 C 99.824219 218.804688 99.679688 219.175781 99.820312 219.429688 C 99.824219 219.523438 99.863281 219.617188 99.957031 219.699219 C 100.023438 219.757812 100.085938 219.816406 100.144531 219.878906 C 100.363281 220.210938 100.527344 220.5625 100.636719 220.953125 C 100.207031 220.734375 99.777344 220.519531 99.339844 220.316406 C 98.632812 219.988281 98.050781 221.058594 98.765625 221.390625 C 99.382812 221.675781 99.996094 221.980469 100.597656 222.300781 C 100.695312 222.351562 101.097656 222.464844 101.183594 222.4375 C 101.285156 222.566406 101.367188 222.707031 101.445312 222.855469 C 101.570312 223.222656 101.710938 223.585938 101.859375 223.945312 C 101.976562 224.320312 102.085938 224.691406 102.238281 225.035156 C 102.628906 225.90625 103.105469 226.730469 103.628906 227.527344 C 104.058594 228.183594 105.089844 227.535156 104.660156 226.878906 " fill-opacity="1" fill-rule="nonzero"/></g><path fill="#663a1c" d="M 95.371094 226.253906 C 95.308594 226.21875 95.101562 226.0625 95.074219 225.984375 C 95.023438 225.835938 95.03125 225.699219 95.042969 225.546875 C 95.089844 224.957031 95.09375 224.367188 95.058594 223.777344 C 95.007812 222.996094 93.789062 223.035156 93.839844 223.820312 C 93.863281 224.21875 93.867188 224.617188 93.855469 225.011719 C 93.613281 224.785156 93.378906 224.550781 93.15625 224.308594 C 92.929688 224.066406 92.507812 224.109375 92.292969 224.339844 C 92.054688 224.59375 92.101562 224.957031 92.324219 225.199219 C 92.582031 225.480469 92.851562 225.746094 93.128906 226.003906 C 92.675781 226.035156 92.226562 226.082031 91.777344 226.140625 C 91.003906 226.246094 91.039062 227.460938 91.820312 227.359375 C 92.644531 227.25 93.472656 227.183594 94.304688 227.164062 C 94.390625 227.164062 94.488281 227.164062 94.574219 227.1875 C 94.664062 227.214844 94.714844 227.285156 94.796875 227.328125 C 95.476562 227.699219 95.898438 228.324219 96.304688 228.96875 C 96.765625 229.710938 97.507812 231.035156 97.964844 231.777344 C 98.375 232.449219 99.109375 231.21875 98.699219 230.546875 C 97.789062 229.066406 96.964844 227.125 95.371094 226.253906 " fill-opacity="1" fill-rule="nonzero"/><path fill="#f9ab0c" d="M 123.988281 245.0625 C 122.1875 243.722656 120.96875 241.289062 120.085938 239.128906 C 119.601562 239.132812 119.160156 239.085938 118.867188 238.945312 C 117.855469 238.457031 117.03125 236.816406 117.382812 235.957031 C 117.570312 235.496094 117.894531 235.097656 118.292969 234.804688 C 117.496094 233.277344 116.214844 231.285156 114.609375 229.625 C 113.613281 229.835938 112.773438 229.40625 112.164062 228.964844 C 111.710938 228.640625 111.402344 227.929688 111.574219 227.253906 C 111.417969 227.167969 111.261719 227.089844 111.101562 227.015625 C 107.210938 225.242188 102.476562 227.628906 100.765625 228.992188 C 99.0625 230.34375 94.710938 232.867188 95.375 238.882812 C 96.066406 238.464844 96.730469 238.230469 97.035156 238.511719 C 97.667969 239.101562 97.242188 239.847656 97.800781 240.703125 C 98.664062 242.015625 99.402344 242.707031 99.207031 243.632812 C 99.121094 244.035156 98.542969 244.425781 97.894531 244.738281 C 98.488281 245.457031 99.179688 246.136719 99.976562 246.75 C 100.40625 247.082031 100.878906 247.386719 101.367188 247.671875 C 101.710938 246.96875 102.140625 246.566406 102.476562 246.441406 C 103.148438 246.183594 104.5625 246.425781 105.011719 246.734375 C 106.253906 247.585938 106.488281 247.832031 106.832031 248.503906 C 106.976562 248.78125 107.082031 249.441406 107.027344 250.042969 C 107.546875 250.21875 108.019531 250.371094 108.417969 250.507812 C 110.433594 251.203125 112.515625 252.105469 113.738281 253.835938 C 114.964844 255.566406 120.644531 254.355469 121.917969 253.546875 C 123.1875 252.734375 126.738281 247.105469 123.988281 245.0625 " fill-opacity="1" fill-rule="nonzero"/><path fill="#663a1c" d="M 99.207031 243.632812 C 99.402344 242.707031 98.664062 242.015625 97.800781 240.703125 C 97.242188 239.847656 97.667969 239.101562 97.035156 238.511719 C 96.730469 238.230469 96.066406 238.46875 95.375 238.882812 C 95.375 238.914062 95.378906 238.941406 95.382812 238.96875 C 95.617188 240.96875 96.449219 242.980469 97.894531 244.738281 C 98.542969 244.425781 99.121094 244.035156 99.207031 243.632812 " fill-opacity="1" fill-rule="nonzero"/><path fill="#663a1c" d="M 106.832031 248.503906 C 106.488281 247.828125 106.253906 247.585938 105.011719 246.734375 C 104.5625 246.425781 103.148438 246.183594 102.476562 246.441406 C 102.140625 246.566406 101.707031 246.96875 101.367188 247.671875 C 103.207031 248.734375 105.363281 249.492188 107.027344 250.046875 C 107.082031 249.441406 106.976562 248.78125 106.832031 248.503906 " fill-opacity="1" fill-rule="nonzero"/><path fill="#663a1c" d="M 117.382812 235.957031 C 117.03125 236.816406 117.855469 238.457031 118.867188 238.945312 C 119.160156 239.085938 119.601562 239.132812 120.085938 239.128906 C 119.617188 237.988281 119.242188 236.925781 118.925781 236.140625 C 118.769531 235.765625 118.558594 235.3125 118.292969 234.804688 C 117.894531 235.097656 117.570312 235.496094 117.382812 235.957031 " fill-opacity="1" fill-rule="nonzero"/><path fill="#663a1c" d="M 112.164062 228.96875 C 112.773438 229.40625 113.613281 229.839844 114.609375 229.625 C 113.691406 228.679688 112.671875 227.839844 111.574219 227.253906 C 111.402344 227.929688 111.710938 228.640625 112.164062 228.96875 " fill-opacity="1" fill-rule="nonzero"/><g clip-path="url(#d3b5470562)"><path fill="#f9cc68" d="M 115.335938 244.988281 C 111.691406 247.695312 111.332031 252.503906 113.84375 254.414062 C 116.253906 256.25 120.761719 255.496094 123.351562 252.960938 C 125.9375 250.421875 125.71875 246.25 123.683594 243.96875 C 121.992188 242.070312 118.691406 242.496094 115.335938 244.988281 " fill-opacity="1" fill-rule="nonzero"/></g><path fill="#663a1c" d="M 100.617188 232 C 100.332031 232.683594 101.300781 233.546875 101.753906 233.910156 C 102.203125 234.273438 103.480469 233.558594 104.230469 233.046875 C 104.980469 232.53125 106.335938 231.648438 106.089844 230.847656 C 105.839844 230.042969 105.414062 228.644531 104.101562 229.121094 C 101.796875 229.964844 101.050781 230.953125 100.617188 232 " fill-opacity="1" fill-rule="nonzero"/><path fill="#402d1f" d="M 119.363281 246.601562 C 119.382812 246.65625 119.40625 246.714844 119.425781 246.769531 C 119.46875 246.886719 119.542969 246.988281 119.652344 247.046875 C 119.710938 247.078125 119.769531 247.09375 119.832031 247.097656 C 119.894531 247.109375 119.957031 247.101562 120.019531 247.082031 C 120.132812 247.039062 120.242188 246.964844 120.296875 246.855469 C 120.347656 246.742188 120.375 246.605469 120.328125 246.488281 C 120.308594 246.429688 120.289062 246.375 120.265625 246.316406 C 120.222656 246.199219 120.148438 246.101562 120.039062 246.042969 C 119.984375 246.007812 119.925781 245.992188 119.859375 245.992188 C 119.796875 245.980469 119.734375 245.984375 119.671875 246.007812 C 119.558594 246.046875 119.449219 246.121094 119.394531 246.234375 C 119.34375 246.34375 119.316406 246.480469 119.363281 246.601562 " fill-opacity="1" fill-rule="nonzero"/><path fill="#402d1f" d="M 116.8125 249.613281 C 116.871094 249.628906 116.929688 249.644531 116.988281 249.664062 C 117.050781 249.679688 117.113281 249.679688 117.175781 249.664062 C 117.242188 249.660156 117.296875 249.636719 117.351562 249.601562 C 117.449219 249.539062 117.539062 249.425781 117.558594 249.3125 C 117.582031 249.1875 117.570312 249.054688 117.5 248.949219 C 117.425781 248.84375 117.332031 248.773438 117.207031 248.738281 C 117.148438 248.722656 117.089844 248.707031 117.035156 248.691406 C 116.96875 248.671875 116.90625 248.671875 116.84375 248.6875 C 116.78125 248.695312 116.722656 248.714844 116.667969 248.75 C 116.574219 248.8125 116.484375 248.929688 116.460938 249.042969 C 116.4375 249.164062 116.449219 249.300781 116.523438 249.40625 C 116.59375 249.507812 116.691406 249.578125 116.8125 249.613281 " fill-opacity="1" fill-rule="nonzero"/><path fill="#402d1f" d="M 121.925781 248.601562 C 121.804688 249.460938 121.597656 250.257812 120.933594 250.867188 C 120.324219 251.421875 119.535156 251.675781 118.722656 251.632812 C 118.417969 251.617188 118.4375 252.089844 118.738281 252.105469 C 119.613281 252.152344 120.453125 251.878906 121.128906 251.320312 C 121.945312 250.640625 122.242188 249.734375 122.390625 248.710938 C 122.429688 248.410156 121.96875 248.296875 121.925781 248.601562 " fill-opacity="1" fill-rule="nonzero"/><path fill="#1f1f21" d="M 105.71875 239.828125 C 105.460938 240.675781 104.710938 241.148438 103.839844 241.039062 C 103.5 240.996094 103.5 241.527344 103.835938 241.570312 C 104.949219 241.710938 105.90625 241.019531 106.234375 239.964844 C 106.335938 239.636719 105.820312 239.5 105.71875 239.828125 " fill-opacity="1" fill-rule="nonzero"/><path fill="#1f1f21" d="M 113.851562 233.199219 C 113.695312 234.0625 113.042969 234.664062 112.15625 234.660156 C 111.8125 234.65625 111.8125 235.1875 112.152344 235.1875 C 113.265625 235.195312 114.164062 234.433594 114.363281 233.335938 C 114.421875 233.003906 113.910156 232.863281 113.851562 233.199219 " fill-opacity="1" fill-rule="nonzero"/></svg>