<svg xmlns="http://www.w3.org/2000/svg" xmlns:xlink="http://www.w3.org/1999/xlink" width="250" zoomAndPan="magnify" viewBox="0 0 187.5 187.499992" height="250" preserveAspectRatio="xMidYMid meet" version="1.0"><defs><clipPath id="27f5912870"><path d="M 13.792969 2 L 168 2 L 168 187 L 13.792969 187 Z M 13.792969 2 " clip-rule="nonzero"/></clipPath></defs><g clip-path="url(#27f5912870)"><path fill="#000000" d="M 164.125 117.4375 C 164.042969 116.023438 165.625 116.273438 165.625 114.933594 C 164.789062 114.933594 163.957031 114.933594 163.117188 114.933594 C 166.226562 106.910156 153.550781 100.089844 148.089844 103.410156 C 144.960938 95.855469 141.699219 88.425781 134.078125 85.367188 C 132.539062 86.339844 132.824219 89.128906 131.574219 90.382812 C 130.351562 90.824219 129.398438 91.546875 127.5625 91.382812 C 127.464844 98.839844 129.210938 104.429688 128.570312 112.429688 C 141.839844 121.800781 145.988281 136.265625 143.585938 158.027344 C 143.300781 160.652344 142.597656 163.683594 142.085938 166.046875 C 142.863281 167.105469 143.527344 168.277344 144.089844 169.558594 C 143.3125 175.65625 145.332031 181.316406 140.582031 184.589844 C 139.023438 183.46875 141.570312 182.269531 141.582031 181.082031 C 140.140625 181.019531 138.304688 181.355469 137.578125 180.574219 C 137.636719 179.300781 139.253906 179.585938 140.582031 179.574219 C 141.023438 172.964844 138.535156 167.824219 138.582031 162.039062 C 137.777344 161.21875 136.484375 162.484375 134.578125 162.039062 C 139.035156 153.675781 142.097656 138.9375 138.082031 127.960938 C 136.449219 127.675781 135.75 128.304688 134.578125 128.460938 C 132.914062 127.289062 132.085938 125.269531 130.574219 123.953125 C 128.855469 149.246094 113.699219 167.304688 91.007812 168.550781 C 89.960938 163.746094 90.351562 162.183594 89.007812 158.535156 C 86.078125 160.335938 88.035156 166.242188 84.882812 167.960938 C 81.691406 169.703125 74.78125 164.820312 72.578125 162.820312 C 67.710938 158.390625 59.910156 150.8125 57.453125 144.808594 C 54.835938 138.421875 53.519531 130.835938 53.445312 123.953125 C 49.933594 123.601562 48.679688 127.085938 45.933594 125.957031 C 37.617188 133.742188 41.054688 155.960938 51.445312 158.535156 C 50.339844 160.460938 46.636719 158.027344 45.433594 160.53125 C 46.183594 167.730469 41.96875 167.171875 42.925781 174.066406 C 41.332031 174.363281 41.375 173.128906 40.421875 174.066406 C 40.714844 175.78125 41.371094 177.128906 42.429688 178.078125 C 40.75 178.890625 41.378906 180.515625 40.929688 181.582031 C 41.039062 183.136719 43.421875 182.425781 44.925781 182.585938 C 44.742188 184.222656 42.480469 183.800781 40.929688 184.085938 C 41.632812 185.214844 44.183594 184.496094 43.933594 186.589844 C 33.101562 184.3125 38.78125 169.121094 42.429688 163.042969 C 40.019531 153.082031 34.253906 145.640625 37.917969 132.46875 C 38.433594 130.636719 39.980469 128.789062 40.929688 126.964844 C 44.089844 120.867188 46.988281 115.433594 53.949219 112.429688 C 54.585938 107.257812 54.167969 99.585938 55.449219 92.886719 C 53.75 90.75 51.074219 89.585938 50.4375 86.371094 C 40.097656 85.589844 37.558594 96.382812 34.414062 104.410156 C 28.613281 99.039062 20.335938 105.578125 17.386719 109.417969 C 17.53125 111.121094 18.945312 111.539062 19.390625 112.925781 C 17.449219 113.199219 17.328125 111.65625 15.886719 111.429688 C 15.886719 112.429688 15.886719 113.433594 15.886719 114.433594 C 14 113.980469 13.8125 111.832031 13.882812 109.417969 C 17.703125 104.535156 22.601562 98.128906 29.914062 98.394531 C 35.085938 90.382812 40.671875 82.777344 51.945312 80.863281 C 53.109375 81.539062 53.820312 82.648438 54.449219 83.867188 C 59.074219 82.648438 59.238281 76.96875 62.457031 74.347656 C 60.566406 70.414062 56.753906 67.382812 57.953125 61.820312 C 47.515625 59.898438 46.347656 44.167969 50.4375 34.757812 C 43.703125 30.636719 34.351562 20.125 44.433594 14.21875 C 45.996094 15.332031 43.449219 16.53125 43.425781 17.726562 C 43.558594 18.761719 45.632812 17.859375 45.933594 18.722656 C 45.925781 20.386719 43.105469 19.234375 42.429688 20.230469 C 45.597656 26.246094 49.257812 31.765625 57.453125 32.757812 C 55.019531 38.898438 46.363281 55.898438 59.953125 56.3125 C 63.957031 49.292969 69.125 41.3125 77.984375 40.773438 C 79.394531 40.011719 79.078125 37.527344 80.488281 36.769531 C 74.746094 22.800781 64.5625 13.273438 54.945312 3.1875 C 63.515625 0.421875 70.808594 12.34375 74.980469 18.71875 C 77.984375 23.316406 83.203125 30.355469 84.492188 35.257812 C 87.285156 33.632812 93.882812 34.238281 96.015625 34.757812 C 98.714844 27.816406 103.042969 21.285156 108.53125 15.714844 C 113.234375 10.945312 118.863281 2.90625 126.5625 5.699219 C 118.023438 15.359375 106.117188 21.65625 101.019531 34.757812 C 102.390625 35.691406 103.941406 37.296875 104.527344 41.273438 C 116.09375 40.761719 117.082031 55.070312 128.570312 56.3125 C 134.054688 47.667969 128.476562 39.492188 124.558594 31.753906 C 131.707031 33.792969 138.078125 22.757812 137.578125 19.222656 C 137.222656 16.734375 134.65625 16.246094 134.574219 13.71875 C 137.449219 15.214844 137.984375 14.136719 140.082031 12.710938 C 141.683594 21.351562 139.824219 29.371094 133.574219 32.753906 C 136.449219 42.054688 134.996094 54.953125 131.074219 61.820312 C 129.746094 62.339844 127.992188 62.417969 126.0625 62.320312 C 125.402344 66.578125 123.390625 73.167969 119.046875 75.347656 C 121.539062 78.53125 126.316406 79.433594 126.5625 84.867188 C 129.511719 84.476562 130.699219 82.328125 132.574219 80.863281 C 142.183594 84.605469 148.882812 91.261719 154.109375 99.402344 C 161.488281 99.238281 173.128906 113.316406 164.125 117.4375 Z M 164.125 117.4375 " fill-opacity="1" fill-rule="evenodd"/></g></svg>