<svg xmlns="http://www.w3.org/2000/svg" xmlns:xlink="http://www.w3.org/1999/xlink" width="250" zoomAndPan="magnify" viewBox="0 0 187.5 187.499992" height="250" preserveAspectRatio="xMidYMid meet" version="1.0"><path fill="#000000" d="M 182.285156 26.984375 C 177.566406 23.828125 152.714844 23.433594 132.21875 37.644531 C 112.984375 50.976562 98.632812 77.507812 96.910156 80.746094 C 96.605469 79.109375 96.117188 77.535156 95.4375 76.015625 C 95.890625 75.785156 96.300781 75.5 96.671875 75.15625 C 97.042969 74.8125 97.359375 74.421875 97.625 73.992188 C 97.890625 73.558594 98.089844 73.097656 98.226562 72.613281 C 98.363281 72.125 98.433594 71.625 98.433594 71.121094 C 98.433594 70.613281 98.363281 70.117188 98.226562 69.628906 C 98.089844 69.140625 97.890625 68.679688 97.625 68.246094 C 97.359375 67.816406 97.042969 67.425781 96.671875 67.082031 C 96.300781 66.738281 95.890625 66.453125 95.4375 66.222656 C 96.082031 64.996094 97.039062 62.988281 98.058594 60.65625 C 99.078125 58.324219 99.9375 56.226562 100.40625 54.90625 C 100.714844 54.910156 101 54.828125 101.257812 54.65625 C 101.515625 54.488281 101.703125 54.261719 101.824219 53.976562 C 102.246094 53.15625 102.121094 52.179688 101.542969 51.820312 C 100.960938 51.460938 100.144531 51.820312 99.722656 52.625 C 99.296875 53.429688 99.425781 54.371094 99.984375 54.757812 C 99.339844 55.988281 98.394531 57.992188 97.382812 60.285156 C 96.371094 62.578125 95.492188 64.746094 95.019531 66.058594 C 93.96875 65.714844 92.945312 65.773438 91.941406 66.230469 C 91.484375 64.933594 90.597656 62.738281 89.519531 60.285156 C 88.507812 57.984375 87.558594 55.972656 86.917969 54.757812 C 87.472656 54.371094 87.59375 53.429688 87.179688 52.625 C 86.761719 51.820312 85.9375 51.445312 85.359375 51.820312 C 84.78125 52.195312 84.640625 53.160156 85.078125 53.976562 C 85.195312 54.261719 85.386719 54.488281 85.644531 54.65625 C 85.902344 54.828125 86.183594 54.910156 86.492188 54.90625 C 86.96875 56.222656 87.816406 58.3125 88.84375 60.65625 C 89.921875 63.101562 90.929688 65.21875 91.570312 66.40625 C 90.75 66.898438 90.105469 67.5625 89.640625 68.402344 C 89.175781 69.242188 88.953125 70.140625 88.972656 71.101562 C 88.960938 71.613281 89.019531 72.113281 89.152344 72.605469 C 89.285156 73.097656 89.484375 73.5625 89.75 73.996094 C 90.015625 74.433594 90.339844 74.820312 90.71875 75.160156 C 91.097656 75.503906 91.515625 75.78125 91.976562 76.003906 C 91.355469 77.257812 90.796875 79.160156 90.335938 81.566406 C 90.308594 81.238281 90.289062 81.0625 90.289062 81.0625 C 90.289062 81.0625 75.308594 51.859375 54.8125 37.644531 C 34.316406 23.429688 9.476562 23.828125 4.746094 26.984375 C 0.0195312 30.136719 3.367188 41.394531 8.492188 44.753906 C 13.621094 48.109375 12.4375 51.859375 11.644531 55.804688 C 10.851562 59.75 10.460938 65.476562 13.417969 66.867188 C 16.375 68.257812 16.375 70.222656 15.78125 75.355469 C 15.191406 80.492188 15.585938 83.648438 18.9375 84.4375 C 22.289062 85.222656 17.753906 88.1875 22.289062 89.960938 C 26.824219 91.738281 42 91.542969 44.757812 89.960938 C 44.757812 89.960938 24.851562 103.386719 24.851562 109.902344 C 24.851562 116.417969 23.664062 117.207031 28.199219 123.128906 C 32.734375 129.050781 27.230469 130.230469 31.75 135.164062 C 36.265625 140.097656 31.75 143.066406 36.476562 146.609375 C 41.207031 150.152344 38.058594 153.71875 44.167969 155.492188 C 50.277344 157.269531 49.882812 163.78125 55.597656 161.601562 C 61.3125 159.421875 66.242188 160.21875 68.804688 154.496094 C 71.042969 149.496094 84.855469 117.25 89.105469 104.292969 C 89.605469 114.972656 91.472656 122.910156 93.707031 122.910156 C 95.859375 122.910156 97.6875 115.460938 98.253906 105.300781 C 102.851562 118.84375 116.039062 149.628906 118.222656 154.503906 C 120.78125 160.230469 125.710938 159.4375 131.429688 161.613281 C 137.144531 163.785156 136.75 157.269531 142.859375 155.503906 C 148.96875 153.738281 145.816406 150.175781 150.546875 146.621094 C 155.28125 143.066406 150.746094 140.105469 155.28125 135.171875 C 159.816406 130.238281 154.292969 129.066406 158.828125 123.132812 C 163.363281 117.199219 162.179688 116.421875 162.179688 109.90625 C 162.179688 103.390625 142.269531 89.964844 142.269531 89.964844 C 145.03125 91.546875 160.210938 91.742188 164.742188 89.964844 C 169.273438 88.191406 164.742188 85.230469 168.09375 84.441406 C 171.445312 83.648438 171.839844 80.488281 171.246094 75.359375 C 170.65625 70.230469 170.65625 68.242188 173.617188 66.867188 C 176.582031 65.496094 176.179688 59.761719 175.390625 55.8125 C 174.601562 51.863281 173.421875 48.113281 178.542969 44.757812 C 183.667969 41.40625 187.015625 30.144531 182.285156 26.984375 Z M 182.285156 26.984375 " fill-opacity="1" fill-rule="nonzero"/></svg>