<svg xmlns="http://www.w3.org/2000/svg" xmlns:xlink="http://www.w3.org/1999/xlink" width="250" zoomAndPan="magnify" viewBox="0 0 187.5 187.499992" height="250" preserveAspectRatio="xMidYMid meet" version="1.0"><path fill="#000000" d="M 78.558594 105.691406 C 78.59375 95.03125 80.265625 84.632812 83.570312 74.5 C 81.425781 74.308594 79.335938 74.191406 77.300781 74.191406 C 73.816406 74.191406 70.351562 74.46875 66.90625 75.023438 C 63.464844 75.578125 60.085938 76.398438 56.773438 77.492188 C 53.464844 78.585938 50.261719 79.933594 47.164062 81.539062 C 44.070312 83.140625 41.121094 84.980469 38.320312 87.054688 C 42.578125 91.328125 46.261719 96.046875 49.371094 101.214844 C 52.480469 106.378906 54.929688 111.839844 56.714844 117.597656 C 61.925781 112.472656 70.304688 105.84375 78.558594 105.691406 Z M 78.558594 105.691406 " fill-opacity="1" fill-rule="nonzero"/><path fill="#000000" d="M 136.292969 91.90625 C 137.519531 90.78125 138.492188 89.46875 139.203125 87.964844 C 139.914062 86.457031 140.316406 84.875 140.402344 83.214844 C 140.195312 81.601562 139.660156 80.105469 138.800781 78.726562 C 137.941406 77.347656 136.832031 76.210938 135.476562 75.3125 C 126.308594 67.964844 114.664062 72.449219 107.171875 76.878906 C 111.109375 78.363281 114.964844 80.046875 118.726562 81.933594 C 124.777344 84.917969 130.632812 88.242188 136.292969 91.90625 Z M 136.292969 91.90625 " fill-opacity="1" fill-rule="nonzero"/><path fill="#000000" d="M 15.328125 83.300781 C 15.328125 83.605469 15.296875 83.902344 15.238281 84.199219 C 15.179688 84.492188 15.09375 84.78125 14.976562 85.058594 C 14.863281 85.339844 14.722656 85.601562 14.554688 85.855469 C 14.386719 86.105469 14.195312 86.335938 13.980469 86.550781 C 13.769531 86.761719 13.535156 86.953125 13.285156 87.121094 C 13.035156 87.289062 12.769531 87.429688 12.488281 87.546875 C 12.210938 87.660156 11.921875 87.75 11.625 87.808594 C 11.332031 87.867188 11.03125 87.894531 10.730469 87.894531 C 10.425781 87.894531 10.128906 87.867188 9.832031 87.808594 C 9.535156 87.75 9.25 87.660156 8.96875 87.546875 C 8.691406 87.429688 8.425781 87.289062 8.175781 87.121094 C 7.921875 86.953125 7.691406 86.761719 7.476562 86.550781 C 7.265625 86.335938 7.074219 86.105469 6.90625 85.855469 C 6.738281 85.601562 6.597656 85.339844 6.480469 85.058594 C 6.367188 84.78125 6.277344 84.492188 6.21875 84.199219 C 6.160156 83.902344 6.132812 83.605469 6.132812 83.300781 C 6.132812 83 6.160156 82.703125 6.21875 82.40625 C 6.277344 82.109375 6.367188 81.824219 6.480469 81.542969 C 6.597656 81.265625 6.738281 81 6.90625 80.75 C 7.074219 80.5 7.265625 80.265625 7.476562 80.054688 C 7.691406 79.839844 7.921875 79.652344 8.175781 79.484375 C 8.425781 79.316406 8.691406 79.175781 8.96875 79.058594 C 9.25 78.941406 9.535156 78.855469 9.832031 78.796875 C 10.128906 78.738281 10.425781 78.707031 10.730469 78.707031 C 11.03125 78.707031 11.332031 78.738281 11.625 78.796875 C 11.921875 78.855469 12.210938 78.941406 12.488281 79.058594 C 12.769531 79.175781 13.035156 79.316406 13.285156 79.484375 C 13.535156 79.652344 13.769531 79.839844 13.980469 80.054688 C 14.195312 80.265625 14.386719 80.5 14.554688 80.75 C 14.722656 81 14.863281 81.265625 14.976562 81.542969 C 15.09375 81.824219 15.179688 82.109375 15.238281 82.40625 C 15.296875 82.703125 15.328125 83 15.328125 83.300781 Z M 15.328125 83.300781 " fill-opacity="1" fill-rule="nonzero"/><path fill="#000000" d="M 56.273438 138.113281 C 55.613281 137.609375 55.023438 137.039062 54.5 136.398438 C 53.980469 135.757812 53.535156 135.0625 53.175781 134.320312 C 52.816406 133.574219 52.542969 132.800781 52.367188 131.992188 C 52.1875 131.183594 52.101562 130.367188 52.113281 129.539062 L 52.113281 126.710938 C 52.117188 125.539062 52.308594 124.398438 52.683594 123.285156 C 53.058594 122.175781 53.601562 121.152344 54.308594 120.21875 C 52.613281 114.308594 50.199219 108.707031 47.074219 103.414062 C 43.945312 98.117188 40.203125 93.300781 35.847656 88.957031 C 26.9375 96.105469 19.601562 104.609375 13.839844 114.46875 C 12.683594 116.433594 12.222656 118.546875 12.457031 120.8125 C 13.617188 132.144531 20.121094 141.148438 31.808594 147.558594 C 37.628906 150.640625 43.742188 152.9375 50.152344 154.453125 C 53.015625 149.429688 55.339844 144.164062 57.128906 138.664062 C 56.84375 138.480469 56.535156 138.304688 56.273438 138.113281 Z M 32.1875 116.984375 C 31.78125 116.984375 31.390625 116.90625 31.015625 116.753906 C 30.640625 116.597656 30.308594 116.375 30.019531 116.089844 C 29.734375 115.800781 29.511719 115.46875 29.355469 115.09375 C 29.199219 114.71875 29.125 114.328125 29.125 113.921875 C 29.125 113.515625 29.199219 113.125 29.355469 112.75 C 29.511719 112.375 29.734375 112.046875 30.019531 111.757812 C 30.308594 111.472656 30.640625 111.25 31.015625 111.09375 C 31.390625 110.9375 31.78125 110.859375 32.1875 110.859375 C 32.59375 110.859375 32.984375 110.9375 33.363281 111.09375 C 33.738281 111.25 34.070312 111.472656 34.355469 111.757812 C 34.644531 112.046875 34.867188 112.375 35.019531 112.75 C 35.175781 113.125 35.253906 113.515625 35.253906 113.921875 C 35.253906 114.328125 35.175781 114.71875 35.019531 115.09375 C 34.867188 115.46875 34.644531 115.800781 34.355469 116.089844 C 34.070312 116.375 33.738281 116.597656 33.363281 116.753906 C 32.984375 116.90625 32.59375 116.984375 32.1875 116.984375 Z M 32.1875 116.984375 " fill-opacity="1" fill-rule="nonzero"/><path fill="#000000" d="M 96.871094 172.796875 C 97.988281 173.382812 99.148438 173.847656 100.363281 174.183594 C 101.574219 174.523438 102.808594 174.734375 104.066406 174.8125 C 105.324219 174.890625 106.574219 174.832031 107.820312 174.644531 C 109.066406 174.457031 110.277344 174.140625 111.457031 173.695312 C 123.003906 170.390625 126.105469 162.546875 126.429688 155.761719 C 119.433594 158.636719 105.472656 160.96875 89.601562 161.296875 C 90.03125 163.609375 90.875 165.757812 92.132812 167.742188 C 93.390625 169.730469 94.96875 171.414062 96.871094 172.796875 Z M 96.871094 172.796875 " fill-opacity="1" fill-rule="nonzero"/><path fill="#000000" d="M 89.230469 141.257812 C 85.261719 143.074219 81.097656 143.933594 76.734375 143.835938 C 70.851562 143.855469 65.230469 142.648438 59.875 140.210938 C 58.148438 145.410156 55.945312 150.398438 53.265625 155.175781 C 66.230469 157.816406 79.324219 158.839844 92.542969 158.238281 C 92.347656 152.402344 91.246094 146.742188 89.230469 141.257812 Z M 89.230469 141.257812 " fill-opacity="1" fill-rule="nonzero"/><path fill="#000000" d="M 21.460938 22.058594 C 21.460938 22.761719 21.390625 23.460938 21.253906 24.148438 C 21.117188 24.839844 20.910156 25.511719 20.640625 26.160156 C 20.371094 26.8125 20.042969 27.429688 19.652344 28.015625 C 19.257812 28.597656 18.816406 29.140625 18.316406 29.636719 C 17.820312 30.136719 17.277344 30.578125 16.691406 30.972656 C 16.105469 31.363281 15.488281 31.691406 14.835938 31.960938 C 14.183594 32.230469 13.515625 32.433594 12.824219 32.570312 C 12.132812 32.707031 11.433594 32.777344 10.730469 32.777344 C 10.023438 32.777344 9.328125 32.707031 8.636719 32.570312 C 7.945312 32.433594 7.273438 32.230469 6.625 31.960938 C 5.972656 31.691406 5.355469 31.363281 4.769531 30.972656 C 4.183594 30.578125 3.640625 30.136719 3.144531 29.636719 C 2.644531 29.140625 2.199219 28.597656 1.808594 28.015625 C 1.417969 27.429688 1.085938 26.8125 0.816406 26.160156 C 0.546875 25.511719 0.34375 24.839844 0.207031 24.148438 C 0.0703125 23.460938 0 22.761719 0 22.058594 C 0 21.355469 0.0703125 20.660156 0.207031 19.96875 C 0.34375 19.277344 0.546875 18.609375 0.816406 17.957031 C 1.085938 17.308594 1.417969 16.691406 1.808594 16.105469 C 2.199219 15.519531 2.644531 14.980469 3.144531 14.480469 C 3.640625 13.984375 4.183594 13.539062 4.769531 13.148438 C 5.355469 12.757812 5.972656 12.425781 6.625 12.15625 C 7.273438 11.886719 7.945312 11.683594 8.636719 11.546875 C 9.328125 11.410156 10.023438 11.34375 10.730469 11.34375 C 11.433594 11.34375 12.132812 11.410156 12.824219 11.546875 C 13.515625 11.683594 14.183594 11.886719 14.835938 12.15625 C 15.488281 12.425781 16.105469 12.757812 16.691406 13.148438 C 17.277344 13.539062 17.820312 13.984375 18.316406 14.480469 C 18.816406 14.980469 19.257812 15.519531 19.652344 16.105469 C 20.042969 16.691406 20.371094 17.308594 20.640625 17.957031 C 20.910156 18.609375 21.117188 19.277344 21.253906 19.96875 C 21.390625 20.660156 21.460938 21.355469 21.460938 22.058594 Z M 21.460938 22.058594 " fill-opacity="1" fill-rule="nonzero"/><path fill="#000000" d="M 57.328125 121.304688 C 56.632812 122.03125 56.097656 122.863281 55.726562 123.800781 C 55.355469 124.734375 55.175781 125.703125 55.179688 126.710938 L 55.179688 129.539062 C 55.15625 130.730469 55.402344 131.863281 55.914062 132.9375 C 56.425781 134.011719 57.152344 134.914062 58.09375 135.644531 C 65.683594 141.242188 82.523438 143.027344 90.007812 137.25 C 94.433594 133.835938 95.128906 128.238281 92.078125 120.617188 C 89.320312 113.75 85.601562 109.820312 81 108.921875 C 80.28125 108.785156 79.554688 108.71875 78.824219 108.722656 C 70.398438 108.71875 61.140625 117.347656 57.328125 121.304688 Z M 68.59375 118.5625 L 80.855469 115.5 C 81.054688 115.445312 81.253906 115.433594 81.460938 115.460938 C 81.664062 115.484375 81.855469 115.550781 82.035156 115.65625 C 82.210938 115.757812 82.363281 115.894531 82.488281 116.058594 C 82.609375 116.222656 82.699219 116.40625 82.746094 116.605469 C 82.796875 116.804688 82.808594 117.007812 82.773438 117.210938 C 82.742188 117.414062 82.671875 117.605469 82.566406 117.78125 C 82.457031 117.957031 82.320312 118.105469 82.152344 118.222656 C 81.984375 118.34375 81.796875 118.425781 81.597656 118.472656 L 69.335938 121.53125 C 69.140625 121.578125 68.941406 121.582031 68.746094 121.550781 C 68.546875 121.515625 68.363281 121.449219 68.195312 121.34375 C 68.023438 121.238281 67.878906 121.105469 67.761719 120.941406 C 67.640625 120.78125 67.558594 120.605469 67.511719 120.410156 C 67.460938 120.214844 67.453125 120.019531 67.480469 119.820312 C 67.507812 119.625 67.574219 119.4375 67.675781 119.265625 C 67.777344 119.09375 67.90625 118.945312 68.066406 118.824219 C 68.222656 118.703125 68.398438 118.617188 68.59375 118.5625 Z M 65.910156 127.703125 L 84.304688 127.703125 C 84.507812 127.703125 84.703125 127.742188 84.890625 127.820312 C 85.078125 127.898438 85.242188 128.007812 85.386719 128.152344 C 85.53125 128.296875 85.640625 128.460938 85.71875 128.648438 C 85.796875 128.835938 85.835938 129.03125 85.835938 129.234375 C 85.835938 129.4375 85.796875 129.632812 85.71875 129.820312 C 85.640625 130.007812 85.53125 130.171875 85.386719 130.316406 C 85.242188 130.460938 85.078125 130.570312 84.890625 130.648438 C 84.703125 130.726562 84.507812 130.765625 84.304688 130.765625 L 65.910156 130.765625 C 65.707031 130.765625 65.511719 130.726562 65.324219 130.648438 C 65.136719 130.570312 64.96875 130.460938 64.828125 130.316406 C 64.683594 130.171875 64.570312 130.007812 64.496094 129.820312 C 64.417969 129.632812 64.378906 129.4375 64.378906 129.234375 C 64.378906 129.03125 64.417969 128.835938 64.496094 128.648438 C 64.570312 128.460938 64.683594 128.296875 64.828125 128.152344 C 64.96875 128.007812 65.136719 127.898438 65.324219 127.820312 C 65.511719 127.742188 65.707031 127.703125 65.910156 127.703125 Z M 65.910156 127.703125 " fill-opacity="1" fill-rule="nonzero"/><path fill="#000000" d="M 117.359375 84.683594 L 117.339844 84.683594 C 107.675781 79.675781 97.457031 76.390625 86.683594 74.824219 C 83.324219 84.921875 81.640625 95.292969 81.628906 105.929688 C 87.300781 107.050781 91.773438 111.609375 94.921875 119.476562 C 99.421875 130.710938 95.78125 136.625 91.917969 139.644531 C 94.148438 145.601562 95.375 151.753906 95.597656 158.105469 C 109.492188 157.339844 121.160156 155.042969 126.535156 152.363281 C 127.625 151.816406 128.898438 151.179688 130.28125 150.464844 C 128.894531 139.597656 125.988281 125.53125 119.894531 117.941406 C 110.699219 106.445312 114.625 91.699219 117.359375 84.683594 Z M 117.359375 84.683594 " fill-opacity="1" fill-rule="nonzero"/><path fill="#000000" d="M 12.261719 52.679688 C 12.261719 52.980469 12.234375 53.28125 12.175781 53.578125 C 12.113281 53.871094 12.027344 54.160156 11.914062 54.4375 C 11.796875 54.71875 11.65625 54.980469 11.488281 55.234375 C 11.320312 55.484375 11.128906 55.714844 10.914062 55.929688 C 10.703125 56.140625 10.46875 56.332031 10.21875 56.5 C 9.96875 56.667969 9.703125 56.808594 9.421875 56.925781 C 9.144531 57.039062 8.855469 57.125 8.5625 57.1875 C 8.265625 57.246094 7.964844 57.273438 7.664062 57.273438 C 7.363281 57.273438 7.0625 57.246094 6.765625 57.1875 C 6.472656 57.125 6.183594 57.039062 5.902344 56.925781 C 5.625 56.808594 5.359375 56.667969 5.109375 56.5 C 4.859375 56.332031 4.625 56.140625 4.414062 55.929688 C 4.199219 55.714844 4.007812 55.484375 3.839844 55.234375 C 3.671875 54.980469 3.53125 54.71875 3.414062 54.4375 C 3.300781 54.160156 3.210938 53.871094 3.152344 53.578125 C 3.09375 53.28125 3.066406 52.980469 3.066406 52.679688 C 3.066406 52.378906 3.09375 52.082031 3.152344 51.785156 C 3.210938 51.488281 3.300781 51.203125 3.414062 50.921875 C 3.53125 50.644531 3.671875 50.378906 3.839844 50.128906 C 4.007812 49.878906 4.199219 49.644531 4.414062 49.433594 C 4.625 49.21875 4.859375 49.027344 5.109375 48.863281 C 5.359375 48.695312 5.625 48.550781 5.902344 48.4375 C 6.183594 48.320312 6.472656 48.234375 6.765625 48.175781 C 7.0625 48.117188 7.363281 48.085938 7.664062 48.085938 C 7.964844 48.085938 8.265625 48.117188 8.5625 48.175781 C 8.855469 48.234375 9.144531 48.320312 9.421875 48.4375 C 9.703125 48.550781 9.96875 48.695312 10.21875 48.863281 C 10.46875 49.027344 10.703125 49.21875 10.914062 49.433594 C 11.128906 49.644531 11.320312 49.878906 11.488281 50.128906 C 11.65625 50.378906 11.796875 50.644531 11.914062 50.921875 C 12.027344 51.203125 12.113281 51.488281 12.175781 51.785156 C 12.234375 52.082031 12.261719 52.378906 12.261719 52.679688 Z M 12.261719 52.679688 " fill-opacity="1" fill-rule="nonzero"/><path fill="#000000" d="M 120.105469 86.09375 C 117.59375 92.65625 114.183594 105.898438 122.289062 116.03125 C 128.597656 123.898438 131.664062 137.828125 133.167969 148.925781 C 143.246094 143.414062 156.839844 134.246094 156.839844 122.285156 C 156.839844 110.859375 144.457031 98.675781 120.105469 86.09375 Z M 120.105469 86.09375 " fill-opacity="1" fill-rule="nonzero"/><path fill="#000000" d="M 42.917969 43.496094 C 42.917969 43.796875 42.890625 44.09375 42.828125 44.390625 C 42.769531 44.6875 42.683594 44.972656 42.566406 45.253906 C 42.453125 45.53125 42.3125 45.796875 42.144531 46.046875 C 41.976562 46.296875 41.785156 46.527344 41.570312 46.742188 C 41.359375 46.957031 41.125 47.144531 40.875 47.3125 C 40.625 47.480469 40.359375 47.621094 40.078125 47.738281 C 39.800781 47.851562 39.511719 47.941406 39.21875 48 C 38.921875 48.058594 38.621094 48.085938 38.320312 48.085938 C 38.019531 48.085938 37.71875 48.058594 37.421875 48 C 37.125 47.941406 36.839844 47.851562 36.558594 47.738281 C 36.28125 47.621094 36.015625 47.480469 35.765625 47.3125 C 35.515625 47.144531 35.28125 46.957031 35.070312 46.742188 C 34.855469 46.527344 34.664062 46.296875 34.496094 46.046875 C 34.328125 45.796875 34.1875 45.53125 34.070312 45.253906 C 33.957031 44.972656 33.867188 44.6875 33.808594 44.390625 C 33.75 44.09375 33.722656 43.796875 33.722656 43.496094 C 33.722656 43.191406 33.75 42.894531 33.808594 42.597656 C 33.867188 42.300781 33.957031 42.015625 34.070312 41.738281 C 34.1875 41.457031 34.328125 41.191406 34.496094 40.941406 C 34.664062 40.691406 34.855469 40.460938 35.070312 40.246094 C 35.28125 40.035156 35.515625 39.84375 35.765625 39.675781 C 36.015625 39.507812 36.28125 39.367188 36.558594 39.25 C 36.839844 39.136719 37.125 39.046875 37.421875 38.988281 C 37.71875 38.929688 38.019531 38.902344 38.320312 38.902344 C 38.621094 38.902344 38.921875 38.929688 39.21875 38.988281 C 39.511719 39.046875 39.800781 39.136719 40.078125 39.25 C 40.359375 39.367188 40.625 39.507812 40.875 39.675781 C 41.125 39.84375 41.359375 40.035156 41.570312 40.246094 C 41.785156 40.460938 41.976562 40.691406 42.144531 40.941406 C 42.3125 41.191406 42.453125 41.457031 42.566406 41.738281 C 42.683594 42.015625 42.769531 42.300781 42.828125 42.597656 C 42.890625 42.894531 42.917969 43.191406 42.917969 43.496094 Z M 42.917969 43.496094 " fill-opacity="1" fill-rule="nonzero"/><path fill="#000000" d="M 171.019531 94.582031 C 164.226562 95.832031 158.8125 103.011719 155.335938 109.132812 C 156.070312 110.183594 156.734375 111.28125 157.332031 112.417969 L 169.222656 103.511719 C 169.382812 103.390625 169.5625 103.304688 169.761719 103.253906 C 169.957031 103.203125 170.15625 103.191406 170.355469 103.222656 C 170.558594 103.25 170.746094 103.316406 170.921875 103.417969 C 171.097656 103.523438 171.246094 103.65625 171.367188 103.820312 C 171.488281 103.980469 171.574219 104.160156 171.625 104.355469 C 171.675781 104.554688 171.6875 104.753906 171.65625 104.953125 C 171.628906 105.15625 171.5625 105.34375 171.460938 105.515625 C 171.355469 105.691406 171.222656 105.839844 171.058594 105.960938 L 158.796875 115.148438 C 158.726562 115.203125 158.636719 115.1875 158.5625 115.226562 C 158.890625 116.113281 159.160156 117.015625 159.371094 117.933594 L 175.789062 112.46875 C 175.980469 112.40625 176.179688 112.378906 176.382812 112.394531 C 176.585938 112.410156 176.777344 112.460938 176.957031 112.554688 C 177.140625 112.644531 177.296875 112.765625 177.433594 112.917969 C 177.566406 113.074219 177.664062 113.246094 177.726562 113.441406 C 177.792969 113.632812 177.816406 113.832031 177.800781 114.03125 C 177.789062 114.234375 177.734375 114.429688 177.644531 114.609375 C 177.554688 114.792969 177.429688 114.949219 177.277344 115.082031 C 177.121094 115.214844 176.949219 115.3125 176.757812 115.378906 L 162.726562 120.046875 L 176.757812 124.71875 C 177.113281 124.835938 177.390625 125.054688 177.585938 125.375 C 177.78125 125.699219 177.851562 126.046875 177.789062 126.417969 C 177.730469 126.789062 177.554688 127.097656 177.269531 127.339844 C 176.980469 127.582031 176.648438 127.703125 176.273438 127.703125 C 176.105469 127.703125 175.945312 127.675781 175.789062 127.625 L 159.898438 122.335938 C 159.894531 123.417969 159.796875 124.488281 159.605469 125.554688 L 171.058594 134.132812 C 171.324219 134.332031 171.503906 134.585938 171.605469 134.902344 C 171.703125 135.214844 171.699219 135.53125 171.59375 135.84375 C 171.492188 136.15625 171.304688 136.40625 171.035156 136.601562 C 170.769531 136.792969 170.46875 136.890625 170.140625 136.890625 C 169.800781 136.890625 169.492188 136.789062 169.222656 136.582031 L 158.753906 128.746094 C 158.207031 130.273438 157.507812 131.730469 156.664062 133.117188 C 159.929688 138.378906 164.96875 144.503906 171.226562 145.539062 C 172.359375 145.65625 173.496094 145.644531 174.628906 145.503906 C 175.761719 145.367188 176.863281 145.105469 177.9375 144.722656 C 179.011719 144.339844 180.03125 143.84375 180.996094 143.234375 C 181.960938 142.625 182.84375 141.914062 183.652344 141.109375 C 184.714844 140.183594 185.539062 139.082031 186.125 137.796875 C 186.710938 136.515625 187 135.167969 187 133.761719 L 187 106.328125 C 187 104.917969 186.707031 103.574219 186.121094 102.292969 C 185.539062 101.007812 184.710938 99.90625 183.648438 98.980469 C 182.832031 98.160156 181.933594 97.441406 180.953125 96.824219 C 179.972656 96.207031 178.9375 95.707031 177.84375 95.324219 C 176.75 94.945312 175.625 94.691406 174.472656 94.566406 C 173.320312 94.441406 172.171875 94.445312 171.019531 94.582031 Z M 171.019531 94.582031 " fill-opacity="1" fill-rule="nonzero"/><path fill="#000000" d="M 52.773438 75.5 L 58.410156 64.242188 C 58.5 64.0625 58.625 63.90625 58.777344 63.777344 C 58.929688 63.644531 59.105469 63.546875 59.296875 63.484375 C 59.488281 63.421875 59.683594 63.398438 59.886719 63.414062 C 60.089844 63.429688 60.28125 63.480469 60.460938 63.570312 C 60.640625 63.660156 60.796875 63.785156 60.929688 63.9375 C 61.0625 64.089844 61.160156 64.261719 61.226562 64.453125 C 61.289062 64.644531 61.316406 64.839844 61.304688 65.039062 C 61.289062 65.242188 61.238281 65.433594 61.148438 65.617188 L 56.871094 74.15625 C 59.683594 73.273438 62.535156 72.578125 65.4375 72.074219 L 65.4375 72.039062 L 70.75 64.078125 C 70.859375 63.902344 71 63.753906 71.167969 63.636719 C 71.339844 63.515625 71.523438 63.4375 71.726562 63.390625 C 71.929688 63.347656 72.132812 63.347656 72.335938 63.382812 C 72.539062 63.421875 72.726562 63.5 72.902344 63.613281 C 73.074219 63.730469 73.214844 63.871094 73.332031 64.046875 C 73.445312 64.21875 73.519531 64.40625 73.558594 64.609375 C 73.597656 64.8125 73.59375 65.015625 73.546875 65.21875 C 73.503906 65.421875 73.421875 65.605469 73.300781 65.773438 L 69.496094 71.496094 C 72.445312 71.175781 75.402344 71.039062 78.367188 71.09375 C 78.367188 71.070312 78.382812 71.042969 78.394531 71.023438 L 83.027344 64.082031 C 83.136719 63.90625 83.277344 63.757812 83.449219 63.640625 C 83.617188 63.519531 83.804688 63.4375 84.003906 63.394531 C 84.207031 63.351562 84.410156 63.347656 84.613281 63.386719 C 84.816406 63.425781 85.007812 63.503906 85.179688 63.617188 C 85.351562 63.730469 85.492188 63.875 85.609375 64.046875 C 85.722656 64.222656 85.796875 64.410156 85.835938 64.613281 C 85.875 64.816406 85.871094 65.019531 85.824219 65.222656 C 85.78125 65.421875 85.699219 65.609375 85.578125 65.777344 L 81.941406 71.230469 C 84.625 71.40625 87.296875 71.722656 89.949219 72.175781 C 92.613281 68.644531 95.234375 63.972656 93.9375 60.335938 C 92.925781 57.496094 89.570312 55.421875 83.96875 54.175781 C 70.832031 52.429688 60.816406 54.40625 54.308594 60.046875 C 53.035156 61.257812 51.886719 62.578125 50.871094 64.011719 C 49.851562 65.445312 48.980469 66.960938 48.257812 68.5625 C 47.53125 70.164062 46.96875 71.816406 46.5625 73.527344 C 46.15625 75.238281 45.917969 76.96875 45.847656 78.722656 C 48.089844 77.558594 50.386719 76.515625 52.742188 75.601562 C 52.75 75.566406 52.761719 75.53125 52.773438 75.5 Z M 52.773438 75.5 " fill-opacity="1" fill-rule="nonzero"/></svg>