<svg xmlns="http://www.w3.org/2000/svg" xmlns:xlink="http://www.w3.org/1999/xlink" width="250" zoomAndPan="magnify" viewBox="0 0 187.5 187.499992" height="250" preserveAspectRatio="xMidYMid meet" version="1.0"><path fill="#000000" d="M 185.523438 115.019531 C 185.503906 115.011719 185.484375 115.007812 185.464844 115 C 185.726562 114.453125 185.714844 113.695312 185.261719 113.492188 C 184.613281 113.199219 183.878906 113.898438 183.171875 114.136719 C 182.886719 113.804688 182.78125 113.128906 182.273438 113.144531 C 182.074219 113.152344 181.65625 113.554688 181.324219 113.804688 C 181.359375 112.503906 181.398438 110.042969 180.707031 109.75 C 179.996094 109.449219 179.574219 110.75 179.351562 111.179688 C 179.039062 111.765625 178.679688 112.28125 178.148438 112.667969 C 178.128906 112.523438 178.117188 112.378906 178.039062 112.21875 C 177.875 111.898438 177.550781 111.699219 177.445312 111.359375 C 176.871094 111.246094 176.65625 111.953125 176.347656 112.269531 C 176.0625 112.5625 175.804688 112.707031 175.484375 112.835938 C 175.261719 112.390625 175.046875 111.964844 174.878906 111.441406 C 173.929688 111.320312 173.617188 112.65625 172.738281 112.554688 C 172.566406 112.222656 172.53125 111.808594 172.292969 111.511719 C 171.941406 111.066406 171.792969 111.175781 171.15625 111.292969 C 170.738281 112.179688 170.210938 111.828125 169.585938 112.03125 C 169.164062 111.527344 169.136719 110.984375 168.910156 110.28125 C 168.714844 109.671875 168.675781 109.738281 168.058594 109.722656 C 167.921875 109.71875 167.589844 109.824219 167.398438 109.828125 C 167.214844 109.835938 167.042969 109.78125 166.855469 109.753906 C 166.796875 109.40625 166.878906 109.121094 166.90625 108.746094 C 166.929688 108.429688 167.058594 107.734375 166.757812 107.511719 C 166.070312 106.996094 165.722656 108.402344 165.046875 108.542969 C 164.964844 108.300781 164.882812 108.054688 164.773438 107.804688 C 164.613281 107.441406 164.546875 106.691406 164.164062 106.476562 C 163.210938 105.941406 163.25 108.054688 162.160156 108.011719 C 161.828125 107.414062 161.992188 106.289062 160.671875 106.917969 C 160.203125 107.144531 159.941406 107.511719 159.449219 107.644531 C 158.96875 107.773438 158.414062 107.613281 157.9375 107.605469 L 157.914062 107.628906 C 157.449219 107.238281 157.226562 106.648438 156.46875 106.894531 C 156.152344 107 156.039062 107.304688 155.675781 107.34375 C 155.335938 107.378906 154.964844 107.125 154.644531 107.039062 C 154.019531 106.875 153.300781 106.957031 152.703125 106.722656 C 152.042969 106.464844 151.496094 106.007812 150.804688 105.75 C 150.042969 105.464844 149.441406 105.003906 148.742188 104.597656 C 148.132812 104.242188 147.339844 104.144531 146.789062 103.722656 C 144.539062 102.003906 144.726562 98.9375 145.101562 96.507812 C 145.402344 96.574219 145.726562 96.589844 146.011719 96.730469 C 146.40625 96.921875 146.53125 97.320312 147.039062 97.257812 C 147.648438 97.1875 148.058594 96.046875 148.324219 95.347656 C 149.054688 95.664062 149.859375 96.03125 150.203125 94.992188 C 150.511719 94.050781 150.382812 93.5 151.03125 92.96875 C 152.085938 93.351562 152.867188 93.164062 152.761719 91.992188 C 153.273438 92.089844 153.761719 92.253906 154.246094 92.207031 C 154.902344 92.152344 155.382812 91.570312 155.3125 90.933594 C 155.992188 91.214844 156.554688 91.769531 157.265625 91.804688 C 157.816406 91.828125 158.023438 91.125 158.078125 90.460938 C 158.5625 90.804688 159.003906 91.191406 159.253906 91.566406 C 159.730469 92.292969 159.988281 93.359375 160.261719 94.234375 C 161.285156 94.515625 161.648438 92.59375 161.796875 91.949219 C 161.945312 91.335938 162.148438 90.785156 162.316406 90.191406 C 162.410156 89.84375 162.476562 89.492188 162.601562 89.171875 C 162.761719 89.203125 162.925781 89.261719 163.085938 89.363281 C 163.382812 89.558594 163.492188 90.121094 163.972656 90.003906 C 164.488281 89.878906 164.496094 88.945312 164.390625 88.273438 C 164.972656 88.601562 165.789062 88.988281 166.191406 88.78125 C 166.777344 88.484375 166.535156 87.574219 166.546875 86.902344 C 167.007812 87.167969 167.417969 87.488281 167.742188 87.976562 C 167.964844 88.3125 168.378906 89.484375 168.902344 89.421875 C 169.808594 89.308594 169.855469 86.757812 169.785156 85.574219 C 170.203125 85.84375 170.558594 86.113281 170.90625 86.667969 C 171.027344 86.699219 171.210938 86.691406 171.335938 86.65625 C 171.359375 85.984375 171.386719 84.976562 171.089844 84.289062 C 171.523438 84.519531 171.910156 84.835938 172.3125 85.140625 C 172.984375 84.585938 172.65625 83.757812 172.617188 83.015625 C 173.199219 83.226562 173.800781 83.398438 174.320312 83.714844 C 174.769531 83.992188 175.648438 85.007812 176.246094 84.292969 C 176.789062 83.640625 175.683594 82.6875 175.84375 82.203125 C 175.851562 82.203125 176.578125 81.65625 176.667969 81.5625 C 176.847656 81.367188 177.101562 81.1875 177.21875 80.960938 C 177.535156 81.085938 177.839844 81.246094 178.140625 81.421875 C 178.644531 81.726562 179.183594 82.511719 179.773438 82.621094 C 181.054688 82.855469 180.210938 80.800781 179.835938 79.960938 C 180.019531 79.878906 180.203125 79.789062 180.382812 79.695312 C 180.929688 79.421875 181.453125 79.097656 181.882812 78.699219 C 182.28125 78.320312 182.589844 77.871094 182.726562 77.328125 C 183.082031 75.9375 181.167969 74.882812 180.046875 74.441406 C 178.6875 73.90625 176.960938 74.085938 175.515625 73.828125 C 171.910156 73.195312 169.449219 76.257812 167.21875 78.691406 C 166.824219 78.835938 166.351562 79.285156 166.066406 79.460938 C 165.449219 79.832031 164.878906 80.066406 164.175781 80.21875 C 162.765625 80.519531 161.546875 81.027344 160.214844 81.382812 C 158.820312 81.75 157.359375 82.042969 155.980469 82.429688 C 155.21875 82.644531 154.707031 83.136719 153.929688 83.382812 C 153.242188 83.597656 152.402344 83.53125 151.675781 83.648438 C 151.046875 83.742188 150.480469 83.933594 149.875 84.035156 C 149.6875 83.9375 149.492188 83.84375 149.28125 83.773438 C 148.976562 83.667969 148.652344 83.601562 148.324219 83.539062 C 148 83.476562 147.675781 83.417969 147.371094 83.320312 C 146.691406 83.101562 146.089844 82.789062 145.363281 82.683594 C 144.667969 82.585938 144.152344 82.597656 143.488281 82.363281 C 142.34375 81.957031 141.265625 82.082031 140.109375 82.355469 C 138.25 82.792969 136.328125 83.472656 134.503906 84.136719 C 134.195312 84.128906 133.886719 84.128906 133.570312 84.140625 C 132.386719 84.1875 131.253906 84.269531 130.109375 84.453125 C 128.859375 84.65625 127.753906 84.824219 126.691406 85.605469 C 126.246094 85.929688 125.476562 87.238281 125.730469 87.9375 C 124.367188 88.230469 122.929688 88.351562 121.648438 88.644531 C 120.386719 88.933594 118.007812 90.480469 118.285156 92.007812 C 118.269531 92.003906 118.253906 92.003906 118.238281 92 C 116.839844 91.886719 116.601562 91.207031 115.46875 90.613281 C 114.414062 90.058594 112.558594 90.753906 111.292969 91.601562 C 110.625 90.664062 109.816406 89.710938 108.484375 90.445312 C 107.496094 90.988281 107.992188 91.894531 106.730469 92.050781 C 106.132812 92.128906 104.851562 91.621094 104.097656 91.609375 C 102.460938 91.585938 100.851562 92.300781 99.421875 93.011719 C 98.355469 93.546875 97.125 94.535156 95.839844 94.660156 C 95.390625 94.167969 95.195312 93.546875 94.746094 92.984375 C 94.1875 92.289062 93.328125 91.785156 92.640625 91.261719 C 91.046875 90.046875 89.660156 89.929688 87.929688 90.636719 C 87.769531 87.933594 85.269531 87.03125 82.804688 87.0625 L 82.804688 87.058594 C 81.652344 85.746094 81.316406 85.300781 79.320312 85.363281 C 78.703125 85.382812 77.792969 85.511719 77.003906 85.519531 C 76.835938 84.460938 75.492188 82.488281 74.675781 82.261719 C 73.71875 82 72.714844 82.316406 71.734375 82.554688 C 70.078125 80.492188 68.066406 80.886719 65.5625 81.472656 C 64.660156 79.480469 63.132812 79.492188 61.324219 79.601562 C 61.023438 78.648438 60.226562 78.347656 59.234375 78.285156 C 58.390625 77.570312 56.796875 78.410156 55.554688 78.925781 C 54.792969 76.765625 51.351562 78.71875 49.398438 78.984375 C 48.582031 78.554688 48.671875 77.261719 47.25 77.492188 C 46.558594 77.597656 45.613281 78.539062 44.828125 78.863281 C 44.257812 78.589844 43.59375 78.472656 42.964844 78.476562 C 41.867188 78.488281 41.4375 79.085938 40.8125 79.726562 C 40.070312 79.324219 39.515625 79.3125 38.519531 79.800781 C 37.867188 80.121094 37.882812 80.484375 37.105469 80.664062 C 36.734375 80.746094 36.28125 80.714844 35.867188 80.707031 C 36.222656 79.550781 37.136719 78.417969 38.113281 77.710938 C 39.847656 76.445312 42 75.679688 44.050781 75.074219 C 46.433594 74.367188 48.433594 72.941406 50.769531 72.15625 C 51.773438 71.816406 52.699219 71.414062 53.617188 70.992188 C 58.316406 69.496094 62.964844 67.378906 66.441406 63.867188 C 72.601562 57.644531 73.789062 45.949219 64.800781 41.664062 C 60.433594 39.582031 55.476562 39.992188 50.761719 40.207031 C 46.230469 40.414062 41.9375 41.367188 37.566406 42.464844 C 37.347656 42.824219 37.328125 43.207031 37.84375 43.394531 C 40.277344 43.6875 41.179688 43.582031 43.058594 43.800781 C 44.988281 44.027344 46.527344 44.109375 48.335938 44.296875 C 48.65625 44.328125 48.988281 44.363281 49.328125 44.402344 C 49.964844 44.480469 50.675781 44.570312 51.429688 44.683594 C 51.882812 44.75 52.359375 44.828125 52.839844 44.914062 C 53.835938 45.089844 54.875 45.308594 55.890625 45.582031 C 56.972656 45.871094 58.03125 46.222656 58.992188 46.652344 C 60.210938 47.1875 61.277344 47.847656 62.046875 48.664062 C 62.078125 48.699219 62.113281 48.734375 62.144531 48.769531 C 62.667969 49.351562 63.046875 49.898438 63.292969 50.433594 C 62.824219 50.347656 62.371094 50.734375 61.5 50.996094 C 60.855469 52.203125 61.5625 52.707031 61.964844 53.574219 C 62.300781 54.304688 61.769531 54.921875 61.234375 56.066406 C 60.066406 55.3125 59.511719 52.535156 57.832031 54.53125 C 57.019531 55.496094 56.910156 57 56.21875 58.09375 C 55.378906 58.203125 54.59375 58.859375 53.664062 58.628906 C 52.695312 58.390625 52.40625 58.316406 51.605469 56.84375 C 50.605469 55.007812 49.839844 56.519531 49.089844 57.773438 C 48.539062 58.691406 47.605469 59.9375 46.496094 60.289062 C 46.242188 59.410156 45.96875 58.550781 45.695312 57.703125 C 44.542969 57.695312 42.875 59.582031 41.914062 60.652344 C 41.085938 59.566406 41.164062 59.214844 39.921875 60.484375 C 39.003906 61.421875 38.492188 62.382812 37.386719 63.117188 C 36.976562 63.390625 36.574219 63.738281 36.167969 64.101562 C 35.582031 64.101562 34.910156 64.203125 34.308594 64.132812 C 33.398438 64.023438 32.71875 63.664062 31.808594 63.984375 C 30.351562 64.496094 29.660156 65.84375 29.292969 67.191406 C 28.46875 67.566406 27.757812 68.300781 26.929688 68.636719 C 25.59375 69.1875 23.875 69.417969 22.464844 69.269531 C 21.703125 69.191406 19.683594 68.542969 19.132812 69.433594 C 18.960938 69.71875 19.011719 70.289062 19.195312 70.855469 C 18.355469 71.148438 17.863281 72.203125 17.023438 72.605469 C 15.972656 73.113281 14.847656 72.703125 13.765625 72.773438 C 12.945312 72.828125 10.972656 73.191406 10.492188 73.882812 C 9.902344 74.730469 10.203125 75.203125 10.761719 75.550781 C 9.164062 76.40625 7.144531 76.878906 5.691406 77.5625 C 4.570312 78.085938 4.109375 78.132812 3.847656 79.394531 C 3.679688 80.207031 4.089844 81.316406 4.820312 81.957031 C 3.519531 82.78125 2.542969 83.765625 1.472656 85.265625 C -0.0078125 87.339844 0.894531 88.328125 2.800781 88.984375 C 2.253906 89.972656 1.722656 91.082031 1.789062 93.097656 C 1.84375 94.726562 1.882812 95.574219 2.433594 97.113281 C 3.128906 99.054688 3.390625 99.316406 4.691406 101.433594 C 3.371094 103.894531 3.011719 106.457031 2.066406 109.347656 C 1.53125 111.007812 1.214844 114.121094 2.269531 115.5625 C 3.492188 117.226562 4.085938 119.757812 5.148438 121.363281 C 5.765625 122.296875 6.394531 122.652344 7.191406 122.894531 C 7.542969 124.128906 8.257812 125.246094 9.433594 125.789062 C 9.691406 126.640625 10.035156 127.4375 10.738281 128.046875 C 11.980469 129.117188 11.59375 127.390625 11.984375 126.75 C 12.28125 126.253906 13.238281 125.515625 13.785156 125.28125 C 14.03125 125.175781 14.285156 125.105469 14.546875 125.054688 L 14.550781 125.074219 C 15.039062 125.167969 14.988281 125.699219 15.28125 125.972656 C 15.574219 126.238281 15.933594 126.183594 16.277344 126.3125 C 16.613281 126.445312 17.105469 126.726562 17.402344 126.925781 C 17.777344 127.183594 18.121094 127.78125 18.644531 127.6875 C 18.9375 127.007812 19.230469 125.558594 19.082031 124.488281 C 19.5 124.539062 19.921875 124.523438 20.308594 124.691406 C 20.765625 124.878906 21.109375 125.410156 21.613281 125.539062 C 22.074219 125.660156 22.621094 125.402344 23.082031 125.507812 C 23.625 125.628906 24 126.164062 24.632812 125.980469 C 24.667969 125.058594 24.519531 124.046875 24.050781 123.253906 C 24.824219 123.234375 25.605469 123.234375 26.371094 123.164062 C 26.410156 122.039062 25.726562 121.671875 25.316406 120.664062 C 24.882812 119.625 24.476562 119.175781 23.460938 118.5625 C 22.535156 118.011719 21.359375 117.640625 20.566406 116.929688 C 19.710938 116.160156 19.246094 115.453125 18.179688 114.882812 C 17.746094 114.652344 17.320312 114.375 16.871094 114.199219 C 16.675781 114.125 16.472656 114.0625 16.257812 114.007812 C 16.652344 113.269531 16.839844 111.792969 17.242188 110.902344 C 17.273438 110.925781 17.3125 110.945312 17.347656 110.964844 C 17.886719 111.265625 18.988281 112.203125 19.539062 112.492188 C 20.828125 113.167969 21.671875 114.015625 22.933594 114.746094 C 25.300781 116.109375 26.945312 116.5 29.175781 118.03125 C 30.363281 118.847656 31.75 119.859375 33.082031 120.296875 C 34.511719 120.769531 35.875 121.484375 37.285156 122.015625 C 38.773438 122.578125 40.304688 123.054688 41.824219 123.527344 C 43.421875 124.03125 44.953125 124.058594 46.554688 124.382812 C 48.300781 124.738281 50.003906 125.132812 51.789062 125.234375 C 52.628906 125.285156 53.6875 125.636719 54.679688 125.707031 C 54.3125 127.707031 55.117188 129.769531 56.277344 131.363281 C 57.679688 133.289062 59.652344 134.359375 61.46875 135.851562 C 62.175781 136.433594 63.59375 137.566406 63.847656 138.605469 C 63.246094 139.1875 62.726562 139.453125 62.027344 139.769531 C 61.410156 140.042969 61.277344 140.5 60.78125 140.96875 C 60.1875 141.523438 59.972656 141.644531 60.0625 142.488281 C 60.882812 142.632812 61.527344 141.953125 62.222656 141.804688 C 62.613281 141.714844 63.199219 141.816406 63.722656 141.855469 C 63.554688 142.058594 63.363281 142.246094 63.136719 142.40625 C 62.542969 142.8125 61.207031 143.570312 61.871094 144.480469 C 62.53125 144.121094 63.320312 143.835938 64.050781 143.625 C 64.605469 143.46875 65.402344 143.574219 65.976562 143.382812 C 66.453125 143.21875 66.722656 143.425781 67.023438 143.226562 C 67.265625 143.0625 67.722656 143.027344 68.035156 142.957031 C 68.421875 142.875 68.71875 142.585938 69.035156 142.316406 C 69.316406 143.886719 69.96875 145.507812 71.339844 146.148438 C 71.578125 146.535156 71.898438 147.164062 72.457031 146.828125 C 72.925781 146.550781 72.707031 145.714844 72.933594 145.285156 C 73.316406 144.5625 73.691406 144.21875 73.828125 143.558594 C 74.070312 143.921875 74.390625 144.230469 74.894531 144.472656 C 75.371094 144.699219 75.914062 144.660156 76.371094 144.824219 C 76.800781 144.980469 77.171875 145.714844 77.703125 145.570312 C 77.90625 144.71875 78.128906 143.792969 77.808594 142.863281 C 77.609375 142.289062 77.449219 142.09375 77.496094 141.496094 C 77.507812 141.328125 77.53125 141.171875 77.554688 141.007812 C 78.203125 141.296875 78.898438 141.503906 79.527344 141.785156 C 80.011719 142 80.414062 142.054688 80.902344 142.1875 C 81.410156 142.324219 81.882812 142.691406 82.457031 142.570312 C 82.519531 141.875 82.261719 141.578125 81.949219 141.023438 C 81.648438 140.484375 81.792969 139.761719 81.398438 139.28125 C 81.214844 139.054688 80.832031 138.953125 80.605469 138.742188 C 80.359375 138.515625 80.234375 138.210938 79.941406 137.980469 C 79.527344 137.652344 79.152344 137.664062 78.738281 137.527344 C 78.671875 136.199219 78.5625 134.894531 78.429688 133.527344 C 78.34375 132.644531 78.027344 131.808594 77.707031 130.964844 C 77.609375 130.714844 77.496094 130.222656 77.347656 129.757812 C 77.949219 129.75 78.574219 129.652344 79.152344 129.667969 C 80.238281 129.699219 81.257812 129.875 82.359375 129.835938 C 84.351562 129.773438 86.113281 130.097656 88.023438 130.152344 C 88.75 130.753906 89.742188 130.992188 90.722656 131.082031 C 91.453125 131.148438 92.292969 131.035156 92.957031 130.800781 C 93.550781 130.59375 94.167969 130.046875 94.804688 129.765625 C 95.550781 130.417969 96.570312 131.152344 97.226562 131.238281 C 98.578125 131.417969 99.273438 130.628906 100.191406 129.976562 C 101.007812 130.390625 101.988281 130.621094 102.753906 130.675781 C 103.601562 130.734375 104.125 130.503906 104.808594 130.023438 C 104.984375 129.898438 105.234375 129.628906 105.496094 129.382812 C 105.605469 129.496094 105.722656 129.613281 105.859375 129.726562 C 106.367188 130.148438 106.890625 130.226562 107.546875 130.3125 C 108.078125 130.382812 108.621094 130.417969 109.164062 130.421875 C 109.527344 131.074219 109.984375 131.519531 110.726562 131.925781 C 111.726562 132.46875 112.40625 133.230469 113.289062 133.875 C 114.355469 134.660156 113.992188 133.507812 114.476562 132.621094 C 114.761719 132.097656 115.035156 131.703125 115.242188 131.3125 C 115.765625 131.523438 116.472656 131.472656 116.964844 131.792969 C 117.605469 132.210938 117.902344 132.664062 118.765625 132.847656 C 119.289062 132.960938 119.699219 133.03125 120.238281 133.109375 C 120.980469 133.21875 123.316406 134.269531 123.050781 132.867188 C 122.972656 132.425781 122.496094 131.910156 122.355469 131.460938 C 122.160156 130.832031 122.101562 130.203125 121.964844 129.558594 C 122.742188 129.003906 124.523438 129.488281 125.273438 129.964844 C 125.933594 129.605469 124.925781 127.902344 123.949219 126.617188 C 124.3125 126.453125 124.679688 126.273438 125.085938 126.097656 C 126.128906 125.648438 127.222656 125.546875 128.214844 124.941406 C 129.042969 124.433594 129.5625 123.675781 130.304688 123.136719 C 130.792969 122.785156 131.476562 122.804688 131.894531 122.328125 C 132.1875 122 132.199219 121.542969 132.457031 121.1875 C 132.789062 120.734375 133.269531 120.453125 133.769531 120.191406 C 134.398438 120.171875 135.039062 120.132812 135.679688 120.113281 C 137.515625 120.054688 139.351562 120.066406 141.1875 120 C 142.191406 119.964844 143.214844 119.878906 144.214844 119.929688 C 145.328125 119.988281 146.347656 120.375 147.429688 120.613281 C 149.800781 121.132812 152.347656 121.78125 154.792969 121.71875 C 158.84375 121.609375 162.882812 121.371094 166.929688 121.234375 C 168.832031 121.167969 170.65625 120.679688 172.554688 120.589844 C 174.441406 120.492188 176.390625 120.640625 178.253906 120.335938 C 180.726562 119.933594 186.980469 118.664062 185.523438 115.019531 Z M 185.523438 115.019531 " fill-opacity="1" fill-rule="nonzero"/></svg>