<svg xmlns="http://www.w3.org/2000/svg" xmlns:xlink="http://www.w3.org/1999/xlink" width="250" zoomAndPan="magnify" viewBox="0 0 187.5 187.499992" height="250" preserveAspectRatio="xMidYMid meet" version="1.0"><path fill="#000000" d="M 18.757812 91.597656 C 18.804688 92.628906 18.175781 93.882812 18.578125 94.597656 C 18.980469 95.359375 20.414062 95.539062 21.667969 96.121094 C 20.191406 99.074219 22.519531 100.550781 25.292969 100.238281 C 24.578125 103.015625 26.367188 103.773438 28.25 103.460938 C 27.847656 104.269531 27.265625 105.476562 28.832031 106.371094 C 29.859375 106.953125 30.621094 106.507812 31.203125 106.238281 C 30.710938 109.503906 32.414062 109.910156 34.113281 110 C 34.339844 110.984375 33.84375 111.746094 34.652344 112.460938 C 35.097656 112.773438 36.261719 112.59375 37.292969 111.96875 C 37.023438 113.667969 36.84375 116.535156 40.5625 114.25 C 39.488281 118.636719 40.964844 117.921875 43.785156 117.5625 C 43.335938 120.742188 44.054688 121.011719 46.875 120.609375 C 46.917969 123.027344 48.128906 125.980469 53.679688 122.535156 C 53.410156 125.890625 53.050781 126.609375 57.125 126.160156 C 56.5 127.457031 55.425781 128.800781 54.304688 130.277344 C 53.8125 130.859375 53.902344 130.816406 53.277344 130.816406 C 51.082031 130.769531 37.742188 129.832031 32.726562 131.039062 C 29.996094 131.710938 30.53125 133.367188 32.457031 134.398438 C 34.023438 135.203125 37.5625 135.246094 40.113281 135.652344 C 37.292969 136.007812 31.382812 135.695312 30.355469 138.964844 C 29.726562 141.023438 31.113281 141.917969 35.007812 143.128906 C 25.339844 148.632812 33.351562 150.246094 37.964844 149.214844 C 36.800781 150.113281 31.472656 152.976562 32.679688 155.082031 C 33.933594 157.183594 37.5625 156.378906 39.351562 156.648438 C 38.679688 157.230469 35.054688 158.527344 36.84375 159.691406 C 38.367188 160.855469 41.320312 159.378906 43.515625 159.289062 C 42.574219 160.09375 39.488281 162.738281 43.066406 163.273438 C 44.546875 163.542969 47.5 160.453125 49.648438 159.648438 C 43.515625 166.40625 48.082031 166.988281 52.605469 161.976562 C 50.859375 168.109375 55.289062 166.363281 58.289062 162.871094 C 59.050781 168.242188 64.289062 163.320312 65.453125 159.871094 C 66.886719 161.484375 72.75 161.078125 72.570312 155.796875 C 74.226562 156.691406 77.539062 158.796875 79.152344 156.558594 C 80.898438 154.230469 77.855469 148.140625 77.363281 144.828125 C 78.972656 144.558594 80.449219 144.246094 82.0625 143.800781 C 82.464844 144.335938 82.421875 145.277344 82.914062 145.589844 C 83.585938 145.949219 85.015625 145.277344 86 145.140625 C 85.957031 145.8125 85.242188 146.796875 85.644531 147.203125 C 86.136719 147.738281 87.523438 146.976562 88.375 146.976562 C 88.152344 147.785156 88.375 148.949219 88.867188 149.351562 C 89.449219 149.753906 90.523438 149.171875 91.328125 149.214844 C 91.195312 149.886719 91.0625 150.738281 91.464844 151.097656 C 92.046875 151.679688 93.925781 151.230469 94.867188 151.1875 C 94.148438 154.722656 98.042969 153.46875 99.207031 152.753906 C 100.6875 154.632812 101.445312 154.902344 103.640625 153.691406 C 104.3125 154.140625 104.445312 155.484375 105.835938 155.664062 C 107.3125 155.929688 108.207031 154.902344 109.191406 154.632812 C 109.28125 155.574219 109.148438 157.140625 109.820312 157.453125 C 110.582031 157.8125 112.460938 156.246094 113.714844 155.617188 C 114.160156 156.335938 114.339844 157.632812 115.101562 157.902344 C 116.085938 158.257812 118.101562 156.78125 119.445312 155.84375 C 119.714844 156.289062 120.5625 157.8125 121.28125 158.082031 C 122.308594 158.4375 124.101562 156.828125 125.265625 155.484375 C 125.667969 156.425781 126.472656 158.082031 127.367188 158.484375 C 129.382812 159.332031 130.546875 157.722656 131.488281 156.46875 C 132.695312 157.050781 133.589844 158.125 134.753906 158.167969 C 135.875 158.214844 136.949219 156.871094 137.800781 156.738281 C 139.007812 156.691406 140.933594 158.257812 142.320312 157.992188 C 143.621094 157.722656 144.558594 156.199219 145.5 155.082031 C 148.367188 157.230469 148.859375 157.8125 153.15625 157.410156 C 151.769531 155.171875 151.8125 154.363281 152.796875 154.273438 C 155.707031 156.019531 158.886719 157.363281 164.035156 157.410156 C 160.453125 155.125 159.601562 154.542969 157.722656 152.527344 C 162.46875 154.050781 168.824219 156.960938 174.421875 155.035156 C 171.199219 154.410156 166.585938 154.273438 165.0625 152.4375 C 173.792969 153.738281 176.839844 154.453125 185.792969 149.84375 C 182.078125 150.335938 179.210938 150.605469 175.628906 149.796875 C 180.914062 148.632812 182.523438 148.320312 187 141.875 C 182.570312 145.140625 178.40625 147.378906 174.285156 148.453125 C 177.242188 146.441406 179.792969 141.785156 179.839844 141.917969 C 174.464844 146.976562 169.273438 149.261719 161.796875 148.320312 C 157.273438 147.738281 154.097656 145.679688 148.542969 143.621094 C 150.871094 143.304688 156.066406 143.128906 156.109375 142.546875 C 149.707031 142.140625 142.367188 139.636719 139.589844 138.695312 C 134.578125 136.949219 129.472656 135.023438 124.367188 133.097656 C 117.476562 130.054688 110.625 126.964844 103.507812 123.785156 C 105.65625 122.265625 110.222656 118.460938 112.90625 119.042969 C 113.847656 119.265625 115.773438 120.070312 116.578125 120.789062 C 116.488281 119.355469 116.445312 117.25 115.996094 115.90625 C 112.90625 106.550781 95.714844 122.578125 72.125 96.296875 C 68.050781 91.777344 61.78125 86.898438 58.289062 82.867188 C 55.738281 79.957031 54.171875 77.765625 52.960938 75.570312 C 51.261719 72.4375 50.632812 66.75 48.664062 61.738281 C 48.261719 62.632812 48.171875 66.976562 47.769531 67.871094 C 39.261719 52.605469 37.246094 48.484375 41.097656 32.011719 C 34.25 38.1875 36.667969 44.992188 38.277344 51.84375 C 31.339844 37.292969 33.128906 34.652344 33.21875 20.011719 C 27.175781 31.203125 30.578125 40.335938 34.203125 50.722656 C 31.070312 43.917969 26.816406 35.996094 24.757812 30.085938 C 23.28125 25.875 22.921875 22.652344 22.027344 19.070312 C 21.21875 20.371094 20.953125 22.117188 21.085938 24.265625 C 21.578125 32.503906 25.292969 40.785156 29.546875 48.394531 C 25.921875 43.875 22.519531 39.261719 19.921875 34.292969 C 17.550781 29.773438 15.3125 18.757812 13.96875 20.144531 C 14.503906 35.414062 15.757812 33.261719 22.429688 46.558594 C 16.699219 39.621094 6.3125 25.519531 5.371094 25.875 C 2.597656 28.339844 17.414062 46.15625 19.070312 48.394531 C 18.3125 48.261719 17.683594 48.304688 16.429688 47.632812 C 13.339844 45.933594 3.359375 34.742188 1.386719 35.769531 C 0 37.382812 8.683594 44.8125 12.492188 49.785156 C 9.582031 48.933594 4.027344 44.859375 3.625 45.171875 C 2.328125 48.082031 7.386719 52.695312 9.175781 54.664062 C 7.65625 54.351562 5.550781 53.320312 4.609375 53.542969 C 2.417969 54.125 7.519531 59.855469 8.058594 60.707031 C 6.804688 60.664062 5.328125 60.664062 5.863281 62.453125 C 6.222656 63.527344 8.507812 65.273438 10.074219 66.707031 C 9.582031 67.332031 8.507812 67.914062 8.238281 68.585938 C 7.027344 71.585938 11.863281 74.09375 14.101562 74.496094 C 10.386719 77.226562 13.339844 78.121094 16.070312 80.449219 C 15.175781 81.433594 13.296875 82.285156 13.296875 83.179688 C 13.339844 84.210938 15.578125 85.242188 16.878906 86.40625 C 16.476562 87.480469 15.132812 88.644531 15.3125 89.492188 C 15.535156 90.34375 17.550781 90.882812 18.757812 91.597656 Z M 18.757812 91.597656 " fill-opacity="1" fill-rule="evenodd"/></svg>