<svg xmlns="http://www.w3.org/2000/svg" xmlns:xlink="http://www.w3.org/1999/xlink" width="250" zoomAndPan="magnify" viewBox="0 0 187.5 187.499992" height="250" preserveAspectRatio="xMidYMid meet" version="1.0"><defs><clipPath id="73e60d2ad0"><path d="M 0 41.140625 L 187 41.140625 L 187 145.859375 L 0 145.859375 Z M 0 41.140625 " clip-rule="nonzero"/></clipPath></defs><g clip-path="url(#73e60d2ad0)"><path fill="#000000" d="M 137.574219 56.582031 C 137.492188 56.6875 137.378906 56.765625 137.214844 56.921875 C 137.214844 56.632812 137.21875 56.453125 137.210938 56.273438 C 137.195312 55.9375 137.195312 55.59375 137.148438 55.261719 C 137.109375 54.984375 137.074219 54.683594 136.738281 54.566406 C 136.402344 54.445312 136.148438 54.628906 135.929688 54.824219 C 135.746094 54.988281 135.585938 55.1875 135.460938 55.398438 C 135.238281 55.761719 135.046875 56.148438 134.84375 56.527344 C 134.738281 56.71875 134.59375 56.898438 134.53125 57.101562 C 134.066406 58.660156 133.621094 60.222656 133.15625 61.78125 C 133.015625 62.257812 132.835938 62.714844 132.679688 63.164062 C 132.132812 63.25 132.089844 63.269531 131.789062 63.730469 C 131.65625 63.9375 131.539062 64.15625 131.421875 64.375 C 131.257812 64.6875 131.105469 65.003906 130.9375 65.3125 C 129.984375 67.089844 128.804688 68.707031 127.496094 70.234375 C 126.621094 71.261719 125.664062 72.199219 124.550781 72.960938 C 122.925781 74.070312 121.292969 75.167969 119.660156 76.257812 C 119.378906 76.445312 119.070312 76.589844 118.761719 76.730469 C 117.175781 77.429688 115.511719 77.722656 113.789062 77.734375 C 113.25 77.734375 112.832031 77.9375 112.554688 78.414062 C 112.488281 78.527344 112.375 78.636719 112.257812 78.699219 C 110.058594 79.914062 107.753906 80.808594 105.230469 81.042969 C 105.042969 81.0625 104.855469 81.09375 104.664062 81.121094 C 104.585938 80.710938 104.515625 80.34375 104.449219 79.972656 C 104.433594 79.898438 104.414062 79.8125 104.4375 79.746094 C 104.511719 79.515625 104.429688 79.308594 104.359375 79.097656 C 104.308594 78.953125 104.25 78.804688 104.195312 78.660156 C 104.152344 78.546875 104.132812 78.4375 104.242188 78.339844 C 104.410156 78.191406 104.378906 78.003906 104.300781 77.835938 C 104.164062 77.539062 104.03125 77.242188 103.859375 76.964844 C 103.417969 76.246094 102.953125 75.539062 102.5 74.824219 C 102.429688 74.71875 102.382812 74.597656 102.328125 74.484375 C 102.246094 74.328125 102.183594 74.15625 102.078125 74.015625 C 101.976562 73.886719 101.832031 73.789062 101.726562 73.695312 C 101.875 73.25 101.871094 73.246094 101.53125 73.011719 C 101.15625 72.753906 100.78125 72.496094 100.402344 72.242188 C 100.03125 71.996094 99.699219 71.707031 99.40625 71.371094 C 99.222656 71.164062 99.089844 70.988281 99.21875 70.6875 C 99.316406 70.460938 99.207031 70.320312 98.972656 70.328125 C 98.769531 70.332031 98.617188 70.253906 98.464844 70.15625 C 97.839844 69.753906 97.191406 69.394531 96.492188 69.136719 C 96.371094 69.09375 96.253906 69.023438 96.160156 68.941406 C 95.816406 68.632812 95.449219 68.371094 95.066406 68.320312 C 94.949219 68.140625 94.890625 68.015625 94.796875 67.929688 C 94.699219 67.832031 94.570312 67.765625 94.445312 67.703125 C 94.339844 67.652344 94.226562 67.605469 94.113281 67.601562 C 93.269531 67.597656 92.414062 67.542969 91.574219 67.621094 C 90.332031 67.742188 89.097656 67.945312 87.863281 68.140625 C 86.058594 68.417969 84.4375 69.1875 82.867188 70.078125 C 82.300781 70.398438 81.9375 70.867188 81.910156 71.542969 C 81.902344 71.765625 81.804688 71.886719 81.585938 71.96875 C 80.808594 72.25 80.101562 72.648438 79.464844 73.191406 C 79.183594 73.429688 78.902344 73.660156 78.734375 73.988281 C 78.359375 74.730469 77.996094 75.488281 77.894531 76.328125 C 77.835938 76.804688 77.855469 77.289062 77.84375 77.769531 C 77.835938 78.28125 78.183594 78.609375 78.488281 79.054688 C 78.671875 78.558594 78.824219 78.148438 78.992188 77.703125 C 79.546875 78.121094 80.128906 78.066406 80.699219 77.992188 C 81.277344 77.914062 81.847656 77.773438 82.417969 77.652344 C 82.597656 77.617188 82.738281 77.609375 82.875 77.769531 C 83.023438 77.945312 83.207031 78.089844 83.378906 78.242188 C 83.722656 78.542969 84.078125 78.828125 84.414062 79.136719 C 84.695312 79.398438 84.703125 79.800781 84.476562 80.121094 C 84.289062 80.386719 84.117188 80.667969 83.921875 80.929688 C 83.605469 81.355469 83.273438 81.773438 82.957031 82.203125 C 82.820312 82.386719 82.667969 82.425781 82.453125 82.375 C 82.132812 82.308594 81.808594 82.257812 81.488281 82.21875 C 80.136719 82.054688 78.8125 81.773438 77.5625 81.234375 C 76.628906 80.832031 75.722656 80.378906 74.800781 79.949219 C 74.632812 79.867188 74.503906 79.757812 74.414062 79.585938 C 74.175781 79.140625 73.757812 78.917969 73.285156 78.949219 C 72.835938 78.980469 72.40625 78.90625 71.96875 78.859375 C 71.515625 78.8125 71.0625 78.769531 70.617188 78.683594 C 69.199219 78.398438 67.867188 77.90625 66.683594 77.039062 C 66.066406 76.582031 65.421875 76.164062 64.785156 75.734375 C 63.902344 75.136719 63.011719 74.546875 62.132812 73.941406 C 61.332031 73.390625 60.632812 72.722656 59.988281 72.003906 C 58.246094 70.054688 56.714844 67.953125 55.574219 65.585938 C 55.464844 65.351562 55.324219 65.128906 55.1875 64.90625 C 54.996094 64.597656 54.765625 64.339844 54.332031 64.414062 C 54.234375 64.125 54.125 63.859375 54.042969 63.585938 C 53.519531 61.828125 52.996094 60.070312 52.472656 58.3125 C 52.449219 58.226562 52.414062 58.140625 52.371094 58.0625 C 52.277344 57.890625 52.171875 57.730469 52.074219 57.5625 C 51.851562 57.179688 51.644531 56.789062 51.410156 56.414062 C 51.246094 56.140625 51.011719 55.933594 50.714844 55.800781 C 50.363281 55.644531 50.003906 55.792969 49.933594 56.167969 C 49.851562 56.613281 49.828125 57.070312 49.789062 57.519531 C 49.773438 57.695312 49.785156 57.871094 49.78125 58.132812 C 49.609375 57.96875 49.496094 57.882812 49.410156 57.777344 C 49.152344 57.445312 48.8125 57.234375 48.417969 57.117188 C 47.832031 56.945312 47.242188 56.78125 46.648438 56.648438 C 44.964844 56.269531 43.246094 56.179688 41.535156 56.023438 C 40.292969 55.90625 39.039062 55.871094 37.792969 55.78125 C 37.164062 55.734375 36.511719 55.773438 35.9375 55.429688 C 35.882812 55.398438 35.8125 55.394531 35.75 55.382812 C 34.480469 55.152344 33.214844 54.910156 31.945312 54.695312 C 29.351562 54.261719 26.847656 53.535156 24.460938 52.417969 C 23.398438 51.917969 22.335938 51.429688 21.277344 50.925781 C 19.34375 50 17.523438 48.894531 15.808594 47.605469 C 15.101562 47.074219 14.375 46.5625 13.652344 46.054688 C 12.488281 45.242188 11.300781 44.464844 10.222656 43.53125 C 9.890625 43.242188 9.519531 42.996094 9.160156 42.734375 C 8.808594 42.480469 8.402344 42.425781 7.976562 42.402344 C 7.480469 42.382812 7.050781 42.78125 7.296875 43.363281 C 7.582031 44.039062 7.757812 44.761719 8.273438 45.335938 C 8.644531 45.75 8.9375 46.234375 9.265625 46.691406 C 9.3125 46.757812 9.359375 46.828125 9.410156 46.90625 C 9.355469 46.914062 9.328125 46.929688 9.308594 46.921875 C 9.257812 46.902344 9.210938 46.878906 9.167969 46.855469 C 8.265625 46.34375 7.394531 45.792969 6.367188 45.535156 C 5.558594 45.332031 4.777344 45.039062 3.980469 44.792969 C 3.84375 44.75 3.703125 44.722656 3.558594 44.710938 C 3.320312 44.6875 3.117188 44.753906 2.914062 44.90625 C 2.660156 45.09375 2.542969 45.367188 2.351562 45.589844 C 2.058594 45.933594 2.054688 46.273438 2.289062 46.617188 C 2.597656 47.070312 2.90625 47.527344 3.269531 47.929688 C 4.414062 49.210938 5.71875 50.3125 7.140625 51.265625 C 8.578125 52.226562 10.019531 53.1875 11.507812 54.078125 C 12.914062 54.917969 14.375 55.667969 15.8125 56.457031 C 15.878906 56.492188 15.9375 56.546875 16 56.589844 C 15.324219 56.484375 14.675781 56.347656 14.050781 56.144531 C 12.453125 55.617188 10.800781 55.308594 9.167969 54.917969 C 8.054688 54.65625 6.929688 54.4375 5.847656 54.050781 C 4.953125 53.734375 4.042969 53.460938 3.128906 53.207031 C 2.28125 52.972656 1.730469 53.175781 1.242188 53.898438 C 0.90625 54.394531 0.808594 55.261719 1.523438 55.738281 C 1.636719 55.816406 1.730469 55.933594 1.828125 56.03125 C 2.238281 56.449219 2.621094 56.902344 3.0625 57.28125 C 4.144531 58.214844 5.390625 58.902344 6.6875 59.488281 C 8.21875 60.175781 9.679688 61.007812 11.316406 61.460938 C 12.84375 61.886719 14.351562 62.394531 15.867188 62.867188 C 15.976562 62.898438 16.082031 62.9375 16.191406 62.976562 C 15.726562 62.976562 15.277344 62.925781 14.832031 62.855469 C 13.105469 62.585938 11.386719 62.304688 9.660156 62.035156 C 7.988281 61.777344 6.316406 61.523438 4.640625 61.285156 C 3.664062 61.144531 2.679688 61.003906 1.695312 60.925781 C 1.132812 60.878906 0.664062 61.152344 0.375 61.660156 C 0.128906 62.089844 0.160156 62.476562 0.515625 62.835938 C 0.851562 63.179688 1.203125 63.519531 1.601562 63.785156 C 3.382812 64.980469 5.304688 65.910156 7.324219 66.628906 C 9.582031 67.433594 11.898438 68.035156 14.253906 68.5 C 15.195312 68.6875 16.128906 68.929688 17.097656 68.992188 C 17.414062 69.011719 17.730469 69.089844 18.046875 69.144531 C 17.921875 69.222656 17.800781 69.234375 17.679688 69.238281 C 17.351562 69.246094 17.027344 69.242188 16.703125 69.25 C 14.449219 69.292969 12.195312 69.34375 9.941406 69.386719 C 9.683594 69.390625 9.417969 69.398438 9.160156 69.363281 C 7.3125 69.109375 5.453125 69.023438 3.585938 69.082031 C 3.3125 69.089844 3.039062 69.113281 2.769531 69.15625 C 2.25 69.238281 2.023438 69.507812 1.996094 70.019531 C 1.984375 70.207031 2.042969 70.359375 2.179688 70.46875 C 2.425781 70.660156 2.660156 70.882812 2.9375 71.011719 C 3.457031 71.25 3.996094 71.4375 4.535156 71.636719 C 4.765625 71.722656 5.023438 71.746094 5.242188 71.847656 C 6.175781 72.285156 7.171875 72.484375 8.175781 72.628906 C 10.585938 72.96875 13.011719 73.203125 15.441406 73.355469 C 15.507812 73.359375 15.570312 73.378906 15.6875 73.402344 C 15.597656 73.453125 15.566406 73.480469 15.53125 73.488281 C 14.792969 73.574219 14.058594 73.667969 13.320312 73.742188 C 13.210938 73.753906 13.097656 73.691406 12.980469 73.675781 C 12.660156 73.628906 12.335938 73.542969 12.019531 73.5625 C 11.058594 73.636719 10.105469 73.761719 9.144531 73.847656 C 8.214844 73.929688 7.332031 74.175781 6.472656 74.542969 C 6.191406 74.664062 5.953125 74.839844 5.816406 75.121094 C 5.648438 75.457031 5.714844 75.773438 6.027344 75.976562 C 6.214844 76.09375 6.421875 76.1875 6.628906 76.246094 C 7.679688 76.542969 8.738281 76.828125 9.832031 76.945312 C 11.203125 77.09375 12.574219 77.238281 13.945312 77.382812 C 14.089844 77.398438 14.234375 77.410156 14.375 77.421875 C 14.265625 77.527344 14.15625 77.558594 14.046875 77.589844 C 13.160156 77.847656 12.273438 78.101562 11.386719 78.367188 C 11.207031 78.425781 11.03125 78.527344 10.871094 78.632812 C 10.523438 78.859375 10.4375 79.191406 10.515625 79.589844 C 10.589844 79.964844 10.804688 80.199219 11.167969 80.285156 C 11.644531 80.40625 12.125 80.539062 12.613281 80.613281 C 13.203125 80.707031 13.800781 80.757812 14.398438 80.800781 C 14.851562 80.832031 15.308594 80.835938 15.765625 80.820312 C 16.386719 80.796875 17.007812 80.714844 17.632812 80.703125 C 19.054688 80.671875 20.472656 80.601562 21.878906 80.40625 C 22.113281 80.375 22.351562 80.371094 22.585938 80.351562 C 22.5625 80.429688 22.535156 80.460938 22.503906 80.472656 C 21.128906 80.921875 19.761719 81.390625 18.378906 81.800781 C 17.28125 82.125 16.160156 82.367188 15.054688 82.664062 C 14.769531 82.742188 14.492188 82.875 14.238281 83.023438 C 14.117188 83.09375 13.96875 83.269531 13.984375 83.375 C 14.050781 83.835938 14.125 84.328125 14.613281 84.558594 C 14.917969 84.703125 15.234375 84.839844 15.5625 84.914062 C 16.582031 85.136719 17.609375 85.289062 18.660156 85.242188 C 18.839844 85.230469 19.023438 85.246094 19.207031 85.25 C 19.492188 85.257812 19.777344 85.300781 20.058594 85.269531 C 21.699219 85.066406 23.320312 84.726562 24.917969 84.304688 C 25.039062 84.273438 25.160156 84.25 25.285156 84.222656 C 25.21875 84.328125 25.132812 84.386719 25.042969 84.429688 C 23.578125 85.160156 22.109375 85.894531 20.636719 86.609375 C 20.324219 86.765625 20.023438 86.953125 19.65625 86.972656 C 19.40625 86.984375 19.28125 87.164062 19.269531 87.429688 C 19.25 87.980469 19.605469 88.347656 19.988281 88.636719 C 20.230469 88.824219 20.582031 88.90625 20.898438 88.960938 C 21.867188 89.136719 22.851562 89.152344 23.816406 89 C 25.164062 88.789062 26.507812 88.527344 27.839844 88.21875 C 28.839844 87.988281 29.816406 87.652344 30.800781 87.363281 C 30.921875 87.328125 31.042969 87.300781 31.164062 87.265625 C 31.175781 87.289062 31.183594 87.3125 31.195312 87.335938 C 31.070312 87.417969 30.945312 87.503906 30.816406 87.582031 C 29.328125 88.445312 27.765625 89.171875 26.351562 90.152344 C 25.964844 90.421875 25.554688 90.652344 25.183594 90.933594 C 25.023438 91.050781 24.894531 91.242188 24.816406 91.421875 C 24.722656 91.65625 24.867188 91.867188 25.082031 91.949219 C 25.582031 92.148438 26.09375 92.128906 26.609375 92.070312 C 26.984375 92.027344 27.367188 92.027344 27.742188 92 C 27.925781 91.988281 28.054688 92.03125 28.160156 92.207031 C 28.398438 92.621094 28.773438 92.886719 29.21875 93.023438 C 29.828125 93.210938 30.453125 93.355469 31.101562 93.273438 C 31.578125 93.214844 32.054688 93.144531 32.535156 93.078125 C 32.644531 93.0625 32.761719 93.054688 32.859375 93.042969 C 33.378906 93.917969 34.03125 94.554688 35.0625 94.726562 C 35.28125 94.761719 35.484375 94.816406 35.707031 94.773438 C 35.898438 94.742188 36.097656 94.695312 36.289062 94.710938 C 37.070312 94.765625 37.746094 94.5 38.378906 94.082031 C 38.496094 94.003906 38.617188 93.941406 38.726562 93.878906 C 38.867188 94.054688 38.964844 94.21875 39.097656 94.335938 C 39.878906 95.027344 40.800781 95.34375 41.835938 95.214844 C 42.425781 95.144531 43 94.957031 43.582031 94.820312 C 43.664062 94.804688 43.746094 94.792969 43.859375 94.773438 C 43.785156 94.976562 43.710938 95.132812 43.667969 95.292969 C 43.625 95.46875 43.589844 95.652344 43.589844 95.828125 C 43.585938 96.375 43.863281 96.667969 44.410156 96.730469 C 45.070312 96.800781 45.703125 96.675781 46.335938 96.503906 C 46.445312 96.472656 46.558594 96.375 46.71875 96.464844 C 46.613281 96.59375 46.515625 96.695312 46.433594 96.808594 C 46.089844 97.265625 45.730469 97.714844 45.421875 98.195312 C 45.132812 98.636719 45.003906 99.148438 45.003906 99.679688 C 45.003906 100.03125 45.011719 100.039062 45.328125 100.167969 C 45.558594 100.261719 45.789062 100.347656 46.015625 100.453125 C 46.175781 100.527344 46.320312 100.539062 46.5 100.496094 C 47.855469 100.167969 49.105469 99.601562 50.292969 98.878906 C 50.40625 98.804688 50.523438 98.738281 50.640625 98.671875 C 50.628906 98.800781 50.585938 98.878906 50.519531 98.929688 C 49.882812 99.476562 49.363281 100.125 48.859375 100.792969 C 48.28125 101.566406 48.351562 102.113281 49.089844 102.65625 C 49.386719 102.875 49.710938 102.859375 50.023438 102.78125 C 50.425781 102.683594 50.8125 102.53125 51.207031 102.398438 C 51.296875 102.367188 51.386719 102.339844 51.539062 102.289062 C 51.328125 102.667969 51.128906 102.972656 50.976562 103.300781 C 50.789062 103.722656 50.574219 104.128906 50.664062 104.640625 C 50.746094 105.101562 50.8125 105.253906 51.277344 105.339844 C 51.902344 105.457031 52.523438 105.445312 53.121094 105.191406 C 53.492188 105.039062 53.859375 104.871094 54.230469 104.714844 C 54.304688 104.683594 54.386719 104.675781 54.519531 104.648438 C 54.4375 104.820312 54.378906 104.933594 54.332031 105.050781 C 54.132812 105.574219 53.902344 106.089844 53.75 106.625 C 53.589844 107.199219 53.828125 107.601562 54.367188 107.824219 C 54.476562 107.871094 54.585938 107.914062 54.6875 107.96875 C 55.023438 108.15625 55.347656 108.164062 55.683594 107.964844 C 55.839844 107.871094 55.996094 107.746094 56.25 107.738281 C 55.996094 108.355469 55.667969 108.9375 56.09375 109.550781 C 56.488281 110.113281 57.058594 110.308594 57.714844 110.242188 C 57.738281 110.3125 57.757812 110.347656 57.757812 110.386719 C 57.820312 111.082031 58.148438 111.617188 58.714844 112.015625 C 58.777344 112.058594 58.84375 112.109375 58.878906 112.175781 C 59.015625 112.421875 59.234375 112.449219 59.480469 112.453125 C 59.890625 112.453125 60.226562 112.242188 60.578125 112.074219 C 60.710938 112.011719 60.84375 111.941406 60.96875 111.878906 C 61.144531 112.351562 61.273438 112.789062 61.46875 113.199219 C 61.976562 114.261719 63.101562 114.566406 64.085938 113.921875 C 64.25 113.816406 64.390625 113.679688 64.542969 113.558594 C 64.605469 113.507812 64.675781 113.46875 64.820312 113.371094 C 64.691406 113.878906 64.75 114.296875 64.804688 114.722656 C 64.847656 115.046875 64.960938 115.269531 65.199219 115.4375 C 65.476562 115.628906 65.769531 115.800781 66.066406 115.957031 C 66.609375 116.238281 67.105469 116.117188 67.542969 115.722656 C 67.859375 115.433594 68.164062 115.128906 68.472656 114.832031 C 68.554688 114.753906 68.636719 114.679688 68.746094 114.578125 C 68.789062 114.828125 68.808594 115.035156 68.859375 115.234375 C 69.007812 115.835938 69.699219 116.324219 70.214844 116.144531 C 70.804688 115.941406 71.375 115.671875 71.78125 115.160156 C 71.96875 114.925781 72.15625 114.695312 72.335938 114.453125 C 72.390625 114.382812 72.421875 114.296875 72.460938 114.21875 C 72.496094 114.242188 72.53125 114.269531 72.566406 114.289062 C 72.582031 114.386719 72.597656 114.484375 72.613281 114.582031 C 72.730469 115.257812 72.902344 115.917969 73.382812 116.433594 C 74.003906 117.105469 73.976562 117.019531 74.769531 116.832031 C 75.289062 116.707031 75.6875 116.429688 75.988281 115.992188 C 76.253906 115.605469 76.535156 115.226562 76.808594 114.847656 C 76.859375 114.78125 76.925781 114.730469 77.023438 114.628906 C 77.015625 114.863281 77.015625 115.03125 76.996094 115.195312 C 76.964844 115.472656 77.074219 115.679688 77.296875 115.832031 C 77.457031 115.941406 77.621094 116.050781 77.796875 116.132812 C 78.078125 116.261719 78.367188 116.273438 78.652344 116.105469 C 78.796875 116.023438 78.964844 115.96875 79.128906 115.941406 C 79.210938 115.929688 79.308594 116 79.445312 116.046875 C 80.015625 115.617188 80.121094 114.796875 80.675781 114.269531 C 80.703125 114.332031 80.730469 114.363281 80.730469 114.394531 C 80.742188 114.835938 80.796875 115.28125 80.746094 115.714844 C 80.707031 116.023438 80.679688 116.363281 80.40625 116.621094 C 79.871094 117.117188 79.382812 117.664062 78.847656 118.15625 C 77.710938 119.191406 76.566406 120.21875 75.410156 121.230469 C 74.011719 122.460938 72.542969 123.609375 71.019531 124.679688 C 70.667969 124.929688 70.332031 125.195312 69.992188 125.460938 C 69.027344 126.210938 68.066406 126.96875 67.101562 127.722656 C 66.523438 128.167969 65.925781 128.589844 65.496094 129.195312 C 65.164062 129.660156 64.890625 130.140625 65.085938 130.746094 C 65.117188 130.84375 65.128906 130.945312 65.152344 131.058594 C 64.867188 131.296875 64.59375 131.535156 64.304688 131.757812 C 64.121094 131.898438 63.957031 132.054688 63.9375 132.285156 C 63.914062 132.570312 63.90625 132.863281 63.949219 133.140625 C 64.003906 133.5 64.332031 133.777344 64.695312 133.796875 C 65.148438 133.820312 65.605469 133.824219 66.0625 133.839844 C 66.171875 133.84375 66.277344 133.863281 66.371094 133.871094 C 66.265625 134.214844 66.15625 134.519531 66.078125 134.832031 C 65.988281 135.175781 66.113281 135.484375 66.367188 135.714844 C 66.621094 135.9375 66.898438 136.15625 67.277344 135.949219 C 67.339844 135.914062 67.429688 135.929688 67.507812 135.917969 C 68.1875 135.796875 68.867188 135.675781 69.484375 135.347656 C 70.164062 134.992188 70.84375 134.632812 71.523438 134.277344 C 71.589844 134.242188 71.667969 134.230469 71.824219 134.179688 C 71.40625 134.683594 71.054688 135.121094 70.691406 135.542969 C 70.125 136.203125 69.683594 136.933594 69.355469 137.734375 C 69.070312 138.441406 69.191406 138.925781 69.796875 139.378906 C 70.082031 139.597656 70.425781 139.792969 70.804688 139.707031 C 71.488281 139.546875 72.164062 139.351562 72.757812 138.941406 C 72.878906 138.855469 73.015625 138.789062 73.152344 138.710938 C 73.152344 139.054688 73.15625 139.355469 73.152344 139.652344 C 73.144531 139.976562 73.246094 140.257812 73.558594 140.386719 C 73.898438 140.53125 74.222656 140.484375 74.492188 140.210938 C 74.582031 140.121094 74.675781 140.039062 74.808594 139.914062 C 74.808594 140.160156 74.804688 140.339844 74.808594 140.519531 C 74.839844 141.257812 75.089844 141.886719 75.691406 142.355469 C 76.234375 142.777344 76.914062 142.714844 77.363281 142.1875 C 77.433594 142.105469 77.507812 142.023438 77.601562 141.917969 C 77.710938 142.125 77.796875 142.296875 77.894531 142.464844 C 78.34375 143.234375 78.347656 143.226562 79.234375 143.421875 C 79.582031 143.5 79.914062 143.5625 80.21875 143.296875 C 80.367188 143.753906 80.523438 144.175781 80.90625 144.449219 C 81.273438 144.714844 81.6875 144.863281 82.140625 144.882812 C 82.347656 144.894531 82.558594 144.890625 82.765625 144.921875 C 83.113281 144.976562 83.410156 144.882812 83.65625 144.636719 C 83.78125 144.507812 83.894531 144.367188 84.027344 144.214844 C 84.460938 144.726562 85.007812 144.527344 85.496094 144.535156 C 86.042969 144.539062 86.34375 144.066406 86.703125 143.785156 C 86.917969 143.96875 87.140625 144.140625 87.335938 144.332031 C 87.679688 144.675781 88.011719 144.722656 88.414062 144.453125 C 88.5625 144.351562 88.699219 144.234375 88.855469 144.113281 C 88.976562 144.210938 89.082031 144.304688 89.195312 144.386719 C 89.816406 144.824219 90.449219 144.691406 90.84375 144.046875 C 90.859375 144.011719 90.890625 143.988281 90.9375 143.933594 C 91.121094 144.164062 91.304688 144.378906 91.476562 144.605469 C 91.722656 144.925781 92.273438 145.109375 92.59375 144.714844 C 92.613281 144.6875 92.660156 144.6875 92.691406 144.679688 C 92.824219 144.820312 92.9375 144.964844 93.074219 145.082031 C 93.390625 145.359375 94.011719 145.246094 94.136719 144.859375 C 94.191406 144.6875 94.332031 144.542969 94.464844 144.339844 C 94.546875 144.5 94.589844 144.609375 94.652344 144.703125 C 94.796875 144.914062 94.921875 145.15625 95.109375 145.324219 C 95.703125 145.867188 96.414062 145.761719 96.871094 145.113281 C 96.972656 144.96875 97.117188 144.847656 97.261719 144.75 C 97.527344 144.578125 97.757812 144.375 97.917969 144.097656 C 97.96875 144.015625 98.03125 143.9375 98.101562 143.832031 C 98.382812 144.191406 98.691406 144.421875 99.113281 144.507812 C 99.910156 144.667969 100.589844 144.472656 101.140625 143.882812 C 101.3125 143.695312 101.582031 143.59375 101.65625 143.3125 C 101.796875 142.761719 101.96875 142.214844 102.085938 141.65625 C 102.144531 141.375 102.125 141.074219 101.964844 140.753906 C 101.84375 141.015625 101.75 141.230469 101.652344 141.445312 C 101.582031 141.023438 101.578125 140.625 101.550781 140.222656 C 101.523438 139.835938 101.371094 139.457031 101.46875 139.054688 C 101.558594 139.171875 101.625 139.292969 101.679688 139.421875 C 102.097656 140.367188 102.632812 141.242188 103.1875 142.109375 C 103.3125 142.308594 103.457031 142.496094 103.621094 142.660156 C 103.714844 142.75 103.871094 142.839844 103.992188 142.828125 C 104.191406 142.8125 104.339844 142.886719 104.503906 142.972656 C 105.078125 143.277344 105.769531 143.265625 106.058594 142.40625 C 106.273438 141.769531 106.433594 141.132812 106.433594 140.457031 C 106.433594 140.242188 106.433594 140.027344 106.433594 139.8125 C 106.578125 139.886719 106.652344 139.988281 106.730469 140.082031 C 106.964844 140.378906 107.203125 140.675781 107.449219 140.957031 C 107.492188 141.011719 107.636719 141.066406 107.660156 141.042969 C 107.757812 140.941406 107.828125 141.003906 107.898438 141.054688 C 108.242188 141.300781 108.628906 141.308594 109.023438 141.285156 C 109.601562 141.25 109.789062 141.097656 109.875 140.523438 C 109.992188 139.71875 109.9375 138.914062 109.828125 138.113281 C 109.664062 136.894531 109.296875 135.726562 108.851562 134.582031 C 108.804688 134.460938 108.761719 134.335938 108.699219 134.164062 C 108.792969 134.210938 108.824219 134.214844 108.839844 134.234375 C 109.53125 135.03125 110.21875 135.828125 110.910156 136.625 C 111.332031 137.105469 111.761719 137.574219 112.179688 138.054688 C 112.265625 138.148438 112.34375 138.253906 112.398438 138.367188 C 112.601562 138.785156 112.957031 138.96875 113.394531 139.015625 C 113.789062 139.058594 114.066406 138.851562 114.269531 138.539062 C 114.597656 138.023438 114.695312 137.457031 114.605469 136.851562 C 114.519531 136.304688 114.308594 135.804688 114.046875 135.320312 C 113.925781 135.097656 113.824219 134.863281 113.714844 134.636719 C 113.742188 134.617188 113.769531 134.597656 113.796875 134.578125 C 114.035156 134.769531 114.277344 134.957031 114.515625 135.15625 C 115.414062 135.910156 116.472656 136.210938 117.617188 136.261719 C 117.871094 136.273438 118.082031 136.207031 118.199219 135.957031 C 118.234375 135.890625 118.28125 135.8125 118.34375 135.78125 C 118.601562 135.648438 118.625 135.417969 118.597656 135.175781 C 118.503906 134.339844 118.308594 133.535156 117.808594 132.835938 C 117.535156 132.453125 117.242188 132.089844 116.957031 131.714844 C 116.882812 131.617188 116.804688 131.523438 116.664062 131.359375 C 116.804688 131.398438 116.851562 131.40625 116.894531 131.425781 C 117.488281 131.691406 118.089844 131.941406 118.667969 132.234375 C 119.558594 132.6875 120.46875 133.035156 121.472656 133.136719 C 122.015625 133.1875 122.265625 133.054688 122.269531 132.519531 C 122.277344 131.621094 122.144531 130.753906 121.515625 130.039062 C 121.417969 129.925781 121.296875 129.757812 121.3125 129.632812 C 121.367188 129.234375 121.136719 128.847656 121.289062 128.445312 C 121.316406 128.375 121.25 128.242188 121.191406 128.171875 C 121.097656 128.066406 120.976562 127.980469 120.859375 127.902344 C 119.984375 127.308594 119.179688 126.628906 118.34375 125.988281 C 115.953125 124.15625 113.644531 122.226562 111.335938 120.292969 C 110.046875 119.21875 108.742188 118.160156 107.445312 117.089844 C 107.265625 116.941406 107.085938 116.796875 107.007812 116.558594 C 106.980469 116.476562 106.910156 116.402344 106.855469 116.332031 C 106.578125 115.988281 106.300781 115.648438 106.019531 115.308594 C 105.667969 114.886719 105.703125 114.410156 105.777344 113.90625 C 105.984375 114.089844 106.140625 114.242188 106.316406 114.378906 C 106.542969 114.550781 106.726562 114.515625 106.910156 114.289062 C 106.941406 114.253906 106.976562 114.21875 107.023438 114.167969 C 107.210938 114.441406 107.378906 114.703125 107.558594 114.957031 C 107.773438 115.261719 108.039062 115.507812 108.414062 115.59375 C 108.808594 115.683594 109.125 115.605469 109.183594 115.246094 C 109.21875 115.015625 109.308594 114.792969 109.320312 114.5625 C 109.347656 113.980469 109.546875 113.441406 109.675781 112.816406 C 109.78125 112.988281 109.847656 113.097656 109.917969 113.203125 C 110.296875 113.746094 110.679688 114.289062 111.058594 114.835938 C 111.320312 115.210938 111.667969 115.453125 112.117188 115.585938 C 113.039062 115.855469 113.105469 115.839844 113.738281 115.070312 C 114.15625 114.5625 114.296875 113.933594 114.394531 113.296875 C 114.40625 113.214844 114.429688 113.140625 114.46875 113 C 114.71875 113.316406 114.933594 113.574219 115.132812 113.84375 C 115.535156 114.398438 116.128906 114.667969 116.730469 114.917969 C 116.875 114.976562 117.070312 114.953125 117.230469 114.914062 C 117.726562 114.785156 118.046875 114.472656 118.15625 113.960938 C 118.195312 113.78125 118.222656 113.597656 118.253906 113.410156 C 118.289062 113.394531 118.316406 113.378906 118.351562 113.359375 C 118.425781 113.464844 118.488281 113.582031 118.578125 113.667969 C 118.886719 113.972656 119.191406 114.273438 119.515625 114.554688 C 119.835938 114.839844 120.214844 114.964844 120.640625 114.847656 C 121.148438 114.710938 121.601562 114.449219 121.972656 114.066406 C 122.058594 113.980469 122.15625 113.855469 122.164062 113.742188 C 122.203125 113.28125 122.375 112.824219 122.226562 112.355469 C 122.214844 112.3125 122.234375 112.261719 122.242188 112.164062 C 122.363281 112.269531 122.449219 112.34375 122.53125 112.417969 C 122.824219 112.683594 123.152344 112.90625 123.535156 113 C 123.746094 113.054688 123.984375 113.082031 124.1875 113.03125 C 124.824219 112.878906 125.332031 112.535156 125.582031 111.894531 C 125.699219 111.589844 125.800781 111.28125 125.90625 110.976562 C 125.9375 110.878906 125.972656 110.78125 126.011719 110.65625 C 126.160156 110.730469 126.28125 110.804688 126.414062 110.859375 C 126.722656 110.988281 127.03125 111.128906 127.351562 111.226562 C 127.578125 111.296875 127.824219 111.273438 128.015625 111.101562 C 128.199219 110.9375 128.371094 110.761719 128.550781 110.59375 C 128.902344 110.265625 129.132812 109.863281 129.214844 109.386719 C 129.234375 109.273438 129.253906 109.160156 129.273438 109.039062 C 129.40625 109.027344 129.523438 108.996094 129.636719 109.007812 C 129.984375 109.050781 130.265625 108.90625 130.535156 108.714844 C 131.011719 108.378906 131.210938 107.875 131.054688 107.316406 C 131 107.128906 130.914062 106.953125 130.851562 106.769531 C 130.824219 106.695312 130.820312 106.613281 130.804688 106.53125 C 130.859375 106.53125 130.871094 106.527344 130.882812 106.53125 C 130.921875 106.542969 130.960938 106.554688 130.992188 106.578125 C 131.507812 106.953125 132.039062 106.996094 132.585938 106.636719 C 132.625 106.605469 132.675781 106.585938 132.726562 106.574219 C 133.039062 106.507812 133.164062 106.28125 133.242188 106.003906 C 133.324219 105.714844 133.300781 105.433594 133.195312 105.160156 C 133.015625 104.699219 132.824219 104.242188 132.640625 103.785156 C 132.597656 103.679688 132.554688 103.578125 132.488281 103.417969 C 132.628906 103.460938 132.710938 103.480469 132.789062 103.515625 C 133.148438 103.667969 133.507812 103.828125 133.867188 103.980469 C 134.488281 104.242188 135.136719 104.238281 135.785156 104.121094 C 136.035156 104.074219 136.289062 103.953125 136.324219 103.671875 C 136.359375 103.347656 136.433594 103.003906 136.273438 102.679688 C 136.058594 102.25 135.84375 101.816406 135.632812 101.386719 C 135.589844 101.304688 135.558594 101.21875 135.492188 101.066406 C 135.699219 101.152344 135.828125 101.21875 135.960938 101.257812 C 136.332031 101.375 136.703125 101.488281 137.082031 101.585938 C 137.664062 101.730469 138.050781 101.421875 138.367188 100.984375 C 138.6875 100.546875 138.523438 100.113281 138.257812 99.753906 C 137.804688 99.152344 137.390625 98.515625 136.800781 98.023438 C 136.597656 97.855469 136.417969 97.652344 136.203125 97.441406 C 136.28125 97.433594 136.308594 97.421875 136.328125 97.433594 C 136.429688 97.492188 136.527344 97.550781 136.628906 97.613281 C 137.75 98.316406 138.941406 98.859375 140.21875 99.21875 C 140.558594 99.3125 140.871094 99.347656 141.191406 99.148438 C 141.320312 99.066406 141.476562 99.03125 141.625 98.972656 C 142 98.828125 142.011719 98.820312 141.996094 98.40625 C 141.980469 97.785156 141.777344 97.226562 141.429688 96.722656 C 141.132812 96.296875 140.796875 95.902344 140.472656 95.488281 C 140.40625 95.402344 140.339844 95.320312 140.214844 95.164062 C 140.363281 95.199219 140.425781 95.214844 140.484375 95.230469 C 140.902344 95.324219 141.316406 95.453125 141.738281 95.503906 C 142.082031 95.546875 142.445312 95.53125 142.785156 95.476562 C 143.175781 95.410156 143.402344 95.128906 143.402344 94.730469 C 143.40625 94.464844 143.332031 94.195312 143.28125 93.929688 C 143.253906 93.8125 143.195312 93.699219 143.148438 93.570312 C 143.714844 93.691406 144.253906 93.773438 144.773438 93.921875 C 145.765625 94.203125 146.648438 93.949219 147.492188 93.441406 C 147.644531 93.351562 147.792969 93.234375 147.921875 93.105469 C 148.054688 92.972656 148.160156 92.8125 148.285156 92.65625 C 148.457031 92.765625 148.613281 92.863281 148.765625 92.957031 C 149.355469 93.324219 149.980469 93.550781 150.6875 93.507812 C 150.816406 93.5 150.957031 93.492188 151.074219 93.527344 C 151.644531 93.703125 152.144531 93.445312 152.667969 93.304688 C 152.753906 93.28125 152.835938 93.230469 152.90625 93.175781 C 153.359375 92.808594 153.851562 92.472656 154.082031 91.898438 C 154.09375 91.867188 154.136719 91.847656 154.171875 91.820312 C 154.351562 91.851562 154.527344 91.890625 154.707031 91.914062 C 155.570312 92.027344 156.425781 92.183594 157.300781 91.949219 C 157.871094 91.796875 158.421875 91.621094 158.753906 91.113281 C 158.945312 90.820312 159.152344 90.746094 159.460938 90.78125 C 159.601562 90.800781 159.746094 90.820312 159.886719 90.820312 C 160.515625 90.816406 161.132812 91.027344 161.773438 90.773438 C 162.191406 90.605469 162.355469 90.320312 162.066406 89.964844 C 161.929688 89.796875 161.757812 89.644531 161.574219 89.53125 C 160.617188 88.921875 159.660156 88.3125 158.683594 87.738281 C 157.832031 87.238281 156.949219 86.785156 156.082031 86.308594 C 155.972656 86.246094 155.871094 86.164062 155.765625 86.089844 C 155.910156 86.066406 156.023438 86.101562 156.132812 86.132812 C 157.34375 86.488281 158.527344 86.9375 159.78125 87.140625 C 161.078125 87.355469 162.339844 87.757812 163.65625 87.847656 C 164.464844 87.902344 165.273438 87.910156 166.070312 87.753906 C 166.890625 87.597656 167.171875 87.410156 167.617188 86.730469 C 167.925781 86.269531 167.722656 85.804688 167.191406 85.730469 C 167.0625 85.710938 166.9375 85.667969 166.824219 85.609375 C 165.140625 84.785156 163.457031 83.960938 161.777344 83.128906 C 161.726562 83.105469 161.683594 83.0625 161.640625 83.027344 C 161.71875 83 161.78125 83.015625 161.839844 83.027344 C 162.574219 83.207031 163.304688 83.394531 164.042969 83.550781 C 165.097656 83.773438 166.152344 84.027344 167.238281 84.070312 C 167.535156 84.082031 167.832031 84.042969 168.132812 84.035156 C 168.664062 84.015625 169.203125 84.03125 169.730469 83.976562 C 170.464844 83.894531 171.203125 83.804688 171.914062 83.570312 C 172.515625 83.375 172.886719 83.003906 173 82.371094 C 173.050781 82.082031 173.035156 81.953125 172.777344 81.816406 C 172.507812 81.671875 172.21875 81.539062 171.925781 81.441406 C 171.515625 81.308594 171.101562 81.199219 170.679688 81.105469 C 168.691406 80.675781 166.761719 80.050781 164.84375 79.382812 C 164.695312 79.332031 164.550781 79.269531 164.402344 79.214844 C 164.410156 79.1875 164.417969 79.160156 164.425781 79.136719 C 164.554688 79.148438 164.683594 79.152344 164.808594 79.167969 C 165.679688 79.253906 166.542969 79.367188 167.414062 79.425781 C 168.609375 79.503906 169.804688 79.53125 171.003906 79.59375 C 171.761719 79.632812 172.511719 79.589844 173.265625 79.535156 C 174.128906 79.476562 174.96875 79.300781 175.796875 79.085938 C 176.195312 78.984375 176.421875 78.746094 176.492188 78.335938 C 176.566406 77.910156 176.425781 77.59375 176.066406 77.375 C 175.902344 77.273438 175.722656 77.183594 175.539062 77.128906 C 174.640625 76.859375 173.738281 76.605469 172.839844 76.34375 C 172.777344 76.328125 172.71875 76.289062 172.621094 76.242188 C 172.707031 76.203125 172.738281 76.179688 172.773438 76.175781 C 173.679688 76.09375 174.585938 76.007812 175.492188 75.929688 C 177.082031 75.796875 178.644531 75.539062 180.179688 75.097656 C 180.414062 75.03125 180.652344 74.945312 180.867188 74.828125 C 181.320312 74.585938 181.40625 74.167969 181.085938 73.753906 C 180.984375 73.625 180.851562 73.5 180.707031 73.425781 C 180.050781 73.097656 179.359375 72.847656 178.636719 72.746094 C 177.554688 72.59375 176.464844 72.488281 175.378906 72.375 C 174.953125 72.332031 174.515625 72.285156 174.101562 72.4375 C 173.832031 72.539062 173.566406 72.523438 173.292969 72.496094 C 173.085938 72.472656 172.878906 72.449219 172.675781 72.421875 C 172.230469 72.367188 171.792969 72.3125 171.351562 72.253906 C 171.351562 72.226562 171.351562 72.199219 171.355469 72.171875 C 171.832031 72.136719 172.3125 72.117188 172.785156 72.070312 C 174.46875 71.902344 176.152344 71.738281 177.835938 71.546875 C 179.195312 71.390625 180.550781 71.203125 181.808594 70.613281 C 181.902344 70.566406 182.007812 70.550781 182.109375 70.527344 C 182.78125 70.359375 183.4375 70.148438 184.046875 69.8125 C 184.316406 69.664062 184.5625 69.464844 184.804688 69.269531 C 184.894531 69.191406 184.972656 69.0625 184.996094 68.945312 C 185.078125 68.5 184.894531 68.183594 184.472656 68.015625 C 184.316406 67.953125 184.144531 67.917969 183.980469 67.910156 C 182.296875 67.820312 180.621094 67.835938 178.945312 68.027344 C 178.363281 68.089844 177.777344 68.183594 177.195312 68.175781 C 174.640625 68.148438 172.085938 68.09375 169.53125 68.042969 C 169.46875 68.023438 169.40625 68.007812 169.347656 67.984375 C 169.269531 67.957031 169.195312 67.9375 169.121094 67.910156 C 169.179688 67.890625 169.238281 67.878906 169.292969 67.871094 C 170.269531 67.714844 171.25 67.582031 172.222656 67.398438 C 174.0625 67.042969 175.882812 66.609375 177.679688 66.074219 C 180.378906 65.273438 182.953125 64.191406 185.308594 62.632812 C 185.738281 62.347656 186.125 61.984375 186.488281 61.617188 C 186.84375 61.265625 186.871094 60.875 186.621094 60.441406 C 186.339844 59.949219 185.886719 59.710938 185.339844 59.703125 C 184.964844 59.695312 184.585938 59.753906 184.210938 59.808594 C 183.21875 59.945312 182.226562 60.089844 181.238281 60.238281 C 179.589844 60.488281 177.941406 60.738281 176.292969 60.992188 C 174.789062 61.226562 173.285156 61.472656 171.78125 61.707031 C 171.492188 61.75 171.203125 61.769531 170.910156 61.800781 C 170.996094 61.699219 171.089844 61.664062 171.1875 61.636719 C 172.40625 61.261719 173.632812 60.914062 174.847656 60.515625 C 175.996094 60.140625 177.167969 59.824219 178.253906 59.273438 C 178.972656 58.90625 179.710938 58.574219 180.433594 58.21875 C 180.925781 57.980469 181.417969 57.738281 181.894531 57.46875 C 182.964844 56.867188 183.964844 56.164062 184.808594 55.257812 C 185.089844 54.953125 185.308594 54.59375 185.671875 54.363281 C 185.78125 54.289062 185.851562 54.140625 185.910156 54.015625 C 186.222656 53.355469 185.75 52.363281 185.148438 52.085938 C 184.769531 51.914062 184.375 51.839844 183.96875 51.964844 C 183.074219 52.230469 182.179688 52.503906 181.285156 52.78125 C 180.835938 52.921875 180.398438 53.097656 179.949219 53.210938 C 177.4375 53.84375 174.882812 54.296875 172.410156 55.082031 C 171.929688 55.234375 171.433594 55.332031 170.949219 55.457031 C 170.964844 55.378906 170.996094 55.339844 171.039062 55.316406 C 172.25 54.65625 173.46875 54.007812 174.671875 53.332031 C 175.316406 52.96875 175.933594 52.558594 176.5625 52.164062 C 177.101562 51.824219 177.628906 51.464844 178.179688 51.136719 C 179.878906 50.128906 181.46875 48.976562 182.882812 47.59375 C 183.4375 47.046875 183.933594 46.441406 184.4375 45.84375 C 184.59375 45.660156 184.703125 45.425781 184.8125 45.207031 C 184.933594 44.96875 184.917969 44.734375 184.742188 44.511719 C 184.65625 44.402344 184.589844 44.273438 184.507812 44.15625 C 184.15625 43.640625 183.804688 43.398438 183.21875 43.527344 C 183.101562 43.554688 182.988281 43.582031 182.875 43.617188 C 182.09375 43.867188 181.316406 44.121094 180.535156 44.375 C 180.449219 44.402344 180.363281 44.421875 180.277344 44.449219 C 180.105469 44.496094 179.917969 44.519531 179.765625 44.601562 C 179.105469 44.945312 178.457031 45.304688 177.804688 45.65625 C 177.738281 45.691406 177.660156 45.710938 177.566406 45.742188 C 177.988281 45.148438 178.382812 44.585938 178.777344 44.023438 C 178.808594 43.980469 178.851562 43.949219 178.882812 43.90625 C 179 43.738281 179.140625 43.578125 179.21875 43.390625 C 179.40625 42.960938 179.570312 42.519531 179.722656 42.078125 C 179.886719 41.605469 179.6875 41.285156 179.183594 41.210938 C 178.761719 41.148438 178.34375 41.203125 177.984375 41.441406 C 177.5625 41.722656 177.140625 42.011719 176.753906 42.339844 C 175.644531 43.289062 174.429688 44.097656 173.226562 44.921875 C 172.691406 45.292969 172.144531 45.648438 171.632812 46.050781 C 169.65625 47.605469 167.519531 48.886719 165.238281 49.9375 C 164.71875 50.179688 164.199219 50.425781 163.683594 50.675781 C 161.65625 51.675781 159.566406 52.515625 157.359375 53.007812 C 155.769531 53.359375 154.160156 53.601562 152.5625 53.910156 C 151.917969 54.03125 151.242188 54.058594 150.652344 54.421875 C 150.601562 54.453125 150.527344 54.449219 150.464844 54.453125 C 150.140625 54.488281 149.816406 54.527344 149.492188 54.546875 C 148.867188 54.585938 148.242188 54.597656 147.621094 54.648438 C 146.503906 54.730469 145.390625 54.847656 144.273438 54.925781 C 142.53125 55.046875 140.804688 55.273438 139.109375 55.71875 C 138.53125 55.871094 137.960938 56.074219 137.574219 56.582031 " fill-opacity="1" fill-rule="nonzero"/></g></svg>