<svg xmlns="http://www.w3.org/2000/svg" xmlns:xlink="http://www.w3.org/1999/xlink" width="250" zoomAndPan="magnify" viewBox="0 0 187.5 187.499992" height="250" preserveAspectRatio="xMidYMid meet" version="1.0"><path fill="#000000" d="M 36.582031 119.546875 C 36.738281 119.929688 46.792969 144.429688 47.621094 150.246094 C 47.621094 150.246094 52.035156 166.015625 46.242188 169.367188 C 46.242188 169.367188 40.445312 171.320312 38.375 166.433594 C 38.375 166.433594 36.300781 162.527344 35.058594 160.574219 C 35.058594 160.574219 19.1875 139.359375 17.394531 122.332031 C 17.394531 122.332031 16.289062 116.75 14.359375 113.820312 C 14.359375 113.820312 11.324219 109.355469 9.386719 107.402344 C 9.386719 107.402344 6.078125 103.769531 4.835938 103.492188 C 4.835938 103.492188 0.0078125 102.796875 2.628906 98.472656 C 2.628906 98.472656 6.628906 95.816406 7.320312 100.5625 C 7.320312 100.5625 10.21875 103.492188 12.152344 104.886719 C 12.152344 104.886719 16.128906 107.109375 17.382812 110.304688 C 17.230469 109.796875 15.289062 103.253906 17.8125 97.351562 C 17.8125 97.351562 20.15625 87.164062 19.605469 83.957031 C 19.605469 83.957031 17.8125 77.671875 20.984375 77.671875 C 20.984375 77.671875 26.089844 77.816406 22.363281 83.957031 C 22.363281 83.957031 21.953125 86.1875 22.636719 90.097656 C 22.636719 90.097656 23.742188 93.582031 22.917969 96.375 C 22.917969 96.375 22.5 99.445312 23.46875 100.5625 C 23.46875 100.5625 24.707031 96.097656 25.8125 95.261719 C 25.8125 95.261719 26.367188 90.65625 30.09375 92.605469 C 30.09375 92.605469 33.542969 96.234375 28.714844 97.074219 C 28.714844 97.074219 25.8125 99.585938 27.609375 103.074219 C 27.609375 103.074219 32.160156 102.9375 37.269531 105.726562 L 67.488281 122.75 C 67.445312 122.621094 65.949219 118.390625 64.457031 116.191406 C 64.457031 116.191406 55.902344 100.421875 60.039062 80.886719 C 60.039062 80.886719 57.695312 79.90625 52.035156 84.375 C 52.035156 84.375 53.414062 86.1875 54.519531 86.746094 C 54.519531 86.746094 58.109375 87.722656 56.175781 90.375 C 56.175781 90.375 52.726562 92.605469 52.449219 89.398438 C 52.449219 89.398438 50.65625 87.027344 49.550781 86.882812 C 49.550781 86.882812 42.925781 92.046875 40.03125 89.257812 C 40.03125 89.257812 35.476562 84.652344 34.09375 81.441406 C 34.09375 81.441406 31.75 76.417969 32.851562 70.136719 C 32.851562 70.136719 32.160156 61.765625 32.714844 58.972656 C 32.714844 58.972656 32.714844 56.742188 31.335938 55.34375 C 31.335938 55.34375 29.820312 53.53125 29.128906 51.15625 C 29.128906 51.15625 23.746094 46.832031 27.609375 44.878906 C 27.609375 44.878906 33.542969 42.785156 31.609375 49.761719 C 31.609375 49.761719 33.957031 53.25 34.925781 54.367188 C 34.925781 54.367188 37.820312 57.160156 38.238281 61.765625 C 38.238281 61.765625 39.613281 63.71875 40.859375 61.066406 C 40.859375 61.066406 44.722656 53.25 46.933594 51.15625 C 46.933594 51.15625 50.105469 45.855469 50.105469 44.179688 C 50.105469 44.179688 49.828125 38.039062 54.660156 39.574219 C 54.660156 39.574219 58.933594 43.0625 53.695312 45.714844 C 53.695312 45.714844 50.378906 50.179688 50.105469 52.832031 C 50.105469 52.832031 49.273438 56.320312 47.894531 58.414062 C 47.894531 58.414062 45.824219 63.578125 45.410156 66.511719 C 45.410156 66.511719 53.695312 63.996094 56.316406 61.484375 C 56.316406 61.484375 59.074219 57.019531 61.144531 60.089844 C 61.144531 60.089844 61.835938 60.925781 61.421875 62.183594 C 61.421875 62.183594 65.148438 60.371094 64.457031 57.578125 C 64.457031 57.578125 58.796875 23.945312 71.359375 17.941406 C 71.359375 17.941406 77.152344 15.847656 80.464844 17.105469 C 80.464844 17.105469 82.8125 16.6875 83.640625 18.917969 C 83.640625 18.917969 90.265625 26.316406 94.40625 26.039062 C 94.40625 26.039062 100.203125 24.640625 103.238281 29.386719 C 103.238281 29.386719 107.792969 35.527344 102.824219 39.996094 C 102.824219 39.996094 101.71875 46.554688 104.34375 50.738281 C 104.34375 50.738281 110 57.296875 110.550781 65.808594 C 110.550781 65.808594 110.691406 68.601562 114.417969 67.070312 C 114.417969 67.070312 120.765625 62.601562 122.007812 60.648438 C 122.007812 60.648438 122.421875 58.691406 121.320312 58.136719 C 121.320312 58.136719 119.109375 57.019531 118.558594 56.460938 C 118.558594 56.460938 116.761719 55.621094 115.105469 55.902344 C 115.105469 55.902344 111.378906 57.714844 111.378906 53.949219 C 111.378906 53.949219 112.621094 50.597656 115.105469 52.96875 C 115.105469 52.96875 122.835938 54.367188 125.183594 52.832031 C 125.183594 52.832031 127.390625 51.4375 127.390625 48.507812 C 127.390625 48.507812 127.664062 42.226562 128.355469 40.414062 C 128.355469 40.414062 129.460938 35.105469 128.21875 33.15625 C 128.21875 33.15625 125.183594 28.828125 129.183594 27.851562 C 129.183594 27.851562 134.84375 27.570312 132.082031 33.015625 C 132.082031 33.015625 130.839844 40.691406 132.496094 43.0625 C 132.496094 43.0625 134.84375 45.714844 137.324219 44.179688 C 137.324219 44.179688 144.777344 37.339844 148.367188 35.527344 C 148.367188 35.527344 152.230469 32.039062 153.335938 30.363281 C 153.335938 30.363281 155.683594 24.222656 159.410156 28.128906 C 159.410156 28.128906 161.890625 32.875 155.820312 33.570312 C 155.820312 33.570312 153.335938 35.945312 152.097656 36.222656 C 152.097656 36.222656 149.746094 37.339844 149.609375 38.734375 C 149.609375 38.734375 149.335938 40.269531 147.261719 41.386719 C 147.261719 41.386719 145.609375 42.503906 144.640625 45.296875 C 144.640625 45.296875 143.8125 47.386719 142.988281 47.808594 C 142.988281 47.808594 148.644531 47.386719 151.128906 48.503906 C 151.128906 48.503906 157.335938 50.460938 160.375 49.34375 C 160.375 49.34375 163.824219 48.089844 163.960938 52.132812 C 163.960938 52.132812 163.410156 57.019531 159.132812 53.808594 C 159.132812 53.808594 155.960938 53.667969 154.441406 52.832031 C 154.441406 52.832031 152.371094 52.273438 149.609375 52.832031 C 149.609375 52.832031 145.195312 53.25 140.226562 57.4375 C 140.226562 57.4375 136.636719 61.203125 134.84375 65.113281 C 134.84375 65.113281 128.632812 76.277344 114.417969 81.164062 C 114.417969 81.164062 121.320312 105.164062 110.414062 119.957031 L 138.566406 111.445312 C 138.566406 111.445312 145.746094 109.492188 148.089844 113.679688 C 148.089844 113.679688 150.160156 117.03125 150.023438 118.84375 C 150.023438 118.84375 151.957031 117.03125 153.058594 118.003906 C 153.058594 118.003906 155.128906 120.378906 152.371094 121.914062 C 152.371094 121.914062 150.992188 125.679688 149.335938 126.519531 C 149.335938 126.519531 154.164062 125.679688 156.097656 125.960938 C 156.097656 125.960938 162.308594 124.425781 166.585938 125.679688 C 166.585938 125.679688 170.035156 125.960938 172.105469 125.402344 C 172.105469 125.402344 175.691406 124.144531 175.832031 127.636719 C 175.832031 127.636719 175.417969 128.890625 174.589844 129.171875 C 174.589844 129.171875 178.867188 129.171875 180.664062 129.867188 C 180.664062 129.867188 187.007812 127.777344 186.320312 131.683594 C 186.320312 131.683594 185.628906 135.035156 180.523438 132.9375 C 180.523438 132.9375 174.3125 133.777344 172.382812 134.613281 C 172.382812 134.613281 169.484375 136.289062 167.828125 136.011719 C 167.828125 136.011719 172.933594 139.21875 174.3125 140.894531 C 174.3125 140.894531 179.007812 140.476562 176.9375 144.523438 C 176.9375 144.523438 174.175781 148.292969 172.792969 144.382812 C 172.792969 144.382812 165.207031 137.265625 157.476562 139.359375 C 157.476562 139.359375 150.992188 143.40625 147.125 145.082031 C 147.125 145.082031 126.5625 155.828125 124.488281 156.941406 C 124.488281 156.941406 117.175781 160.992188 114.554688 163.085938 C 114.554688 163.085938 108.070312 168.386719 103.238281 164.617188 C 103.238281 164.617188 98.546875 160.152344 102.269531 154.710938 C 102.269531 154.710938 111.378906 141.730469 114.96875 139.21875 C 114.96875 139.21875 115.105469 137.265625 109.449219 140.195312 C 109.449219 140.195312 96.890625 147.175781 93.441406 147.175781 C 93.441406 147.175781 91.507812 151.222656 88.058594 148.851562 C 88.058594 148.851562 87.230469 152.339844 83.78125 150.800781 C 83.777344 150.800781 45.976562 131.550781 36.582031 119.546875 Z M 47.066406 73.347656 C 47.066406 73.347656 45.273438 77.394531 47.34375 77.394531 C 47.34375 77.394531 53.96875 71.953125 54.9375 69.859375 C 54.9375 69.859375 57.003906 66.09375 58.796875 65.253906 C 58.796875 65.253906 53.695312 66.09375 51.207031 68.605469 C 51.207031 68.605469 48.449219 72.09375 47.066406 73.347656 Z M 47.066406 73.347656 " fill-opacity="1" fill-rule="nonzero"/></svg>