<svg xmlns="http://www.w3.org/2000/svg" xmlns:xlink="http://www.w3.org/1999/xlink" width="250" zoomAndPan="magnify" viewBox="0 0 187.5 187.499992" height="250" preserveAspectRatio="xMidYMid meet" version="1.0"><path stroke-linecap="butt" transform="matrix(0.3853, 0.249138, -0.249138, 0.3853, 32.358657, -77.253224)" fill-opacity="1" fill="#000000" fill-rule="evenodd" stroke-linejoin="round" d="M 145.766382 197.37992 C 145.773531 197.375297 145.795409 197.330736 145.795409 197.330736 C 145.795409 197.330736 145.784067 197.297517 145.791216 197.292894 C 145.69554 196.705915 145.699522 196.08491 145.78381 195.46267 C 146.254975 192.005033 149.434353 189.584249 152.89199 190.055414 C 155.046288 190.34537 156.795767 191.718278 157.693693 193.530286 C 157.698316 193.537435 157.742876 193.559313 157.742876 193.559313 C 165.175039 194.015345 179.883439 201.334189 184.057682 197.347543 C 187.143051 194.389393 183.251027 187.507898 179.732305 182.128792 C 179.732305 182.128792 179.699086 182.140134 179.699086 182.140134 C 178.540121 182.778009 177.176091 183.051708 175.776051 182.86206 C 172.318414 182.390895 169.930849 179.200175 170.406636 175.749687 C 170.877801 172.292051 174.057179 169.871267 177.510194 170.335282 C 180.96783 170.806447 183.388614 173.985825 182.91745 177.443462 C 182.864339 177.863055 182.730923 178.283884 182.597936 178.67402 C 182.597936 178.67402 182.604655 178.70009 182.602128 178.711862 C 189.98196 183.743643 200.471409 192.847638 201.381924 201.342715 C 207.589396 200.218304 215.599631 198.181668 222.933883 194.503798 C 219.413393 180.153534 218.770819 166.020719 222.212735 153.798891 C 222.212735 153.798891 222.201394 153.765672 222.196771 153.758523 C 202.832636 146.70266 198.685465 129.047034 197.925036 119.27888 C 196.846075 116.904672 196.371402 114.210693 196.679638 111.426146 C 197.449153 104.54151 202.831334 99.287168 209.386047 98.32348 C 219.722605 85.820463 234.562906 69.746311 243.340763 70.731278 C 252.514669 71.764303 264.152688 91.754134 271.506763 106.373025 C 271.513912 106.368403 271.539982 106.361684 271.547132 106.357061 C 276.140868 109.337837 278.94312 114.784828 278.292514 120.599034 C 278.289557 120.641499 278.293749 120.679341 278.283644 120.726428 C 278.283644 120.726428 278.294985 120.759647 278.294985 120.759647 C 278.532783 121.315559 278.642007 121.609909 278.642007 121.609909 C 278.642007 121.609909 274.863307 153.646632 244.497012 156.54354 C 246.699433 162.834605 248.484027 170.125789 253.608823 175.652564 C 256.740109 179.021371 259.717829 181.384411 262.853801 183.239597 C 272.513555 179.599047 288.158332 169.645231 296.916077 163.810061 C 294.607719 156.147873 298.132624 144.744268 301.215172 137.438657 C 300.589655 137.082756 300.033963 136.631015 299.543903 136.045592 C 297.281041 133.392668 297.596811 129.396805 300.254357 127.141092 C 302.911903 124.885379 306.903144 125.193999 309.158857 127.851545 C 311.41457 130.509092 311.10595 134.500332 308.448404 136.756045 C 307.454189 137.601676 306.268778 138.104578 305.057837 138.238737 C 304.928523 144.263334 305.322212 151.723937 309.667303 152.56412 C 315.953077 153.771553 324.46157 139.774093 331.30667 136.625415 C 331.313819 136.620792 331.339889 136.614073 331.347038 136.609451 C 331.243792 134.709401 331.988601 132.788178 333.553941 131.461734 C 336.206865 129.198872 340.202728 129.514641 342.458441 132.172187 C 344.721304 134.825111 344.367692 138.825167 341.714769 141.088029 C 340.037139 142.507357 337.856982 142.882966 335.890713 142.319357 C 335.890713 142.319357 335.864643 142.326076 335.857494 142.330698 C 330.537129 147.555207 315.31025 153.639748 315.496358 159.399562 C 315.629959 163.682736 323.37791 165.364062 329.733135 166.333963 C 330.032062 165.055888 330.721985 163.849414 331.799893 162.929391 C 334.45744 160.673678 338.44868 160.982298 340.704394 163.639844 C 342.967256 166.292768 342.651486 170.288631 339.998563 172.551493 C 337.341016 174.807206 333.349776 174.498586 331.094063 171.84104 C 330.808262 171.508793 330.560733 171.14166 330.355669 170.777485 C 321.360684 172.98451 306.838585 174.781098 300.207371 169.072629 C 297.530878 175.375595 292.84015 183.863002 284.820845 191.937728 C 286.667244 192.629537 288.616203 193.417241 290.698844 194.270578 C 309.20761 201.869391 325.167528 201.77903 350.380224 208.550848 C 365.272157 212.547348 391.387678 228.194328 412.402176 244.199589 C 418.366394 238.528346 427.891449 234.052317 435.429795 231.144777 C 433.938425 223.319294 438.45544 212.399524 442.187049 205.454865 C 441.609479 205.047685 441.106788 204.521121 440.671395 203.910488 C 438.68063 201.051209 439.368905 197.098351 442.223561 195.100437 C 445.078217 193.102523 448.997856 193.802139 450.99577 196.656795 C 452.998307 199.5186 452.29826 203.468932 449.443604 205.466846 C 448.370374 206.221634 447.177438 206.587467 445.961069 206.603477 C 445.260794 212.591734 444.950646 220.061363 449.205215 221.294638 C 455.357518 223.095285 465.148544 209.921056 472.265036 207.458639 C 472.350569 205.56832 473.264376 203.720309 474.938565 202.546523 C 477.79322 200.548609 481.750702 201.244033 483.748616 204.098689 C 485.74653 206.953345 485.051106 210.910826 482.19645 212.90874 C 480.393577 214.165734 478.164722 214.309239 476.262421 213.562334 C 476.262421 213.562334 476.229201 213.573675 476.217429 213.571149 C 470.436837 218.27205 454.717647 222.921015 454.363057 228.675611 C 454.090503 232.957815 461.651552 235.337871 467.889699 236.910661 C 468.306344 235.657851 469.092108 234.521202 470.251128 233.710942 C 473.105784 231.713028 477.058643 232.401303 479.056557 235.255959 C 481.059094 238.117764 480.366196 242.063473 477.504391 244.06601 C 474.649735 246.063924 470.696877 245.375649 468.698963 242.520993 C 468.460679 242.168159 468.279589 241.778344 468.119516 241.405353 C 468.112367 241.409976 468.086297 241.416695 468.079148 241.421317 C 459.945986 242.625001 447.523636 243.043599 440.594301 238.724205 C 437.590082 244.316505 433.852935 251.487784 430.211088 259.104351 C 435.931304 264.438749 440.384411 269.365747 442.83814 273.395708 C 454.439452 292.466422 470.886691 325.334508 453.082122 361.50316 C 435.243472 397.744539 400.618821 411.302723 373.086613 409.457429 C 345.330309 407.594825 296.25213 384.532193 299.856621 343.696642 C 303.384293 303.792785 336.792033 282.708146 345.754555 304.549631 C 354.753628 326.479002 320.276386 320.760407 318.360781 348.591534 C 316.492914 375.712535 380.508577 407.608547 413.294349 377.659767 C 447.555909 346.371481 447.035947 315.573299 424.440965 290.350413 C 421.090794 287.771983 417.578609 285.632873 413.909894 283.878846 C 409.241702 290.253075 405.895606 297.323571 403.576569 303.395402 C 403.576569 303.395402 403.583288 303.421473 403.587911 303.428622 C 410.149793 307.681468 415.23532 317.694439 417.986174 324.786637 C 417.997946 324.789164 418.012244 324.779918 418.024016 324.782445 C 418.701838 324.607753 419.449001 324.540298 420.180144 324.60486 C 423.646651 324.948631 426.155751 328.060765 425.823752 331.529799 C 425.484603 335.003455 422.421653 337.541582 418.947997 337.202433 C 415.48149 336.858662 412.932021 333.762492 413.27117 330.288836 C 413.395615 328.991786 413.903048 327.832344 414.676555 326.896246 C 410.582351 322.477267 405.089938 317.401098 401.379107 319.830963 C 396.028598 323.331194 399.644434 339.302746 396.905905 346.325083 C 396.910528 346.332232 396.917247 346.358303 396.92187 346.365452 C 398.313571 347.655417 399.130331 349.530047 398.927025 351.567486 C 398.587877 355.041142 395.487084 357.583462 392.018051 357.251462 C 388.544395 356.912314 386.006268 353.849363 386.345416 350.375707 C 386.558022 348.180181 387.877554 346.363834 389.702195 345.407048 C 389.865598 337.961338 396.616923 322.971055 392.472135 318.959897 C 389.387397 315.976658 382.65759 320.165988 377.412542 323.892035 C 378.095838 325.011492 378.428827 326.357461 378.286266 327.767608 C 377.954267 331.236641 374.846325 333.783583 371.377292 333.451584 C 368.530929 333.17318 366.296499 331.01892 365.778932 328.352677 C 365.664335 327.767794 365.635097 327.158131 365.700465 326.537987 C 366.032464 323.068953 369.140406 320.522011 372.609439 320.85401 C 373.031558 320.895349 373.435993 321.01909 373.828655 321.140305 C 373.835804 321.135682 373.861874 321.128964 373.861874 321.128964 C 378.472772 313.7881 386.818264 303.332886 395.031897 301.610812 C 393.553479 294.040546 392.372323 285.142592 392.899416 277.694895 C 377.187905 275.394232 360.458882 277.117379 345.063893 279.022165 C 315.482273 282.881735 273.062461 280.605784 249.817969 249.831481 C 241.283894 238.530412 233.782635 225.314518 228.43842 211.68727 C 219.322128 211.934956 208.384609 209.021114 200.623494 206.425723 C 197.449564 214.185813 185.383774 219.828204 177.225714 222.639684 C 177.376432 223.343146 177.420774 224.054563 177.320466 224.80882 C 176.849302 228.266456 173.669923 230.687241 170.216909 230.223225 C 166.759272 229.75206 164.333865 226.565533 164.809653 223.115045 C 165.273668 219.662031 168.460196 217.236624 171.917833 217.707789 C 173.2094 217.886471 174.351587 218.445614 175.261184 219.256532 C 179.82895 215.329715 185.102658 210.064408 182.820399 206.268272 C 179.52287 200.776556 163.396783 203.792781 156.496466 200.772589 C 155.150598 202.109194 153.220497 202.840164 151.193593 202.559078 C 148.447748 202.185264 146.32093 200.103356 145.809222 197.524568 C 145.804599 197.517419 145.791161 197.465279 145.793688 197.453507 C 145.789065 197.446358 145.782346 197.420288 145.777724 197.413139 C 145.777724 197.413139 145.766382 197.37992 145.773531 197.375297 Z M 145.766382 197.37992 " stroke="#000000" stroke-width="2" stroke-opacity="1" stroke-miterlimit="4"/></svg>