<svg xmlns="http://www.w3.org/2000/svg" xmlns:xlink="http://www.w3.org/1999/xlink" width="250" zoomAndPan="magnify" viewBox="0 0 187.5 187.499992" height="250" preserveAspectRatio="xMidYMid meet" version="1.0"><defs><clipPath id="0129e4e19f"><path d="M 2 52 L 185 52 L 185 138.210938 L 2 138.210938 Z M 2 52 " clip-rule="nonzero"/></clipPath></defs><g clip-path="url(#0129e4e19f)"><path fill="#000000" d="M 113.445312 54.136719 C 113.976562 48.460938 117.515625 56.421875 119.914062 54.667969 C 121.171875 49.855469 126.390625 61.167969 126.464844 54.429688 C 128.992188 57.570312 131.46875 61.09375 133.089844 64.539062 C 149.734375 65.425781 165.589844 72.558594 177.976562 83.480469 C 180.714844 87.082031 186.675781 91.222656 183 96.28125 C 168.9375 106.664062 153.242188 116.136719 135.390625 117.96875 C 133.398438 126.738281 127.816406 134.765625 119.179688 138.210938 L 118.226562 138.210938 C 113.804688 134.960938 114.40625 128.019531 117.621094 124.125 C 119.027344 121.992188 123.679688 121.988281 123.382812 118.847656 C 108.023438 118.445312 92.824219 115.65625 77.539062 114.664062 C 75.789062 117.671875 75.21875 125.242188 73.144531 118.742188 C 70.046875 121.261719 67.46875 124.621094 63.511719 125.875 C 64.132812 123.46875 67.4375 120.78125 65.863281 118.433594 C 58.535156 117.527344 52.082031 126.664062 45.046875 122.984375 C 43.117188 116.539062 40.871094 101.890625 52.648438 104.835938 C 45.910156 99.5625 37.21875 96.128906 28.570312 96.328125 C 20.007812 99.578125 12.773438 106.839844 3.367188 107.382812 C 2.472656 95.328125 0.285156 82.324219 4.546875 70.746094 C 17.925781 75.320312 31.316406 87.523438 46.316406 79.457031 C 42.9375 78.699219 40.304688 75.949219 42.117188 72.371094 C 45.863281 66.261719 52.957031 60.929688 60.46875 61.84375 C 66.71875 63.453125 75.8125 67.726562 80.339844 62.628906 C 83.910156 63.519531 83.03125 60.0625 87.21875 61.175781 C 83.894531 57.070312 92.40625 62.265625 90.648438 57.691406 C 93.019531 59.425781 97.007812 58.90625 94.238281 55.578125 C 96.554688 56.503906 98.910156 57.738281 101.511719 57.046875 C 100.5 52.339844 105.953125 58.261719 107.5625 55.429688 C 107.058594 49.339844 112.023438 57.414062 113.445312 54.136719 Z M 113.445312 54.136719 " fill-opacity="1" fill-rule="nonzero"/></g></svg>