<svg xmlns="http://www.w3.org/2000/svg" xmlns:xlink="http://www.w3.org/1999/xlink" width="250" zoomAndPan="magnify" viewBox="0 0 187.5 187.499992" height="250" preserveAspectRatio="xMidYMid meet" version="1.0"><defs><clipPath id="c4e4499e5e"><path d="M 0 23 L 187 23 L 187 164.640625 L 0 164.640625 Z M 0 23 " clip-rule="nonzero"/></clipPath><clipPath id="20ba6269ee"><path d="M 99 125 L 134 125 L 134 164.640625 L 99 164.640625 Z M 99 125 " clip-rule="nonzero"/></clipPath></defs><g clip-path="url(#c4e4499e5e)"><path fill="#000105" d="M 60.359375 127.152344 C 60.445312 127.464844 60.585938 127.753906 60.785156 128.015625 C 67.3125 136.476562 76.761719 141.167969 87.457031 142.492188 C 87.671875 142.519531 87.855469 142.609375 88.007812 142.765625 C 88.160156 142.917969 88.246094 143.105469 88.265625 143.320312 L 89.226562 153.117188 C 89.300781 153.855469 89.585938 154.503906 90.082031 155.058594 L 94.082031 159.542969 C 94.25 159.734375 94.332031 159.953125 94.332031 160.207031 L 94.332031 163.976562 C 94.332031 164.132812 94.277344 164.265625 94.167969 164.375 C 94.058594 164.480469 93.929688 164.535156 93.777344 164.535156 L 66.816406 164.542969 C 66.648438 164.542969 66.503906 164.488281 66.378906 164.375 C 66.253906 164.261719 66.183594 164.125 66.167969 163.957031 C 65.171875 152.828125 61.9375 139.234375 53.199219 131.75 C 53.121094 131.683594 53.03125 131.636719 52.929688 131.613281 C 52.828125 131.585938 52.726562 131.585938 52.625 131.609375 C 52.523438 131.628906 52.433594 131.675781 52.351562 131.742188 C 52.273438 131.804688 52.210938 131.886719 52.167969 131.980469 L 48.8125 139.226562 C 48.472656 139.964844 47.988281 140.597656 47.363281 141.125 L 31.199219 154.714844 C 31.054688 154.839844 30.972656 154.996094 30.960938 155.1875 C 30.949219 155.378906 31.011719 155.542969 31.140625 155.683594 C 32.542969 157.210938 33.960938 158.746094 35.394531 160.289062 C 36.351562 161.324219 36.164062 162.789062 36.234375 164.082031 C 36.242188 164.214844 36.199219 164.332031 36.105469 164.429688 C 36.015625 164.523438 35.898438 164.574219 35.765625 164.574219 L 5.121094 164.601562 C 4.621094 164.609375 4.238281 164.394531 3.96875 163.964844 L 0.230469 157.9375 C 0.0703125 157.679688 0.0351562 157.40625 0.117188 157.121094 L 7.992188 130.761719 C 8.148438 130.242188 8.472656 129.871094 8.96875 129.652344 L 16.402344 126.371094 C 16.949219 126.128906 17.292969 125.71875 17.4375 125.136719 C 18.898438 119.253906 20.492188 113.097656 22.21875 106.664062 C 22.410156 105.9375 22.933594 104.90625 23.785156 103.578125 C 30.96875 92.328125 39.257812 81.519531 49.410156 72.503906 C 51.394531 70.742188 53.050781 69.632812 55.796875 69.132812 C 60.964844 68.207031 65.078125 67.867188 68.132812 68.113281 C 71.996094 68.425781 76.265625 69.082031 80.933594 70.078125 C 84.785156 70.902344 88.285156 70.164062 91.425781 67.871094 C 97.351562 63.539062 102.570312 58.332031 107.605469 52.765625 C 108.382812 51.90625 109.359375 51.238281 110.535156 50.765625 C 116.117188 48.53125 122.007812 46.792969 128.210938 45.558594 C 128.714844 45.460938 129.105469 45.195312 129.382812 44.761719 C 133.777344 38.015625 138.507812 31.484375 144.6875 26.558594 C 147.109375 24.632812 150.730469 22.527344 153.921875 23.328125 C 157.957031 24.339844 161.980469 25.457031 165.988281 26.675781 C 167.632812 27.175781 170.546875 28.1875 170.472656 30.316406 C 170.414062 32.175781 170.078125 35.558594 171.617188 36.914062 C 172.691406 37.863281 173.484375 38.894531 173.996094 40.007812 C 174.808594 41.785156 175.222656 43.574219 176.578125 45.113281 C 177.953125 46.679688 179.269531 48.351562 180.523438 50.125 C 180.871094 50.613281 180.964844 51.144531 180.808594 51.71875 C 180.457031 53.007812 180.09375 54.378906 179.722656 55.832031 C 179.527344 56.613281 178.882812 56.820312 178.167969 56.785156 C 177.992188 56.777344 177.835938 56.828125 177.703125 56.941406 C 177.566406 57.050781 177.484375 57.191406 177.460938 57.363281 C 177.378906 57.90625 177.5 58.390625 177.824219 58.816406 C 178.015625 59.070312 178.257812 59.238281 178.5625 59.328125 C 180.179688 59.808594 180.851562 60.902344 180.585938 62.601562 C 180.53125 62.980469 180.605469 63.328125 180.808594 63.652344 C 181.726562 65.085938 182.667969 66.46875 183.632812 67.800781 C 184.226562 68.625 184.566406 69.574219 184.652344 70.644531 C 184.679688 70.972656 184.792969 71.265625 184.984375 71.53125 C 185.160156 71.769531 185.363281 71.984375 185.597656 72.175781 C 186.703125 73.105469 186.988281 74.625 186.371094 75.949219 C 185.773438 77.234375 184.242188 77.050781 183.335938 78.195312 C 180.652344 81.558594 178.105469 84.8125 175.691406 87.957031 C 175.445312 88.28125 175.179688 88.296875 174.894531 87.992188 L 164.425781 76.46875 C 164.363281 76.390625 164.28125 76.363281 164.1875 76.382812 C 164.09375 76.398438 164.046875 76.453125 164.046875 76.542969 L 164.589844 105.535156 C 164.597656 105.773438 164.675781 105.980469 164.828125 106.160156 C 170.867188 113.464844 172.375 122.734375 173.476562 132.175781 C 174.191406 138.242188 174.828125 145.660156 175.386719 154.433594 C 175.476562 155.789062 175.558594 156.84375 174.867188 158.085938 C 173.765625 160.070312 172.699219 162.078125 171.660156 164.105469 C 171.503906 164.414062 171.253906 164.566406 170.910156 164.566406 L 140.308594 164.558594 C 140.105469 164.558594 140 164.460938 139.996094 164.261719 C 139.949219 162.335938 140.449219 160.726562 141.695312 159.203125 C 142.867188 157.777344 143.921875 156.355469 144.855469 154.933594 C 145.03125 154.667969 145.039062 154.398438 144.878906 154.121094 C 142.519531 150.113281 140.417969 146.445312 138.574219 143.109375 C 138.109375 142.273438 137.773438 141.160156 137.570312 139.777344 C 136.683594 133.742188 135.714844 127.703125 134.664062 121.664062 C 134.59375 121.277344 134.414062 120.945312 134.128906 120.675781 C 128.949219 115.796875 123.8125 110.066406 118.722656 103.472656 C 118.636719 103.359375 118.523438 103.28125 118.378906 103.234375 C 117.988281 103.101562 117.855469 103.230469 117.984375 103.621094 C 120.132812 110.175781 123.511719 116.070312 128.128906 121.304688 C 128.203125 121.394531 128.21875 121.496094 128.175781 121.601562 C 128.128906 121.710938 128.050781 121.769531 127.933594 121.78125 L 117.636719 122.691406 C 117.261719 122.722656 116.960938 122.894531 116.738281 123.195312 C 110.667969 131.558594 102.171875 138.632812 91.746094 139.070312 C 80.816406 139.53125 69.886719 133.367188 60.882812 126.804688 C 60.378906 126.4375 60.207031 126.554688 60.359375 127.152344 Z M 156.417969 35.589844 C 155.097656 33.296875 155.609375 32.128906 157.945312 31.113281 C 160.21875 30.121094 162.832031 29.632812 165.78125 29.652344 C 165.9375 29.65625 166.046875 29.585938 166.109375 29.441406 C 166.171875 29.300781 166.152344 29.167969 166.046875 29.050781 C 165.898438 28.878906 165.707031 28.753906 165.476562 28.6875 C 162.589844 27.773438 159.660156 26.996094 156.6875 26.351562 C 155 25.984375 153.476562 26.132812 151.949219 26.996094 C 146.660156 29.972656 142.339844 34.203125 138.984375 39.683594 C 138.546875 40.394531 138.71875 40.601562 139.503906 40.300781 C 144.238281 38.46875 150.582031 36.476562 155.863281 36.550781 C 156.109375 36.554688 156.292969 36.453125 156.417969 36.238281 C 156.542969 36.023438 156.542969 35.804688 156.417969 35.589844 Z M 166.753906 52.441406 L 177.625 54.015625 C 177.800781 54.042969 177.964844 54.003906 178.109375 53.902344 C 178.257812 53.800781 178.347656 53.664062 178.382812 53.488281 L 178.808594 51.414062 C 178.886719 51.027344 178.734375 50.789062 178.347656 50.699219 L 166.085938 47.804688 C 165.949219 47.773438 165.820312 47.785156 165.695312 47.839844 C 165.566406 47.894531 165.46875 47.984375 165.402344 48.101562 C 164.355469 49.941406 163.796875 51.828125 163.726562 53.757812 C 163.71875 54.070312 163.808594 54.347656 164.003906 54.597656 C 164.171875 54.8125 164.308594 54.789062 164.414062 54.539062 C 164.726562 53.792969 165.203125 53.175781 165.847656 52.679688 C 166.113281 52.46875 166.417969 52.390625 166.753906 52.441406 Z M 138.597656 66.179688 C 138.625 66.125 138.667969 66.082031 138.722656 66.046875 C 138.773438 66.011719 138.832031 65.992188 138.894531 65.988281 C 138.957031 65.980469 139.019531 65.992188 139.078125 66.015625 C 139.136719 66.042969 139.1875 66.078125 139.230469 66.128906 L 147.394531 76.289062 C 147.449219 76.359375 147.519531 76.410156 147.601562 76.445312 C 147.683594 76.476562 147.769531 76.488281 147.859375 76.476562 C 147.945312 76.464844 148.027344 76.433594 148.097656 76.378906 C 148.167969 76.328125 148.21875 76.261719 148.253906 76.179688 L 149.496094 73.375 C 149.578125 73.191406 149.714844 73.085938 149.917969 73.066406 C 150.117188 73.046875 150.273438 73.121094 150.390625 73.285156 C 153.898438 78.273438 156.566406 84.007812 158.398438 90.484375 C 158.71875 91.625 159.058594 92.707031 159.414062 93.730469 C 159.703125 94.566406 159.898438 94.542969 160.003906 93.660156 C 161.28125 82.808594 160.472656 71.402344 156.425781 61.234375 C 155.28125 58.371094 150.515625 50.042969 146.992188 50.871094 C 139.273438 52.675781 132.589844 55.984375 126.9375 60.792969 C 126.472656 61.191406 126.414062 61.644531 126.765625 62.148438 L 134.3125 72.988281 C 134.34375 73.03125 134.378906 73.0625 134.425781 73.085938 C 134.472656 73.109375 134.519531 73.121094 134.574219 73.117188 C 134.625 73.117188 134.671875 73.101562 134.714844 73.074219 C 134.761719 73.046875 134.792969 73.011719 134.820312 72.964844 Z M 93.8125 86.066406 C 94.609375 86.964844 94.988281 88.179688 95.566406 89.207031 C 96.816406 91.417969 98.125 93.660156 99.492188 95.929688 C 99.589844 96.085938 99.726562 96.152344 99.90625 96.136719 C 100.085938 96.121094 100.207031 96.03125 100.273438 95.863281 L 107.40625 77.921875 C 107.488281 77.714844 107.617188 77.550781 107.796875 77.425781 C 107.976562 77.300781 108.175781 77.238281 108.394531 77.234375 L 113.964844 77.191406 C 114.058594 77.191406 114.136719 77.15625 114.203125 77.089844 C 114.273438 77.019531 114.304688 76.9375 114.304688 76.839844 C 114.140625 68.265625 116.78125 61.152344 120.988281 53.710938 C 121.019531 53.65625 121.039062 53.597656 121.039062 53.53125 C 121.039062 53.46875 121.027344 53.40625 120.996094 53.347656 C 120.96875 53.292969 120.925781 53.242188 120.875 53.207031 C 120.820312 53.167969 120.761719 53.148438 120.699219 53.140625 C 120.476562 53.109375 120.253906 53.121094 120.03125 53.167969 C 116.292969 53.996094 112.691406 54.945312 109.226562 56.011719 C 108.886719 56.113281 108.609375 56.3125 108.402344 56.605469 C 104.871094 61.566406 100.742188 66.113281 96.015625 70.25 C 93.6875 72.28125 91.476562 74.289062 88.699219 75.785156 C 88.296875 76.003906 87.871094 76.066406 87.417969 75.976562 C 81.855469 74.890625 75.902344 73.988281 69.550781 73.269531 C 65.566406 72.816406 54.835938 72.183594 52.554688 76.058594 C 47.523438 84.625 43.039062 92.730469 39.101562 100.378906 C 38.261719 102.011719 38.53125 102.226562 39.921875 101.027344 C 46.355469 95.472656 53.808594 91 62.277344 87.613281 C 62.5625 87.503906 62.867188 87.457031 63.203125 87.472656 C 63.558594 87.492188 63.90625 87.582031 64.242188 87.738281 C 74.089844 92.4375 84.4375 97.605469 95.285156 103.25 C 95.378906 103.300781 95.476562 103.308594 95.574219 103.273438 C 95.828125 103.195312 95.933594 103.085938 95.894531 102.945312 C 94.492188 98.09375 93.617188 92.539062 93.269531 86.28125 C 93.242188 85.6875 93.421875 85.613281 93.8125 86.066406 Z M 170.875 59.242188 C 170.988281 59.351562 171.128906 59.429688 171.285156 59.472656 C 171.445312 59.519531 171.613281 59.53125 171.789062 59.507812 C 171.964844 59.484375 172.136719 59.425781 172.304688 59.335938 C 172.472656 59.246094 172.621094 59.132812 172.753906 58.988281 C 172.886719 58.847656 172.988281 58.6875 173.066406 58.515625 C 173.144531 58.34375 173.1875 58.167969 173.199219 57.988281 C 173.210938 57.8125 173.1875 57.644531 173.128906 57.492188 C 173.070312 57.335938 172.984375 57.203125 172.867188 57.09375 C 172.75 56.984375 172.613281 56.910156 172.453125 56.863281 C 172.296875 56.816406 172.128906 56.804688 171.953125 56.828125 C 171.773438 56.851562 171.601562 56.910156 171.4375 57 C 171.269531 57.089844 171.121094 57.207031 170.988281 57.347656 C 170.855469 57.492188 170.75 57.648438 170.671875 57.820312 C 170.597656 57.996094 170.550781 58.167969 170.542969 58.347656 C 170.53125 58.523438 170.554688 58.691406 170.613281 58.847656 C 170.667969 59 170.757812 59.132812 170.875 59.242188 Z M 176.496094 67.535156 L 176.382812 71.574219 C 176.375 71.796875 176.464844 71.960938 176.660156 72.070312 C 176.851562 72.179688 177.039062 72.171875 177.222656 72.050781 C 178.691406 71.078125 180.292969 70.558594 182.027344 70.488281 C 182.175781 70.480469 182.3125 70.4375 182.4375 70.363281 C 182.5625 70.285156 182.660156 70.183594 182.734375 70.054688 C 182.808594 69.925781 182.84375 69.789062 182.847656 69.640625 C 182.851562 69.492188 182.816406 69.355469 182.75 69.222656 L 180.085938 64.214844 C 179.976562 64.003906 179.804688 63.902344 179.566406 63.910156 C 179.269531 63.921875 178.980469 63.976562 178.703125 64.074219 C 178.476562 64.160156 178.253906 64.140625 178.042969 64.015625 C 177.902344 63.9375 177.792969 63.828125 177.714844 63.6875 C 177.589844 63.480469 177.59375 63.273438 177.722656 63.0625 L 178.875 61.160156 C 179.171875 60.664062 179.03125 60.421875 178.449219 60.429688 L 169.675781 60.519531 C 169.375 60.523438 169.207031 60.675781 169.179688 60.972656 L 168.734375 65.175781 C 168.691406 65.5625 168.863281 65.785156 169.246094 65.839844 L 175.886719 66.804688 C 176.308594 66.863281 176.511719 67.109375 176.496094 67.535156 Z M 177.78125 76 L 184.472656 75.984375 C 184.664062 75.984375 184.828125 75.917969 184.960938 75.78125 C 185.097656 75.648438 185.164062 75.484375 185.164062 75.292969 L 185.164062 74.640625 C 185.164062 74.375 185.070312 74.121094 184.882812 73.875 C 184.699219 73.628906 184.433594 73.414062 184.089844 73.226562 C 183.75 73.039062 183.351562 72.898438 182.90625 72.796875 C 182.457031 72.695312 181.992188 72.644531 181.507812 72.644531 L 180.75 72.644531 C 180.261719 72.644531 179.796875 72.699219 179.347656 72.800781 C 178.898438 72.902344 178.503906 73.046875 178.160156 73.234375 C 177.816406 73.425781 177.550781 73.640625 177.367188 73.886719 C 177.179688 74.132812 177.089844 74.386719 177.089844 74.652344 L 177.089844 75.308594 C 177.089844 75.5 177.15625 75.664062 177.292969 75.796875 C 177.425781 75.933594 177.589844 76 177.78125 76 Z M 168.21875 154.695312 L 170.992188 155.957031 C 171.058594 155.988281 171.132812 156 171.203125 155.996094 C 171.277344 155.988281 171.34375 155.964844 171.40625 155.921875 C 171.464844 155.882812 171.511719 155.828125 171.546875 155.765625 C 171.578125 155.699219 171.59375 155.628906 171.585938 155.558594 C 171.050781 145.191406 169.632812 134.90625 167.328125 124.699219 C 166.132812 119.421875 164.371094 114.550781 162.039062 110.082031 C 161.910156 109.832031 161.734375 109.625 161.511719 109.460938 C 161.453125 109.417969 161.386719 109.414062 161.320312 109.449219 C 161.253906 109.484375 161.21875 109.542969 161.214844 109.617188 L 161.289062 150.371094 C 161.289062 150.925781 161.503906 151.382812 161.929688 151.742188 C 163.691406 153.222656 163.023438 155.148438 163.148438 157.105469 C 163.171875 157.457031 163.335938 157.539062 163.632812 157.351562 L 167.714844 154.722656 C 167.875 154.621094 168.046875 154.609375 168.21875 154.695312 Z M 18.425781 140.9375 L 19.421875 141.675781 C 19.75 141.921875 19.945312 141.84375 20.015625 141.4375 L 22.550781 126.914062 C 22.578125 126.765625 22.53125 126.640625 22.410156 126.546875 C 22.285156 126.453125 22.15625 126.441406 22.015625 126.507812 L 10.378906 131.921875 C 9.910156 132.140625 9.605469 132.496094 9.464844 132.992188 L 4.089844 151.875 C 3.617188 153.535156 4.023438 153.789062 5.308594 152.632812 C 8.015625 150.203125 11.199219 148.433594 14.863281 147.320312 C 15.308594 147.1875 15.613281 146.902344 15.777344 146.457031 L 17.703125 141.15625 C 17.847656 140.757812 18.089844 140.6875 18.425781 140.9375 Z M 18.425781 140.9375 " fill-opacity="1" fill-rule="nonzero"/></g><g clip-path="url(#20ba6269ee)"><path fill="#000105" d="M 124.507812 164.617188 C 117.453125 164.613281 110.300781 164.621094 103.054688 164.640625 C 102.824219 164.640625 102.609375 164.578125 102.410156 164.453125 C 102.214844 164.328125 102.066406 164.160156 101.960938 163.949219 L 99.25 158.292969 C 99.175781 158.148438 99.164062 158 99.203125 157.84375 C 99.242188 157.683594 99.332031 157.5625 99.464844 157.46875 L 106.726562 152.410156 C 107.085938 152.160156 107.234375 151.820312 107.175781 151.390625 L 105.539062 139.785156 C 105.503906 139.515625 105.609375 139.332031 105.851562 139.226562 C 111.773438 136.605469 116.363281 132.332031 119.613281 126.417969 C 119.863281 125.960938 120.25 125.726562 120.773438 125.710938 L 130.96875 125.507812 C 131.183594 125.503906 131.375 125.570312 131.539062 125.707031 C 131.703125 125.84375 131.804688 126.019531 131.835938 126.230469 C 132.292969 129.113281 132.769531 132.058594 133.265625 135.070312 C 133.457031 136.269531 133.421875 137.46875 133.152344 138.664062 C 131.023438 148.066406 128.726562 156.308594 126.269531 163.390625 C 125.984375 164.210938 125.398438 164.617188 124.507812 164.617188 Z M 124.507812 164.617188 " fill-opacity="1" fill-rule="nonzero"/></g></svg>