<svg xmlns="http://www.w3.org/2000/svg" xmlns:xlink="http://www.w3.org/1999/xlink" width="250" zoomAndPan="magnify" viewBox="0 0 187.5 187.499992" height="250" preserveAspectRatio="xMidYMid meet" version="1.0"><path fill="#000000" d="M 183.511719 101.75 C 181.648438 99.160156 178.675781 95.886719 177.265625 94.679688 L 176.714844 95.441406 C 178.332031 96.511719 181.246094 99.839844 182.410156 101.367188 C 184.320312 104.117188 186.265625 103.789062 187 103.277344 C 185.238281 103.738281 183.824219 102.183594 183.511719 101.75 Z M 183.511719 101.75 " fill-opacity="1" fill-rule="nonzero"/><path fill="#000000" d="M 150.609375 107.820312 C 150.167969 106.75 146.261719 105.71875 144.363281 105.335938 C 143.167969 103.347656 142.777344 101.636719 142.730469 101.027344 C 142.4375 99.039062 142.730469 93.957031 142.914062 91.664062 L 133.914062 96.25 C 134.355469 98.542969 138.125 104.917969 139.953125 107.820312 Z M 150.609375 107.820312 " fill-opacity="1" fill-rule="nonzero"/><path fill="#000000" d="M 81.742188 105.445312 C 81.007812 104.222656 83.03125 101.984375 83.765625 101.027344 L 90.5625 93 L 78.804688 95.292969 C 77.519531 98.113281 75.054688 104.011719 75.5 105.0625 C 75.792969 107.050781 77.824219 107.675781 78.804688 107.738281 L 88.539062 107.738281 C 87.988281 105.445312 84.316406 105 81.742188 105.445312 Z M 81.742188 105.445312 " fill-opacity="1" fill-rule="nonzero"/><path fill="#000000" d="M 163.121094 83.445312 C 156.214844 76.566406 137.28125 77.519531 128.21875 78.667969 C 116.707031 78.667969 95.519531 79.625 89.09375 81.726562 C 79.601562 83.574219 59.148438 88.796875 46.476562 95.292969 C 39.496094 97.925781 22.191406 106.074219 0 104.851562 C 9.308594 107.714844 23.5625 110.671875 53.085938 103.894531 L 72.929688 97.777344 L 87.515625 95.292969 C 89.09375 100.941406 109.394531 104.566406 126.75 97.777344 L 143.464844 92.238281 L 149.34375 91.855469 C 155.957031 98.121094 162.628906 96.503906 165.140625 94.914062 C 167.785156 96.59375 171.507812 96.886719 173.039062 96.824219 C 180.753906 96.503906 176.53125 90.515625 173.039062 89.753906 C 170.6875 87 168.875 86.3125 168.265625 86.3125 Z M 163.121094 83.445312 " fill-opacity="1" fill-rule="nonzero"/><path fill="#000000" d="M 175.980469 93.382812 C 175.6875 93.382812 175.332031 93.179688 175.246094 93 C 174.878906 92.238281 175.796875 92.238281 175.980469 92.425781 C 176.421875 92.734375 176.410156 93.320312 176.347656 93.574219 Z M 175.980469 93.382812 " fill-opacity="1" fill-rule="nonzero"/><path fill="#000000" d="M 140.160156 86.3125 C 127.300781 81.917969 125.21875 100.007812 126.566406 107.90625 L 137.21875 107.90625 C 136.777344 106.835938 132.871094 105.804688 130.972656 105.421875 L 133.914062 97.015625 C 146.257812 92.886719 142.914062 87.460938 140.160156 86.3125 Z M 140.160156 86.3125 " fill-opacity="1" fill-rule="nonzero"/><path stroke-linecap="round" transform="matrix(-0.374003, 0, 0, 0.377077, 187.001318, 77.860255)" fill="none" stroke-linejoin="round" d="M 161.996871 52.612547 C 158.999315 39.456237 153.495093 16.696857 126.496201 21.244589 " stroke="#000000" stroke-width="1" stroke-opacity="1" stroke-miterlimit="4"/><path fill="#000000" d="M 165.878906 90.75 C 164.160156 90.070312 162.964844 89.867188 162.375 89.902344 C 162.273438 89.90625 162.195312 89.996094 162.203125 90.101562 C 162.207031 90.207031 162.292969 90.289062 162.394531 90.28125 C 162.910156 90.253906 164.046875 90.433594 165.746094 91.105469 C 167.441406 91.777344 169.675781 92.933594 172.386719 94.835938 C 172.410156 94.851562 172.4375 94.863281 172.46875 94.867188 L 177.082031 95.25 L 177.277344 94.828125 L 172.554688 94.492188 C 169.84375 92.589844 167.59375 91.429688 165.878906 90.75 Z M 165.878906 90.75 " fill-opacity="1" fill-rule="evenodd"/><path fill="#000000" d="M 170.652344 88.988281 L 165.875 86.121094 C 165.632812 87.332031 165.140625 89.371094 167.164062 90.515625 C 168.265625 91.089844 170.210938 90.667969 170.652344 88.988281 Z M 170.652344 88.988281 " fill-opacity="1" fill-rule="nonzero"/><path fill="#000000" d="M 166.792969 88.988281 C 166.792969 89.621094 167.207031 90.132812 167.710938 90.132812 C 168.21875 90.132812 168.632812 89.621094 168.632812 88.988281 C 168.632812 88.355469 168.21875 87.839844 167.710938 87.839844 C 167.207031 87.839844 166.792969 88.355469 166.792969 88.988281 Z M 166.792969 88.988281 " fill-opacity="1" fill-rule="nonzero"/><path fill="#000000" d="M 167.710938 89.75 C 167.46875 89.75 167.160156 89.476562 167.160156 88.988281 C 167.160156 88.496094 167.46875 88.222656 167.710938 88.222656 C 167.957031 88.222656 168.265625 88.496094 168.265625 88.988281 C 168.265625 89.476562 167.957031 89.75 167.710938 89.75 Z M 167.710938 90.132812 C 167.207031 90.132812 166.792969 89.621094 166.792969 88.988281 C 166.792969 88.355469 167.207031 87.839844 167.710938 87.839844 C 168.21875 87.839844 168.632812 88.355469 168.632812 88.988281 C 168.632812 89.621094 168.21875 90.132812 167.710938 90.132812 Z M 167.710938 90.132812 " fill-opacity="1" fill-rule="evenodd"/><path fill="#000000" d="M 167.898438 89.328125 C 167.695312 89.328125 167.53125 89.15625 167.53125 88.945312 C 167.53125 88.734375 167.695312 88.5625 167.898438 88.5625 C 168.101562 88.5625 168.265625 88.734375 168.265625 88.945312 C 168.265625 89.15625 168.101562 89.328125 167.898438 89.328125 Z M 167.898438 89.328125 " fill-opacity="1" fill-rule="evenodd"/><path fill="#000000" d="M 101.582031 100.644531 C 107.460938 87.191406 99.867188 84.464844 95.335938 84.78125 C 86.886719 86.3125 90.195312 96.441406 94.785156 97.585938 L 94.417969 105.039062 C 94.714844 107.027344 96.746094 107.652344 97.726562 107.714844 L 108.929688 107.714844 C 108.492188 104.8125 103.238281 104.976562 100.664062 105.421875 C 99.929688 104.199219 100.972656 101.726562 101.582031 100.644531 Z M 101.582031 100.644531 " fill-opacity="1" fill-rule="nonzero"/><path stroke-linecap="round" transform="matrix(-0.374003, 0, 0, 0.377077, 187.001318, 77.860255)" fill="none" stroke-linejoin="round" d="M 245.092878 18.364704 C 232.966877 17.515241 212.788209 25.533339 228.496654 61.221124 " stroke="#000000" stroke-width="1" stroke-opacity="1" stroke-miterlimit="4"/><path fill="#000000" d="M 146.222656 80.195312 C 146.222656 80.40625 146.3125 80.585938 146.492188 80.738281 C 146.667969 80.886719 146.886719 80.960938 147.140625 80.960938 C 147.394531 80.960938 147.609375 80.886719 147.789062 80.738281 C 147.96875 80.585938 148.058594 80.40625 148.058594 80.195312 C 148.058594 79.984375 147.96875 79.804688 147.789062 79.65625 C 147.609375 79.507812 147.394531 79.429688 147.140625 79.429688 C 146.886719 79.429688 146.667969 79.507812 146.492188 79.65625 C 146.3125 79.804688 146.222656 79.984375 146.222656 80.195312 Z M 146.222656 80.195312 " fill-opacity="1" fill-rule="nonzero"/><path fill="#000000" d="M 142.914062 84.359375 C 142.914062 84.570312 143.003906 84.75 143.183594 84.898438 C 143.363281 85.046875 143.578125 85.121094 143.832031 85.121094 C 144.085938 85.121094 144.304688 85.046875 144.480469 84.898438 C 144.660156 84.75 144.75 84.570312 144.75 84.359375 C 144.75 84.148438 144.660156 83.964844 144.480469 83.816406 C 144.304688 83.667969 144.085938 83.59375 143.832031 83.59375 C 143.578125 83.59375 143.363281 83.667969 143.183594 83.816406 C 143.003906 83.964844 142.914062 84.148438 142.914062 84.359375 Z M 142.914062 84.359375 " fill-opacity="1" fill-rule="nonzero"/><path fill="#000000" d="M 138.875 82.109375 C 138.875 82.320312 138.964844 82.5 139.140625 82.648438 C 139.320312 82.796875 139.539062 82.871094 139.792969 82.871094 C 140.046875 82.871094 140.261719 82.796875 140.441406 82.648438 C 140.621094 82.5 140.710938 82.320312 140.710938 82.109375 C 140.710938 81.898438 140.621094 81.714844 140.441406 81.566406 C 140.261719 81.417969 140.046875 81.34375 139.792969 81.34375 C 139.539062 81.34375 139.320312 81.417969 139.140625 81.566406 C 138.964844 81.714844 138.875 81.898438 138.875 82.109375 Z M 138.875 82.109375 " fill-opacity="1" fill-rule="nonzero"/><path fill="#000000" d="M 131.160156 80.195312 C 131.160156 80.40625 131.25 80.585938 131.429688 80.738281 C 131.605469 80.886719 131.824219 80.960938 132.078125 80.960938 C 132.332031 80.960938 132.546875 80.886719 132.726562 80.738281 C 132.90625 80.585938 132.996094 80.40625 132.996094 80.195312 C 132.996094 79.984375 132.90625 79.804688 132.726562 79.65625 C 132.546875 79.507812 132.332031 79.429688 132.078125 79.429688 C 131.824219 79.429688 131.605469 79.507812 131.429688 79.65625 C 131.25 79.804688 131.160156 79.984375 131.160156 80.195312 Z M 131.160156 80.195312 " fill-opacity="1" fill-rule="nonzero"/><path fill="#000000" d="M 106.175781 81.34375 C 106.175781 81.554688 106.265625 81.734375 106.445312 81.882812 C 106.625 82.03125 106.839844 82.109375 107.09375 82.109375 C 107.347656 82.109375 107.5625 82.03125 107.742188 81.882812 C 107.921875 81.734375 108.011719 81.554688 108.011719 81.34375 C 108.011719 81.132812 107.921875 80.953125 107.742188 80.804688 C 107.5625 80.652344 107.347656 80.578125 107.09375 80.578125 C 106.839844 80.578125 106.625 80.652344 106.445312 80.804688 C 106.265625 80.953125 106.175781 81.132812 106.175781 81.34375 Z M 106.175781 81.34375 " fill-opacity="1" fill-rule="nonzero"/><path fill="#000000" d="M 99.5625 83.636719 C 99.5625 83.847656 99.652344 84.027344 99.832031 84.175781 C 100.011719 84.324219 100.226562 84.402344 100.480469 84.402344 C 100.734375 84.402344 100.953125 84.324219 101.132812 84.175781 C 101.308594 84.027344 101.398438 83.847656 101.398438 83.636719 C 101.398438 83.425781 101.308594 83.246094 101.132812 83.097656 C 100.953125 82.945312 100.734375 82.871094 100.480469 82.871094 C 100.226562 82.871094 100.011719 82.945312 99.832031 83.097656 C 99.652344 83.246094 99.5625 83.425781 99.5625 83.636719 Z M 99.5625 83.636719 " fill-opacity="1" fill-rule="nonzero"/><path fill="#000000" d="M 91.113281 83.636719 C 91.113281 83.847656 91.203125 84.027344 91.382812 84.175781 C 91.5625 84.324219 91.777344 84.402344 92.03125 84.402344 C 92.285156 84.402344 92.5 84.324219 92.679688 84.175781 C 92.859375 84.027344 92.949219 83.847656 92.949219 83.636719 C 92.949219 83.425781 92.859375 83.246094 92.679688 83.097656 C 92.5 82.945312 92.285156 82.871094 92.03125 82.871094 C 91.777344 82.871094 91.5625 82.945312 91.382812 83.097656 C 91.203125 83.246094 91.113281 83.425781 91.113281 83.636719 Z M 91.113281 83.636719 " fill-opacity="1" fill-rule="nonzero"/><path fill="#000000" d="M 142.179688 79.625 C 142.179688 79.78125 142.25 79.917969 142.394531 80.027344 C 142.539062 80.140625 142.710938 80.195312 142.914062 80.195312 C 143.117188 80.195312 143.289062 80.140625 143.433594 80.027344 C 143.578125 79.917969 143.648438 79.78125 143.648438 79.625 C 143.648438 79.464844 143.578125 79.332031 143.433594 79.21875 C 143.289062 79.105469 143.117188 79.050781 142.914062 79.050781 C 142.710938 79.050781 142.539062 79.105469 142.394531 79.21875 C 142.25 79.332031 142.179688 79.464844 142.179688 79.625 Z M 142.179688 79.625 " fill-opacity="1" fill-rule="nonzero"/><path fill="#000000" d="M 135.566406 79.625 C 135.566406 79.78125 135.636719 79.917969 135.78125 80.027344 C 135.925781 80.140625 136.097656 80.195312 136.300781 80.195312 C 136.503906 80.195312 136.675781 80.140625 136.820312 80.027344 C 136.964844 79.917969 137.035156 79.78125 137.035156 79.625 C 137.035156 79.464844 136.964844 79.332031 136.820312 79.21875 C 136.675781 79.105469 136.503906 79.050781 136.300781 79.050781 C 136.097656 79.050781 135.925781 79.105469 135.78125 79.21875 C 135.636719 79.332031 135.566406 79.464844 135.566406 79.625 Z M 135.566406 79.625 " fill-opacity="1" fill-rule="nonzero"/><path fill="#000000" d="M 101.398438 81.152344 C 101.398438 81.308594 101.472656 81.445312 101.613281 81.558594 C 101.757812 81.667969 101.929688 81.726562 102.132812 81.726562 C 102.335938 81.726562 102.511719 81.667969 102.652344 81.558594 C 102.796875 81.445312 102.867188 81.308594 102.867188 81.152344 C 102.867188 80.992188 102.796875 80.859375 102.652344 80.746094 C 102.511719 80.636719 102.335938 80.578125 102.132812 80.578125 C 101.929688 80.578125 101.757812 80.636719 101.613281 80.746094 C 101.472656 80.859375 101.398438 80.992188 101.398438 81.152344 Z M 101.398438 81.152344 " fill-opacity="1" fill-rule="nonzero"/><path fill="#000000" d="M 95.523438 81.917969 C 95.523438 82.074219 95.59375 82.210938 95.738281 82.320312 C 95.878906 82.433594 96.054688 82.488281 96.257812 82.488281 C 96.460938 82.488281 96.632812 82.433594 96.777344 82.320312 C 96.917969 82.210938 96.992188 82.074219 96.992188 81.917969 C 96.992188 81.757812 96.917969 81.625 96.777344 81.511719 C 96.632812 81.398438 96.460938 81.34375 96.257812 81.34375 C 96.054688 81.34375 95.878906 81.398438 95.738281 81.511719 C 95.59375 81.625 95.523438 81.757812 95.523438 81.917969 Z M 95.523438 81.917969 " fill-opacity="1" fill-rule="nonzero"/><path fill="#000000" d="M 148.058594 83.0625 C 148.058594 83.222656 148.128906 83.355469 148.273438 83.46875 C 148.417969 83.578125 148.589844 83.636719 148.792969 83.636719 C 148.996094 83.636719 149.167969 83.578125 149.3125 83.46875 C 149.457031 83.355469 149.527344 83.222656 149.527344 83.0625 C 149.527344 82.90625 149.457031 82.769531 149.3125 82.65625 C 149.167969 82.546875 148.996094 82.488281 148.792969 82.488281 C 148.589844 82.488281 148.417969 82.546875 148.273438 82.65625 C 148.128906 82.769531 148.058594 82.90625 148.058594 83.0625 Z M 148.058594 83.0625 " fill-opacity="1" fill-rule="nonzero"/></svg>