<svg xmlns="http://www.w3.org/2000/svg" xmlns:xlink="http://www.w3.org/1999/xlink" width="250" zoomAndPan="magnify" viewBox="0 0 187.5 187.499992" height="250" preserveAspectRatio="xMidYMid meet" version="1.0"><defs><clipPath id="06bd625a4e"><path d="M 0 17.511719 L 187 17.511719 L 187 169.355469 L 0 169.355469 Z M 0 17.511719 " clip-rule="nonzero"/></clipPath></defs><path fill="#000000" d="M 170.332031 44.632812 C 170.296875 44.75 170.292969 44.871094 170.316406 44.992188 C 170.339844 45.117188 170.390625 45.234375 170.46875 45.34375 C 170.542969 45.457031 170.640625 45.550781 170.757812 45.632812 C 170.875 45.714844 171.007812 45.773438 171.148438 45.8125 C 171.289062 45.851562 171.429688 45.867188 171.570312 45.855469 C 171.714844 45.847656 171.847656 45.816406 171.96875 45.761719 C 172.09375 45.703125 172.195312 45.628906 172.28125 45.535156 C 172.363281 45.441406 172.421875 45.335938 172.453125 45.21875 C 172.488281 45.101562 172.492188 44.980469 172.46875 44.859375 C 172.445312 44.734375 172.394531 44.617188 172.316406 44.507812 C 172.242188 44.394531 172.144531 44.300781 172.027344 44.21875 C 171.910156 44.136719 171.78125 44.078125 171.640625 44.039062 C 171.5 44 171.355469 43.984375 171.214844 43.992188 C 171.070312 44.003906 170.9375 44.035156 170.816406 44.089844 C 170.695312 44.144531 170.589844 44.222656 170.507812 44.316406 C 170.421875 44.40625 170.363281 44.515625 170.332031 44.632812 Z M 170.332031 44.632812 " fill-opacity="1" fill-rule="nonzero"/><g clip-path="url(#06bd625a4e)"><path fill="#000000" d="M 118.183594 113.65625 L 118.019531 115.332031 L 117.945312 117.007812 L 117.945312 118.269531 L 118 119.53125 L 118.1875 120.949219 L 118.378906 122.316406 L 118.414062 123.269531 L 118.355469 124.324219 L 118.242188 125.480469 L 117.859375 128.105469 L 117.203125 131.660156 L 116.683594 134.226562 L 116.125 136.78125 L 116.054688 137.210938 L 116.039062 137.640625 L 116.070312 138.082031 L 116.15625 138.5625 L 116.46875 139.5625 L 117.058594 140.917969 L 117.503906 141.898438 L 117.761719 142.59375 L 117.925781 143.214844 L 117.996094 143.78125 L 117.988281 144.1875 L 117.933594 144.652344 L 117.664062 145.929688 L 117.476562 146.773438 L 117.40625 147.136719 L 117.175781 148.382812 L 117.085938 149.21875 L 117.085938 149.960938 L 117.199219 150.636719 L 117.328125 151.042969 L 117.511719 151.457031 L 117.746094 151.863281 L 118.035156 152.28125 L 118.328125 152.792969 L 118.527344 153.339844 L 118.839844 154.621094 L 119.148438 155.550781 L 119.511719 156.308594 L 119.941406 156.902344 L 120.839844 157.652344 L 121.226562 158.011719 L 121.523438 158.378906 L 121.820312 158.929688 L 122.066406 159.644531 L 122.75 161.867188 L 123.453125 163.828125 L 123.734375 164.460938 L 124.050781 165.035156 L 124.414062 165.5625 L 124.816406 166.035156 L 125.246094 166.445312 L 125.714844 166.8125 L 126.226562 167.140625 L 126.804688 167.449219 L 127.429688 167.726562 L 128.132812 167.984375 L 129.855469 168.472656 L 130.933594 168.714844 L 132.019531 168.917969 L 133.085938 169.078125 L 134.136719 169.1875 L 135.171875 169.257812 L 136.171875 169.273438 L 137.160156 169.25 L 138.101562 169.179688 L 139.007812 169.058594 L 139.867188 168.898438 L 140.707031 168.691406 L 141.492188 168.441406 L 142.234375 168.144531 L 142.953125 167.800781 L 143.621094 167.421875 L 144.261719 166.992188 L 144.609375 166.703125 L 144.90625 166.398438 L 145.152344 166.0625 L 145.34375 165.714844 L 145.480469 165.351562 L 145.558594 164.976562 L 145.578125 164.609375 L 145.539062 164.246094 L 145.433594 163.878906 L 145.273438 163.53125 L 145.054688 163.203125 L 144.769531 162.910156 L 144.449219 162.652344 L 144.074219 162.4375 L 143.664062 162.265625 L 143.21875 162.140625 L 143.046875 162.039062 L 142.964844 161.855469 L 142.804688 161.132812 L 142.671875 160.785156 L 142.503906 160.464844 L 142.191406 160.023438 L 141.8125 159.640625 L 141.371094 159.308594 L 140.875 159.042969 L 140.328125 158.839844 L 139.746094 158.707031 L 139.152344 158.648438 L 138.542969 158.664062 L 137.683594 158.75 L 135.761719 159.046875 L 134.988281 159.144531 L 134.691406 159.144531 L 134.464844 159.109375 L 134.195312 158.988281 L 133.953125 158.800781 L 133.722656 158.53125 L 133.527344 158.199219 L 133.335938 157.777344 L 133.179688 157.296875 L 132.925781 156.113281 L 132.757812 154.632812 L 132.683594 152.871094 L 132.703125 150.871094 L 132.824219 148.855469 L 133 147.285156 L 133.316406 145.113281 L 134.726562 135.492188 L 135.101562 132.425781 L 135.539062 128.128906 L 135.9375 124.21875 L 136.136719 122.84375 L 136.433594 121.417969 L 136.660156 120.566406 L 136.957031 119.699219 L 137.308594 118.835938 L 137.722656 117.960938 L 138.214844 117.058594 L 138.769531 116.128906 L 139.414062 115.148438 L 140.15625 114.101562 L 143.949219 108.917969 L 144.011719 108.867188 L 144.03125 108.945312 L 143.925781 110.519531 L 143.714844 112.039062 L 143.398438 113.519531 L 142.980469 114.941406 L 142.460938 116.304688 L 141.84375 117.589844 L 141.117188 118.824219 L 140.304688 119.972656 L 140.210938 120.050781 L 140.089844 120.15625 L 140.082031 120.171875 L 140.070312 120.238281 L 140.136719 120.226562 L 141.066406 119.773438 L 141.976562 119.285156 L 142.867188 118.765625 L 143.730469 118.207031 L 145.136719 117.183594 L 146.46875 116.066406 L 147.746094 114.847656 L 148.953125 113.53125 L 149.734375 112.570312 L 150.4375 111.578125 L 151.054688 110.578125 L 151.59375 109.539062 L 152.039062 108.503906 L 152.402344 107.445312 L 152.683594 106.382812 L 152.878906 105.296875 L 152.988281 104.226562 L 153.011719 103.140625 L 152.957031 102.054688 L 152.816406 100.945312 L 152.84375 100.878906 L 152.914062 100.871094 L 152.945312 100.898438 L 153.398438 101.65625 L 153.800781 102.417969 L 154.15625 103.195312 L 154.460938 103.96875 L 154.714844 104.753906 L 154.917969 105.535156 L 155.066406 106.332031 L 155.171875 107.125 L 155.222656 107.898438 L 155.222656 108.667969 L 155.179688 109.453125 L 155.09375 110.230469 L 154.960938 111.011719 L 154.785156 111.789062 L 154.5625 112.582031 L 154.292969 113.367188 L 153.980469 114.15625 L 153.621094 114.941406 L 153.21875 115.738281 L 152.773438 116.523438 L 151.734375 118.109375 L 150.53125 119.679688 L 150.085938 120.242188 L 150.0625 120.308594 L 150.128906 120.308594 L 151.027344 119.96875 L 151.886719 119.589844 L 152.707031 119.171875 L 153.492188 118.726562 L 154.246094 118.238281 L 154.96875 117.734375 L 155.644531 117.167969 L 156.285156 116.574219 L 157.109375 115.6875 L 157.859375 114.734375 L 158.246094 114.167969 L 158.597656 113.589844 L 158.910156 112.996094 L 159.183594 112.382812 L 159.492188 111.558594 L 159.734375 110.703125 L 159.910156 109.820312 L 160.023438 108.914062 L 160.058594 108.863281 L 160.125 108.867188 L 160.144531 108.898438 L 160.566406 110.273438 L 160.945312 111.65625 L 161.472656 114.027344 L 161.507812 114.070312 L 161.5625 114.058594 L 161.574219 114.039062 L 162.382812 111.929688 L 163.066406 109.863281 L 163.609375 107.859375 L 164.019531 105.890625 L 164.292969 103.980469 L 164.429688 102.117188 L 164.429688 100.3125 L 164.296875 98.550781 L 164.175781 97.757812 L 164.011719 97.007812 L 163.792969 96.285156 L 163.527344 95.601562 L 163.261719 95.050781 L 162.96875 94.511719 L 162.246094 93.460938 L 161.328125 92.390625 L 160.175781 91.257812 L 154.183594 85.769531 L 153.144531 84.792969 L 152.179688 83.828125 L 151.289062 82.882812 L 150.472656 81.945312 L 149.730469 81.011719 L 149.054688 80.085938 L 148.453125 79.167969 L 147.917969 78.261719 L 147.449219 77.347656 L 147.050781 76.449219 L 146.714844 75.535156 L 146.449219 74.636719 L 146.253906 73.75 L 146.121094 72.847656 L 146.0625 71.957031 L 146.070312 71.058594 L 146.199219 69.8125 L 146.277344 69.558594 L 146.351562 69.816406 L 146.53125 70.722656 L 146.804688 71.640625 L 147.179688 72.582031 L 147.644531 73.53125 L 148.207031 74.496094 L 148.863281 75.46875 L 149.625 76.460938 L 150.476562 77.46875 L 151.984375 79.128906 L 153.519531 80.757812 L 155.261719 82.539062 L 157.042969 84.28125 L 158.988281 86.214844 L 160.695312 88.058594 L 162.132812 89.78125 L 163.292969 91.363281 L 163.792969 92.152344 L 164.238281 92.941406 L 164.625 93.75 L 164.960938 94.566406 L 165.203125 95.273438 L 165.410156 95.996094 L 165.726562 97.511719 L 165.910156 99.15625 L 165.972656 100.960938 L 165.902344 105.164062 L 165.6875 109.339844 L 165.707031 109.386719 L 165.757812 109.386719 L 165.777344 109.371094 L 166.558594 108.003906 L 168.894531 103.851562 L 169.683594 102.355469 L 170.296875 101.101562 L 170.921875 99.585938 L 171.390625 98.058594 L 171.566406 97.285156 L 171.710938 96.503906 L 171.804688 95.742188 L 171.863281 94.972656 L 171.878906 94.21875 L 171.855469 93.464844 L 171.789062 92.734375 L 171.6875 92.007812 L 171.539062 91.289062 L 171.351562 90.582031 L 171.128906 89.898438 L 170.863281 89.222656 L 170.800781 89.074219 L 170.757812 88.941406 L 170.769531 88.871094 L 170.835938 88.871094 L 170.964844 88.933594 L 171.636719 89.390625 L 172.285156 89.910156 L 172.898438 90.484375 L 173.464844 91.105469 L 173.984375 91.761719 L 174.445312 92.449219 L 174.832031 93.140625 L 175.148438 93.851562 L 175.367188 94.460938 L 175.535156 95.066406 L 175.714844 96.09375 L 175.78125 97.171875 L 175.742188 98.34375 L 175.59375 99.75 L 175.59375 99.785156 L 175.640625 99.804688 L 175.683594 99.769531 L 176.152344 98.367188 L 176.472656 96.964844 L 176.574219 96.261719 L 176.640625 95.558594 L 176.664062 94.867188 L 176.648438 94.183594 L 176.59375 93.523438 L 176.5 92.863281 L 176.367188 92.234375 L 176.195312 91.613281 L 175.988281 91.019531 L 175.742188 90.445312 L 175.460938 89.898438 L 175.144531 89.371094 L 174.800781 88.882812 L 174.421875 88.414062 L 173.542969 87.460938 L 172.527344 86.492188 L 171.339844 85.453125 L 169.679688 84.097656 L 169.003906 83.550781 L 168.882812 83.414062 L 169.058594 83.453125 L 170.097656 83.882812 L 171.125 84.382812 L 172.109375 84.933594 L 173.074219 85.546875 L 173.984375 86.207031 L 174.855469 86.917969 L 175.671875 87.65625 L 176.433594 88.449219 L 177.125 89.261719 L 177.753906 90.109375 L 178.3125 90.972656 L 178.808594 91.871094 L 179.222656 92.769531 L 179.566406 93.695312 L 179.835938 94.625 L 180.03125 95.578125 L 180.09375 95.652344 L 180.1875 95.628906 L 180.214844 95.578125 L 180.316406 94.515625 L 180.332031 93.460938 L 180.289062 92.699219 L 180.191406 91.921875 L 180.042969 91.144531 L 179.847656 90.34375 L 179.300781 88.617188 L 178.398438 86.308594 L 177.539062 84.253906 L 176.632812 82.214844 L 175.355469 79.550781 L 173.996094 76.917969 L 173.996094 76.902344 L 174.039062 76.878906 L 184.046875 81.542969 L 184.089844 81.542969 L 184.105469 81.503906 L 184.09375 81.480469 L 178.222656 75.988281 L 177.160156 74.953125 L 176.136719 73.878906 L 175.164062 72.777344 L 174.226562 71.636719 L 173.347656 70.488281 L 172.511719 69.304688 L 171.71875 68.089844 L 170.960938 66.84375 L 170.332031 65.675781 L 169.867188 64.636719 L 169.570312 63.710938 L 169.433594 62.890625 L 169.453125 62.820312 L 169.523438 62.839844 L 170.847656 63.765625 L 171.316406 64.160156 L 171.664062 64.515625 L 172.023438 64.9375 L 173.191406 66.277344 L 173.648438 66.738281 L 174.09375 67.125 L 174.539062 67.460938 L 174.976562 67.734375 L 175.421875 67.949219 L 175.894531 68.121094 L 176.664062 68.265625 L 177.46875 68.292969 L 178.507812 68.171875 L 179.625 67.90625 L 180.664062 67.53125 L 181.597656 67.058594 L 182.335938 66.542969 L 182.644531 66.265625 L 182.914062 65.972656 L 183.128906 65.675781 L 183.304688 65.359375 L 183.429688 65.042969 L 183.515625 64.710938 L 183.53125 64.617188 L 183.546875 64.46875 L 183.546875 64.015625 L 183.457031 63.539062 L 183.277344 63.011719 L 182.964844 62.316406 L 182.710938 61.863281 L 182.589844 61.714844 L 182.441406 61.605469 L 182.1875 61.507812 L 181.851562 61.488281 L 181.015625 61.59375 L 180.65625 61.695312 L 180.332031 61.824219 L 179.347656 62.234375 L 178.351562 62.53125 L 177.378906 62.714844 L 176.457031 62.773438 L 175.613281 62.707031 L 174.859375 62.523438 L 174.511719 62.386719 L 174.1875 62.214844 L 173.890625 62.023438 L 173.621094 61.792969 L 173.367188 61.523438 L 173.140625 61.21875 L 172.953125 60.894531 L 172.789062 60.527344 L 172.660156 60.132812 L 172.558594 59.703125 L 172.460938 58.765625 L 172.460938 58.058594 L 172.511719 57.355469 L 172.660156 56.386719 L 172.914062 55.425781 L 172.925781 55.410156 L 172.972656 55.4375 L 172.945312 56.695312 L 172.996094 57.40625 L 173.125 58.105469 L 173.332031 58.777344 L 173.621094 59.40625 L 173.972656 59.980469 L 174.394531 60.503906 L 174.871094 60.949219 L 175.410156 61.328125 L 175.84375 61.5625 L 176.3125 61.753906 L 176.488281 61.816406 L 176.917969 61.929688 L 177.339844 61.988281 L 177.785156 62.003906 L 178.230469 61.976562 L 178.710938 61.902344 L 179.1875 61.789062 L 180.199219 61.4375 L 180.691406 61.210938 L 181.148438 60.960938 L 181.566406 60.6875 L 181.945312 60.390625 L 182.273438 60.078125 L 182.570312 59.738281 L 182.824219 59.375 L 183.03125 58.992188 L 183.179688 58.617188 L 183.300781 58.226562 L 183.382812 57.820312 L 183.429688 57.386719 L 183.40625 56.488281 L 183.230469 55.519531 L 183.082031 55.164062 L 182.804688 54.777344 L 182.445312 54.445312 L 181.894531 54.09375 L 181.226562 53.648438 L 181.007812 53.425781 L 180.84375 53.191406 L 180.835938 53.171875 L 180.621094 52.667969 L 180.515625 52.152344 L 180.507812 51.78125 L 180.554688 51.40625 L 180.652344 51.023438 L 180.808594 50.636719 L 180.859375 50.570312 L 180.890625 50.648438 L 180.996094 51.121094 L 181.167969 51.566406 L 181.300781 51.804688 L 181.671875 52.265625 L 182.28125 52.789062 L 182.738281 53.167969 L 183.046875 53.476562 L 183.273438 53.785156 L 183.433594 54.101562 L 183.441406 54.121094 L 183.625 54.699219 L 183.75 55.324219 L 183.816406 55.976562 L 183.828125 56.667969 L 183.785156 57.40625 L 183.683594 58.199219 L 183.535156 59.0625 L 183.300781 60.097656 L 183.28125 60.265625 L 183.316406 60.367188 L 183.488281 60.4375 L 183.65625 60.367188 L 184 59.949219 L 184.265625 59.457031 L 184.441406 58.898438 L 184.539062 58.253906 L 184.585938 57.335938 L 184.648438 56.242188 L 184.777344 55.546875 L 184.992188 54.953125 L 185.289062 54.453125 L 185.667969 54.046875 L 185.875 53.871094 L 186.320312 53.484375 L 186.617188 53.167969 L 186.808594 52.871094 L 186.90625 52.574219 L 186.957031 52.195312 L 186.945312 51.847656 L 186.875 51.53125 L 186.753906 51.253906 L 186.535156 50.957031 L 186.238281 50.710938 L 185.859375 50.511719 L 185.402344 50.363281 L 184.707031 50.144531 L 184.0625 49.863281 L 183.46875 49.519531 L 182.933594 49.113281 L 182.570312 48.78125 L 182.324219 48.5 L 182.074219 48.152344 L 181.5 47.113281 L 181.28125 46.699219 L 181.21875 46.609375 L 180.9375 46.21875 L 180.578125 45.863281 L 180.121094 45.523438 L 179.472656 45.125 L 178.835938 44.734375 L 178.390625 44.402344 L 178.046875 44.058594 L 177.789062 43.6875 L 177.585938 43.183594 L 177.480469 42.621094 L 177.394531 41.894531 L 177.289062 41.347656 L 177.140625 40.914062 L 176.941406 40.527344 L 176.730469 40.246094 L 176.472656 39.984375 L 176.148438 39.726562 L 175.761719 39.472656 L 174.871094 38.964844 L 173.945312 38.433594 L 173.292969 38.015625 L 172.726562 37.589844 L 172.226562 37.148438 L 170.898438 35.707031 L 169.851562 34.546875 L 169.039062 33.742188 L 169.003906 33.675781 L 169.058594 33.601562 L 169.355469 33.375 L 169.8125 32.996094 L 170.085938 32.671875 L 170.289062 32.355469 L 170.421875 32.046875 L 170.484375 31.75 L 170.535156 30.4375 L 170.449219 29.179688 L 170.226562 27.972656 L 169.867188 26.816406 L 169.40625 25.789062 L 168.832031 24.808594 L 168.136719 23.871094 L 167.316406 22.980469 L 166.109375 21.878906 L 164.820312 20.890625 L 164.035156 20.371094 L 163.222656 19.890625 L 162.386719 19.445312 L 161.519531 19.046875 L 161.5 19.046875 L 161.488281 19.101562 L 162.097656 19.632812 L 162.664062 20.191406 L 163.175781 20.753906 L 163.644531 21.347656 L 164.066406 21.957031 L 164.441406 22.589844 L 164.765625 23.230469 L 165.042969 23.894531 L 165.320312 24.742188 L 165.523438 25.632812 L 165.652344 26.535156 L 165.707031 27.46875 L 165.707031 27.492188 L 165.667969 27.511719 L 165.636719 27.488281 L 165.015625 26.300781 L 164.273438 25.171875 L 163.402344 24.105469 L 162.425781 23.125 L 161.332031 22.214844 L 160.128906 21.382812 L 158.816406 20.632812 L 157.386719 19.960938 L 155.871094 19.367188 L 154.207031 18.839844 L 152.53125 18.402344 L 150.84375 18.058594 L 149.148438 17.808594 L 147.714844 17.660156 L 146.269531 17.585938 L 144.820312 17.578125 L 143.363281 17.632812 L 143.191406 17.671875 L 143.339844 17.761719 L 144.320312 18.136719 L 145.273438 18.554688 L 146.195312 19.019531 L 147.085938 19.535156 L 147.953125 20.09375 L 148.792969 20.703125 L 149.601562 21.355469 L 150.386719 22.058594 L 150.492188 22.207031 L 150.316406 22.171875 L 149.101562 21.726562 L 147.855469 21.332031 L 146.597656 20.996094 L 145.320312 20.710938 L 144.03125 20.488281 L 142.730469 20.324219 L 141.441406 20.21875 L 140.148438 20.175781 L 138.867188 20.1875 L 137.585938 20.261719 L 136.328125 20.394531 L 135.078125 20.589844 L 133.859375 20.839844 L 132.65625 21.144531 L 131.488281 21.511719 L 130.335938 21.933594 L 130.292969 21.992188 L 130.320312 22.0625 L 130.359375 22.074219 L 131.546875 22.183594 L 132.671875 22.367188 L 133.730469 22.625 L 134.726562 22.953125 L 135.664062 23.355469 L 136.527344 23.828125 L 137.34375 24.378906 L 138.085938 24.996094 L 138.628906 25.542969 L 138.644531 25.601562 L 138.601562 25.644531 L 138.566406 25.644531 L 137.308594 25.351562 L 136.066406 25.136719 L 134.84375 25 L 133.648438 24.9375 L 132.460938 24.957031 L 131.300781 25.054688 L 130.164062 25.230469 L 129.042969 25.480469 L 128.03125 25.777344 L 127.039062 26.140625 L 126.058594 26.574219 L 125.101562 27.074219 L 124.15625 27.636719 L 123.234375 28.265625 L 122.324219 28.960938 L 121.433594 29.722656 L 120.703125 30.441406 L 119.960938 31.285156 L 119.210938 32.261719 L 118.449219 33.367188 L 118.425781 33.449219 L 118.507812 33.449219 L 119.585938 33.128906 L 120.664062 32.875 L 121.75 32.683594 L 122.84375 32.550781 L 124.03125 32.476562 L 125.214844 32.476562 L 126.410156 32.542969 L 127.613281 32.683594 L 127.632812 32.683594 L 127.644531 32.722656 L 127.609375 32.75 L 126.332031 32.9375 L 125.074219 33.191406 L 123.835938 33.503906 L 122.625 33.878906 L 121.289062 34.375 L 119.988281 34.945312 L 118.714844 35.59375 L 117.46875 36.320312 L 116.488281 36.957031 L 115.558594 37.628906 L 114.667969 38.332031 L 113.832031 39.074219 L 113.039062 39.84375 L 112.296875 40.648438 L 111.601562 41.488281 L 110.949219 42.355469 L 110.332031 43.28125 L 109.765625 44.238281 L 109.246094 45.234375 L 108.777344 46.261719 L 108.355469 47.328125 L 107.984375 48.425781 L 107.664062 49.558594 L 107.390625 50.722656 L 107.390625 50.730469 L 107.441406 50.777344 L 107.523438 50.753906 L 107.589844 50.695312 L 108.429688 49.683594 L 109.339844 48.761719 L 110.304688 47.949219 L 111.332031 47.234375 L 112.394531 46.632812 L 113.507812 46.136719 L 114.644531 45.761719 L 115.824219 45.5 L 117.050781 45.351562 L 118.308594 45.339844 L 118.335938 45.347656 L 118.355469 45.398438 L 118.316406 45.4375 L 117.339844 45.777344 L 116.378906 46.195312 L 115.683594 46.558594 L 115.015625 46.953125 L 114.359375 47.394531 L 113.730469 47.871094 L 113.105469 48.402344 L 112.511719 48.960938 L 111.933594 49.5625 L 111.359375 50.222656 L 110.257812 51.660156 L 109.199219 53.289062 L 108.140625 55.160156 L 107.03125 57.382812 L 106.648438 58.117188 L 106.238281 58.785156 L 105.792969 59.394531 L 105.3125 59.949219 L 104.570312 60.644531 L 103.734375 61.269531 L 102.773438 61.847656 L 101.652344 62.398438 L 99.738281 63.191406 L 97.726562 63.890625 L 95.585938 64.507812 L 93.320312 65.042969 L 90.9375 65.5 L 88.351562 65.890625 L 85.535156 66.222656 L 82.328125 66.515625 L 79.292969 66.695312 L 76.203125 66.761719 L 73.03125 66.710938 L 69.796875 66.546875 L 66.460938 66.261719 L 63.050781 65.863281 L 59.535156 65.351562 L 55.882812 64.710938 L 53.171875 64.363281 L 52.03125 64.257812 L 50.898438 64.199219 L 49.777344 64.179688 L 48.664062 64.207031 L 47.5625 64.28125 L 46.46875 64.398438 L 45.386719 64.558594 L 44.3125 64.765625 L 43.332031 64.992188 L 42.363281 65.257812 L 41.402344 65.5625 L 40.445312 65.902344 L 38.5625 66.695312 L 36.710938 67.636719 L 34.878906 68.707031 L 32.269531 70.34375 L 29.300781 72.203125 L 27.105469 73.476562 L 25.113281 74.503906 L 24.191406 74.914062 L 23.3125 75.273438 L 22.289062 75.589844 L 21.25 75.78125 L 20.148438 75.835938 L 19.03125 75.746094 L 17.894531 75.515625 L 16.746094 75.140625 L 15.519531 74.605469 L 14.378906 73.980469 L 13.324219 73.261719 L 12.351562 72.453125 L 11.519531 71.613281 L 10.757812 70.691406 L 10.070312 69.683594 L 9.457031 68.601562 L 9.253906 68.148438 L 9.082031 67.671875 L 8.949219 67.167969 L 8.855469 66.640625 L 8.644531 64.960938 L 8.496094 63.277344 L 8.414062 61.84375 L 8.378906 60.414062 L 8.390625 59.339844 L 8.457031 58.285156 L 8.574219 57.246094 L 8.742188 56.222656 L 8.964844 55.203125 L 9.234375 54.203125 L 9.554688 53.226562 L 9.925781 52.273438 L 10.34375 51.351562 L 10.804688 50.464844 L 11.316406 49.597656 L 11.863281 48.746094 L 12.457031 47.945312 L 13.097656 47.1875 L 13.78125 46.457031 L 14.503906 45.769531 L 15.222656 45.15625 L 15.980469 44.578125 L 16.753906 44.046875 L 17.558594 43.558594 L 18.402344 43.105469 L 19.277344 42.6875 L 20.164062 42.324219 L 21.085938 41.996094 L 21.171875 41.996094 L 21.242188 42.035156 L 21.835938 42.558594 L 22.453125 43.042969 L 23.089844 43.488281 L 23.75 43.894531 L 24.382812 44.234375 L 25.03125 44.542969 L 26.390625 45.058594 L 27.820312 45.441406 L 29.332031 45.695312 L 31.035156 45.855469 L 32.730469 45.925781 L 34.417969 45.910156 L 36.101562 45.800781 L 37.515625 45.644531 L 38.925781 45.421875 L 40.335938 45.128906 L 41.734375 44.777344 L 41.804688 44.710938 L 41.796875 44.617188 L 41.777344 44.59375 L 40.488281 43.425781 L 40.46875 43.367188 L 40.507812 43.320312 L 40.539062 43.320312 L 41.726562 43.515625 L 42.859375 43.800781 L 43.949219 44.175781 L 44.988281 44.640625 L 45.144531 44.722656 L 46.105469 45.328125 L 46.667969 45.703125 L 46.769531 45.738281 L 46.746094 45.632812 L 46.355469 44.902344 L 45.910156 44.199219 L 45.40625 43.511719 L 44.851562 42.851562 L 44.238281 42.207031 L 43.582031 41.601562 L 42.871094 41.023438 L 42.128906 40.480469 L 41.332031 39.96875 L 40.511719 39.507812 L 39.660156 39.089844 L 38.800781 38.726562 L 37.921875 38.414062 L 37.03125 38.152344 L 36.144531 37.945312 L 35.253906 37.796875 L 35.0625 37.757812 L 34.996094 37.71875 L 35.058594 37.671875 L 35.246094 37.625 L 36.835938 37.328125 L 38.441406 37.085938 L 38.503906 37.039062 L 38.492188 36.960938 L 38.453125 36.9375 L 37.648438 36.710938 L 36.855469 36.53125 L 36.015625 36.382812 L 35.175781 36.285156 L 34.324219 36.226562 L 33.4375 36.203125 L 31.558594 36.28125 L 29.402344 36.527344 L 29.253906 36.507812 L 29.324219 36.378906 L 30.285156 35.34375 L 30.304688 35.285156 L 30.265625 35.238281 L 30.242188 35.238281 L 28.707031 35.289062 L 27.886719 35.375 L 27.066406 35.503906 L 26.25 35.667969 L 25.4375 35.875 L 24.714844 36.117188 L 24.046875 36.414062 L 23.421875 36.769531 L 22.847656 37.183594 L 22.355469 37.628906 L 21.910156 38.117188 L 21.5 38.65625 L 21.132812 39.25 L 20.984375 39.359375 L 19.027344 39.921875 L 17.1875 40.574219 L 15.464844 41.316406 L 13.859375 42.152344 L 12.707031 42.867188 L 11.632812 43.640625 L 10.617188 44.492188 L 9.6875 45.398438 L 8.859375 46.328125 L 8.105469 47.300781 L 7.40625 48.339844 L 6.78125 49.421875 L 6.210938 50.582031 L 5.714844 51.765625 L 5.289062 53.003906 L 4.921875 54.308594 L 4.625 55.652344 L 4.394531 57.058594 L 4.246094 58.480469 L 4.160156 59.964844 L 4.144531 61.457031 L 4.203125 62.996094 L 4.332031 64.539062 L 4.53125 66.101562 L 4.707031 67.15625 L 4.925781 68.191406 L 5.175781 69.191406 L 5.472656 70.175781 L 5.796875 71.109375 L 6.160156 72.015625 L 6.554688 72.882812 L 6.988281 73.722656 L 7.453125 74.515625 L 7.957031 75.28125 L 8.484375 76 L 9.054688 76.683594 L 9.648438 77.316406 L 10.277344 77.917969 L 10.929688 78.46875 L 11.621094 78.984375 L 12.511719 79.566406 L 13.464844 80.085938 L 14.457031 80.53125 L 15.503906 80.914062 L 16.867188 81.300781 L 18.246094 81.574219 L 19.066406 81.679688 L 19.890625 81.746094 L 20.722656 81.773438 L 21.5625 81.765625 L 22.40625 81.714844 L 23.257812 81.625 L 24.976562 81.328125 L 25.046875 81.335938 L 25.035156 81.410156 L 24.378906 82.820312 L 23.777344 84.304688 L 23.21875 85.886719 L 22.707031 87.558594 L 22.246094 89.3125 L 21.800781 91.253906 L 21.355469 93.40625 L 20.871094 96.03125 L 19.820312 102.046875 L 18.097656 112.40625 L 17.414062 115.660156 L 16.851562 117.851562 L 16.144531 119.992188 L 15.371094 121.921875 L 14.484375 123.796875 L 13.980469 124.714844 L 13.4375 125.589844 L 12.84375 126.429688 L 12.210938 127.234375 L 11.179688 128.367188 L 10.046875 129.421875 L 8.816406 130.390625 L 7.484375 131.28125 L 6.890625 131.597656 L 6.046875 131.988281 L 5.136719 132.40625 L 4.535156 132.761719 L 4.050781 133.152344 L 3.675781 133.597656 L 3.511719 133.875 L 3.371094 134.191406 L 3.191406 134.894531 L 2.980469 136.546875 L 2.847656 138.476562 L 2.792969 141.09375 L 2.757812 142.460938 L 2.671875 143.824219 L 2.460938 145.824219 L 2.3125 146.679688 L 2.109375 147.59375 L 1.433594 149.949219 L 0.96875 151.507812 L 0.671875 152.660156 L 0.4375 153.773438 L 0.246094 154.890625 L 0.0976562 156.011719 L 0 157.144531 L -0.0703125 158.316406 L -0.09375 159.488281 L -0.0742188 160.664062 L -0.0078125 161.851562 L 0.113281 163.15625 L 0.28125 164.253906 L 0.5 165.222656 L 0.777344 166.074219 L 1.113281 166.789062 L 1.511719 167.371094 L 1.957031 167.816406 L 2.453125 168.113281 L 2.925781 168.296875 L 3.480469 168.460938 L 4.828125 168.742188 L 6.105469 168.925781 L 7.390625 169.058594 L 8.667969 169.144531 L 9.949219 169.175781 L 11.234375 169.160156 L 12.519531 169.09375 L 13.804688 168.980469 L 15.085938 168.8125 L 16.207031 168.59375 L 17.285156 168.289062 L 18.257812 167.917969 L 19.109375 167.484375 L 19.78125 167.015625 L 20.308594 166.5 L 20.675781 165.953125 L 20.796875 165.671875 L 20.882812 165.375 L 20.921875 165.125 L 20.921875 164.511719 L 20.867188 164.214844 L 20.777344 163.949219 L 20.515625 163.492188 L 20.121094 163.074219 L 19.585938 162.691406 L 18.894531 162.332031 L 18.828125 162.277344 L 18.800781 162.195312 L 18.734375 161.648438 L 18.605469 161.148438 L 18.410156 160.703125 L 18.152344 160.296875 L 17.71875 159.84375 L 17.179688 159.472656 L 16.585938 159.1875 L 15.96875 159 L 15.226562 158.898438 L 14.449219 158.917969 L 13.59375 159.050781 L 12.503906 159.324219 L 12.417969 159.324219 L 12.355469 159.265625 L 12.140625 158.839844 L 11.980469 158.429688 L 11.882812 158.046875 L 11.835938 157.683594 L 11.816406 156.414062 L 11.855469 155.171875 L 11.957031 153.953125 L 12.117188 152.757812 L 12.339844 151.585938 L 12.621094 150.441406 L 12.964844 149.316406 L 13.371094 148.21875 L 13.867188 147.082031 L 14.222656 146.414062 L 14.542969 145.910156 L 14.894531 145.433594 L 15.289062 144.972656 L 15.746094 144.5 L 16.824219 143.527344 L 18.492188 142.210938 L 19.5625 141.386719 L 24.507812 137.558594 L 28.09375 134.726562 L 31.3125 132.105469 L 34.226562 129.667969 L 36.183594 127.972656 L 37.871094 126.425781 L 39.386719 124.945312 L 40.769531 123.488281 L 42.027344 122.042969 L 43.183594 120.59375 L 44.230469 119.140625 L 45.183594 117.65625 L 46.472656 115.46875 L 47.71875 113.234375 L 48.898438 110.996094 L 49.964844 108.84375 L 50.582031 107.484375 L 51.144531 106.105469 L 51.804688 104.257812 L 52.371094 102.375 L 52.378906 102.359375 L 52.421875 102.382812 L 52.167969 104.753906 L 51.808594 107.523438 L 51.605469 108.792969 L 51.351562 110.050781 L 51.058594 111.269531 L 50.71875 112.476562 L 50.335938 113.664062 L 49.90625 114.828125 L 49.441406 115.953125 L 48.9375 117.050781 L 48.382812 118.117188 L 47.792969 119.15625 L 47.160156 120.15625 L 46.484375 121.132812 L 45.777344 122.0625 L 45.027344 122.964844 L 44.242188 123.816406 L 43.417969 124.644531 L 42.265625 125.667969 L 40.519531 127.09375 L 26.914062 137.910156 L 26.644531 138.167969 L 26.421875 138.5 L 26.257812 138.90625 L 26.167969 139.351562 L 26.144531 139.859375 L 26.1875 140.417969 L 26.292969 141.023438 L 26.464844 141.6875 L 26.722656 142.464844 L 27.398438 144.492188 L 28 146.539062 L 28.382812 148.011719 L 28.726562 149.492188 L 29.5 152.816406 L 30.296875 155.824219 L 31.140625 158.617188 L 32.046875 161.214844 L 32.421875 162.152344 L 32.796875 162.96875 L 33.183594 163.6875 L 33.597656 164.324219 L 34.042969 164.890625 L 34.511719 165.378906 L 35.03125 165.824219 L 35.574219 166.183594 L 36.007812 166.414062 L 36.476562 166.613281 L 36.65625 166.679688 L 37.566406 166.976562 L 38.511719 167.21875 L 39.480469 167.40625 L 40.5 167.546875 L 41.574219 167.636719 L 42.726562 167.683594 L 43.992188 167.683594 L 45.476562 167.648438 L 46.824219 167.546875 L 48.125 167.355469 L 49.28125 167.085938 L 50.296875 166.738281 L 51.109375 166.335938 L 51.453125 166.113281 L 51.757812 165.867188 L 52.007812 165.613281 L 52.21875 165.339844 L 52.382812 165.058594 L 52.503906 164.761719 L 52.582031 164.449219 L 52.613281 164.117188 L 52.554688 163.554688 L 52.449219 163.238281 L 52.300781 162.941406 L 52.101562 162.65625 L 51.859375 162.398438 L 51.5625 162.140625 L 51.230469 161.917969 L 50.855469 161.714844 L 50.460938 161.546875 L 50.382812 161.5 L 50.335938 161.417969 L 50.097656 160.816406 L 49.8125 160.296875 L 49.457031 159.835938 L 49.058594 159.460938 L 48.535156 159.109375 L 47.925781 158.84375 L 47.261719 158.679688 L 46.519531 158.601562 L 45.707031 158.617188 L 44.835938 158.722656 L 43.894531 158.925781 L 42.914062 159.222656 L 42.734375 159.261719 L 42.570312 159.261719 L 42.320312 159.171875 L 42.078125 158.972656 L 41.859375 158.675781 L 41.632812 158.257812 L 40.914062 156.628906 L 40.308594 154.960938 L 39.8125 153.238281 L 39.429688 151.472656 L 39.261719 150.148438 L 39.242188 148.871094 L 39.292969 148.25 L 39.378906 147.640625 L 39.5 147.050781 L 39.664062 146.457031 L 40.085938 145.355469 L 40.648438 144.300781 L 41.355469 143.285156 L 42.203125 142.316406 L 42.277344 142.238281 L 46.121094 138.207031 L 47.628906 136.550781 L 48.988281 134.996094 L 50.246094 133.492188 L 51.386719 132.042969 L 52.402344 130.664062 L 53.304688 129.335938 L 53.933594 128.332031 L 54.550781 127.269531 L 55.136719 126.1875 L 55.703125 125.042969 L 56.796875 122.605469 L 57.855469 119.875 L 59.800781 114.589844 L 61.8125 109.277344 L 61.8125 109.238281 L 61.78125 109.21875 L 60.691406 109.015625 L 59.59375 108.9375 L 58.628906 108.972656 L 57.648438 109.105469 L 56.679688 109.335938 L 55.699219 109.660156 L 54.714844 110.085938 L 53.71875 110.605469 L 52.699219 111.234375 L 51.660156 111.964844 L 51.613281 111.9375 L 51.613281 111.917969 L 52.53125 110.925781 L 53.550781 109.976562 L 54.609375 109.113281 L 55.699219 108.351562 L 56.769531 107.722656 L 57.835938 107.210938 L 58.855469 106.847656 L 59.832031 106.617188 L 60.800781 106.523438 L 61.734375 106.558594 L 62.667969 106.738281 L 63.636719 107.070312 L 64.714844 107.578125 L 66.285156 108.445312 L 66.511719 108.570312 L 68.277344 109.59375 L 69.863281 110.566406 L 76.628906 114.816406 L 81.667969 117.855469 L 82.746094 118.460938 L 83.835938 119.027344 L 86.117188 120.09375 L 88.542969 121.0625 L 91.109375 121.929688 L 93.820312 122.707031 L 96.761719 123.414062 L 99.980469 124.066406 L 103.617188 124.6875 L 106.484375 125.109375 L 109.355469 125.453125 L 111.46875 125.660156 L 113.589844 125.824219 L 115.710938 125.949219 L 117.839844 126.03125 L 117.953125 126.015625 L 118.03125 125.972656 L 118.058594 125.941406 L 118.066406 125.875 L 118.03125 125.820312 L 117.554688 125.421875 L 117.121094 124.992188 L 116.734375 124.535156 L 116.394531 124.046875 L 116.085938 123.492188 L 115.832031 122.902344 L 115.632812 122.277344 L 115.484375 121.625 L 115.453125 121.5625 L 115.328125 121.519531 L 115.230469 121.609375 L 115.160156 121.832031 L 115.144531 121.863281 L 115.066406 121.894531 L 114.996094 121.847656 L 114.527344 120.769531 L 114.1875 119.65625 L 114.058594 119.039062 L 113.964844 118.414062 L 113.914062 117.777344 L 113.902344 117.140625 L 113.878906 117.046875 L 113.804688 117.109375 L 113.445312 117.671875 L 113.125 118.25 L 112.871094 118.804688 L 112.652344 119.378906 L 112.628906 119.414062 L 112.550781 119.429688 L 112.496094 119.367188 L 112.347656 118.476562 L 112.285156 117.59375 L 112.335938 116.417969 L 112.539062 115.203125 L 112.894531 113.867188 L 113.5 112.082031 L 113.5 112.003906 L 113.417969 111.992188 L 110.09375 112.625 L 109.714844 112.683594 L 109.578125 112.667969 L 109.679688 112.578125 L 110.035156 112.398438 L 110.789062 112.03125 L 111.492188 111.613281 L 112.1875 111.117188 L 112.832031 110.566406 L 113.441406 109.953125 L 114 109.289062 L 114.519531 108.566406 L 115.007812 107.777344 L 115.441406 106.945312 L 115.835938 106.046875 L 116.1875 105.09375 L 116.496094 104.078125 L 116.753906 103.03125 L 116.964844 101.933594 L 117.125 100.800781 L 117.238281 99.632812 L 117.300781 98.433594 L 117.308594 97.214844 L 117.332031 97.175781 L 117.378906 97.175781 L 117.394531 97.199219 L 117.535156 97.78125 L 117.816406 99.3125 L 117.976562 100.871094 L 118.023438 102.492188 L 117.953125 104.164062 L 117.769531 105.882812 L 117.472656 107.757812 L 117.046875 109.8125 L 116.4375 112.332031 L 116.140625 113.609375 L 115.953125 114.660156 L 115.863281 115.597656 L 115.863281 116.488281 L 115.972656 117.507812 L 116.203125 118.597656 L 116.242188 118.628906 L 116.277344 118.621094 L 116.285156 118.597656 L 116.59375 117.316406 L 117 116.070312 L 117.515625 114.835938 L 118.140625 113.640625 L 118.179688 113.59375 Z M 154.515625 31.453125 L 153.910156 31.554688 L 153.378906 31.757812 L 152.871094 32.074219 L 152.414062 32.488281 L 152.027344 32.976562 L 151.695312 33.5625 L 151.457031 34.191406 L 151.308594 34.847656 L 151.257812 35.511719 L 151.289062 36.65625 L 151.375 37.785156 L 151.523438 38.90625 L 151.726562 40.015625 L 151.96875 41.03125 L 152.265625 42.039062 L 152.605469 43.035156 L 152.992188 44.023438 L 152.984375 44.089844 L 152.917969 44.113281 L 152.886719 44.09375 L 152.128906 43.203125 L 151.476562 42.277344 L 150.925781 41.308594 L 150.480469 40.300781 L 150.101562 39.097656 L 149.859375 37.84375 L 149.75 36.535156 L 149.777344 35.175781 L 149.917969 34.230469 L 150.207031 33.277344 L 150.625 32.367188 L 151.152344 31.554688 L 151.761719 30.878906 L 152.089844 30.597656 L 152.433594 30.347656 L 152.785156 30.148438 L 153.152344 29.980469 L 153.519531 29.863281 L 153.898438 29.78125 L 154.550781 29.742188 L 154.957031 29.769531 L 155.347656 29.835938 L 155.710938 29.941406 L 156.074219 30.089844 L 156.59375 30.375 L 157.0625 30.726562 L 157.492188 31.171875 L 157.859375 31.671875 L 158.183594 32.246094 L 158.441406 32.867188 L 158.632812 33.539062 L 158.753906 34.238281 L 158.804688 34.769531 L 158.898438 35.609375 L 159.035156 36.199219 L 159.242188 36.671875 L 159.539062 37.046875 L 159.789062 37.242188 L 160.085938 37.402344 L 160.121094 37.4375 L 160.121094 37.511719 L 160.050781 37.546875 L 159.566406 37.425781 L 159.128906 37.222656 L 158.890625 37.042969 L 158.675781 36.84375 L 158.304688 36.316406 L 157.992188 35.632812 L 157.648438 34.59375 L 157.367188 33.714844 L 157.128906 33.121094 L 156.863281 32.640625 L 156.550781 32.257812 L 156.285156 32.019531 L 156.011719 31.820312 L 155.722656 31.664062 L 155.425781 31.550781 L 154.980469 31.460938 Z M 168.046875 44.246094 L 168.601562 43.894531 L 169.195312 43.597656 L 169.789062 43.375 L 170.355469 43.226562 L 170.886719 43.167969 L 171.363281 43.191406 L 171.808594 43.304688 L 172.1875 43.496094 L 172.289062 43.566406 L 172.652344 43.949219 L 173.066406 44.605469 L 173.363281 45.09375 L 173.609375 45.425781 L 173.882812 45.703125 L 174.230469 45.964844 L 174.65625 46.230469 L 175.25 46.546875 L 175.515625 46.683594 L 175.597656 46.75 L 175.492188 46.761719 L 174.214844 46.730469 L 172.902344 46.773438 L 172.121094 46.792969 L 171.492188 46.742188 L 170.957031 46.621094 L 170.492188 46.421875 L 170.058594 46.113281 L 169.664062 45.703125 L 169.269531 45.152344 L 168.84375 44.410156 L 168.734375 44.351562 L 168.078125 44.367188 L 168.046875 44.363281 L 168.007812 44.308594 Z M 168.046875 44.246094 " fill-opacity="1" fill-rule="nonzero"/></g><path fill="#000000" d="M 144.589844 129.636719 L 144.695312 128.507812 L 144.84375 127.402344 L 145.046875 126.328125 L 145.292969 125.277344 L 145.589844 124.257812 L 145.925781 123.257812 L 146.304688 122.289062 L 146.734375 121.335938 L 147.152344 120.511719 L 147.617188 119.699219 L 148.105469 118.914062 L 148.636719 118.140625 L 148.648438 118.109375 L 148.621094 118.066406 L 148.566406 118.066406 L 144.695312 120.671875 L 143.90625 121.175781 L 143.164062 121.59375 L 142.472656 121.933594 L 141.804688 122.207031 L 141.160156 122.414062 L 140.53125 122.554688 L 139.902344 122.636719 L 139.296875 122.648438 L 139.222656 122.671875 L 139.183594 122.742188 L 137.988281 128.941406 L 136.695312 135.121094 L 135.449219 140.671875 L 135.050781 142.808594 L 134.996094 143.308594 L 135.023438 143.699219 L 135.121094 144.019531 L 135.300781 144.359375 L 136.3125 146.101562 L 137.074219 147.625 L 137.621094 149 L 137.820312 149.652344 L 137.96875 150.257812 L 138.085938 150.851562 L 138.417969 152.421875 L 138.742188 153.472656 L 138.945312 153.929688 L 139.164062 154.328125 L 139.417969 154.6875 L 139.714844 155.027344 L 140.246094 155.480469 L 140.726562 155.777344 L 141.394531 156.109375 L 142.023438 156.421875 L 142.464844 156.691406 L 142.828125 156.984375 L 143.125 157.304688 L 143.371094 157.691406 L 143.734375 158.566406 L 144.152344 159.695312 L 144.542969 160.644531 L 144.941406 161.503906 L 145.359375 162.277344 L 145.796875 162.96875 L 146.253906 163.585938 L 146.730469 164.117188 L 147.222656 164.5625 L 147.714844 164.917969 L 148.292969 165.246094 L 148.964844 165.542969 L 149.722656 165.8125 L 151.132812 166.21875 L 152.601562 166.542969 L 154.058594 166.769531 L 155.496094 166.898438 L 156.855469 166.929688 L 158.152344 166.863281 L 159.347656 166.695312 L 160.453125 166.433594 L 161.359375 166.117188 L 162.257812 165.710938 L 163.046875 165.265625 L 163.722656 164.777344 L 164.246094 164.277344 L 164.636719 163.753906 L 164.886719 163.222656 L 164.996094 162.683594 L 164.980469 162.214844 L 164.953125 162.054688 L 164.847656 161.683594 L 164.683594 161.335938 L 164.457031 161.007812 L 164.179688 160.710938 L 163.863281 160.460938 L 163.507812 160.25 L 163.128906 160.09375 L 162.726562 159.992188 L 162.597656 159.925781 L 162.53125 159.796875 L 162.332031 159.105469 L 162.183594 158.78125 L 162.003906 158.484375 L 161.636719 158.039062 L 161.199219 157.675781 L 160.679688 157.371094 L 160.109375 157.140625 L 159.457031 156.972656 L 158.777344 156.894531 L 158.066406 156.894531 L 157.363281 156.96875 L 154.851562 157.4375 L 154.464844 157.503906 L 154.152344 157.523438 L 153.882812 157.496094 L 153.636719 157.417969 L 153.339844 157.210938 L 153.0625 156.878906 L 152.632812 156.15625 L 152.359375 155.566406 L 152.132812 154.945312 L 151.761719 153.695312 L 151.433594 152.460938 L 151.15625 151.246094 L 150.925781 150.046875 L 150.742188 148.863281 L 150.605469 147.695312 L 150.515625 146.546875 L 150.472656 145.417969 L 150.472656 143.695312 L 150.515625 141.5625 L 150.734375 136.066406 L 150.816406 132.472656 L 150.828125 128.875 L 150.726562 125.253906 L 150.507812 121.632812 L 150.476562 121.558594 L 150.398438 121.578125 L 149.546875 122.234375 L 148.714844 123.011719 L 147.90625 123.910156 L 147.136719 124.914062 L 146.414062 126.011719 L 145.753906 127.179688 L 145.164062 128.40625 L 144.660156 129.65625 L 144.640625 129.679688 L 144.59375 129.679688 Z M 144.589844 129.636719 " fill-opacity="1" fill-rule="nonzero"/></svg>