<svg xmlns="http://www.w3.org/2000/svg" xmlns:xlink="http://www.w3.org/1999/xlink" width="250" zoomAndPan="magnify" viewBox="0 0 187.5 187.499992" height="250" preserveAspectRatio="xMidYMid meet" version="1.0"><path fill="#000000" d="M 171.90625 160.101562 L 166.671875 160.101562 L 178.402344 107.75 C 175.195312 101.832031 156.785156 53.621094 153.652344 45.851562 C 150.339844 37.355469 143.539062 30.949219 135.269531 27.960938 C 114.347656 5.929688 110.417969 1.605469 88.390625 26.109375 C 80.996094 26.03125 69.570312 24.617188 63.074219 27.316406 C 54.753906 30.949219 48.234375 37.148438 43.792969 45.851562 C 39.632812 54.007812 11.777344 101.445312 8.414062 107.777344 L 8.722656 107.699219 C 8.722656 107.699219 8.667969 107.777344 8.667969 107.777344 L 20.402344 160.128906 C 15.449219 159.640625 8.308594 160.335938 8.414062 166.898438 C 8.414062 172.253906 7.078125 182.394531 15.164062 182.265625 C 15.164062 182.265625 31.957031 182.265625 31.957031 182.265625 C 57.453125 181.3125 48.542969 123.398438 44.230469 106.953125 L 61.480469 89.65625 C 61.738281 104.535156 61.328125 168.054688 61.328125 168.054688 C 52.804688 169.882812 47.386719 172.378906 48.464844 182.265625 L 89.980469 182.265625 C 90.828125 158.222656 93.910156 107.492188 93.910156 107.492188 L 110.339844 124.09375 C 96.757812 144.945312 96.246094 158.222656 97.09375 182.265625 L 138.582031 182.265625 C 139.660156 172.378906 134.242188 169.882812 125.71875 168.054688 L 135.886719 124.351562 L 127.722656 76.710938 C 126.308594 82.398438 121.253906 86.644531 115.167969 86.75 C 105.335938 87.160156 98.300781 75.707031 103.332031 67.085938 C 103.871094 66.105469 104.539062 65.207031 105.308594 64.382812 C 95.707031 64.792969 90.90625 64.613281 91.933594 53.261719 C 93.882812 40.832031 104.4375 54.523438 117.066406 37.40625 C 128.59375 36.457031 131.523438 46.132812 130.46875 55.734375 L 130.46875 58.332031 L 130.390625 58.332031 C 131.058594 47.367188 112.960938 50.84375 106.386719 50.328125 C 97.582031 50.019531 96.683594 63.558594 105.335938 64.355469 C 106.925781 62.707031 108.953125 61.472656 111.214844 60.828125 L 111.214844 65.359375 L 121.585938 65.359375 L 121.585938 62.140625 C 123.589844 63.328125 125.257812 65.050781 126.386719 67.109375 C 127.105469 68.472656 127.644531 69.96875 127.875 71.511719 L 106.257812 71.511719 C 105.898438 79.980469 122.894531 75.835938 127.695312 76.761719 C 127.695312 76.761719 137.890625 96.503906 137.992188 96.503906 C 138.429688 96.503906 142.871094 106.851562 142.871094 106.851562 C 138.558594 122.9375 129.546875 181.414062 155.089844 182.316406 C 161.046875 181.363281 178.867188 185.96875 178.636719 175.546875 C 178.636719 170.167969 179.96875 160.050781 171.882812 160.179688 Z M 110.339844 96.167969 C 108.570312 96.324219 106.773438 96.425781 104.921875 96.425781 C 91.058594 96.195312 77.65625 92.515625 68.3125 82.785156 L 82.636719 68.421875 L 110.339844 96.195312 Z M 110.339844 96.167969 " fill-opacity="1" fill-rule="nonzero"/></svg>