<svg xmlns="http://www.w3.org/2000/svg" xmlns:xlink="http://www.w3.org/1999/xlink" width="250" zoomAndPan="magnify" viewBox="0 0 187.5 187.499992" height="250" preserveAspectRatio="xMidYMid meet" version="1.0"><defs><clipPath id="514a417bcf"><path d="M 64 98 L 102 98 L 102 187 L 64 187 Z M 64 98 " clip-rule="nonzero"/></clipPath></defs><g clip-path="url(#514a417bcf)"><path fill="#000000" d="M 71.851562 98.863281 C 80.683594 99.234375 91.203125 99.398438 101.785156 99.070312 C 98.535156 102.789062 94.808594 106.445312 90.566406 109.777344 L 92.667969 103.859375 C 88.28125 107.761719 85.070312 110.0625 85.070312 110.0625 C 84.082031 114.707031 88.40625 187.597656 88.40625 187.597656 L 84.429688 185.933594 L 83.421875 181.289062 L 81.097656 185.933594 L 75.476562 185.933594 L 73.457031 180.609375 L 72.140625 185.933594 L 64.214844 185.933594 L 73.789062 108.808594 C 73.109375 104.269531 72.285156 100.691406 71.851562 98.863281 Z M 71.851562 98.863281 " fill-opacity="1" fill-rule="nonzero"/></g><path fill="#000000" d="M 71.050781 98.84375 C 69.28125 104.25 66.335938 108.808594 66.335938 108.808594 C 65.902344 105.195312 65.574219 101.824219 65.285156 98.578125 C 67.078125 98.660156 69.03125 98.761719 71.050781 98.84375 Z M 71.050781 98.84375 " fill-opacity="1" fill-rule="nonzero"/><path fill="#000000" d="M 49.558594 87.210938 C 54.601562 87.644531 59.664062 87.933594 64.667969 88.136719 C 60.550781 21.863281 85.75 36.394531 85.75 36.394531 C 116.875 0.863281 128.816406 27.453125 128.816406 27.453125 C 141.023438 35.921875 130.070312 48.578125 130.070312 48.578125 L 129.226562 44.097656 C 129.226562 44.097656 124.925781 43.441406 121.941406 42.105469 C 121.941406 42.105469 117.742188 44.304688 114.445312 45.824219 C 118.832031 45.148438 127.828125 45.640625 121.464844 62.945312 C 121.464844 62.945312 117.679688 74.839844 108.578125 87.992188 C 117.371094 87.644531 122.90625 87.210938 122.90625 87.210938 C 124.90625 92.515625 122.90625 95.164062 122.90625 95.164062 C 116.238281 96.027344 108.992188 96.5 101.785156 96.746094 C 91.203125 97.097656 80.683594 96.910156 71.851562 96.5625 C 71.566406 96.5625 71.316406 96.542969 71.050781 96.542969 C 69.03125 96.460938 67.097656 96.378906 65.304688 96.273438 C 55.835938 95.761719 49.558594 95.164062 49.558594 95.164062 C 46.242188 90.191406 49.558594 87.210938 49.558594 87.210938 Z M 49.558594 87.210938 " fill-opacity="1" fill-rule="nonzero"/></svg>