<svg xmlns="http://www.w3.org/2000/svg" xmlns:xlink="http://www.w3.org/1999/xlink" width="250" zoomAndPan="magnify" viewBox="0 0 187.5 187.499992" height="250" preserveAspectRatio="xMidYMid meet" version="1.0"><defs><clipPath id="00a773d6b0"><path d="M 28.449219 0 L 158 0 L 158 187 L 28.449219 187 Z M 28.449219 0 " clip-rule="nonzero"/></clipPath></defs><g clip-path="url(#00a773d6b0)"><path fill="#000000" d="M 77.910156 74.894531 C 77.910156 74.894531 76.859375 76.46875 71.757812 75.792969 C 66.652344 75.117188 62.300781 74.742188 58.246094 75.269531 C 54.191406 75.792969 48.5625 75.71875 43.082031 78.046875 C 37.605469 80.375 34.226562 82.25 31.375 81.949219 C 28.523438 81.652344 28.445312 77.820312 28.671875 73.164062 C 28.898438 68.511719 36.476562 61.828125 43.007812 59.574219 C 49.539062 57.320312 61.546875 55.144531 69.054688 54.769531 C 76.558594 54.394531 85.71875 52.816406 86.46875 51.992188 C 87.21875 51.164062 91.347656 45.457031 92.921875 44.257812 C 94.5 43.054688 95.777344 39.375 97.503906 36.824219 C 99.230469 34.269531 103.207031 30.289062 104.707031 22.683594 C 106.210938 15.074219 109.113281 7.863281 113.316406 4.261719 C 117.519531 0.65625 125.726562 0.0546875 129.128906 0.457031 C 132.53125 0.855469 133.007812 3.257812 137.058594 3.035156 C 141.113281 2.808594 149.894531 1.90625 151.769531 2.957031 C 153.648438 4.011719 154.398438 5.886719 154.097656 7.011719 C 154.097656 7.011719 152.820312 5.738281 150.121094 6.1875 C 147.417969 6.636719 143.589844 7.988281 143.589844 7.988281 C 143.589844 7.988281 149.871094 6.738281 152.046875 7.089844 C 154.222656 7.4375 154.75 9.089844 154.75 9.089844 C 154.75 9.089844 153.796875 9.039062 152.945312 9.617188 C 152.097656 10.191406 149.09375 10.742188 147.015625 11.492188 C 144.941406 12.246094 136.882812 15.972656 133.882812 21.03125 C 130.878906 26.085938 129.628906 32.019531 131.65625 39.074219 C 133.679688 46.132812 135.484375 50.265625 136.382812 54.242188 C 137.285156 58.222656 136.984375 62.804688 136.984375 62.804688 C 136.984375 62.804688 138.335938 65.65625 142.464844 67.835938 C 146.59375 70.011719 151.546875 73.691406 155.074219 83.527344 C 158.601562 93.363281 157.402344 101.847656 154.171875 108.007812 C 150.945312 114.164062 150.34375 115.289062 148.394531 110.335938 C 146.441406 105.378906 144.339844 100.796875 142.386719 98.09375 C 140.4375 95.390625 138.109375 93.816406 138.109375 93.816406 C 138.109375 93.816406 135.785156 128.355469 133.832031 135.414062 C 131.878906 142.472656 125.050781 159.890625 123.921875 163.347656 C 122.796875 166.800781 123.171875 170.253906 123.699219 174.910156 C 124.222656 179.566406 127.601562 180.839844 128.503906 180.992188 C 129.402344 181.140625 130.960938 181.332031 132.03125 181.234375 C 133.097656 181.132812 134.199219 181.601562 134.664062 182.132812 C 135.132812 182.667969 136.132812 184.035156 136.035156 185.9375 C 136.035156 185.9375 135.464844 185.238281 134.433594 184.804688 C 134.433594 184.804688 134.296875 185.339844 133.699219 185.339844 C 133.097656 185.339844 130.128906 185.171875 130.128906 185.171875 C 130.128906 185.171875 129.429688 186.539062 129.429688 186.707031 C 129.429688 186.875 127.660156 186.003906 127.660156 186.003906 C 127.660156 186.003906 126.125 185.839844 125.523438 185.40625 C 124.925781 184.972656 124.65625 184.46875 124.558594 184.402344 C 124.457031 184.335938 121.488281 184.539062 120.386719 184.46875 C 119.285156 184.402344 118.085938 184.636719 117.117188 185.070312 C 116.152344 185.503906 113.714844 185.839844 113.714844 185.839844 C 113.714844 185.839844 112.414062 186.105469 112.480469 186.941406 C 112.480469 186.941406 111.878906 186.507812 111.714844 185.304688 C 111.714844 185.304688 109.011719 186.140625 108.109375 184.90625 C 107.210938 183.667969 108.910156 180.765625 109.777344 180.066406 C 110.644531 179.363281 111.011719 179.164062 110.980469 177.796875 C 110.945312 176.429688 111.78125 176.359375 112.347656 175.425781 C 112.914062 174.492188 113.046875 173.925781 113.046875 173.925781 C 113.046875 173.925781 112.414062 167.050781 112.515625 165.5 C 112.613281 163.945312 112.113281 162.09375 112.113281 162.09375 C 112.113281 162.09375 110.0625 163.09375 108.761719 162.746094 C 107.460938 162.394531 106.410156 160.894531 104.957031 161.292969 C 103.507812 161.695312 102.65625 162.195312 102.65625 162.195312 C 102.65625 162.195312 99.453125 162.59375 99.230469 163.269531 C 99.003906 163.945312 98.628906 164.171875 96.75 163.496094 C 94.875 162.820312 92.773438 159.441406 90.523438 158.765625 C 88.269531 158.089844 83.617188 156.363281 81.816406 156.664062 C 80.011719 156.964844 78.886719 158.238281 78.886719 159.589844 C 78.886719 160.941406 79.113281 162.671875 79.113281 162.671875 C 79.113281 162.671875 81.390625 165.199219 81.789062 166.25 C 82.191406 167.300781 81.890625 171.804688 81.289062 173.207031 C 80.6875 174.609375 78.488281 178.863281 77.785156 179.863281 C 77.085938 180.867188 76.183594 181.816406 76.183594 181.816406 C 76.183594 181.816406 75.132812 183.769531 74.484375 184.871094 C 74.484375 184.871094 74.632812 182.417969 74.332031 181.816406 C 74.332031 181.816406 72.230469 182.269531 71.730469 182.667969 C 71.230469 183.070312 70.429688 183.320312 70.429688 183.320312 C 70.429688 183.320312 69.480469 186.222656 67.578125 186.421875 C 67.578125 186.421875 68.980469 184.371094 68.078125 183.167969 C 68.078125 183.167969 67.429688 183.769531 67.226562 183.070312 C 67.027344 182.367188 66.976562 180.265625 66.976562 180.265625 C 66.976562 180.265625 65.027344 183.871094 63.976562 184.121094 L 64.375 179.863281 C 64.375 179.863281 63.675781 174.710938 64.574219 172.40625 C 65.476562 170.105469 66.878906 164.796875 67.929688 163.046875 C 68.980469 161.292969 69.429688 160.992188 69.429688 160.042969 C 69.429688 159.089844 70.429688 156.289062 70.230469 154.6875 C 70.03125 153.082031 68.078125 148.628906 67.277344 139.117188 C 66.476562 129.605469 67.078125 119.695312 67.578125 116.691406 C 68.078125 113.6875 68.578125 107.28125 70.78125 102.675781 C 72.984375 98.070312 72.683594 88.960938 74.183594 84.855469 C 75.683594 80.75 77.910156 74.894531 77.910156 74.894531 Z M 77.910156 74.894531 " fill-opacity="1" fill-rule="nonzero"/></g></svg>