<svg xmlns="http://www.w3.org/2000/svg" xmlns:xlink="http://www.w3.org/1999/xlink" width="250" zoomAndPan="magnify" viewBox="0 0 187.5 187.499992" height="250" preserveAspectRatio="xMidYMid meet" version="1.0"><defs><clipPath id="90433d1ac5"><path d="M 5 6.195312 L 187 6.195312 L 187 75 L 5 75 Z M 5 6.195312 " clip-rule="nonzero"/></clipPath><clipPath id="df8848a8db"><path d="M 106 109 L 151 109 L 151 180.480469 L 106 180.480469 Z M 106 109 " clip-rule="nonzero"/></clipPath><clipPath id="3728104c15"><path d="M 59 154 L 86 154 L 86 180.480469 L 59 180.480469 Z M 59 154 " clip-rule="nonzero"/></clipPath></defs><path fill="#000000" d="M 139.214844 27.953125 C 135.804688 39.511719 141.5 48.851562 141.5 48.851562 C 146.429688 37.757812 139.214844 27.953125 139.214844 27.953125 " fill-opacity="1" fill-rule="nonzero"/><path fill="#000000" d="M 130.957031 82.488281 L 132.339844 87.792969 C 132.339844 87.792969 135.492188 82.488281 136.335938 76.804688 C 136.335938 76.804688 126.65625 75.957031 120.277344 71.503906 C 120.277344 71.503906 124.582031 94.707031 123.8125 109.765625 C 123.8125 109.765625 129.652344 94.628906 130.957031 82.488281 " fill-opacity="1" fill-rule="nonzero"/><path fill="#000000" d="M 51.113281 48.851562 C 51.113281 48.851562 56.808594 39.511719 53.402344 27.953125 C 53.402344 27.953125 46.183594 37.757812 51.113281 48.851562 " fill-opacity="1" fill-rule="nonzero"/><g clip-path="url(#90433d1ac5)"><path fill="#000000" d="M 146.257812 56.183594 C 145.007812 57.066406 143.515625 57.691406 141.914062 57.957031 C 141.121094 58.121094 140.28125 58.054688 139.480469 58 L 138.3125 57.8125 L 137.140625 57.488281 C 135.578125 56.921875 134.257812 55.835938 133.234375 54.84375 C 132.21875 53.808594 131.253906 52.929688 130.167969 52.125 C 127.96875 50.574219 125.371094 49.445312 122.679688 48.371094 C 125.570312 48.445312 128.496094 49.070312 131.183594 50.5 C 132.535156 51.195312 133.722656 52.214844 134.800781 53.117188 C 135.863281 54.046875 136.820312 54.789062 137.972656 55.175781 C 140.382812 56.0625 142.886719 55.777344 145.273438 54.546875 C 147.644531 53.320312 149.777344 51.433594 151.773438 49.359375 C 150.605469 52.007812 148.78125 54.4375 146.257812 56.183594 Z M 111.980469 40.703125 C 128.578125 42.429688 129.292969 25.046875 140.972656 24.738281 C 147.546875 24.566406 150.226562 29.644531 151.308594 34.121094 C 153.1875 41.851562 149.242188 49.921875 141.796875 52.734375 C 140.859375 53.089844 140.253906 53.214844 140.253906 53.214844 C 140.253906 53.214844 134.3125 45.328125 125.296875 45.53125 C 116.28125 45.738281 111.980469 40.703125 111.980469 40.703125 Z M 67.316406 45.53125 C 58.300781 45.328125 52.359375 53.214844 52.359375 53.214844 C 52.359375 53.214844 51.753906 53.089844 50.816406 52.734375 C 43.375 49.921875 39.429688 41.851562 41.304688 34.121094 C 42.390625 29.644531 45.070312 24.566406 51.640625 24.738281 C 63.320312 25.046875 64.039062 42.429688 80.632812 40.703125 C 80.632812 40.703125 76.332031 45.738281 67.316406 45.53125 Z M 62.449219 52.125 C 61.359375 52.929688 60.398438 53.808594 59.378906 54.84375 C 58.355469 55.835938 57.039062 56.921875 55.472656 57.488281 L 54.300781 57.8125 L 53.132812 58 C 52.332031 58.054688 51.496094 58.121094 50.699219 57.957031 C 49.097656 57.691406 47.609375 57.066406 46.355469 56.183594 C 43.832031 54.4375 42.007812 52.007812 40.839844 49.359375 C 42.839844 51.433594 44.96875 53.320312 47.339844 54.546875 C 49.726562 55.777344 52.230469 56.0625 54.640625 55.175781 C 55.792969 54.789062 56.75 54.046875 57.816406 53.117188 C 58.890625 52.214844 60.078125 51.195312 61.429688 50.5 C 64.117188 49.070312 67.042969 48.445312 69.933594 48.371094 C 67.242188 49.445312 64.644531 50.574219 62.449219 52.125 Z M 155.46875 41.539062 C 155.46875 41.539062 155.46875 16.644531 142.714844 16.339844 C 129.960938 16.03125 119.511719 32.011719 119.511719 32.011719 C 124.425781 22.636719 133.800781 16.183594 133.800781 16.183594 C 113.363281 6.195312 96.308594 6.910156 96.308594 6.910156 C 96.308594 6.910156 79.25 6.195312 58.8125 16.183594 C 58.8125 16.183594 68.1875 22.636719 73.105469 32.011719 C 73.105469 32.011719 62.65625 16.03125 49.902344 16.339844 C 37.148438 16.644531 37.148438 41.539062 37.148438 41.539062 C 37.148438 41.539062 15.171875 35.699219 5.644531 60.902344 C 5.644531 60.902344 17.425781 48.09375 26.648438 57.722656 C 35.867188 67.355469 46.316406 79.851562 65.371094 72.066406 C 84.421875 64.28125 85.859375 60.59375 96.308594 60.59375 C 106.757812 60.59375 108.191406 64.28125 127.246094 72.066406 C 146.296875 79.851562 156.75 67.355469 165.96875 57.722656 C 175.1875 48.09375 186.96875 60.902344 186.96875 60.902344 C 177.441406 35.699219 155.46875 41.539062 155.46875 41.539062 " fill-opacity="1" fill-rule="nonzero"/></g><path fill="#000000" d="M 56.277344 76.804688 C 57.125 82.488281 60.273438 87.792969 60.273438 87.792969 L 61.65625 82.488281 C 62.960938 94.628906 68.800781 109.765625 68.800781 109.765625 C 68.035156 94.707031 72.335938 71.503906 72.335938 71.503906 C 65.957031 75.957031 56.277344 76.804688 56.277344 76.804688 " fill-opacity="1" fill-rule="nonzero"/><path fill="#000000" d="M 70.410156 146.660156 C 43.058594 145.433594 37.835938 116.566406 14.476562 122.085938 C 14.476562 122.085938 30.457031 121.613281 36.453125 137.441406 C 36.453125 137.441406 13.863281 132.679688 0.0351562 143.894531 C 0.0351562 143.894531 29.382812 138.253906 44.289062 146.683594 C 59.191406 155.113281 104.832031 165.410156 98.070312 97.488281 C 98.070312 97.488281 97.761719 147.890625 70.410156 146.660156 " fill-opacity="1" fill-rule="nonzero"/><g clip-path="url(#df8848a8db)"><path fill="#000000" d="M 140.941406 115.238281 C 138.277344 118.128906 136.085938 121.453125 134.375 124.9375 C 133.460938 126.664062 132.777344 128.46875 132.003906 130.253906 C 131.359375 132.066406 130.722656 133.894531 130.152344 135.730469 C 129.644531 137.574219 129.160156 139.433594 128.699219 141.292969 L 127.605469 146.910156 C 126.929688 150.492188 126.371094 153.96875 125.460938 157.382812 L 125.164062 158.675781 L 124.765625 159.921875 C 124.492188 160.746094 124.246094 161.582031 123.996094 162.425781 C 123.78125 163.285156 123.371094 164.027344 123.078125 164.84375 C 122.742188 165.632812 122.507812 166.5 122.085938 167.234375 C 120.671875 170.367188 118.800781 173.210938 116.363281 175.570312 C 116.074219 175.898438 115.753906 176.167969 115.410156 176.417969 L 114.402344 177.21875 C 114.054688 177.46875 113.679688 177.671875 113.3125 177.90625 C 112.941406 178.144531 112.566406 178.371094 112.167969 178.546875 C 110.597656 179.34375 108.847656 179.894531 106.960938 180.058594 C 108.757812 180.714844 110.789062 180.800781 112.753906 180.503906 C 113.257812 180.460938 113.75 180.363281 114.230469 180.214844 C 114.710938 180.078125 115.214844 179.964844 115.695312 179.800781 L 117.097656 179.210938 C 117.578125 179.019531 118.042969 178.800781 118.46875 178.523438 C 122.027344 176.503906 124.953125 173.453125 127.132812 170.09375 C 131.542969 163.34375 133.574219 155.589844 134.882812 148.113281 L 135.816406 142.777344 L 136.90625 137.496094 L 138.164062 132.273438 L 138.925781 129.71875 C 139.167969 128.859375 139.390625 127.988281 139.707031 127.164062 C 140.773438 123.761719 142.152344 120.503906 143.839844 117.386719 C 145.574219 114.316406 147.589844 111.261719 150.804688 109.273438 C 148.878906 109.4375 147.082031 110.375 145.414062 111.402344 C 143.800781 112.5 142.253906 113.78125 140.941406 115.238281 " fill-opacity="1" fill-rule="nonzero"/></g><path fill="#000000" d="M 47.199219 111.402344 C 45.53125 110.375 43.738281 109.4375 41.808594 109.273438 C 45.023438 111.261719 47.042969 114.316406 48.773438 117.386719 C 50.460938 120.503906 51.839844 123.761719 52.90625 127.164062 C 53.222656 127.988281 53.449219 128.859375 53.691406 129.71875 L 54.449219 132.273438 L 55.707031 137.496094 L 56.289062 140.3125 C 58.730469 141.609375 61.375 142.664062 64.316406 143.351562 L 63.917969 141.292969 C 63.453125 139.433594 62.972656 137.574219 62.460938 135.730469 C 61.890625 133.894531 61.253906 132.066406 60.609375 130.253906 C 59.835938 128.46875 59.152344 126.664062 58.242188 124.9375 C 56.53125 121.453125 54.335938 118.128906 51.671875 115.238281 C 50.363281 113.78125 48.816406 112.5 47.199219 111.402344 " fill-opacity="1" fill-rule="nonzero"/><g clip-path="url(#3728104c15)"><path fill="#000000" d="M 79.304688 177.90625 C 78.9375 177.671875 78.5625 177.46875 78.214844 177.21875 L 77.203125 176.417969 C 76.863281 176.167969 76.539062 175.898438 76.25 175.570312 C 73.8125 173.210938 71.941406 170.367188 70.527344 167.234375 C 70.109375 166.5 69.871094 165.632812 69.539062 164.84375 C 69.242188 164.027344 68.835938 163.285156 68.621094 162.425781 C 68.367188 161.582031 68.121094 160.746094 67.847656 159.921875 L 67.449219 158.675781 L 67.152344 157.382812 C 66.964844 156.675781 66.800781 155.964844 66.636719 155.25 C 64.046875 155.191406 61.496094 154.902344 59.054688 154.449219 C 60.378906 159.867188 62.308594 165.238281 65.484375 170.09375 C 67.660156 173.453125 70.589844 176.503906 74.148438 178.523438 C 74.574219 178.800781 75.035156 179.019531 75.515625 179.210938 L 76.917969 179.800781 C 77.398438 179.964844 77.902344 180.078125 78.382812 180.214844 C 78.863281 180.363281 79.355469 180.460938 79.859375 180.503906 C 81.828125 180.800781 83.859375 180.714844 85.652344 180.058594 C 83.765625 179.894531 82.019531 179.34375 80.449219 178.546875 C 80.046875 178.371094 79.671875 178.144531 79.304688 177.90625 " fill-opacity="1" fill-rule="nonzero"/></g></svg>