<svg xmlns="http://www.w3.org/2000/svg" xmlns:xlink="http://www.w3.org/1999/xlink" width="250" zoomAndPan="magnify" viewBox="0 0 187.5 187.499992" height="250" preserveAspectRatio="xMidYMid meet" version="1.0"><defs><clipPath id="fbf2b4550f"><path d="M 2 60.351562 L 185 60.351562 L 185 126.921875 L 2 126.921875 Z M 2 60.351562 " clip-rule="nonzero"/></clipPath><clipPath id="b8fc1151f5"><path d="M 1 60.351562 L 186 60.351562 L 186 126.921875 L 1 126.921875 Z M 1 60.351562 " clip-rule="nonzero"/></clipPath></defs><g clip-path="url(#fbf2b4550f)"><path fill="#000000" d="M 93.765625 60.964844 C 93.960938 60.6875 94.261719 60.351562 94.664062 60.617188 C 97.269531 61.394531 99.320312 63.28125 101.410156 64.9375 C 102.6875 65.921875 103.886719 66.996094 105.019531 68.144531 C 107.636719 70.542969 110.070312 73.113281 112.6875 75.507812 C 113.066406 75.796875 113.425781 76.203125 113.917969 76.320312 C 115.972656 76.78125 118.105469 76.78125 120.203125 76.851562 C 129.441406 76.78125 138.675781 77.683594 147.75 79.433594 C 149.734375 79.652344 151.625 80.40625 153.617188 80.648438 C 157.238281 81.597656 160.871094 82.492188 164.433594 83.625 C 166.613281 84.414062 168.910156 84.828125 171.085938 85.605469 C 172.96875 86.207031 174.800781 86.960938 176.609375 87.734375 C 178.257812 88.605469 180 89.324219 181.546875 90.410156 C 182.835938 91.300781 184.335938 92.320312 184.703125 93.964844 C 185.039062 94.765625 184.324219 95.34375 183.828125 95.828125 C 182.894531 96.5 181.765625 96.792969 180.738281 97.253906 C 180.75 97.335938 180.773438 97.484375 180.796875 97.566406 C 181.984375 97.753906 183.113281 97.289062 184.300781 97.253906 C 185.039062 97.542969 185.246094 98.65625 184.648438 99.199219 C 183.898438 100.4375 182.570312 101.144531 181.328125 101.78125 C 179.839844 102.605469 178.179688 103.019531 176.574219 103.578125 C 166.945312 106.554688 157.375 107.636719 148.234375 110.453125 C 147.566406 110.605469 147.230469 111.21875 146.769531 111.648438 C 146.148438 112.25 145.71875 113.011719 145.28125 113.753906 C 143.785156 115.851562 142.167969 117.855469 140.460938 119.789062 C 139.746094 120.402344 138.929688 121.351562 137.878906 120.945312 C 137.097656 120.726562 136.75 119.902344 136.667969 119.164062 C 136.601562 117.101562 136.507812 115.027344 136.691406 112.96875 C 134.316406 113.328125 131.953125 113.824219 129.542969 113.929688 C 127.824219 114.03125 126.140625 114.390625 124.425781 114.578125 C 122.257812 114.820312 120.101562 115.273438 117.898438 115.292969 C 113.65625 115.269531 109.398438 115.710938 105.167969 115.203125 C 104.835938 116.253906 104.117188 117.101562 103.472656 117.96875 C 102.609375 118.953125 102.113281 120.296875 100.960938 120.992188 C 100.164062 121.386719 99.566406 120.585938 99.300781 119.949219 C 99.09375 119.707031 98.917969 119.011719 98.457031 119.171875 C 95.46875 121.269531 93.75 124.3125 90.097656 126.527344 C 89.613281 126.851562 88.921875 126.828125 88.496094 126.421875 C 87.550781 125.300781 87.609375 123.746094 87.941406 122.394531 C 88.453125 118.546875 88.238281 116.769531 90.214844 113.535156 C 89.003906 113.28125 87.769531 113.246094 86.546875 113.082031 C 83.214844 112.398438 79.835938 112.039062 76.445312 111.773438 C 73.621094 111.519531 70.761719 111.136719 67.925781 111.542969 C 67.070312 111.613281 66.378906 112.121094 65.640625 112.46875 C 64.269531 113.105469 62.976562 113.871094 61.722656 114.703125 C 60.707031 115.386719 59.566406 115.839844 58.527344 116.476562 C 56.648438 117.574219 54.699219 118.535156 52.738281 119.453125 C 50.835938 120.113281 49.074219 121.128906 47.203125 121.894531 C 46.421875 122.207031 45.441406 122.21875 44.726562 121.746094 C 43.769531 120.839844 43.492188 119.507812 43.066406 118.316406 C 42.570312 116.730469 41.820312 115.226562 41.566406 113.570312 C 41.382812 111.761719 41.382812 109.945312 41.613281 108.140625 C 41.683594 107.6875 41.542969 107.246094 41.371094 106.84375 C 41.683594 106.496094 41.878906 105.890625 42.488281 106.03125 C 43.847656 105.960938 45.234375 105.765625 46.386719 104.988281 C 45.289062 104.480469 44.082031 104.351562 42.914062 104.097656 C 41.382812 103.761719 39.824219 103.609375 38.269531 103.449219 C 36.03125 103.230469 33.796875 103.507812 31.582031 103.796875 C 30.460938 103.980469 29.460938 104.5625 28.351562 104.828125 C 26.390625 105.3125 24.535156 106.160156 22.554688 106.621094 C 20.523438 107.097656 18.644531 108.046875 16.648438 108.671875 C 15.070312 109.144531 13.488281 109.75 11.839844 109.898438 C 9.59375 110.164062 7.34375 110.429688 5.097656 110.699219 C 4.058594 110.722656 3.03125 110.664062 2.003906 110.59375 C 2.316406 109.816406 2.6875 109.054688 2.675781 108.195312 C 3.902344 103.742188 5.164062 100.019531 6.480469 95.714844 C 6.59375 94.878906 6.261719 94.09375 6.179688 93.28125 C 3.804688 87.714844 4.21875 83.460938 4.160156 77.199219 C 4.3125 76.421875 5.394531 76.386719 6.019531 76.445312 C 9.535156 76.851562 13.015625 77.824219 16.199219 79.398438 C 18.21875 80.289062 20.246094 81.183594 22.089844 82.398438 C 24.59375 83.765625 26.75 85.835938 29.539062 86.636719 C 31.824219 87.238281 34.164062 87.734375 36.539062 87.78125 C 39.007812 87.769531 41.496094 87.804688 43.929688 87.355469 C 42.617188 86.878906 41.164062 86.742188 39.941406 86.023438 C 39.328125 85.675781 39.605469 84.75 40.03125 84.355469 C 40.898438 83.277344 42.398438 83.289062 43.640625 83.195312 C 44.75 83.128906 45.808594 83.554688 46.871094 83.824219 C 48.867188 84.390625 50.8125 85.433594 52.945312 85.164062 C 54.769531 84.875 56.625 84.875 58.457031 84.574219 C 60.328125 84.273438 62.207031 84.101562 64.0625 83.695312 C 65.34375 83.695312 66.621094 83.542969 67.867188 83.253906 C 69.851562 82.917969 71.867188 82.769531 73.816406 82.28125 C 76.445312 81.726562 79.132812 81.597656 81.773438 81.089844 C 83.375 80.742188 85.035156 80.582031 86.617188 80.105469 C 85.210938 79.675781 83.734375 79.492188 82.316406 79.109375 C 81.3125 78.738281 80.273438 78.496094 79.28125 78.101562 C 79.257812 77.546875 79.5 77.023438 79.777344 76.5625 C 80.402344 75.820312 81.324219 75.414062 81.992188 74.734375 C 85.652344 70.667969 93.519531 62.175781 93.765625 60.964844 Z M 93.765625 60.964844 " fill-opacity="1" fill-rule="nonzero"/></g><g clip-path="url(#b8fc1151f5)"><path stroke-linecap="butt" transform="matrix(2.334224, 0, 0, 2.344101, -0.685285, -0.596187)" fill="none" stroke-linejoin="miter" d="M 40.463515 26.262107 C 40.547188 26.143792 40.676045 26.00048 40.848413 26.113796 C 41.964616 26.445413 42.843187 27.250293 43.738492 27.956854 C 44.285717 28.376791 44.799471 28.835055 45.284777 29.324982 C 46.406001 30.348162 47.448572 31.444665 48.569795 32.466178 C 48.732122 32.589493 48.886081 32.762801 49.096938 32.812793 C 49.977182 33.00943 50.890896 33.00943 51.789548 33.039426 C 55.747301 33.00943 59.70338 33.394373 63.590847 34.140928 C 64.440969 34.234247 65.250928 34.555865 66.104396 34.659183 C 67.655702 35.064123 69.212027 35.445732 70.73823 35.928993 C 71.672026 36.265609 72.656025 36.44225 73.588147 36.773867 C 74.394758 37.030495 75.179615 37.352113 75.954431 37.682064 C 76.660635 38.053675 77.407001 38.360296 78.069695 38.82356 C 78.621939 39.203503 79.264551 39.638438 79.421857 40.339999 C 79.565776 40.681615 79.259531 40.928245 79.047 41.13488 C 78.647041 41.421504 78.163409 41.546485 77.723287 41.743123 C 77.728307 41.778117 77.738348 41.841441 77.748389 41.876436 C 78.257123 41.956424 78.740756 41.75812 79.24949 41.743123 C 79.565776 41.866437 79.654469 42.341366 79.398429 42.572998 C 79.077123 43.101253 78.508144 43.402874 77.975981 43.6745 C 77.338389 44.026114 76.627165 44.202754 75.93937 44.441052 C 71.81427 45.710862 67.714273 46.172459 63.798357 47.373946 C 63.512194 47.438936 63.368276 47.700564 63.170806 47.88387 C 62.904725 48.140498 62.720644 48.465449 62.533215 48.782069 C 61.892277 49.676935 61.199461 50.531807 60.468155 51.356683 C 60.16191 51.618311 59.812156 52.02325 59.361993 51.849943 C 59.027299 51.756623 58.87836 51.405009 58.843217 51.090056 C 58.814768 50.210188 58.774605 49.325321 58.853258 48.447119 C 57.835789 48.600429 56.823341 48.812064 55.790811 48.857057 C 55.054485 48.900384 54.33322 49.053695 53.598568 49.133683 C 52.669793 49.237 51.746038 49.430305 50.802202 49.438637 C 48.984816 49.428638 47.160735 49.616944 45.348369 49.400309 C 45.206124 49.848576 44.898206 50.210188 44.622084 50.580133 C 44.252247 51.00007 44.039717 51.573317 43.546044 51.86994 C 43.204656 52.038248 42.948615 51.696632 42.834819 51.425006 C 42.746126 51.321688 42.67082 51.025066 42.47335 51.093389 C 41.193147 51.988255 40.456821 53.286394 38.892128 54.231253 C 38.684618 54.369565 38.388414 54.359567 38.206006 54.186259 C 37.801027 53.707998 37.826129 53.044764 37.968374 52.468183 C 38.187598 50.826762 38.095557 50.068543 38.942332 48.688749 C 38.423557 48.580432 37.894741 48.565434 37.370945 48.495445 C 35.943477 48.203822 34.495927 48.050511 33.043356 47.937195 C 31.833439 47.828878 30.60846 47.665569 29.393522 47.838876 C 29.027032 47.868872 28.730829 48.085506 28.414543 48.233817 C 27.827156 48.505443 27.273238 48.832061 26.736054 49.187008 C 26.300953 49.478631 25.8123 49.671935 25.367157 49.943561 C 24.562219 50.411825 23.727158 50.821763 22.887077 51.213371 C 22.072098 51.494996 21.317364 51.928264 20.515773 52.254882 C 20.181079 52.388195 19.761038 52.393195 19.454794 52.191558 C 19.044794 51.804949 18.925978 51.236701 18.74357 50.728444 C 18.531039 50.051878 18.209733 49.410308 18.100958 48.703747 C 18.022305 47.932196 18.022305 47.157312 18.121039 46.387427 C 18.151162 46.194123 18.090917 46.005818 18.017284 45.834177 C 18.151162 45.685866 18.234835 45.427571 18.495896 45.487562 C 19.078263 45.457566 19.672344 45.374246 20.166018 45.042629 C 19.695773 44.825994 19.178671 44.771003 18.678304 44.662685 C 18.022305 44.519374 17.354591 44.454383 16.68855 44.38606 C 15.729653 44.292741 14.772429 44.411056 13.823573 44.534371 C 13.343287 44.612693 12.914879 44.860989 12.439614 44.974305 C 11.599533 45.180941 10.804636 45.542554 9.956187 45.739191 C 9.085984 45.942494 8.281046 46.347433 7.425903 46.61406 C 6.749822 46.815696 6.072067 47.073991 5.365864 47.137315 C 4.40362 47.250631 3.439702 47.363948 2.477458 47.47893 C 2.032315 47.488929 1.592193 47.463933 1.152071 47.433937 C 1.285948 47.10232 1.444928 46.777369 1.439907 46.410757 C 1.965376 44.511041 2.505906 42.922946 3.069865 41.086554 C 3.118396 40.729941 2.976151 40.394991 2.941008 40.048376 C 1.92354 37.673732 2.100927 35.859004 2.075825 33.187737 C 2.14109 32.85612 2.604641 32.841122 2.872396 32.866118 C 4.378518 33.039426 5.869578 33.454364 7.233454 34.12593 C 8.098638 34.505873 8.967168 34.887482 9.757045 35.405738 C 10.829738 35.988984 11.753492 36.872185 12.948349 37.213801 C 13.927328 37.470429 14.929735 37.682064 15.947204 37.702061 C 17.004836 37.697062 18.070835 37.71206 19.113406 37.520422 C 18.551121 37.317119 17.928591 37.258794 17.404795 36.952173 C 17.14206 36.803862 17.260877 36.408921 17.443285 36.240613 C 17.814795 35.780682 18.457407 35.785681 18.989569 35.745687 C 19.464834 35.717358 19.918344 35.898998 20.373528 36.01398 C 21.22867 36.255611 22.062057 36.700544 22.975771 36.585562 C 23.757281 36.462247 24.552178 36.462247 25.337035 36.333933 C 26.138626 36.205618 26.943564 36.132296 27.738462 35.958989 C 28.287359 35.958989 28.834584 35.893998 29.36842 35.770684 C 30.218542 35.627372 31.082051 35.564048 31.917112 35.355746 C 33.043356 35.119114 34.194703 35.064123 35.325967 34.847488 C 36.012089 34.699177 36.723313 34.630854 37.401068 34.427551 C 36.798619 34.244245 36.166048 34.165924 35.558579 34.002615 C 35.128498 33.844305 34.683355 33.740987 34.258294 33.572679 C 34.248254 33.336048 34.352009 33.112748 34.470825 32.916111 C 34.73858 32.599492 35.133518 32.426184 35.419681 32.136228 C 36.987721 30.401488 40.358086 26.778697 40.463515 26.262107 Z M 40.463515 26.262107 " stroke="#000000" stroke-width="0.005" stroke-opacity="1" stroke-miterlimit="4"/></g></svg>