<svg xmlns="http://www.w3.org/2000/svg" xmlns:xlink="http://www.w3.org/1999/xlink" width="250" zoomAndPan="magnify" viewBox="0 0 187.5 187.499992" height="250" preserveAspectRatio="xMidYMid meet" version="1.0"><defs><clipPath id="11b5f55256"><path d="M 0 47.179688 L 187 47.179688 L 187 133.949219 L 0 133.949219 Z M 0 47.179688 " clip-rule="nonzero"/></clipPath></defs><g clip-path="url(#11b5f55256)"><path fill="#000000" d="M 85.242188 125.816406 C 89.179688 124.953125 92.886719 123.390625 96.566406 121.804688 C 99.882812 120.375 103.183594 118.882812 106.355469 117.164062 C 108.46875 116.023438 110.59375 115.652344 112.898438 115.921875 C 119.878906 116.722656 126.78125 116.039062 133.589844 114.574219 C 137.839844 113.65625 142.164062 113.609375 146.425781 112.914062 C 154.730469 111.558594 162.382812 108.539062 169.597656 104.292969 C 170.675781 103.660156 170.777344 103.113281 169.566406 102.566406 C 169.125 102.367188 168.59375 102.328125 168.371094 101.8125 C 168.460938 101.417969 168.792969 101.433594 169.054688 101.453125 C 174.765625 101.800781 179.433594 99.0625 184.078125 96.328125 C 185.402344 95.546875 187.015625 94.660156 186.824219 92.867188 C 186.632812 91.082031 184.824219 90.597656 183.433594 89.996094 C 177.371094 87.390625 171.054688 85.484375 164.714844 83.683594 C 150.328125 79.59375 135.804688 76.078125 120.976562 73.960938 C 119.503906 73.75 118.011719 73.351562 116.550781 73.445312 C 114.007812 73.605469 112.660156 72.402344 111.347656 70.363281 C 106.976562 63.574219 102.207031 57.066406 96.285156 51.5 C 94.308594 49.636719 92.1875 47.984375 89.378906 47.574219 C 88.550781 47.449219 87.53125 47.191406 86.945312 47.871094 C 86.28125 48.632812 87.292969 49.242188 87.5625 49.914062 C 89.808594 55.507812 90.871094 61.308594 90.5 67.316406 C 90.324219 70.21875 88.957031 72.601562 86.460938 74.195312 C 85.339844 74.910156 85.078125 75.535156 86.636719 76.445312 C 78.382812 78.707031 70.714844 81.605469 63.125 84.703125 C 62.335938 85.027344 61.496094 85.25 60.765625 85.671875 C 57.777344 87.40625 55.070312 88.097656 51.988281 85.414062 C 50.042969 83.722656 49.210938 84.429688 49.300781 87.101562 C 49.402344 89.921875 48.511719 91.328125 45.898438 92.460938 C 44.152344 93.21875 42.335938 94.675781 40.664062 94.527344 C 38.910156 94.375 38.097656 91.929688 36.789062 90.570312 C 28.25 81.683594 18.226562 74.871094 7.269531 69.339844 C 6.765625 69.085938 6.234375 68.871094 5.707031 68.671875 C 2.496094 67.453125 2.402344 67.5 1.691406 70.847656 C 1.550781 71.5 1.191406 72 0.820312 72.515625 C 0.511719 72.957031 0.03125 73.332031 0.0976562 74.132812 C 3.691406 73.480469 6.222656 75.417969 8.589844 77.59375 C 13.925781 82.5 17.601562 88.640625 21.175781 94.835938 C 22.554688 97.222656 23.34375 100.128906 25.199219 102.023438 C 28.714844 105.605469 28.160156 109.800781 28.015625 114.007812 C 27.894531 117.609375 27.488281 121.203125 26.253906 124.632812 C 25.160156 127.671875 23.617188 130.425781 20.765625 132.214844 C 20.414062 132.433594 19.9375 132.625 20.152344 133.152344 C 20.324219 133.582031 20.796875 133.667969 21.226562 133.714844 C 23.128906 133.917969 24.671875 133.007812 26.148438 132.027344 C 30.667969 129.046875 34.191406 125.136719 36.808594 120.410156 C 39.222656 116.0625 40.878906 111.40625 42.398438 106.6875 C 42.679688 105.824219 42.667969 104.316406 43.992188 104.605469 C 45.078125 104.84375 46.984375 103.808594 47.214844 106.132812 C 47.269531 106.722656 48.121094 106.722656 48.625 106.925781 C 52.242188 108.363281 52.878906 109.367188 52.460938 113.117188 C 52.421875 113.464844 52.25 113.84375 52.628906 114.058594 C 53.054688 114.300781 53.453125 114.015625 53.820312 113.816406 C 55.980469 112.628906 57.875 111.019531 58.875 108.8125 C 59.804688 106.761719 61.039062 106.726562 62.910156 107.078125 C 71.96875 108.796875 80.878906 111.148438 89.878906 113.105469 C 91.128906 113.375 92.382812 113.609375 93.636719 113.839844 C 94.988281 114.085938 95.167969 114.546875 94.125 115.546875 C 91.828125 117.753906 89.574219 120.003906 87.359375 122.289062 C 86.449219 123.230469 85.675781 124.308594 84.839844 125.328125 C 84.976562 125.484375 85.109375 125.648438 85.242188 125.816406 Z M 85.242188 125.816406 " fill-opacity="1" fill-rule="nonzero"/></g></svg>