<svg xmlns="http://www.w3.org/2000/svg" xmlns:xlink="http://www.w3.org/1999/xlink" width="500" zoomAndPan="magnify" viewBox="0 0 375 374.999991" height="500" preserveAspectRatio="xMidYMid meet" version="1.0"><path fill="#fdd340" d="M 112.5 300 C 91.78125 300 75.1875 316.78125 75.1875 337.5 C 75.1875 358.21875 91.78125 375 112.5 375 C 133.21875 375 150 358.21875 150 337.5 C 150 316.78125 133.21875 300 112.5 300 Z M 0 0 L 0 37.5 L 37.5 37.5 L 104.90625 179.71875 L 79.59375 225.65625 C 76.6875 231.09375 75 237.1875 75 243.75 C 75 264.46875 91.78125 281.25 112.5 281.25 L 337.5 281.25 L 337.5 243.75 L 120.46875 243.75 C 117.84375 243.75 115.78125 241.6875 115.78125 239.0625 C 115.78125 238.21875 115.96875 237.46875 116.34375 236.8125 L 133.125 206.25 L 272.8125 206.25 C 286.875 206.25 299.15625 198.46875 305.625 186.9375 L 372.65625 65.25 C 374.15625 62.625 375 59.53125 375 56.25 C 375 45.84375 366.5625 37.5 356.25 37.5 L 79.03125 37.5 L 61.21875 0 Z M 300 300 C 279.28125 300 262.6875 316.78125 262.6875 337.5 C 262.6875 358.21875 279.28125 375 300 375 C 320.71875 375 337.5 358.21875 337.5 337.5 C 337.5 316.78125 320.71875 300 300 300 Z M 300 300 " fill-opacity="1" fill-rule="nonzero"/></svg>