<svg width="120" height="116" viewBox="0 0 120 116" fill="none" xmlns="http://www.w3.org/2000/svg">
<g filter="url(#filter0_i_3_26)">
<path d="M81.7626 74.756C81.4667 78.9987 80.2827 82.3533 78.2107 84.82C76.1387 87.2373 73.524 88.964 70.3667 90C67.2587 90.9867 63.904 91.48 60.3026 91.48C57.7373 91.48 54.95 90.814 51.9406 89.482C48.9806 88.15 46.0946 86.152 43.2826 83.488C40.4706 80.824 38.004 77.4693 35.8826 73.424L36.4006 72.906C38.374 74.4353 40.4706 75.8167 42.6906 77.05C44.96 78.2833 47.2046 79.344 49.4246 80.232C51.6446 81.0707 53.692 81.712 55.5666 82.156C57.4906 82.6 59.0446 82.822 60.2287 82.822C62.5473 82.822 64.496 82.2793 66.0747 81.194C67.7027 80.1087 68.64 78.308 68.8866 75.792V75.57C68.8866 74.4847 68.1713 73.35 66.7407 72.166C65.31 70.9327 63.4353 69.6253 61.1167 68.244C58.8473 66.8627 56.43 65.4073 53.8646 63.878C51.3486 62.3487 48.956 60.77 46.6866 59.142C44.4173 57.4647 42.5426 55.738 41.0626 53.962C39.632 52.186 38.9166 50.336 38.9166 48.412C38.9166 48.1653 38.9166 47.968 38.9166 47.82C38.9166 47.6227 38.9413 47.4253 38.9906 47.228C39.5826 43.9227 40.89 41.0367 42.9126 38.57C44.9846 36.1033 47.4513 34.1793 50.3126 32.798C53.2233 31.4167 56.2326 30.726 59.3406 30.726C62.498 30.726 65.8773 31.2193 69.4787 32.206C73.1293 33.1433 76.854 34.5 80.6527 36.276L76.5087 48.338C72.6607 44.5887 69.3553 41.826 66.5927 40.05C63.83 38.274 61.2153 37.386 58.7486 37.386C56.0846 37.386 54.0373 38.052 52.6066 39.384C51.2253 40.6667 50.436 42.8373 50.2386 45.896V46.118C50.2386 47.2527 50.806 48.3873 51.9406 49.522C53.0753 50.6567 54.58 51.816 56.4546 53C58.3293 54.1347 60.3766 55.3187 62.5966 56.552C64.866 57.736 67.1106 58.994 69.3307 60.326C71.6 61.6087 73.672 62.99 75.5466 64.47C77.4213 65.9007 78.926 67.43 80.0606 69.058C81.1953 70.6367 81.7626 72.3387 81.7626 74.164V74.756Z" fill="#206DEB"/>
</g>
<defs>
<filter id="filter0_i_3_26" x="35.8826" y="30.726" width="45.88" height="64.754" filterUnits="userSpaceOnUse" color-interpolation-filters="sRGB">
<feFlood flood-opacity="0" result="BackgroundImageFix"/>
<feBlend mode="normal" in="SourceGraphic" in2="BackgroundImageFix" result="shape"/>
<feColorMatrix in="SourceAlpha" type="matrix" values="0 0 0 0 0 0 0 0 0 0 0 0 0 0 0 0 0 0 127 0" result="hardAlpha"/>
<feOffset dy="4"/>
<feGaussianBlur stdDeviation="2"/>
<feComposite in2="hardAlpha" operator="arithmetic" k2="-1" k3="1"/>
<feColorMatrix type="matrix" values="0 0 0 0 0 0 0 0 0 0 0 0 0 0 0 0 0 0 0.59 0"/>
<feBlend mode="normal" in2="shape" result="effect1_innerShadow_3_26"/>
</filter>
</defs>
</svg>
